M48
;Layer_Color=9474304
;FILE_FORMAT=2:5
INCH,TZ
;TYPE=PLATED
T1F00S00C0.01181
T2F00S00C0.03200
T3F00S00C0.03500
T4F00S00C0.03543
T5F00S00C0.03800
T6F00S00C0.03937
T7F00S00C0.04331
T8F00S00C0.05100
T9F00S00C0.05315
T10F00S00C0.05512
T11F00S00C0.06299
T12F00S00C0.08858
;TYPE=NON_PLATED
T13F00S00C0.12795
T14F00S00C0.13386
T15F00S00C0.17717
T16F00S00C0.35433
%
T01
X7480Y253937
X20472Y266142
X35827Y270079
X54527Y273622
X68504Y253150
X98032Y280315
X54724Y311811
X34646Y309842
X20472Y305906
X6299Y313386
X7874Y362598
X55244Y351417
X757874Y250394
X764961
X772047
X778398Y250247
X55343Y391000
X55190Y431380
X55339Y471248
X55227Y510895
X6693Y481496
Y401181
X7874Y523228
X7087Y560236
Y602362
X54517Y591172
X55480Y550714
X93701Y614961
X129134Y614961
X129134Y618504
Y621654
X96457Y676378
X86221Y676772
X40945Y666142
Y663779
X9055Y673228
X151969Y675984
X173228Y672047
X193307Y661024
X176772Y641732
X178740Y626772
X181102Y609449
X185827Y588189
X179921Y565748
X194095Y565354
X216535Y574803
X162205Y522441
X148819Y616142
Y619685
Y622835
X143307Y615354
X331496Y635827
X333465Y637795
Y642520
X331496Y644488
X331890Y662205
X333858Y664173
Y668898
X331890Y670866
X431890Y620472
Y617717
X435827
Y620472
X439370
Y617717
X443307
Y620472
X446850
Y617717
X614567Y760630
X614961Y765748
X611024Y781496
X624803Y777559
X629528Y784252
X636614Y794882
X654331Y784646
X670866
X664567Y777559
X673317Y759842
X677073
X675536Y745577
X683125Y745577
X682677Y733858
X675591Y733465
X664173Y723622
X705905Y736614
X706693Y742126
X696457Y788583
X701181Y794095
X700787Y806693
X731102
X731496Y792126
X742520Y796457
Y802362
X741339Y829921
X747244Y758661
X678346Y794882
X657087Y805906
X616142Y804331
X587795Y783858
X582677
X583465Y769291
X590378Y767455
X590945Y756693
X583071Y756299
X572835Y746457
X524409Y783071
Y788583
X522441Y800787
X536221Y797244
X540945Y803937
X548819Y815354
X527559Y825197
X498819Y806299
X494095
X494095Y791339
X501854Y791469
X501575Y779528
X494488
X483858Y768898
X444488Y722835
Y719291
Y715748
X440945
Y719291
Y722835
X436221
X432677
Y719291
X436221
Y715748
X432677
X383482Y739528
X353543Y739764
X335039Y695276
X332677Y696457
Y689370
X335039Y690551
X309842Y831102
X296457Y831496
X277165Y824398
X251575Y807480
X251181Y801181
X238189Y801968
X238448Y807946
X220866Y801575
X219291Y814567
X201181Y809842
X187402Y814173
X192126Y787795
X193307Y780315
X204724Y780709
X205118Y787402
X228346Y786221
X179528Y781496
X173622Y783071
X185433Y759842
X195669Y757087
X201181Y757480
X182283Y720079
X182677Y714173
X162598Y715354
X159055
X155118
X138976Y763779
X125984Y759055
X123232Y715039
X118115Y714975
X113594Y714920
X70079Y681102
X37795Y725197
Y727559
X9055Y730315
Y700787
Y788189
Y817717
X8661Y851181
Y878740
Y908268
X69685Y909055
X97244
X99213Y892520
X102362
X105512
X119291Y874016
Y869685
X118898Y864173
X85827Y856299
X126772Y909055
X160236Y909449
X187795
X217323
X247638
X249213Y894882
X258503Y897860
X261024Y875591
X261811Y868110
X249380Y867452
X249503Y876311
X246457Y848032
X240158Y840945
X237795Y839370
X252362Y839764
X262220Y849564
X266142Y849213
X268110Y835433
X278740Y843307
X275197Y909449
X207087Y878740
X170079Y871260
Y866535
Y861417
Y856299
X145276Y863780
X144882Y866535
Y870079
X144488Y874016
X287402Y885827
X310365Y872048
X310630Y856299
X309842Y848425
X298169Y848380
X297754Y856058
X324410Y864567
X336221Y855512
X338189Y909842
X365748
X395276
X431102
X436614Y859055
X414961Y835039
X304724Y909449
X458661Y909842
X488189
X521654Y910236
X549213
X578740
X585039Y861024
X606299Y850000
X606653Y842201
X615748Y890551
X613386Y894094
X609055Y910236
X636614
X666142
X699606Y910630
X727165
X723622Y852756
X734646Y846457
X742126Y839764
X711811Y834646
X656683Y863376
X655013Y861706
X756693Y910630
T02
X762402Y770669
Y778543
Y786417
Y794291
X708858Y702559
X700984
X693110
X685236
X616732Y725787
X608858
X600984
X593110
X527362Y748228
X519488
X511614
X503740
T03
X11417Y266929
Y296929
Y306929
Y336929
X11339Y346929
Y376929
Y386929
Y416929
Y426929
Y456929
Y466929
Y496929
Y506929
Y536929
Y546929
Y576929
Y586929
Y616929
T04
X20079Y655134
Y663134
Y671134
X27079Y675134
Y667134
Y659134
Y683134
X20079Y679134
Y717134
Y725134
Y733134
Y741134
X27079Y737134
Y729134
Y721134
Y745134
T05
X41417Y266929
Y276929
Y286929
Y296929
Y306929
Y316929
Y326929
Y336929
X41339Y346929
Y356929
Y366929
Y376929
Y386929
Y396929
Y406929
Y416929
Y426929
Y436929
Y446929
Y456929
Y466929
Y476929
Y486929
Y496929
Y506929
Y516929
Y526929
Y536929
Y546929
Y556929
Y566929
Y576929
Y586929
Y596929
Y606929
Y616929
T06
X206705Y594842
Y607441
Y620039
Y632638
Y645236
X218504Y638937
Y651535
Y674122
X206705Y667823
X218504Y626339
Y613740
Y601142
Y586969
Y696705
X206705Y690406
Y712992
X218504Y719291
T07
X326043Y588740
Y601339
Y613937
Y640224
Y666516
X353937Y605118
X399213
Y713386
X353937
X326043Y717323
Y692803
T08
X579921Y675787
X629921
X672047Y672559
Y662559
Y652559
X722047
Y662559
Y672559
X792402Y757480
X802402
X812402
Y807480
X802402
X792402
X629921Y695787
Y685787
X579921
Y695787
X540551Y698228
Y708228
Y718228
X490551
Y708228
Y698228
T09
X796148Y66614
X836148
Y106614
X796148
Y493780
X836148
Y533779
Y572520
X796148
Y533779
Y612520
Y651260
X836148
Y612520
Y691260
X796148
Y828425
X836148
X68025Y830394
Y821181
X28025
Y830394
Y781181
X68025
Y870394
X28025
X796148Y868425
X836148
T10
X80709Y21260
X160630
X221654
X301575
X362205
X442126
X502362
X582283
X642913
X722835
X80709Y227953
X160630
Y250000
X240551
X221654Y227953
X301575
X301181Y250000
X381102
X362205Y227953
X442126
Y250000
X522047
X502362Y227953
X582283
X583071Y250000
X662992
X642913Y227953
X722835
X723622Y250000
X803543
Y456693
X723622
X662992
X583071
X522047
X442126
X381102
X301181
X240551
X160630
T11
X23579Y637134
Y763134
T12
X811108Y86614
Y513779
Y592520
Y671260
X53065Y801181
Y850394
X811108Y848425
T13
X10079Y644134
Y756134
T14
X455905Y508465
X160630
X455905Y797835
X160630Y817520
T15
X30000Y30000
X836142
X30000Y889291
X836142
T16
X278740Y587185
Y719075
M30
