G04*
G04 #@! TF.GenerationSoftware,Altium Limited,Altium Designer,23.2.1 (34)*
G04*
G04 Layer_Color=16711935*
%FSLAX25Y25*%
%MOIN*%
G70*
G04*
G04 #@! TF.SameCoordinates,D7528C68-0B3B-488C-8DE0-84A6010CECD1*
G04*
G04*
G04 #@! TF.FilePolarity,Negative*
G04*
G01*
G75*
G04:AMPARAMS|DCode=12|XSize=47.37mil|YSize=106.42mil|CornerRadius=7.94mil|HoleSize=0mil|Usage=FLASHONLY|Rotation=0.000|XOffset=0mil|YOffset=0mil|HoleType=Round|Shape=RoundedRectangle|*
%AMROUNDEDRECTD12*
21,1,0.04737,0.09055,0,0,0.0*
21,1,0.03150,0.10642,0,0,0.0*
1,1,0.01587,0.01575,-0.04528*
1,1,0.01587,-0.01575,-0.04528*
1,1,0.01587,-0.01575,0.04528*
1,1,0.01587,0.01575,0.04528*
%
%ADD12ROUNDEDRECTD12*%
%ADD13C,0.06312*%
G36*
X111704Y124407D02*
X112144Y124225D01*
X112539Y123961D01*
X112707Y123793D01*
X112707D01*
X113500Y123000D01*
X113857Y122643D01*
X114417Y121804D01*
X114803Y120872D01*
X115000Y119883D01*
Y113900D01*
X114924Y113717D01*
X114783Y113576D01*
X114600Y113500D01*
X110400D01*
X110217Y113576D01*
X110076Y113717D01*
X110000Y113900D01*
Y115379D01*
X109975Y115881D01*
X109780Y116865D01*
X109395Y117793D01*
X108837Y118628D01*
X108500Y119000D01*
X108262Y119238D01*
X107889Y119797D01*
X107631Y120418D01*
X107500Y121078D01*
Y122119D01*
X107546Y122352D01*
X107637Y122572D01*
X107770Y122769D01*
X107853Y122854D01*
X107854Y122854D01*
X107853Y122854D01*
X109119Y124119D01*
X109398Y124306D01*
X109709Y124434D01*
X110039Y124500D01*
X111238D01*
X111704Y124407D01*
D02*
G37*
G36*
X122082Y124369D02*
X122703Y124111D01*
X123262Y123738D01*
X123857Y123143D01*
X124417Y122304D01*
X124803Y121372D01*
X125000Y120383D01*
Y113900D01*
X124924Y113717D01*
X124783Y113576D01*
X124600Y113500D01*
X120401D01*
X120217Y113576D01*
X120076Y113717D01*
X120000Y113900D01*
Y117500D01*
X119994Y117618D01*
X119948Y117850D01*
X119858Y118069D01*
X119726Y118266D01*
X119646Y118353D01*
X118381Y119619D01*
X118194Y119898D01*
X118066Y120209D01*
X118000Y120539D01*
Y122461D01*
X118066Y122791D01*
X118194Y123101D01*
X118381Y123381D01*
X118793Y123793D01*
X118793Y123793D01*
X118793Y123793D01*
X118961Y123961D01*
X119356Y124225D01*
X119796Y124407D01*
X120262Y124500D01*
X121422D01*
X122082Y124369D01*
D02*
G37*
G36*
X114500Y166500D02*
X114790Y166124D01*
X114806Y166102D01*
X114934Y165791D01*
X115000Y165461D01*
Y161168D01*
X114675Y159535D01*
X114038Y157998D01*
X113114Y156614D01*
X112020Y155520D01*
X111638Y155265D01*
X111215Y155089D01*
X110765Y155000D01*
X110289D01*
X109806Y155096D01*
X109351Y155285D01*
X108942Y155558D01*
X108768Y155732D01*
X108768D01*
X108459Y156104D01*
X108298Y156344D01*
X108101Y156821D01*
X108000Y157328D01*
Y157922D01*
X108131Y158582D01*
X108389Y159203D01*
X108762Y159762D01*
X109000Y160000D01*
X109225Y160248D01*
X109597Y160805D01*
X109853Y161423D01*
X109984Y162080D01*
X110000Y162414D01*
Y165461D01*
X110066Y165791D01*
X110194Y166102D01*
X110381Y166381D01*
X110500Y166500D01*
X114013Y166500D01*
X114500Y166500D01*
D02*
G37*
G36*
X124000Y166000D02*
X124238Y165762D01*
X124611Y165203D01*
X124869Y164582D01*
X125000Y163922D01*
Y160853D01*
X124653Y159107D01*
X123972Y157463D01*
X122983Y155983D01*
X122269Y155270D01*
X122072Y155137D01*
X121852Y155046D01*
X121619Y155000D01*
X121262D01*
X120796Y155093D01*
X120356Y155275D01*
X119961Y155539D01*
X119793Y155707D01*
X118914Y156586D01*
X118914D01*
X118816Y156684D01*
X118661Y156916D01*
X118554Y157173D01*
X118500Y157447D01*
Y157922D01*
X118631Y158582D01*
X118889Y159203D01*
X119262Y159762D01*
X119500Y160000D01*
X119613Y160124D01*
X119798Y160402D01*
X119927Y160712D01*
X119992Y161040D01*
X120000Y161207D01*
Y164961D01*
X120066Y165291D01*
X120194Y165602D01*
X120381Y165881D01*
X120500Y166000D01*
X124000Y166000D01*
X124000Y166000D01*
D02*
G37*
G36*
X154852Y124454D02*
X154962Y124408D01*
X155353Y124146D01*
Y124146D01*
X155354Y124146D01*
X157000Y122500D01*
Y120539D01*
X156934Y120209D01*
X156806Y119898D01*
X156793Y119879D01*
X156500Y119500D01*
X156500D01*
X156500Y119500D01*
X155707Y118707D01*
X155548Y118532D01*
X155285Y118138D01*
X155104Y117701D01*
X155012Y117237D01*
X155000Y117000D01*
Y115539D01*
X154934Y115209D01*
X154806Y114899D01*
X154793Y114879D01*
X154500Y114500D01*
X150881D01*
X150648Y114546D01*
X150538Y114592D01*
X150146Y114854D01*
X150000Y115318D01*
Y119844D01*
X150262Y121163D01*
X150777Y122406D01*
X151524Y123524D01*
X152119Y124119D01*
X152399Y124306D01*
X152709Y124434D01*
X153039Y124500D01*
X154619D01*
X154852Y124454D01*
D02*
G37*
G36*
X165352D02*
X165462Y124408D01*
X165854Y124146D01*
Y124146D01*
X165854Y124146D01*
X167119Y122881D01*
X167306Y122601D01*
X167434Y122291D01*
X167500Y121961D01*
Y120539D01*
X167434Y120209D01*
X167306Y119898D01*
X167293Y119879D01*
X167000Y119500D01*
X167000D01*
X167000Y119500D01*
X165354Y117853D01*
X165274Y117766D01*
X165143Y117569D01*
X165052Y117350D01*
X165006Y117118D01*
X165000Y117000D01*
Y115039D01*
X164934Y114709D01*
X164806Y114399D01*
X164793Y114379D01*
X164500Y114000D01*
X161000D01*
X160707Y114293D01*
X160539Y114461D01*
X160275Y114856D01*
X160093Y115296D01*
X160000Y115762D01*
Y118805D01*
X160328Y120454D01*
X160971Y122008D01*
X161906Y123406D01*
X162500Y124000D01*
X162619Y124119D01*
X162899Y124306D01*
X163209Y124434D01*
X163539Y124500D01*
X165119D01*
X165352Y124454D01*
D02*
G37*
G36*
X154011Y164561D02*
X154500Y164500D01*
X154792Y164121D01*
X154806Y164102D01*
X154934Y163791D01*
X155000Y163461D01*
Y161207D01*
X155000Y161207D01*
X155000D01*
X155008Y161040D01*
X155073Y160712D01*
X155202Y160402D01*
X155387Y160124D01*
X155500Y160000D01*
X155738Y159762D01*
X156111Y159203D01*
X156369Y158582D01*
X156500Y157922D01*
Y157289D01*
X156404Y156806D01*
X156216Y156351D01*
X155942Y155942D01*
X155768Y155768D01*
X155585Y155585D01*
X155156Y155298D01*
X154679Y155101D01*
X154172Y155000D01*
X153578D01*
X152918Y155131D01*
X152297Y155389D01*
X151738Y155762D01*
X151143Y156357D01*
X150583Y157195D01*
X150197Y158127D01*
X150000Y159117D01*
Y163961D01*
X150066Y164291D01*
X150194Y164602D01*
X150381Y164881D01*
X150500Y165000D01*
X154011Y164561D01*
D02*
G37*
G36*
X164014Y165569D02*
X164500Y165500D01*
X164793Y165121D01*
X164806Y165102D01*
X164934Y164791D01*
X165000Y164461D01*
Y163000D01*
X165000Y163000D01*
X165000D01*
X165012Y162763D01*
X165104Y162299D01*
X165285Y161862D01*
X165548Y161468D01*
X165707Y161293D01*
X166500Y160500D01*
X166500Y160500D01*
X166738Y160262D01*
X167111Y159703D01*
X167369Y159082D01*
X167500Y158422D01*
Y157289D01*
X167404Y156806D01*
X167216Y156351D01*
X166942Y155942D01*
X166768Y155768D01*
X166585Y155585D01*
X166156Y155298D01*
X165679Y155101D01*
X165172Y155000D01*
X164578D01*
X163918Y155131D01*
X163297Y155389D01*
X162738Y155762D01*
X161906Y156594D01*
X160971Y157992D01*
X160328Y159546D01*
X160000Y161195D01*
Y164238D01*
X160093Y164704D01*
X160275Y165144D01*
X160539Y165539D01*
X161000Y166000D01*
X164014Y165569D01*
D02*
G37*
D12*
X112500Y166000D02*
D03*
X122500D02*
D03*
X152500D02*
D03*
X162500D02*
D03*
Y113008D02*
D03*
X152500D02*
D03*
X122500D02*
D03*
X112500D02*
D03*
D13*
X121000Y121685D02*
D03*
X154000D02*
D03*
X164517Y121661D02*
D03*
X165143Y157463D02*
D03*
X154000Y157323D02*
D03*
X121000D02*
D03*
X110484Y157346D02*
D03*
X110483Y121661D02*
D03*
M02*
