G04*
G04 #@! TF.GenerationSoftware,Altium Limited,Altium Designer,23.1.1 (15)*
G04*
G04 Layer_Physical_Order=2*
G04 Layer_Color=36540*
%FSLAX25Y25*%
%MOIN*%
G70*
G04*
G04 #@! TF.SameCoordinates,86994FA9-9CC6-4329-B9FE-72B5C8D5A220*
G04*
G04*
G04 #@! TF.FilePolarity,Positive*
G04*
G01*
G75*
%ADD10C,0.00787*%
%ADD87C,0.05512*%
%ADD90C,0.08661*%
%ADD91R,0.08661X0.08661*%
%ADD93C,0.13287*%
%ADD94C,0.06000*%
%ADD95R,0.07874X0.07874*%
%ADD96C,0.07874*%
%ADD97O,0.09100X0.05100*%
%ADD98O,0.07500X0.10000*%
%ADD100O,0.09843X0.07874*%
%ADD101O,0.07087X0.05512*%
%ADD102O,0.10000X0.07500*%
%ADD103O,0.05100X0.09100*%
%ADD104C,0.02756*%
%ADD105C,0.02362*%
G36*
X770472Y759654D02*
Y758669D01*
X770088Y756737D01*
X769595Y755546D01*
X737316Y723267D01*
X737316Y723267D01*
X736619Y722570D01*
X735881Y721671D01*
X734787Y720033D01*
X734787Y720033D01*
X734549Y719588D01*
X713559Y698598D01*
X713559D01*
X712862Y697902D01*
X711225Y696807D01*
X709405Y696054D01*
X707473Y695669D01*
X680716D01*
X678784Y696054D01*
X676964Y696807D01*
X675327Y697902D01*
X674630Y698598D01*
X655685Y717544D01*
X655685Y717544D01*
X654958Y718202D01*
X653328Y719292D01*
X651517Y720042D01*
X649594Y720424D01*
X648614Y720472D01*
X619039D01*
X618869Y720972D01*
X619253Y721267D01*
X619819Y722005D01*
X620176Y722865D01*
X620297Y723787D01*
Y724803D01*
X613167D01*
Y723787D01*
X613289Y722865D01*
X613645Y722005D01*
X614212Y721267D01*
X614595Y720972D01*
X614425Y720472D01*
X610834D01*
X610672Y720972D01*
X611238Y721407D01*
X611773Y722104D01*
X612110Y722916D01*
X612224Y723787D01*
Y727787D01*
X612110Y728659D01*
X611773Y729470D01*
X611238Y730168D01*
X610541Y730703D01*
X609729Y731039D01*
X608858Y731154D01*
X607987Y731039D01*
X607175Y730703D01*
X606478Y730168D01*
X605943Y729470D01*
X605607Y728659D01*
X605492Y727787D01*
Y723787D01*
X605607Y722916D01*
X605943Y722104D01*
X606478Y721407D01*
X607045Y720972D01*
X606882Y720472D01*
X602960D01*
X602798Y720972D01*
X603365Y721407D01*
X603899Y722104D01*
X604236Y722916D01*
X604350Y723787D01*
Y727787D01*
X604236Y728659D01*
X603899Y729470D01*
X603365Y730168D01*
X602667Y730703D01*
X601856Y731039D01*
X600984Y731154D01*
X600113Y731039D01*
X599301Y730703D01*
X598604Y730168D01*
X598069Y729470D01*
X597733Y728659D01*
X597618Y727787D01*
Y723787D01*
X597733Y722916D01*
X598069Y722104D01*
X598604Y721407D01*
X599170Y720972D01*
X599008Y720472D01*
X595086D01*
X594924Y720972D01*
X595491Y721407D01*
X596025Y722104D01*
X596362Y722916D01*
X596476Y723787D01*
Y727787D01*
X596362Y728659D01*
X596025Y729470D01*
X595491Y730168D01*
X594793Y730703D01*
X593982Y731039D01*
X593110Y731154D01*
X592239Y731039D01*
X591427Y730703D01*
X590730Y730168D01*
X590195Y729470D01*
X589859Y728659D01*
X589744Y727787D01*
Y723787D01*
X589859Y722916D01*
X590195Y722104D01*
X590730Y721407D01*
X591296Y720972D01*
X591134Y720472D01*
X589771D01*
X587839Y720857D01*
X586020Y721610D01*
X584382Y722705D01*
X583685Y723401D01*
X569464Y737622D01*
X569464Y737622D01*
X568737Y738281D01*
X567107Y739370D01*
X565296Y740121D01*
X563374Y740503D01*
X562393Y740551D01*
X505126D01*
X503194Y740936D01*
X501374Y741689D01*
X499736Y742784D01*
X499040Y743480D01*
X451015Y791504D01*
X451334Y791893D01*
X452362Y791206D01*
X453724Y790642D01*
X455169Y790354D01*
X456642D01*
X458087Y790642D01*
X459449Y791206D01*
X460674Y792024D01*
X461716Y793066D01*
X462535Y794291D01*
X463098Y795653D01*
X463386Y797098D01*
Y798571D01*
X463098Y800017D01*
X462535Y801378D01*
X461716Y802603D01*
X460674Y803645D01*
X459449Y804464D01*
X458087Y805027D01*
X456642Y805315D01*
X455169D01*
X453724Y805027D01*
X452362Y804464D01*
X451137Y803645D01*
X450095Y802603D01*
X449277Y801378D01*
X448713Y800017D01*
X448425Y798571D01*
Y797098D01*
X448713Y795653D01*
X449277Y794291D01*
X449964Y793263D01*
X449575Y792944D01*
X430488Y812032D01*
X430488Y812032D01*
X429761Y812691D01*
X428740Y813373D01*
Y827953D01*
X339764D01*
X326772Y814961D01*
X308459D01*
X307668Y814922D01*
X306118Y814613D01*
X304657Y814008D01*
X303342Y813130D01*
X302756Y812598D01*
X298031Y807874D01*
X272047D01*
X263779Y799606D01*
Y791339D01*
X237402Y764961D01*
X218709D01*
X217729Y764913D01*
X215806Y764530D01*
X213995Y763780D01*
X212365Y762691D01*
X211638Y762032D01*
X180750Y731144D01*
X149624Y762270D01*
X149613Y762277D01*
X148190Y763492D01*
X146584Y764476D01*
X144843Y765198D01*
X143011Y765637D01*
X141146Y765784D01*
X141133Y765787D01*
X139789D01*
X139407Y765945D01*
X138546D01*
X137750Y765615D01*
X137141Y765006D01*
X136811Y764210D01*
Y763349D01*
X137141Y762553D01*
X137750Y761944D01*
X138546Y761614D01*
X139407D01*
X139789Y761772D01*
X141133D01*
X141225Y761791D01*
X142698Y761646D01*
X144203Y761189D01*
X145589Y760448D01*
X146733Y759509D01*
X146785Y759431D01*
X177590Y728627D01*
X177485Y728363D01*
X176925Y728276D01*
X147655Y757545D01*
X147644Y757553D01*
X146222Y758768D01*
X144615Y759752D01*
X142875Y760473D01*
X141043Y760913D01*
X139178Y761060D01*
X139165Y761062D01*
X126797D01*
X126415Y761221D01*
X125554D01*
X124758Y760891D01*
X124149Y760282D01*
X123819Y759486D01*
Y758624D01*
X124149Y757829D01*
X124758Y757219D01*
X125554Y756890D01*
X126415D01*
X126797Y757048D01*
X139165D01*
X139256Y757066D01*
X140730Y756921D01*
X142234Y756465D01*
X143621Y755724D01*
X144765Y754784D01*
X144817Y754707D01*
X175552Y723972D01*
X175245Y722429D01*
X175197Y721448D01*
Y693512D01*
Y692527D01*
X174813Y690595D01*
X174059Y688775D01*
X172964Y687138D01*
X172268Y686441D01*
X151540Y665713D01*
X151077Y665904D01*
Y673468D01*
X151525Y673811D01*
X151568Y673819D01*
X152399D01*
X153195Y674149D01*
X153804Y674758D01*
X154134Y675554D01*
Y676415D01*
X153804Y677211D01*
X153195Y677820D01*
X152399Y678150D01*
X151538D01*
X150742Y677820D01*
X150133Y677211D01*
X149803Y676415D01*
Y675554D01*
X150023Y675024D01*
X149714Y674523D01*
X99275D01*
X98967Y674462D01*
X98707Y674288D01*
X98533Y674028D01*
X98472Y673721D01*
Y652756D01*
X78552D01*
X77571Y652708D01*
X75649Y652325D01*
X73838Y651575D01*
X72208Y650486D01*
X71481Y649827D01*
X56078Y634425D01*
X56078D01*
X55382Y633729D01*
X53744Y632634D01*
X51924Y631880D01*
X49992Y631496D01*
X25766D01*
X25700Y631996D01*
X25706Y631998D01*
X26963Y632723D01*
X27989Y633749D01*
X28715Y635006D01*
X29091Y636408D01*
Y637859D01*
X28715Y639261D01*
X27989Y640518D01*
X26963Y641544D01*
X25706Y642270D01*
X24304Y642646D01*
X22853D01*
X21451Y642270D01*
X20194Y641544D01*
X19168Y640518D01*
X18442Y639261D01*
X18067Y637859D01*
Y636408D01*
X18442Y635006D01*
X19168Y633749D01*
X20194Y632723D01*
X21451Y631998D01*
X21457Y631996D01*
X21391Y631496D01*
X5934D01*
Y637732D01*
X6375Y637967D01*
X6675Y637767D01*
X7983Y637225D01*
X9371Y636949D01*
X10786D01*
X12174Y637225D01*
X13482Y637767D01*
X14659Y638553D01*
X15660Y639554D01*
X16446Y640730D01*
X16988Y642038D01*
X17264Y643426D01*
Y644841D01*
X16988Y646230D01*
X16446Y647537D01*
X15660Y648714D01*
X14659Y649715D01*
X13482Y650501D01*
X12174Y651043D01*
X10786Y651319D01*
X9371D01*
X7983Y651043D01*
X6675Y650501D01*
X6375Y650301D01*
X5934Y650536D01*
Y749731D01*
X6375Y749967D01*
X6675Y749767D01*
X7983Y749225D01*
X9371Y748949D01*
X10786D01*
X12174Y749225D01*
X13482Y749767D01*
X14659Y750553D01*
X15660Y751554D01*
X16446Y752731D01*
X16988Y754038D01*
X17264Y755426D01*
Y756842D01*
X16988Y758230D01*
X16446Y759537D01*
X15660Y760714D01*
X14659Y761715D01*
X13482Y762501D01*
X12174Y763043D01*
X10786Y763319D01*
X9371D01*
X7983Y763043D01*
X6675Y762501D01*
X6375Y762300D01*
X5934Y762536D01*
Y908696D01*
Y909096D01*
X6090Y909881D01*
X6397Y910621D01*
X6842Y911287D01*
X7408Y911854D01*
X8074Y912299D01*
X8814Y912605D01*
X9600Y912761D01*
X520785D01*
X520885Y912261D01*
X520427Y912072D01*
X519818Y911463D01*
X519488Y910667D01*
Y909805D01*
X519818Y909010D01*
X520427Y908401D01*
X521223Y908071D01*
X522084D01*
X522880Y908401D01*
X523489Y909010D01*
X523819Y909805D01*
Y910667D01*
X523489Y911463D01*
X522880Y912072D01*
X522422Y912261D01*
X522522Y912761D01*
X548344D01*
X548444Y912261D01*
X547986Y912072D01*
X547377Y911463D01*
X547047Y910667D01*
Y909805D01*
X547377Y909010D01*
X547986Y908401D01*
X548782Y908071D01*
X549643D01*
X550439Y908401D01*
X551048Y909010D01*
X551378Y909805D01*
Y910667D01*
X551048Y911463D01*
X550439Y912072D01*
X549981Y912261D01*
X550081Y912761D01*
X577872D01*
X577971Y912261D01*
X577514Y912072D01*
X576904Y911463D01*
X576575Y910667D01*
Y909805D01*
X576904Y909010D01*
X577514Y908401D01*
X578309Y908071D01*
X579171D01*
X579967Y908401D01*
X580576Y909010D01*
X580905Y909805D01*
Y910667D01*
X580576Y911463D01*
X579967Y912072D01*
X579509Y912261D01*
X579608Y912761D01*
X608187D01*
X608286Y912261D01*
X607829Y912072D01*
X607219Y911463D01*
X606890Y910667D01*
Y909805D01*
X607219Y909010D01*
X607829Y908401D01*
X608624Y908071D01*
X609486D01*
X610282Y908401D01*
X610891Y909010D01*
X611221Y909805D01*
Y910667D01*
X610891Y911463D01*
X610282Y912072D01*
X609824Y912261D01*
X609923Y912761D01*
X635746D01*
X635845Y912261D01*
X635388Y912072D01*
X634778Y911463D01*
X634449Y910667D01*
Y909805D01*
X634778Y909010D01*
X635388Y908401D01*
X636184Y908071D01*
X637045D01*
X637841Y908401D01*
X638450Y909010D01*
X638779Y909805D01*
Y910667D01*
X638450Y911463D01*
X637841Y912072D01*
X637383Y912261D01*
X637483Y912761D01*
X665273D01*
X665373Y912261D01*
X664915Y912072D01*
X664306Y911463D01*
X663976Y910667D01*
Y909805D01*
X664306Y909010D01*
X664915Y908401D01*
X665711Y908071D01*
X666572D01*
X667368Y908401D01*
X667977Y909010D01*
X668307Y909805D01*
Y910667D01*
X667977Y911463D01*
X667368Y912072D01*
X666911Y912261D01*
X667010Y912761D01*
X697968D01*
X698176Y912261D01*
X697771Y911856D01*
X697441Y911061D01*
Y910199D01*
X697771Y909403D01*
X698380Y908794D01*
X699176Y908465D01*
X700037D01*
X700833Y908794D01*
X701442Y909403D01*
X701772Y910199D01*
Y911061D01*
X701442Y911856D01*
X701037Y912261D01*
X701244Y912761D01*
X725528D01*
X725735Y912261D01*
X725330Y911856D01*
X725000Y911061D01*
Y910199D01*
X725330Y909403D01*
X725939Y908794D01*
X726735Y908465D01*
X727596D01*
X728392Y908794D01*
X729001Y909403D01*
X729331Y910199D01*
Y911061D01*
X729001Y911856D01*
X728596Y912261D01*
X728803Y912761D01*
X755055D01*
X755262Y912261D01*
X754857Y911856D01*
X754528Y911061D01*
Y910199D01*
X754857Y909403D01*
X755466Y908794D01*
X756262Y908465D01*
X757124D01*
X757920Y908794D01*
X758529Y909403D01*
X758858Y910199D01*
Y911061D01*
X758529Y911856D01*
X758124Y912261D01*
X758331Y912761D01*
X770472D01*
Y759654D01*
D02*
G37*
G36*
X857328Y912605D02*
X858068Y912299D01*
X858734Y911854D01*
X859300Y911287D01*
X859745Y910621D01*
X860051Y909881D01*
X860208Y909096D01*
Y908696D01*
Y796850D01*
X784606D01*
X782674Y797235D01*
X780854Y797989D01*
X779216Y799083D01*
X777823Y800476D01*
X776729Y802114D01*
X776406Y802891D01*
Y912761D01*
X856542D01*
X857328Y912605D01*
D02*
G37*
G36*
X816142Y765748D02*
X817072Y765748D01*
X818898Y765385D01*
X820617Y764673D01*
X822165Y763639D01*
X823481Y762323D01*
X824515Y760775D01*
X825227Y759055D01*
X825591Y757230D01*
X825591Y756299D01*
X825591D01*
X825591Y756299D01*
X825591Y738394D01*
X825591Y737409D01*
X825206Y735477D01*
X824452Y733657D01*
X823358Y732020D01*
X822662Y731323D01*
X810409Y719071D01*
X804323Y712985D01*
X790583Y699244D01*
X789945Y698818D01*
X788589Y697463D01*
X788163Y696825D01*
X779307Y687968D01*
X778648Y687241D01*
X777559Y685611D01*
X776809Y683800D01*
X776426Y681877D01*
X776378Y680897D01*
X776378Y680897D01*
X776378Y680897D01*
Y476977D01*
X776426Y475997D01*
X776809Y474074D01*
X777559Y472263D01*
X778648Y470633D01*
X779307Y469906D01*
X793307Y455905D01*
Y455685D01*
X793701Y453707D01*
X794472Y451844D01*
X795592Y450168D01*
X797018Y448742D01*
X798695Y447622D01*
X800558Y446850D01*
X802535Y446457D01*
X802756D01*
X820299Y428913D01*
X820996Y428217D01*
X822090Y426579D01*
X822844Y424759D01*
X823228Y422827D01*
X823228Y421842D01*
X823228D01*
X823228Y421842D01*
Y221417D01*
Y220432D01*
X822844Y218500D01*
X822090Y216681D01*
X820996Y215043D01*
X819603Y213650D01*
X817965Y212555D01*
X816145Y211802D01*
X814213Y211417D01*
X813228D01*
X720866Y211417D01*
X719936Y211417D01*
X718110Y211780D01*
X716390Y212493D01*
X714843Y213527D01*
X713527Y214843D01*
X712493Y216390D01*
X711780Y218110D01*
X711417Y219935D01*
X711417Y220866D01*
Y261212D01*
X711417Y262197D01*
X711802Y264129D01*
X712555Y265949D01*
X713650Y267587D01*
X714346Y268283D01*
X714346Y268283D01*
X735654Y289591D01*
X736313Y290318D01*
X737402Y291948D01*
X738152Y293759D01*
X738534Y295682D01*
X738583Y296662D01*
X738583Y296662D01*
Y712000D01*
X738583Y712985D01*
X738967Y714917D01*
X739721Y716736D01*
X740815Y718374D01*
X741512Y719071D01*
X741512Y719071D01*
X785260Y762819D01*
X785956Y763516D01*
X787594Y764610D01*
X789414Y765364D01*
X791346Y765748D01*
X792331Y765748D01*
X792331Y765748D01*
X816142Y765748D01*
D02*
G37*
G36*
X445538Y726136D02*
X446685Y725661D01*
X447716Y724972D01*
X448594Y724094D01*
X449283Y723063D01*
X449758Y721916D01*
X450000Y720699D01*
X450000Y720079D01*
X450000D01*
X450000Y720079D01*
Y716266D01*
X442930Y709197D01*
X442743Y709026D01*
X440433Y707968D01*
X440204Y707922D01*
X439807Y707903D01*
X357055D01*
X356793Y708140D01*
X356136Y708579D01*
X355406Y708882D01*
X354696Y709023D01*
X354630Y709036D01*
X354236Y709055D01*
X354235Y709055D01*
X354235Y709055D01*
X354235Y709055D01*
X324409D01*
X323673Y709055D01*
X322228Y709343D01*
X320866Y709906D01*
X319641Y710725D01*
X318599Y711767D01*
X317780Y712992D01*
X317217Y714354D01*
X316929Y715799D01*
X316929Y716535D01*
X316929Y717505D01*
X317307Y719406D01*
X318049Y721198D01*
X319127Y722810D01*
X320497Y724181D01*
X322110Y725258D01*
X323901Y726000D01*
X325802Y726378D01*
X326772Y726378D01*
X326772Y726378D01*
X443701Y726378D01*
X444321Y726378D01*
X445538Y726136D01*
D02*
G37*
G36*
X186302Y719915D02*
X186302Y719915D01*
X187347Y718869D01*
Y620894D01*
X187500Y620125D01*
X187935Y619474D01*
X192160Y615250D01*
X192160Y615250D01*
X195089Y612321D01*
X195740Y611886D01*
X196508Y611733D01*
X214790D01*
X215189Y611213D01*
X215930Y610645D01*
X216792Y610288D01*
X217717Y610166D01*
X219291D01*
X220216Y610288D01*
X221078Y610645D01*
X221818Y611213D01*
X222386Y611953D01*
X222743Y612815D01*
X222865Y613740D01*
X222743Y614665D01*
X222386Y615527D01*
X221818Y616267D01*
X221078Y616835D01*
X220216Y617192D01*
X219291Y617314D01*
X217717D01*
X216792Y617192D01*
X215930Y616835D01*
X215189Y616267D01*
X214790Y615747D01*
X197339D01*
X194998Y618088D01*
X194998Y618088D01*
X191361Y621725D01*
Y658860D01*
X191861Y659116D01*
X192483Y658858D01*
X193344D01*
X194140Y659188D01*
X194749Y659797D01*
X195079Y660593D01*
Y661024D01*
X226378D01*
Y584063D01*
Y583078D01*
X225994Y581146D01*
X225240Y579327D01*
X224145Y577689D01*
X223449Y576992D01*
X223449D01*
X223449Y576992D01*
X167496Y521039D01*
X166799Y520343D01*
X165162Y519248D01*
X163342Y518495D01*
X161410Y518110D01*
X141150D01*
X140170Y518062D01*
X138247Y517680D01*
X136436Y516929D01*
X134806Y515840D01*
X134079Y515181D01*
X134079Y515181D01*
Y515181D01*
X105291Y486393D01*
X104632Y485666D01*
X103543Y484036D01*
X102793Y482225D01*
X102410Y480303D01*
X102362Y479322D01*
Y284063D01*
Y283079D01*
X101978Y281147D01*
X101224Y279327D01*
X100130Y277689D01*
X99433Y276992D01*
X99433D01*
X99433Y276992D01*
X75370Y252929D01*
X74673Y252233D01*
X73036Y251138D01*
X71216Y250384D01*
X69284Y250000D01*
X5934D01*
Y251768D01*
X6434Y252027D01*
X7050Y251772D01*
X7911D01*
X8707Y252101D01*
X9316Y252710D01*
X9646Y253506D01*
Y254368D01*
X9316Y255164D01*
X8707Y255773D01*
X7911Y256102D01*
X7050D01*
X6434Y255847D01*
X5934Y256106D01*
Y311221D01*
X6730D01*
X7526Y311550D01*
X8135Y312159D01*
X8465Y312955D01*
Y313816D01*
X8135Y314612D01*
X7526Y315222D01*
X6730Y315551D01*
X5934D01*
Y360769D01*
X6434Y360976D01*
X6647Y360763D01*
X7443Y360433D01*
X8305D01*
X9101Y360763D01*
X9710Y361372D01*
X10039Y362168D01*
Y363029D01*
X9710Y363825D01*
X9101Y364434D01*
X8305Y364764D01*
X7443D01*
X6647Y364434D01*
X6434Y364221D01*
X5934Y364428D01*
Y398797D01*
X6262Y399016D01*
X7124D01*
X7920Y399345D01*
X8529Y399955D01*
X8858Y400750D01*
Y401612D01*
X8529Y402408D01*
X7920Y403017D01*
X7124Y403346D01*
X6262D01*
X5934Y403566D01*
Y479111D01*
X6262Y479331D01*
X7124D01*
X7920Y479660D01*
X8529Y480269D01*
X8858Y481065D01*
Y481927D01*
X8529Y482723D01*
X7920Y483332D01*
X7124Y483661D01*
X6262D01*
X5934Y483881D01*
Y521399D01*
X6434Y521606D01*
X6647Y521393D01*
X7443Y521063D01*
X8305D01*
X9101Y521393D01*
X9710Y522002D01*
X10039Y522798D01*
Y523659D01*
X9710Y524455D01*
X9101Y525064D01*
X8305Y525394D01*
X7443D01*
X6647Y525064D01*
X6434Y524851D01*
X5934Y525058D01*
Y557920D01*
X6350Y558198D01*
X6656Y558071D01*
X7517D01*
X8313Y558400D01*
X8922Y559010D01*
X9252Y559805D01*
Y560667D01*
X8922Y561463D01*
X8313Y562072D01*
X7517Y562402D01*
X6656D01*
X6350Y562275D01*
X5934Y562552D01*
Y600046D01*
X6350Y600324D01*
X6656Y600197D01*
X7517D01*
X8313Y600527D01*
X8922Y601136D01*
X9252Y601931D01*
Y602793D01*
X8922Y603589D01*
X8313Y604198D01*
X7517Y604528D01*
X6656D01*
X6350Y604401D01*
X5934Y604678D01*
Y629489D01*
X21391D01*
X21649Y629540D01*
X21911Y629557D01*
X22030Y629616D01*
X22160Y629642D01*
X22378Y629788D01*
X22613Y629904D01*
X22629Y629921D01*
X24529D01*
X24544Y629904D01*
X24780Y629788D01*
X24998Y629642D01*
X25128Y629616D01*
X25247Y629557D01*
X25508Y629540D01*
X25766Y629489D01*
X49992D01*
X50186Y629528D01*
X50384D01*
X52316Y629912D01*
X52339Y629921D01*
X120661D01*
X121641Y629969D01*
X123564Y630352D01*
X125375Y631102D01*
X127005Y632191D01*
X127732Y632850D01*
X127732D01*
X142800Y647918D01*
X150275D01*
X150582Y647979D01*
X150842Y648153D01*
X151016Y648414D01*
X151077Y648721D01*
Y656196D01*
X175811Y680929D01*
X176470Y681657D01*
X177559Y683286D01*
X178310Y685098D01*
X178692Y687020D01*
X178740Y688000D01*
Y717118D01*
Y718103D01*
X179068Y719749D01*
X179610Y719914D01*
X180289Y719234D01*
X180448Y718852D01*
X180670Y718630D01*
Y714986D01*
X180512Y714604D01*
Y713742D01*
X180842Y712947D01*
X181451Y712337D01*
X182246Y712008D01*
X183108D01*
X183904Y712337D01*
X184513Y712947D01*
X184843Y713742D01*
Y714604D01*
X184684Y714986D01*
Y719128D01*
X184655Y719277D01*
X184560Y719993D01*
X184449Y720262D01*
Y720509D01*
X184119Y721305D01*
X183510Y721914D01*
X183128Y722073D01*
X181669Y723532D01*
X181755Y723781D01*
X182324Y723893D01*
X186302Y719915D01*
D02*
G37*
G36*
X497200Y729143D02*
X499020Y728389D01*
X500658Y727295D01*
X501354Y726599D01*
X501354Y726599D01*
X506914Y721039D01*
X507610Y720343D01*
X508704Y718705D01*
X509458Y716885D01*
X509842Y714953D01*
Y713968D01*
Y693071D01*
Y692086D01*
X509458Y690154D01*
X508704Y688334D01*
X507610Y686696D01*
X506217Y685303D01*
X504579Y684209D01*
X502759Y683455D01*
X500827Y683071D01*
X326196D01*
X324294Y683449D01*
X322503Y684191D01*
X320891Y685268D01*
X319520Y686639D01*
X318443Y688251D01*
X317701Y690042D01*
X317323Y691944D01*
Y692913D01*
Y693805D01*
X317671Y695555D01*
X318353Y697203D01*
X319344Y698686D01*
X320606Y699947D01*
X322089Y700938D01*
X323737Y701620D01*
X325486Y701968D01*
X439952D01*
X440933Y702017D01*
X442855Y702399D01*
X444666Y703149D01*
X446296Y704238D01*
X447023Y704897D01*
X447023D01*
X468725Y726599D01*
X469421Y727295D01*
X471059Y728389D01*
X472879Y729143D01*
X474811Y729528D01*
X495268D01*
X497200Y729143D01*
D02*
G37*
G36*
X192913Y663189D02*
X192483D01*
X191861Y662932D01*
X191361Y663187D01*
Y719701D01*
X191209Y720469D01*
X190773Y721120D01*
X189140Y722753D01*
X189140Y722753D01*
X184687Y727207D01*
X185827Y728346D01*
X186482Y729002D01*
X188023Y730031D01*
X189735Y730741D01*
X191553Y731102D01*
X192913D01*
Y663189D01*
D02*
G37*
G36*
X587357Y706309D02*
X589177Y705555D01*
X590815Y704460D01*
X591512Y703764D01*
X591512Y703764D01*
X596063Y699213D01*
Y666299D01*
Y665314D01*
X595679Y663382D01*
X594925Y661562D01*
X593830Y659925D01*
X592438Y658532D01*
X590800Y657437D01*
X588980Y656683D01*
X587048Y656299D01*
X343307D01*
X330354Y656075D01*
X325944D01*
X324012Y656459D01*
X322192Y657213D01*
X320554Y658307D01*
X319162Y659700D01*
X318067Y661338D01*
X317313Y663158D01*
X316929Y665090D01*
Y666075D01*
Y666772D01*
Y667757D01*
X317313Y669689D01*
X318067Y671508D01*
X319162Y673146D01*
X320554Y674539D01*
X322192Y675633D01*
X324012Y676387D01*
X325944Y676772D01*
X536803D01*
X537783Y676820D01*
X539706Y677202D01*
X541517Y677952D01*
X543147Y679041D01*
X543874Y679701D01*
X543874D01*
X567937Y703764D01*
X568634Y704460D01*
X570271Y705555D01*
X572091Y706309D01*
X574023Y706693D01*
X585426D01*
X587357Y706309D01*
D02*
G37*
G36*
X681235Y681561D02*
X682792Y680916D01*
X684193Y679980D01*
X684789Y679384D01*
X685654Y678519D01*
X686350Y677823D01*
X687445Y676185D01*
X688198Y674365D01*
X688583Y672433D01*
Y671448D01*
Y640315D01*
Y639330D01*
X688198Y637398D01*
X687445Y635578D01*
X686350Y633940D01*
X684957Y632548D01*
X683319Y631453D01*
X681500Y630699D01*
X679568Y630315D01*
X340945D01*
X330354Y630090D01*
X325650D01*
X323781Y630462D01*
X322020Y631191D01*
X320436Y632250D01*
X319089Y633597D01*
X318030Y635182D01*
X317301Y636942D01*
X316929Y638811D01*
Y641154D01*
X317313Y643086D01*
X318067Y644906D01*
X319162Y646544D01*
X320554Y647937D01*
X322192Y649031D01*
X324012Y649785D01*
X324012Y649785D01*
X324012Y649785D01*
X325848Y650150D01*
X325944Y650141D01*
X330354D01*
X330406Y650146D01*
X330457Y650141D01*
X332053Y650169D01*
X624767D01*
X625747Y650217D01*
X627670Y650600D01*
X629481Y651350D01*
X631111Y652439D01*
X631838Y653098D01*
X631838D01*
X657701Y678961D01*
X658397Y679657D01*
X660035Y680752D01*
X661855Y681505D01*
X663787Y681890D01*
X679583D01*
X681235Y681561D01*
D02*
G37*
G36*
X424304Y618898D02*
X424622Y618511D01*
X424606Y618434D01*
Y616999D01*
X424886Y615592D01*
X425435Y614266D01*
X426232Y613074D01*
X427247Y612059D01*
X428440Y611262D01*
X429765Y610713D01*
X431172Y610433D01*
X432607D01*
X433858Y610682D01*
X435109Y610433D01*
X436544D01*
X437598Y610643D01*
X438653Y610433D01*
X440087D01*
X441339Y610682D01*
X442590Y610433D01*
X444024D01*
X445079Y610643D01*
X446133Y610433D01*
X447568D01*
X448975Y610713D01*
X450300Y611262D01*
X451493Y612059D01*
X452508Y613074D01*
X453305Y614266D01*
X453854Y615592D01*
X454134Y616999D01*
Y618398D01*
X454163Y618566D01*
X454436Y618898D01*
X460031D01*
X461016Y618898D01*
X462948Y618513D01*
X464768Y617760D01*
X466406Y616665D01*
X467102Y615969D01*
X467102Y615969D01*
X597465Y485606D01*
X598192Y484947D01*
X599822Y483858D01*
X601633Y483108D01*
X603556Y482725D01*
X604536Y482677D01*
X732649D01*
Y296808D01*
X732629Y296410D01*
X732446Y295490D01*
X732143Y294759D01*
X731622Y293979D01*
X731355Y293684D01*
X710150Y272479D01*
X710150Y272479D01*
X709454Y271783D01*
X708716Y270884D01*
X707621Y269246D01*
X707621Y269246D01*
X707073Y268220D01*
X706319Y266400D01*
X705981Y265287D01*
X705597Y263355D01*
X705483Y262197D01*
X705483Y261212D01*
Y220866D01*
X705483Y219935D01*
X705534Y219422D01*
X705597Y218778D01*
X705597Y218778D01*
X705960Y216952D01*
X705960Y216952D01*
X706298Y215839D01*
X707010Y214120D01*
X707559Y213094D01*
X708593Y211546D01*
X709331Y210647D01*
X710647Y209331D01*
X710647Y209331D01*
X711546Y208593D01*
X713094Y207559D01*
X714119Y207010D01*
X715839Y206298D01*
X716952Y205960D01*
X718778Y205597D01*
X719936Y205483D01*
X720866Y205483D01*
X813228Y205483D01*
X814213D01*
X815371Y205597D01*
X817303Y205982D01*
X818416Y206319D01*
X820236Y207073D01*
X821262Y207621D01*
X821262Y207622D01*
X822900Y208716D01*
X823799Y209454D01*
X825192Y210847D01*
X825930Y211746D01*
X827024Y213384D01*
X827573Y214410D01*
X828326Y216230D01*
X828664Y217343D01*
X829048Y219275D01*
X829162Y220432D01*
Y221417D01*
Y421842D01*
X829162Y421842D01*
Y421848D01*
X829162Y421848D01*
X829162Y421848D01*
X829162Y422827D01*
X829048Y423985D01*
X828664Y425917D01*
X828326Y427030D01*
X827573Y428850D01*
X827024Y429876D01*
X825930Y431514D01*
X825192Y432413D01*
X825192Y432413D01*
X824495Y433109D01*
X824495Y433109D01*
X806952Y450653D01*
X806053Y451391D01*
X805027Y451939D01*
X803914Y452277D01*
X803476Y452320D01*
X802288Y452556D01*
X801505Y452880D01*
X800801Y453351D01*
X800202Y453951D01*
X799731Y454655D01*
X799406Y455438D01*
X799170Y456626D01*
X799127Y457063D01*
X798790Y458176D01*
X798241Y459202D01*
X797503Y460102D01*
X783606Y473999D01*
X783339Y474294D01*
X782817Y475074D01*
X782515Y475805D01*
X782332Y476725D01*
X782312Y477122D01*
Y482677D01*
X860208D01*
Y10000D01*
Y9600D01*
X860051Y8814D01*
X859745Y8074D01*
X859300Y7408D01*
X858734Y6842D01*
X858068Y6397D01*
X857328Y6090D01*
X856542Y5934D01*
X9600D01*
X8814Y6090D01*
X8074Y6397D01*
X7408Y6842D01*
X6842Y7408D01*
X6397Y8074D01*
X6090Y8814D01*
X5934Y9600D01*
Y10000D01*
Y238976D01*
X89952D01*
X90933Y239024D01*
X92855Y239407D01*
X94666Y240157D01*
X96296Y241246D01*
X97023Y241905D01*
X122662Y267544D01*
X123321Y268271D01*
X124410Y269901D01*
X125160Y271712D01*
X125542Y273634D01*
X125591Y274615D01*
X125591Y274615D01*
Y452945D01*
X125591Y453929D01*
X125975Y455861D01*
X126729Y457681D01*
X127823Y459319D01*
X128519Y460015D01*
X149433Y480929D01*
X150130Y481626D01*
X151768Y482720D01*
X153587Y483474D01*
X155519Y483858D01*
X156504Y483858D01*
X156504Y483858D01*
X182866D01*
X183846Y483906D01*
X185769Y484289D01*
X187580Y485039D01*
X189210Y486128D01*
X189937Y486787D01*
X189937Y486787D01*
X272776Y569627D01*
X272779Y569626D01*
X275122Y568998D01*
X277527Y568681D01*
X279953D01*
X282358Y568998D01*
X284701Y569626D01*
X286942Y570554D01*
X289042Y571767D01*
X290967Y573243D01*
X292682Y574958D01*
X294159Y576883D01*
X295371Y578983D01*
X296300Y581224D01*
X296927Y583567D01*
X297244Y585972D01*
Y588398D01*
X296927Y590803D01*
X296300Y593146D01*
X296298Y593149D01*
X319118Y615969D01*
X319815Y616665D01*
X321453Y617760D01*
X323272Y618513D01*
X325204Y618898D01*
X326189Y618898D01*
X326189Y618898D01*
X424304Y618898D01*
D02*
G37*
%LPC*%
G36*
X488620Y912008D02*
X487758D01*
X486962Y911678D01*
X486353Y911069D01*
X486024Y910273D01*
Y909412D01*
X486353Y908616D01*
X486962Y908007D01*
X487758Y907677D01*
X488620D01*
X489416Y908007D01*
X490025Y908616D01*
X490354Y909412D01*
Y910273D01*
X490025Y911069D01*
X489416Y911678D01*
X488620Y912008D01*
D02*
G37*
G36*
X459092D02*
X458231D01*
X457435Y911678D01*
X456826Y911069D01*
X456496Y910273D01*
Y909412D01*
X456826Y908616D01*
X457435Y908007D01*
X458231Y907677D01*
X459092D01*
X459888Y908007D01*
X460497Y908616D01*
X460827Y909412D01*
Y910273D01*
X460497Y911069D01*
X459888Y911678D01*
X459092Y912008D01*
D02*
G37*
G36*
X431533D02*
X430672D01*
X429876Y911678D01*
X429267Y911069D01*
X428937Y910273D01*
Y909412D01*
X429267Y908616D01*
X429876Y908007D01*
X430672Y907677D01*
X431533D01*
X432329Y908007D01*
X432938Y908616D01*
X433268Y909412D01*
Y910273D01*
X432938Y911069D01*
X432329Y911678D01*
X431533Y912008D01*
D02*
G37*
G36*
X395706D02*
X394845D01*
X394049Y911678D01*
X393440Y911069D01*
X393110Y910273D01*
Y909412D01*
X393440Y908616D01*
X394049Y908007D01*
X394845Y907677D01*
X395706D01*
X396502Y908007D01*
X397111Y908616D01*
X397441Y909412D01*
Y910273D01*
X397111Y911069D01*
X396502Y911678D01*
X395706Y912008D01*
D02*
G37*
G36*
X366179D02*
X365317D01*
X364522Y911678D01*
X363912Y911069D01*
X363583Y910273D01*
Y909412D01*
X363912Y908616D01*
X364522Y908007D01*
X365317Y907677D01*
X366179D01*
X366975Y908007D01*
X367584Y908616D01*
X367913Y909412D01*
Y910273D01*
X367584Y911069D01*
X366975Y911678D01*
X366179Y912008D01*
D02*
G37*
G36*
X338620D02*
X337758D01*
X336962Y911678D01*
X336353Y911069D01*
X336024Y910273D01*
Y909412D01*
X336353Y908616D01*
X336962Y908007D01*
X337758Y907677D01*
X338620D01*
X339416Y908007D01*
X340025Y908616D01*
X340354Y909412D01*
Y910273D01*
X340025Y911069D01*
X339416Y911678D01*
X338620Y912008D01*
D02*
G37*
G36*
X305155Y911614D02*
X304294D01*
X303498Y911285D01*
X302889Y910675D01*
X302559Y909879D01*
Y909018D01*
X302889Y908222D01*
X303498Y907613D01*
X304294Y907283D01*
X305155D01*
X305951Y907613D01*
X306560Y908222D01*
X306890Y909018D01*
Y909879D01*
X306560Y910675D01*
X305951Y911285D01*
X305155Y911614D01*
D02*
G37*
G36*
X275628D02*
X274766D01*
X273970Y911285D01*
X273361Y910675D01*
X273031Y909879D01*
Y909018D01*
X273361Y908222D01*
X273970Y907613D01*
X274766Y907283D01*
X275628D01*
X276423Y907613D01*
X277032Y908222D01*
X277362Y909018D01*
Y909879D01*
X277032Y910675D01*
X276423Y911285D01*
X275628Y911614D01*
D02*
G37*
G36*
X248068D02*
X247207D01*
X246411Y911285D01*
X245802Y910675D01*
X245472Y909879D01*
Y909018D01*
X245802Y908222D01*
X246411Y907613D01*
X247207Y907283D01*
X248068D01*
X248864Y907613D01*
X249474Y908222D01*
X249803Y909018D01*
Y909879D01*
X249474Y910675D01*
X248864Y911285D01*
X248068Y911614D01*
D02*
G37*
G36*
X217754D02*
X216892D01*
X216096Y911285D01*
X215487Y910675D01*
X215158Y909879D01*
Y909018D01*
X215487Y908222D01*
X216096Y907613D01*
X216892Y907283D01*
X217754D01*
X218549Y907613D01*
X219159Y908222D01*
X219488Y909018D01*
Y909879D01*
X219159Y910675D01*
X218549Y911285D01*
X217754Y911614D01*
D02*
G37*
G36*
X188226D02*
X187365D01*
X186569Y911285D01*
X185960Y910675D01*
X185630Y909879D01*
Y909018D01*
X185960Y908222D01*
X186569Y907613D01*
X187365Y907283D01*
X188226D01*
X189022Y907613D01*
X189631Y908222D01*
X189961Y909018D01*
Y909879D01*
X189631Y910675D01*
X189022Y911285D01*
X188226Y911614D01*
D02*
G37*
G36*
X160667D02*
X159806D01*
X159010Y911285D01*
X158400Y910675D01*
X158071Y909879D01*
Y909018D01*
X158400Y908222D01*
X159010Y907613D01*
X159806Y907283D01*
X160667D01*
X161463Y907613D01*
X162072Y908222D01*
X162402Y909018D01*
Y909879D01*
X162072Y910675D01*
X161463Y911285D01*
X160667Y911614D01*
D02*
G37*
G36*
X127202Y911220D02*
X126341D01*
X125545Y910891D01*
X124936Y910282D01*
X124606Y909486D01*
Y908624D01*
X124936Y907829D01*
X125545Y907219D01*
X126341Y906890D01*
X127202D01*
X127998Y907219D01*
X128607Y907829D01*
X128937Y908624D01*
Y909486D01*
X128607Y910282D01*
X127998Y910891D01*
X127202Y911220D01*
D02*
G37*
G36*
X97675D02*
X96813D01*
X96017Y910891D01*
X95408Y910282D01*
X95079Y909486D01*
Y908624D01*
X95408Y907829D01*
X96017Y907219D01*
X96813Y906890D01*
X97675D01*
X98471Y907219D01*
X99080Y907829D01*
X99410Y908624D01*
Y909486D01*
X99080Y910282D01*
X98471Y910891D01*
X97675Y911220D01*
D02*
G37*
G36*
X70116D02*
X69254D01*
X68458Y910891D01*
X67849Y910282D01*
X67520Y909486D01*
Y908624D01*
X67849Y907829D01*
X68458Y907219D01*
X69254Y906890D01*
X70116D01*
X70912Y907219D01*
X71521Y907829D01*
X71850Y908624D01*
Y909486D01*
X71521Y910282D01*
X70912Y910891D01*
X70116Y911220D01*
D02*
G37*
G36*
X9092Y910433D02*
X8231D01*
X7435Y910103D01*
X6826Y909494D01*
X6496Y908698D01*
Y907837D01*
X6826Y907041D01*
X7435Y906432D01*
X8231Y906102D01*
X9092D01*
X9888Y906432D01*
X10497Y907041D01*
X10827Y907837D01*
Y908698D01*
X10497Y909494D01*
X9888Y910103D01*
X9092Y910433D01*
D02*
G37*
G36*
X105942Y894685D02*
X105081D01*
X104285Y894355D01*
X103937Y894007D01*
X103589Y894355D01*
X102793Y894685D01*
X101932D01*
X101136Y894355D01*
X100787Y894007D01*
X100439Y894355D01*
X99643Y894685D01*
X98782D01*
X97986Y894355D01*
X97377Y893746D01*
X97047Y892950D01*
Y892089D01*
X97377Y891293D01*
X97986Y890684D01*
X98782Y890354D01*
X99643D01*
X100439Y890684D01*
X100787Y891032D01*
X101136Y890684D01*
X101932Y890354D01*
X102793D01*
X103589Y890684D01*
X103937Y891032D01*
X104285Y890684D01*
X105081Y890354D01*
X105942D01*
X106738Y890684D01*
X107348Y891293D01*
X107677Y892089D01*
Y892950D01*
X107348Y893746D01*
X106738Y894355D01*
X105942Y894685D01*
D02*
G37*
G36*
X249643Y896638D02*
X248782D01*
X247986Y896308D01*
X247377Y895699D01*
X247047Y894903D01*
Y894042D01*
X247377Y893246D01*
X247986Y892637D01*
X248782Y892307D01*
X249643D01*
X250439Y892637D01*
X251048Y893246D01*
X251378Y894042D01*
Y894903D01*
X251048Y895699D01*
X250439Y896308D01*
X249643Y896638D01*
D02*
G37*
G36*
X614785Y896260D02*
X613924D01*
X613128Y895930D01*
X612519Y895321D01*
X612189Y894525D01*
Y893664D01*
X612519Y892868D01*
X613128Y892259D01*
X613924Y891929D01*
X614785D01*
X615581Y892259D01*
X616190Y892868D01*
X616520Y893664D01*
Y894525D01*
X616190Y895321D01*
X615581Y895930D01*
X614785Y896260D01*
D02*
G37*
G36*
X618950Y892717D02*
X618089D01*
X617293Y892387D01*
X616684Y891778D01*
X616354Y890982D01*
Y890121D01*
X616684Y889325D01*
X617293Y888715D01*
X618089Y888386D01*
X618950D01*
X619746Y888715D01*
X620355Y889325D01*
X620685Y890121D01*
Y890982D01*
X620355Y891778D01*
X619746Y892387D01*
X618950Y892717D01*
D02*
G37*
G36*
X287832Y887992D02*
X286971D01*
X286175Y887663D01*
X285566Y887053D01*
X285236Y886257D01*
Y885396D01*
X285566Y884600D01*
X286175Y883991D01*
X286971Y883661D01*
X287832D01*
X288628Y883991D01*
X289237Y884600D01*
X289567Y885396D01*
Y886257D01*
X289237Y887053D01*
X288628Y887663D01*
X287832Y887992D01*
D02*
G37*
G36*
X30950Y898937D02*
X29050D01*
X27187Y898566D01*
X25431Y897839D01*
X23851Y896784D01*
X22508Y895440D01*
X21452Y893860D01*
X20725Y892105D01*
X20354Y890241D01*
Y888341D01*
X20725Y886478D01*
X21452Y884722D01*
X22508Y883143D01*
X23851Y881799D01*
X25431Y880744D01*
X27187Y880016D01*
X29050Y879646D01*
X30950D01*
X32814Y880016D01*
X34569Y880744D01*
X36149Y881799D01*
X37492Y883143D01*
X38548Y884722D01*
X39275Y886478D01*
X39646Y888341D01*
Y890241D01*
X39275Y892105D01*
X38548Y893860D01*
X37492Y895440D01*
X36149Y896784D01*
X34569Y897839D01*
X32814Y898566D01*
X30950Y898937D01*
D02*
G37*
G36*
X207517Y880906D02*
X206656D01*
X205860Y880576D01*
X205251Y879967D01*
X204921Y879171D01*
Y878309D01*
X205251Y877514D01*
X205860Y876904D01*
X206656Y876575D01*
X207517D01*
X208313Y876904D01*
X208922Y877514D01*
X209252Y878309D01*
Y879171D01*
X208922Y879967D01*
X208313Y880576D01*
X207517Y880906D01*
D02*
G37*
G36*
X9092D02*
X8231D01*
X7435Y880576D01*
X6826Y879967D01*
X6496Y879171D01*
Y878309D01*
X6826Y877514D01*
X7435Y876904D01*
X8231Y876575D01*
X9092D01*
X9888Y876904D01*
X10497Y877514D01*
X10827Y878309D01*
Y879171D01*
X10497Y879967D01*
X9888Y880576D01*
X9092Y880906D01*
D02*
G37*
G36*
X249643Y878150D02*
X248782D01*
X247986Y877820D01*
X247377Y877211D01*
X247047Y876415D01*
Y875554D01*
X247377Y874758D01*
X247986Y874149D01*
X248782Y873819D01*
X249643D01*
X250439Y874149D01*
X251048Y874758D01*
X251378Y875554D01*
Y876415D01*
X251048Y877211D01*
X250439Y877820D01*
X249643Y878150D01*
D02*
G37*
G36*
X261454Y877756D02*
X260593D01*
X259797Y877426D01*
X259188Y876817D01*
X258858Y876021D01*
Y875160D01*
X259188Y874364D01*
X259797Y873755D01*
X260593Y873425D01*
X261454D01*
X262250Y873755D01*
X262859Y874364D01*
X263189Y875160D01*
Y876021D01*
X262859Y876817D01*
X262250Y877426D01*
X261454Y877756D01*
D02*
G37*
G36*
X311061Y874606D02*
X310199D01*
X309403Y874277D01*
X308794Y873668D01*
X308465Y872872D01*
Y872010D01*
X308794Y871214D01*
X309403Y870605D01*
X310199Y870276D01*
X311061D01*
X311857Y870605D01*
X312466Y871214D01*
X312795Y872010D01*
Y872872D01*
X312466Y873668D01*
X311857Y874277D01*
X311061Y874606D01*
D02*
G37*
G36*
X119722Y876181D02*
X118861D01*
X118065Y875851D01*
X117456Y875242D01*
X117126Y874446D01*
Y873585D01*
X117456Y872789D01*
X118065Y872180D01*
X118207Y872121D01*
Y871580D01*
X118065Y871521D01*
X117456Y870912D01*
X117126Y870116D01*
Y869254D01*
X117456Y868458D01*
X118065Y867849D01*
X118861Y867520D01*
X119722D01*
X120518Y867849D01*
X121127Y868458D01*
X121457Y869254D01*
Y870116D01*
X121127Y870912D01*
X120518Y871521D01*
X120375Y871580D01*
Y872121D01*
X120518Y872180D01*
X121127Y872789D01*
X121457Y873585D01*
Y874446D01*
X121127Y875242D01*
X120518Y875851D01*
X119722Y876181D01*
D02*
G37*
G36*
X262242Y870276D02*
X261380D01*
X260584Y869946D01*
X259975Y869337D01*
X259646Y868541D01*
Y867680D01*
X259975Y866884D01*
X260584Y866275D01*
X261380Y865945D01*
X262242D01*
X263038Y866275D01*
X263647Y866884D01*
X263976Y867680D01*
Y868541D01*
X263647Y869337D01*
X263038Y869946D01*
X262242Y870276D01*
D02*
G37*
G36*
X249668Y870141D02*
X248807D01*
X248011Y869811D01*
X247402Y869202D01*
X247072Y868406D01*
Y867545D01*
X247402Y866749D01*
X248011Y866140D01*
X248807Y865810D01*
X249668D01*
X250464Y866140D01*
X251073Y866749D01*
X251403Y867545D01*
Y868406D01*
X251073Y869202D01*
X250464Y869811D01*
X249668Y870141D01*
D02*
G37*
G36*
X68633Y875006D02*
X67418D01*
X66245Y874692D01*
X65193Y874084D01*
X64335Y873226D01*
X63727Y872174D01*
X63413Y871001D01*
Y869786D01*
X63727Y868613D01*
X64335Y867562D01*
X65193Y866703D01*
X66245Y866096D01*
X67418Y865781D01*
X68633D01*
X69806Y866096D01*
X70858Y866703D01*
X71716Y867562D01*
X72324Y868613D01*
X72638Y869786D01*
Y871001D01*
X72324Y872174D01*
X71716Y873226D01*
X70858Y874084D01*
X69806Y874692D01*
X68633Y875006D01*
D02*
G37*
G36*
X28633D02*
X27418D01*
X26245Y874692D01*
X25193Y874084D01*
X24335Y873226D01*
X23727Y872174D01*
X23413Y871001D01*
Y869786D01*
X23727Y868613D01*
X24335Y867562D01*
X25193Y866703D01*
X26245Y866096D01*
X27418Y865781D01*
X28633D01*
X29806Y866096D01*
X30858Y866703D01*
X31716Y867562D01*
X32324Y868613D01*
X32638Y869786D01*
Y871001D01*
X32324Y872174D01*
X31716Y873226D01*
X30858Y874084D01*
X29806Y874692D01*
X28633Y875006D01*
D02*
G37*
G36*
X170509Y873425D02*
X169648D01*
X168852Y873096D01*
X168243Y872486D01*
X167913Y871691D01*
Y870829D01*
X168243Y870033D01*
X168852Y869424D01*
X169483Y869163D01*
Y868633D01*
X168852Y868371D01*
X168243Y867762D01*
X167913Y866966D01*
Y866105D01*
X168243Y865309D01*
X168852Y864700D01*
X169648Y864370D01*
X170509D01*
X171305Y864700D01*
X171914Y865309D01*
X172244Y866105D01*
Y866966D01*
X171914Y867762D01*
X171305Y868371D01*
X170674Y868633D01*
Y869163D01*
X171305Y869424D01*
X171914Y870033D01*
X172244Y870829D01*
Y871691D01*
X171914Y872486D01*
X171305Y873096D01*
X170509Y873425D01*
D02*
G37*
G36*
X324447Y867126D02*
X323585D01*
X322789Y866796D01*
X322180Y866187D01*
X321850Y865391D01*
Y864530D01*
X322180Y863734D01*
X322789Y863125D01*
X323585Y862795D01*
X324447D01*
X325242Y863125D01*
X325851Y863734D01*
X326181Y864530D01*
Y865391D01*
X325851Y866187D01*
X325242Y866796D01*
X324447Y867126D01*
D02*
G37*
G36*
X119328Y866339D02*
X118467D01*
X117671Y866009D01*
X117062Y865400D01*
X116732Y864604D01*
Y863743D01*
X117062Y862947D01*
X117671Y862337D01*
X118467Y862008D01*
X119328D01*
X120124Y862337D01*
X120733Y862947D01*
X121063Y863743D01*
Y864604D01*
X120733Y865400D01*
X120124Y866009D01*
X119328Y866339D01*
D02*
G37*
G36*
X170509Y863583D02*
X169648D01*
X168852Y863253D01*
X168243Y862644D01*
X167913Y861848D01*
Y860987D01*
X168243Y860191D01*
X168852Y859582D01*
X169648Y859252D01*
X170509D01*
X171305Y859582D01*
X171914Y860191D01*
X172244Y860987D01*
Y861848D01*
X171914Y862644D01*
X171305Y863253D01*
X170509Y863583D01*
D02*
G37*
G36*
X657417Y864664D02*
X656556D01*
X655760Y864334D01*
X655151Y863725D01*
X654821Y862929D01*
Y862470D01*
X654768Y862061D01*
X654359Y862008D01*
X653900D01*
X653104Y861678D01*
X652495Y861069D01*
X652165Y860273D01*
Y859412D01*
X652495Y858616D01*
X653104Y858007D01*
X653900Y857677D01*
X654761D01*
X655557Y858007D01*
X656166Y858616D01*
X656496Y859412D01*
Y859871D01*
X656549Y860280D01*
X656958Y860333D01*
X657417D01*
X658213Y860663D01*
X658822Y861272D01*
X659152Y862068D01*
Y862929D01*
X658822Y863725D01*
X658213Y864334D01*
X657417Y864664D01*
D02*
G37*
G36*
X437045Y861220D02*
X436184D01*
X435388Y860891D01*
X434778Y860282D01*
X434449Y859486D01*
Y858624D01*
X434458Y858602D01*
X430818Y854962D01*
X428573Y852717D01*
X279072D01*
X279072Y852717D01*
X278611Y852625D01*
X278220Y852364D01*
X278220Y852364D01*
X274960Y849104D01*
X274960Y849104D01*
X250503Y824647D01*
X250473Y824602D01*
X249178Y823540D01*
X247655Y822725D01*
X246002Y822224D01*
X244335Y822060D01*
X244283Y822070D01*
X212804D01*
Y822091D01*
X210602Y821917D01*
X208454Y821402D01*
X206413Y820557D01*
X204530Y819402D01*
X202850Y817968D01*
X202850Y817968D01*
X202511Y817600D01*
X190708Y805797D01*
X190708Y805797D01*
X190708Y805797D01*
X186944Y802033D01*
X186683Y801642D01*
X186591Y801181D01*
X186591Y801181D01*
Y795858D01*
X186591Y795858D01*
Y765545D01*
X186595Y765524D01*
X186465Y764206D01*
X186074Y762918D01*
X185588Y762008D01*
X185002D01*
X184206Y761678D01*
X183597Y761069D01*
X183268Y760273D01*
Y759412D01*
X183597Y758616D01*
X184206Y758007D01*
X185002Y757677D01*
X185864D01*
X186660Y758007D01*
X187269Y758616D01*
X187598Y759412D01*
Y760273D01*
X187510Y760486D01*
X188314Y761990D01*
X188843Y763733D01*
X189021Y765545D01*
X188999D01*
Y795858D01*
X188999Y795858D01*
Y800682D01*
X192411Y804094D01*
X192411Y804094D01*
X198516Y810198D01*
X199016Y809991D01*
Y809412D01*
X199345Y808616D01*
X199954Y808007D01*
X200750Y807677D01*
X201612D01*
X202408Y808007D01*
X203017Y808616D01*
X203346Y809412D01*
Y810273D01*
X203017Y811069D01*
X202408Y811678D01*
X201612Y812008D01*
X201032D01*
X200825Y812508D01*
X204568Y816251D01*
X204568Y816251D01*
X204933Y816575D01*
X205952Y817445D01*
X207512Y818400D01*
X209202Y819100D01*
X210980Y819528D01*
X212771Y819668D01*
X212804Y819662D01*
X244283D01*
Y819650D01*
X246038Y819789D01*
X247749Y820199D01*
X249375Y820873D01*
X250875Y821793D01*
X252214Y822935D01*
X252206Y822943D01*
X265600Y836338D01*
X266024Y836055D01*
X265945Y835864D01*
Y835002D01*
X266274Y834206D01*
X266884Y833597D01*
X267680Y833268D01*
X268541D01*
X269337Y833597D01*
X269946Y834206D01*
X270276Y835002D01*
Y835864D01*
X269946Y836660D01*
X269337Y837269D01*
X268541Y837598D01*
X267680D01*
X267489Y837519D01*
X267205Y837943D01*
X276663Y847401D01*
X276663Y847401D01*
X279571Y850309D01*
X295849D01*
X296096Y849809D01*
X295832Y849172D01*
Y848310D01*
X296162Y847515D01*
X296771Y846906D01*
X297567Y846576D01*
X298428D01*
X299224Y846906D01*
X299833Y847515D01*
X300163Y848310D01*
Y849172D01*
X299899Y849809D01*
X300146Y850309D01*
X307957D01*
X308164Y849809D01*
X308007Y849652D01*
X307677Y848856D01*
Y847995D01*
X308007Y847199D01*
X308616Y846589D01*
X309412Y846260D01*
X310273D01*
X311069Y846589D01*
X311678Y847199D01*
X312008Y847995D01*
Y848856D01*
X311678Y849652D01*
X311521Y849809D01*
X311728Y850309D01*
X429072D01*
X429072Y850309D01*
X429533Y850400D01*
X429923Y850661D01*
X432521Y853259D01*
X436161Y856899D01*
X436184Y856890D01*
X437045D01*
X437841Y857219D01*
X438450Y857829D01*
X438779Y858624D01*
Y859486D01*
X438450Y860282D01*
X437841Y860891D01*
X437045Y861220D01*
D02*
G37*
G36*
X311061Y858465D02*
X310199D01*
X309403Y858135D01*
X308794Y857526D01*
X308465Y856730D01*
Y855869D01*
X308794Y855073D01*
X309403Y854463D01*
X310199Y854134D01*
X311061D01*
X311857Y854463D01*
X312466Y855073D01*
X312795Y855869D01*
Y856730D01*
X312466Y857526D01*
X311857Y858135D01*
X311061Y858465D01*
D02*
G37*
G36*
X170509D02*
X169648D01*
X168852Y858135D01*
X168243Y857526D01*
X167913Y856730D01*
Y855869D01*
X168243Y855073D01*
X168852Y854463D01*
X169648Y854134D01*
X170509D01*
X171305Y854463D01*
X171914Y855073D01*
X172244Y855869D01*
Y856730D01*
X171914Y857526D01*
X171305Y858135D01*
X170509Y858465D01*
D02*
G37*
G36*
X86257D02*
X85396D01*
X84600Y858135D01*
X83991Y857526D01*
X83661Y856730D01*
Y855869D01*
X83991Y855073D01*
X84600Y854463D01*
X85396Y854134D01*
X86257D01*
X87053Y854463D01*
X87663Y855073D01*
X87992Y855869D01*
Y856730D01*
X87663Y857526D01*
X87053Y858135D01*
X86257Y858465D01*
D02*
G37*
G36*
X297699Y858206D02*
X296838D01*
X296042Y857876D01*
X295433Y857267D01*
X295103Y856471D01*
Y855610D01*
X295433Y854814D01*
X296042Y854205D01*
X296838Y853875D01*
X297699D01*
X298495Y854205D01*
X299104Y854814D01*
X299434Y855610D01*
Y856471D01*
X299104Y857267D01*
X298495Y857876D01*
X297699Y858206D01*
D02*
G37*
G36*
X336651Y857677D02*
X335790D01*
X334994Y857347D01*
X334385Y856738D01*
X334055Y855943D01*
Y855081D01*
X334385Y854285D01*
X334994Y853676D01*
X335790Y853347D01*
X336651D01*
X337447Y853676D01*
X338056Y854285D01*
X338386Y855081D01*
Y855943D01*
X338056Y856738D01*
X337447Y857347D01*
X336651Y857677D01*
D02*
G37*
G36*
X9092Y853347D02*
X8231D01*
X7435Y853017D01*
X6826Y852408D01*
X6496Y851612D01*
Y850750D01*
X6826Y849955D01*
X7435Y849345D01*
X8231Y849016D01*
X9092D01*
X9888Y849345D01*
X10497Y849955D01*
X10827Y850750D01*
Y851612D01*
X10497Y852408D01*
X9888Y853017D01*
X9092Y853347D01*
D02*
G37*
G36*
X606730Y852165D02*
X605868D01*
X605073Y851836D01*
X604463Y851227D01*
X604134Y850431D01*
Y849569D01*
X604463Y848773D01*
X605073Y848164D01*
X605868Y847835D01*
X606730D01*
X607526Y848164D01*
X608135Y848773D01*
X608465Y849569D01*
Y850431D01*
X608135Y851227D01*
X607526Y851836D01*
X606730Y852165D01*
D02*
G37*
G36*
X262651Y851730D02*
X261790D01*
X260994Y851400D01*
X260385Y850791D01*
X260055Y849995D01*
Y849134D01*
X260385Y848338D01*
X260994Y847729D01*
X261790Y847399D01*
X262651D01*
X263447Y847729D01*
X263747Y848029D01*
X264306Y847986D01*
X264915Y847377D01*
X265711Y847047D01*
X266572D01*
X267368Y847377D01*
X267977Y847986D01*
X268307Y848782D01*
Y849643D01*
X267977Y850439D01*
X267368Y851048D01*
X266572Y851378D01*
X265711D01*
X264915Y851048D01*
X264615Y850748D01*
X264056Y850791D01*
X263447Y851400D01*
X262651Y851730D01*
D02*
G37*
G36*
X246887Y851378D02*
X246026D01*
X245230Y851048D01*
X244621Y850439D01*
X244291Y849643D01*
Y848782D01*
X244621Y847986D01*
X245230Y847377D01*
X246026Y847047D01*
X246887D01*
X247683Y847377D01*
X248292Y847986D01*
X248622Y848782D01*
Y849643D01*
X248292Y850439D01*
X247683Y851048D01*
X246887Y851378D01*
D02*
G37*
G36*
X735358Y848634D02*
X734496D01*
X733700Y848304D01*
X733091Y847695D01*
X732762Y846899D01*
Y846038D01*
X733091Y845242D01*
X733700Y844633D01*
X734496Y844303D01*
X735358D01*
X736154Y844633D01*
X736763Y845242D01*
X737092Y846038D01*
Y846899D01*
X736763Y847695D01*
X736154Y848304D01*
X735358Y848634D01*
D02*
G37*
G36*
X53797Y857825D02*
X52333D01*
X50897Y857539D01*
X49545Y856979D01*
X48328Y856166D01*
X47293Y855131D01*
X46479Y853914D01*
X45919Y852561D01*
X45634Y851126D01*
Y849662D01*
X45919Y848226D01*
X46479Y846874D01*
X47293Y845657D01*
X48328Y844622D01*
X49545Y843808D01*
X50897Y843248D01*
X52333Y842963D01*
X53797D01*
X55232Y843248D01*
X56585Y843808D01*
X57802Y844622D01*
X58837Y845657D01*
X59650Y846874D01*
X60210Y848226D01*
X60496Y849662D01*
Y851126D01*
X60210Y852561D01*
X59650Y853914D01*
X58837Y855131D01*
X57802Y856166D01*
X56585Y856979D01*
X55232Y857539D01*
X53797Y857825D01*
D02*
G37*
G36*
X241093Y843399D02*
X240232D01*
X239436Y843069D01*
X238827Y842460D01*
X238506Y841686D01*
X238072Y841436D01*
X237832Y841535D01*
X236971D01*
X236175Y841206D01*
X235566Y840597D01*
X235236Y839801D01*
Y838939D01*
X235566Y838144D01*
X236175Y837534D01*
X236971Y837205D01*
X237832D01*
X238628Y837534D01*
X239237Y838144D01*
X239558Y838918D01*
X239992Y839167D01*
X240232Y839068D01*
X241093D01*
X241889Y839398D01*
X242498Y840007D01*
X242828Y840803D01*
Y841664D01*
X242498Y842460D01*
X241889Y843069D01*
X241093Y843399D01*
D02*
G37*
G36*
X279171Y845472D02*
X278309D01*
X277514Y845143D01*
X276905Y844534D01*
X276575Y843738D01*
Y842876D01*
X276905Y842080D01*
X277514Y841471D01*
X278309Y841142D01*
X279171D01*
X279967Y841471D01*
X280576Y842080D01*
X280906Y842876D01*
Y843738D01*
X280576Y844534D01*
X279967Y845143D01*
X279171Y845472D01*
D02*
G37*
G36*
X606730Y844685D02*
X605868D01*
X605073Y844355D01*
X604463Y843746D01*
X604134Y842950D01*
Y842089D01*
X604463Y841293D01*
X605073Y840684D01*
X605868Y840354D01*
X606730D01*
X607526Y840684D01*
X608135Y841293D01*
X608465Y842089D01*
Y842950D01*
X608135Y843746D01*
X607526Y844355D01*
X606730Y844685D01*
D02*
G37*
G36*
X742557Y841929D02*
X741695D01*
X740899Y841599D01*
X740290Y840990D01*
X739961Y840195D01*
Y839333D01*
X740290Y838537D01*
X740899Y837928D01*
X741695Y837598D01*
X742557D01*
X743353Y837928D01*
X743962Y838537D01*
X744291Y839333D01*
Y840195D01*
X743962Y840990D01*
X743353Y841599D01*
X742557Y841929D01*
D02*
G37*
G36*
X253187Y841535D02*
X252325D01*
X251529Y841206D01*
X250920Y840597D01*
X250591Y839801D01*
Y838939D01*
X250920Y838144D01*
X251529Y837534D01*
X252325Y837205D01*
X253187D01*
X253982Y837534D01*
X254592Y838144D01*
X254921Y838939D01*
Y839801D01*
X254592Y840597D01*
X253982Y841206D01*
X253187Y841535D01*
D02*
G37*
G36*
X415391Y837205D02*
X414530D01*
X413734Y836875D01*
X413125Y836266D01*
X412795Y835470D01*
Y834609D01*
X413125Y833813D01*
X413734Y833204D01*
X414530Y832874D01*
X415391D01*
X416187Y833204D01*
X416796Y833813D01*
X417126Y834609D01*
Y835470D01*
X416796Y836266D01*
X416187Y836875D01*
X415391Y837205D01*
D02*
G37*
G36*
X296887Y833661D02*
X296026D01*
X295230Y833332D01*
X294621Y832723D01*
X294291Y831927D01*
Y831065D01*
X294621Y830270D01*
X295230Y829660D01*
X296026Y829331D01*
X296887D01*
X297683Y829660D01*
X298292Y830270D01*
X298622Y831065D01*
Y831927D01*
X298292Y832723D01*
X297683Y833332D01*
X296887Y833661D01*
D02*
G37*
G36*
X277596Y826563D02*
X276735D01*
X275939Y826233D01*
X275330Y825624D01*
X275000Y824829D01*
Y823967D01*
X275330Y823171D01*
X275939Y822562D01*
X276735Y822232D01*
X277596D01*
X278392Y822562D01*
X279001Y823171D01*
X279331Y823967D01*
Y824829D01*
X279001Y825624D01*
X278392Y826233D01*
X277596Y826563D01*
D02*
G37*
G36*
X68633Y835006D02*
X67418D01*
X66245Y834692D01*
X65193Y834085D01*
X64335Y833226D01*
X63727Y832174D01*
X63413Y831001D01*
Y829786D01*
X63727Y828613D01*
X64335Y827562D01*
X65193Y826703D01*
X66245Y826096D01*
X66462Y826037D01*
Y825537D01*
X66245Y825479D01*
X65193Y824872D01*
X64335Y824013D01*
X63727Y822961D01*
X63413Y821788D01*
Y820574D01*
X63727Y819401D01*
X64335Y818349D01*
X65193Y817490D01*
X66245Y816883D01*
X67418Y816569D01*
X68633D01*
X69806Y816883D01*
X70858Y817490D01*
X71716Y818349D01*
X72324Y819401D01*
X72638Y820574D01*
Y821788D01*
X72324Y822961D01*
X71716Y824013D01*
X70858Y824872D01*
X69806Y825479D01*
X69589Y825537D01*
Y826037D01*
X69806Y826096D01*
X70858Y826703D01*
X71716Y827562D01*
X72324Y828613D01*
X72638Y829786D01*
Y831001D01*
X72324Y832174D01*
X71716Y833226D01*
X70858Y834085D01*
X69806Y834692D01*
X68633Y835006D01*
D02*
G37*
G36*
X28633D02*
X27418D01*
X26245Y834692D01*
X25193Y834085D01*
X24335Y833226D01*
X23727Y832174D01*
X23413Y831001D01*
Y829786D01*
X23727Y828613D01*
X24335Y827562D01*
X25193Y826703D01*
X26245Y826096D01*
X26463Y826037D01*
Y825537D01*
X26245Y825479D01*
X25193Y824872D01*
X24335Y824013D01*
X23727Y822961D01*
X23413Y821788D01*
Y820574D01*
X23727Y819401D01*
X24335Y818349D01*
X25193Y817490D01*
X26245Y816883D01*
X27418Y816569D01*
X28633D01*
X29806Y816883D01*
X30858Y817490D01*
X31716Y818349D01*
X32324Y819401D01*
X32638Y820574D01*
Y821788D01*
X32324Y822961D01*
X31716Y824013D01*
X30858Y824872D01*
X29806Y825479D01*
X29588Y825537D01*
Y826037D01*
X29806Y826096D01*
X30858Y826703D01*
X31716Y827562D01*
X32324Y828613D01*
X32638Y829786D01*
Y831001D01*
X32324Y832174D01*
X31716Y833226D01*
X30858Y834085D01*
X29806Y834692D01*
X28633Y835006D01*
D02*
G37*
G36*
X9486Y819882D02*
X8624D01*
X7829Y819552D01*
X7219Y818943D01*
X6890Y818147D01*
Y817286D01*
X7219Y816490D01*
X7829Y815881D01*
X8624Y815551D01*
X9486D01*
X10282Y815881D01*
X10891Y816490D01*
X11220Y817286D01*
Y818147D01*
X10891Y818943D01*
X10282Y819552D01*
X9486Y819882D01*
D02*
G37*
G36*
X219722Y816732D02*
X218861D01*
X218065Y816403D01*
X217456Y815794D01*
X217126Y814998D01*
Y814136D01*
X217456Y813340D01*
X218065Y812731D01*
X218861Y812402D01*
X219722D01*
X220518Y812731D01*
X221127Y813340D01*
X221457Y814136D01*
Y814998D01*
X221127Y815794D01*
X220518Y816403D01*
X219722Y816732D01*
D02*
G37*
G36*
X188979Y816339D02*
X188118D01*
X187322Y816009D01*
X186713Y815400D01*
X186383Y814604D01*
Y813743D01*
X186713Y812947D01*
X187322Y812337D01*
X188118Y812008D01*
X188979D01*
X189775Y812337D01*
X190384Y812947D01*
X190714Y813743D01*
Y814604D01*
X190384Y815400D01*
X189775Y816009D01*
X188979Y816339D01*
D02*
G37*
G36*
X161367Y825000D02*
X159893D01*
X158448Y824712D01*
X157087Y824149D01*
X155861Y823330D01*
X154820Y822288D01*
X154001Y821063D01*
X153437Y819702D01*
X153150Y818256D01*
Y816783D01*
X153437Y815338D01*
X154001Y813976D01*
X154820Y812751D01*
X155861Y811709D01*
X157087Y810891D01*
X158448Y810327D01*
X159893Y810039D01*
X161367D01*
X162812Y810327D01*
X164173Y810891D01*
X165398Y811709D01*
X166440Y812751D01*
X167259Y813976D01*
X167823Y815338D01*
X168110Y816783D01*
Y818256D01*
X167823Y819702D01*
X167259Y821063D01*
X166440Y822288D01*
X165398Y823330D01*
X164173Y824149D01*
X162812Y824712D01*
X161367Y825000D01*
D02*
G37*
G36*
X238269Y809603D02*
X237407D01*
X236611Y809273D01*
X236002Y808664D01*
X235673Y807868D01*
Y807007D01*
X236002Y806211D01*
X236611Y805602D01*
X237407Y805272D01*
X238269D01*
X239065Y805602D01*
X239674Y806211D01*
X240003Y807007D01*
Y807868D01*
X239674Y808664D01*
X239065Y809273D01*
X238269Y809603D01*
D02*
G37*
G36*
X252335Y809295D02*
X251474D01*
X250678Y808965D01*
X250069Y808356D01*
X249739Y807560D01*
Y806699D01*
X250069Y805903D01*
X250678Y805294D01*
X251474Y804964D01*
X252335D01*
X253131Y805294D01*
X253740Y805903D01*
X254070Y806699D01*
Y807560D01*
X253740Y808356D01*
X253131Y808965D01*
X252335Y809295D01*
D02*
G37*
G36*
X731533Y808858D02*
X730672D01*
X729876Y808529D01*
X729267Y807920D01*
X728937Y807124D01*
Y806262D01*
X729267Y805466D01*
X729876Y804857D01*
X730672Y804528D01*
X731533D01*
X732329Y804857D01*
X732938Y805466D01*
X733268Y806262D01*
Y807124D01*
X732938Y807920D01*
X732329Y808529D01*
X731533Y808858D01*
D02*
G37*
G36*
X701218D02*
X700357D01*
X699561Y808529D01*
X698952Y807920D01*
X698622Y807124D01*
Y806262D01*
X698952Y805466D01*
X699561Y804857D01*
X700357Y804528D01*
X701218D01*
X702014Y804857D01*
X702623Y805466D01*
X702953Y806262D01*
Y807124D01*
X702623Y807920D01*
X702014Y808529D01*
X701218Y808858D01*
D02*
G37*
G36*
X499643Y808858D02*
X498782D01*
X497986Y808529D01*
X497377Y807920D01*
X497047Y807124D01*
Y806262D01*
X497377Y805466D01*
X497986Y804857D01*
X498782Y804528D01*
X499643D01*
X500439Y804857D01*
X501048Y805466D01*
X501378Y806262D01*
Y807124D01*
X501048Y807920D01*
X500439Y808529D01*
X499643Y808858D01*
D02*
G37*
G36*
X493887Y808465D02*
X493026D01*
X492230Y808135D01*
X491621Y807526D01*
X491291Y806730D01*
Y805869D01*
X491621Y805073D01*
X492230Y804463D01*
X493026Y804134D01*
X493887D01*
X494683Y804463D01*
X495292Y805073D01*
X495622Y805869D01*
Y806730D01*
X495292Y807526D01*
X494683Y808135D01*
X493887Y808465D01*
D02*
G37*
G36*
X541308Y806310D02*
X540446D01*
X539650Y805980D01*
X539041Y805371D01*
X538712Y804575D01*
Y803714D01*
X539041Y802918D01*
X539650Y802309D01*
X540446Y801979D01*
X541308D01*
X542103Y802309D01*
X542713Y802918D01*
X543042Y803714D01*
Y804575D01*
X542713Y805371D01*
X542103Y805980D01*
X541308Y806310D01*
D02*
G37*
G36*
X742950Y804528D02*
X742089D01*
X741293Y804198D01*
X740684Y803589D01*
X740354Y802793D01*
Y801931D01*
X740684Y801136D01*
X741293Y800527D01*
X742089Y800197D01*
X742950D01*
X743746Y800527D01*
X744355Y801136D01*
X744685Y801931D01*
Y802793D01*
X744355Y803589D01*
X743746Y804198D01*
X742950Y804528D01*
D02*
G37*
G36*
X238620Y804134D02*
X237758D01*
X236962Y803804D01*
X236353Y803195D01*
X236024Y802399D01*
Y801538D01*
X236353Y800742D01*
X236962Y800133D01*
X237758Y799803D01*
X238620D01*
X239416Y800133D01*
X240025Y800742D01*
X240354Y801538D01*
Y802399D01*
X240025Y803195D01*
X239416Y803804D01*
X238620Y804134D01*
D02*
G37*
G36*
X221297Y803740D02*
X220435D01*
X219640Y803411D01*
X219030Y802801D01*
X218701Y802005D01*
Y801144D01*
X219030Y800348D01*
X219640Y799739D01*
X220435Y799409D01*
X221297D01*
X222093Y799739D01*
X222702Y800348D01*
X223031Y801144D01*
Y802005D01*
X222702Y802801D01*
X222093Y803411D01*
X221297Y803740D01*
D02*
G37*
G36*
X764402Y797856D02*
X763386D01*
Y795276D01*
X767819D01*
X767489Y796074D01*
X766922Y796812D01*
X766184Y797378D01*
X765324Y797735D01*
X764402Y797856D01*
D02*
G37*
G36*
X761417D02*
X760402D01*
X759479Y797735D01*
X758619Y797378D01*
X757881Y796812D01*
X757314Y796074D01*
X756984Y795276D01*
X761417D01*
Y797856D01*
D02*
G37*
G36*
X536651Y799409D02*
X535790D01*
X534994Y799080D01*
X534385Y798471D01*
X534055Y797675D01*
Y796813D01*
X534385Y796018D01*
X534994Y795408D01*
X535790Y795079D01*
X536651D01*
X537447Y795408D01*
X538056Y796018D01*
X538386Y796813D01*
Y797675D01*
X538056Y798471D01*
X537447Y799080D01*
X536651Y799409D01*
D02*
G37*
G36*
X53797Y808612D02*
X52333D01*
X50897Y808327D01*
X49545Y807767D01*
X48328Y806953D01*
X47293Y805918D01*
X46479Y804701D01*
X45919Y803349D01*
X45634Y801913D01*
Y800449D01*
X45919Y799014D01*
X46479Y797661D01*
X47293Y796444D01*
X48328Y795409D01*
X49545Y794596D01*
X50897Y794036D01*
X52333Y793750D01*
X53797D01*
X55232Y794036D01*
X56585Y794596D01*
X57802Y795409D01*
X58837Y796444D01*
X59650Y797661D01*
X60210Y799014D01*
X60496Y800449D01*
Y801913D01*
X60210Y803349D01*
X59650Y804701D01*
X58837Y805918D01*
X57802Y806953D01*
X56585Y807767D01*
X55232Y808327D01*
X53797Y808612D01*
D02*
G37*
G36*
X142005Y818617D02*
X79005D01*
X78698Y818556D01*
X78437Y818382D01*
X78263Y818122D01*
X78202Y817814D01*
Y792814D01*
X78263Y792507D01*
X78437Y792247D01*
X78698Y792073D01*
X79005Y792011D01*
X142005D01*
X142312Y792073D01*
X142573Y792247D01*
X142747Y792507D01*
X142808Y792814D01*
Y817814D01*
X142747Y818122D01*
X142573Y818382D01*
X142312Y818556D01*
X142005Y818617D01*
D02*
G37*
G36*
X701612Y795866D02*
X700750D01*
X699955Y795537D01*
X699345Y794927D01*
X699016Y794132D01*
Y793270D01*
X699345Y792474D01*
X699955Y791865D01*
X700750Y791535D01*
X701612D01*
X702408Y791865D01*
X703017Y792474D01*
X703346Y793270D01*
Y794132D01*
X703017Y794927D01*
X702408Y795537D01*
X701612Y795866D01*
D02*
G37*
G36*
X767819Y793307D02*
X763386D01*
Y790727D01*
X764402D01*
X765324Y790848D01*
X766184Y791204D01*
X766922Y791771D01*
X767489Y792509D01*
X767819Y793307D01*
D02*
G37*
G36*
X761417D02*
X756984D01*
X757314Y792509D01*
X757881Y791771D01*
X758619Y791204D01*
X759479Y790848D01*
X760402Y790727D01*
X761417D01*
Y793307D01*
D02*
G37*
G36*
X731927Y794291D02*
X731065D01*
X730269Y793962D01*
X729660Y793353D01*
X729331Y792557D01*
Y791695D01*
X729660Y790899D01*
X730269Y790290D01*
X731065Y789961D01*
X731927D01*
X732723Y790290D01*
X733332Y790899D01*
X733661Y791695D01*
Y792557D01*
X733332Y793353D01*
X732723Y793962D01*
X731927Y794291D01*
D02*
G37*
G36*
X502399Y794291D02*
X501538D01*
X500742Y793962D01*
X500133Y793353D01*
X499803Y792557D01*
Y791695D01*
X500133Y790899D01*
X500742Y790290D01*
X501538Y789961D01*
X502399D01*
X503195Y790290D01*
X503804Y790899D01*
X504134Y791695D01*
Y792557D01*
X503804Y793353D01*
X503195Y793962D01*
X502399Y794291D01*
D02*
G37*
G36*
X494525D02*
X493664D01*
X492868Y793962D01*
X492259Y793353D01*
X491929Y792557D01*
Y791695D01*
X492259Y790899D01*
X492868Y790290D01*
X493664Y789961D01*
X494525D01*
X495321Y790290D01*
X495930Y790899D01*
X496260Y791695D01*
Y792557D01*
X495930Y793353D01*
X495321Y793962D01*
X494525Y794291D01*
D02*
G37*
G36*
X696887Y790748D02*
X696026D01*
X695230Y790418D01*
X694621Y789809D01*
X694291Y789013D01*
Y788152D01*
X694621Y787356D01*
X695230Y786747D01*
X696026Y786417D01*
X696887D01*
X697683Y786747D01*
X698292Y787356D01*
X698622Y788152D01*
Y789013D01*
X698292Y789809D01*
X697683Y790418D01*
X696887Y790748D01*
D02*
G37*
G36*
X524840Y790748D02*
X523979D01*
X523183Y790418D01*
X522574Y789809D01*
X522244Y789013D01*
Y788152D01*
X522574Y787356D01*
X523183Y786747D01*
X523979Y786417D01*
X524840D01*
X525636Y786747D01*
X526245Y787356D01*
X526575Y788152D01*
Y789013D01*
X526245Y789809D01*
X525636Y790418D01*
X524840Y790748D01*
D02*
G37*
G36*
X9486Y790354D02*
X8624D01*
X7829Y790025D01*
X7219Y789416D01*
X6890Y788620D01*
Y787758D01*
X7219Y786962D01*
X7829Y786353D01*
X8624Y786024D01*
X9486D01*
X10282Y786353D01*
X10891Y786962D01*
X11220Y787758D01*
Y788620D01*
X10891Y789416D01*
X10282Y790025D01*
X9486Y790354D01*
D02*
G37*
G36*
X192557Y789961D02*
X191695D01*
X190899Y789631D01*
X190290Y789022D01*
X189961Y788226D01*
Y787365D01*
X190290Y786569D01*
X190899Y785960D01*
X191695Y785630D01*
X192557D01*
X193352Y785960D01*
X193962Y786569D01*
X194291Y787365D01*
Y788226D01*
X193962Y789022D01*
X193352Y789631D01*
X192557Y789961D01*
D02*
G37*
G36*
X205549Y789567D02*
X204687D01*
X203891Y789237D01*
X203282Y788628D01*
X202953Y787832D01*
Y786971D01*
X203282Y786175D01*
X203891Y785566D01*
X204687Y785236D01*
X205549D01*
X206345Y785566D01*
X206954Y786175D01*
X207283Y786971D01*
Y787832D01*
X206954Y788628D01*
X206345Y789237D01*
X205549Y789567D01*
D02*
G37*
G36*
X228777Y788386D02*
X227916D01*
X227120Y788056D01*
X226511Y787447D01*
X226181Y786651D01*
Y785790D01*
X226511Y784994D01*
X227120Y784385D01*
X227916Y784055D01*
X228777D01*
X229573Y784385D01*
X230182Y784994D01*
X230512Y785790D01*
Y786651D01*
X230182Y787447D01*
X229573Y788056D01*
X228777Y788386D01*
D02*
G37*
G36*
X764402Y789783D02*
X760402D01*
X759530Y789669D01*
X758718Y789332D01*
X758021Y788798D01*
X757486Y788100D01*
X757150Y787289D01*
X757035Y786417D01*
X757150Y785546D01*
X757486Y784734D01*
X758021Y784037D01*
X758718Y783502D01*
X759530Y783166D01*
X760402Y783051D01*
X764402D01*
X765273Y783166D01*
X766085Y783502D01*
X766782Y784037D01*
X767317Y784734D01*
X767653Y785546D01*
X767768Y786417D01*
X767653Y787289D01*
X767317Y788100D01*
X766782Y788798D01*
X766085Y789332D01*
X765273Y789669D01*
X764402Y789783D01*
D02*
G37*
G36*
X630352Y787205D02*
X629491D01*
X628695Y786875D01*
X628086Y786266D01*
X627756Y785470D01*
Y784609D01*
X628086Y783813D01*
X628695Y783204D01*
X629491Y782874D01*
X630352D01*
X631148Y783204D01*
X631757Y783813D01*
X632087Y784609D01*
Y785470D01*
X631757Y786266D01*
X631148Y786875D01*
X630352Y787205D01*
D02*
G37*
G36*
X671297Y786811D02*
X670435D01*
X669640Y786481D01*
X669031Y785872D01*
X668701Y785076D01*
Y784215D01*
X669031Y783419D01*
X669640Y782810D01*
X670435Y782480D01*
X671297D01*
X672093Y782810D01*
X672702Y783419D01*
X673032Y784215D01*
Y785076D01*
X672702Y785872D01*
X672093Y786481D01*
X671297Y786811D01*
D02*
G37*
G36*
X589710Y786630D02*
X588849D01*
X588053Y786301D01*
X587444Y785691D01*
X587114Y784896D01*
Y784034D01*
X587444Y783238D01*
X588053Y782629D01*
X588849Y782300D01*
X589710D01*
X590506Y782629D01*
X591115Y783238D01*
X591445Y784034D01*
Y784896D01*
X591115Y785691D01*
X590506Y786301D01*
X589710Y786630D01*
D02*
G37*
G36*
X583108Y786024D02*
X582246D01*
X581451Y785694D01*
X580841Y785085D01*
X580512Y784289D01*
Y783428D01*
X580841Y782632D01*
X581451Y782023D01*
X582246Y781693D01*
X583108D01*
X583904Y782023D01*
X584513Y782632D01*
X584842Y783428D01*
Y784289D01*
X584513Y785085D01*
X583904Y785694D01*
X583108Y786024D01*
D02*
G37*
G36*
X173659D02*
X172798D01*
X172002Y785694D01*
X171393Y785085D01*
X171063Y784289D01*
Y783428D01*
X171393Y782632D01*
X172002Y782023D01*
X172798Y781693D01*
X173659D01*
X174455Y782023D01*
X175064Y782632D01*
X175394Y783428D01*
Y784289D01*
X175064Y785085D01*
X174455Y785694D01*
X173659Y786024D01*
D02*
G37*
G36*
X179958Y783661D02*
X179097D01*
X178301Y783332D01*
X177692Y782723D01*
X177362Y781927D01*
Y781065D01*
X177692Y780269D01*
X178301Y779660D01*
X179097Y779331D01*
X179958D01*
X180754Y779660D01*
X181363Y780269D01*
X181693Y781065D01*
Y781927D01*
X181363Y782723D01*
X180754Y783332D01*
X179958Y783661D01*
D02*
G37*
G36*
X205155Y782874D02*
X204294D01*
X203498Y782544D01*
X202889Y781935D01*
X202559Y781139D01*
Y780278D01*
X202889Y779482D01*
X203498Y778873D01*
X204294Y778543D01*
X205155D01*
X205951Y778873D01*
X206560Y779482D01*
X206890Y780278D01*
Y781139D01*
X206560Y781935D01*
X205951Y782544D01*
X205155Y782874D01*
D02*
G37*
G36*
X193334Y782491D02*
X192472D01*
X191676Y782161D01*
X191067Y781552D01*
X190738Y780756D01*
Y779895D01*
X191067Y779099D01*
X191676Y778490D01*
X192472Y778160D01*
X193334D01*
X194130Y778490D01*
X194739Y779099D01*
X195068Y779895D01*
Y780756D01*
X194739Y781552D01*
X194130Y782161D01*
X193334Y782491D01*
D02*
G37*
G36*
X502005Y781693D02*
X501144D01*
X500348Y781363D01*
X499739Y780754D01*
X499409Y779958D01*
Y779097D01*
X499739Y778301D01*
X500348Y777692D01*
X501144Y777362D01*
X502005D01*
X502801Y777692D01*
X503410Y778301D01*
X503740Y779097D01*
Y779958D01*
X503410Y780754D01*
X502801Y781363D01*
X502005Y781693D01*
D02*
G37*
G36*
X494919D02*
X494058D01*
X493262Y781363D01*
X492653Y780754D01*
X492323Y779958D01*
Y779097D01*
X492653Y778301D01*
X493262Y777692D01*
X494058Y777362D01*
X494919D01*
X495715Y777692D01*
X496324Y778301D01*
X496654Y779097D01*
Y779958D01*
X496324Y780754D01*
X495715Y781363D01*
X494919Y781693D01*
D02*
G37*
G36*
X68633Y785793D02*
X67418D01*
X66245Y785479D01*
X65193Y784872D01*
X64335Y784013D01*
X63727Y782961D01*
X63413Y781788D01*
Y780574D01*
X63727Y779401D01*
X64335Y778349D01*
X65193Y777490D01*
X66245Y776883D01*
X67418Y776569D01*
X68633D01*
X69806Y776883D01*
X70858Y777490D01*
X71716Y778349D01*
X72324Y779401D01*
X72638Y780574D01*
Y781788D01*
X72324Y782961D01*
X71716Y784013D01*
X70858Y784872D01*
X69806Y785479D01*
X68633Y785793D01*
D02*
G37*
G36*
X28633D02*
X27418D01*
X26245Y785479D01*
X25193Y784872D01*
X24335Y784013D01*
X23727Y782961D01*
X23413Y781788D01*
Y780574D01*
X23727Y779401D01*
X24335Y778349D01*
X25193Y777490D01*
X26245Y776883D01*
X27418Y776569D01*
X28633D01*
X29806Y776883D01*
X30858Y777490D01*
X31716Y778349D01*
X32324Y779401D01*
X32638Y780574D01*
Y781788D01*
X32324Y782961D01*
X31716Y784013D01*
X30858Y784872D01*
X29806Y785479D01*
X28633Y785793D01*
D02*
G37*
G36*
X665391Y779724D02*
X664530D01*
X663734Y779395D01*
X663125Y778786D01*
X662795Y777990D01*
Y777128D01*
X663125Y776333D01*
X663734Y775723D01*
X664530Y775394D01*
X665391D01*
X666187Y775723D01*
X666796Y776333D01*
X667126Y777128D01*
Y777990D01*
X666796Y778786D01*
X666187Y779395D01*
X665391Y779724D01*
D02*
G37*
G36*
X625234D02*
X624372D01*
X623577Y779395D01*
X622967Y778786D01*
X622638Y777990D01*
Y777128D01*
X622967Y776333D01*
X623577Y775723D01*
X624372Y775394D01*
X625234D01*
X626030Y775723D01*
X626639Y776333D01*
X626968Y777128D01*
Y777990D01*
X626639Y778786D01*
X626030Y779395D01*
X625234Y779724D01*
D02*
G37*
G36*
X764402Y781910D02*
X760402D01*
X759530Y781795D01*
X758718Y781459D01*
X758021Y780924D01*
X757486Y780226D01*
X757150Y779415D01*
X757035Y778543D01*
X757150Y777672D01*
X757486Y776860D01*
X758021Y776163D01*
X758718Y775628D01*
X759530Y775292D01*
X760402Y775177D01*
X764402D01*
X765273Y775292D01*
X766085Y775628D01*
X766782Y776163D01*
X767317Y776860D01*
X767653Y777672D01*
X767768Y778543D01*
X767653Y779415D01*
X767317Y780226D01*
X766782Y780924D01*
X766085Y781459D01*
X765273Y781795D01*
X764402Y781910D01*
D02*
G37*
G36*
X584289Y772244D02*
X583428D01*
X582632Y771914D01*
X582023Y771305D01*
X581693Y770509D01*
Y769648D01*
X582023Y768852D01*
X582632Y768243D01*
X583428Y767913D01*
X584289D01*
X585085Y768243D01*
X585694Y768852D01*
X586024Y769648D01*
Y770509D01*
X585694Y771305D01*
X585085Y771914D01*
X584289Y772244D01*
D02*
G37*
G36*
X764402Y774036D02*
X760402D01*
X759530Y773921D01*
X758718Y773585D01*
X758021Y773050D01*
X757486Y772352D01*
X757150Y771540D01*
X757035Y770669D01*
X757150Y769798D01*
X757486Y768986D01*
X758021Y768289D01*
X758718Y767754D01*
X759530Y767418D01*
X760402Y767303D01*
X764402D01*
X765273Y767418D01*
X766085Y767754D01*
X766782Y768289D01*
X767317Y768986D01*
X767653Y769798D01*
X767768Y770669D01*
X767653Y771540D01*
X767317Y772352D01*
X766782Y773050D01*
X766085Y773585D01*
X765273Y773921D01*
X764402Y774036D01*
D02*
G37*
G36*
X660273Y771457D02*
X659412D01*
X658616Y771127D01*
X658007Y770518D01*
X657677Y769722D01*
Y768861D01*
X658007Y768065D01*
X658616Y767456D01*
X659412Y767126D01*
X660273D01*
X661069Y767456D01*
X661678Y768065D01*
X662008Y768861D01*
Y769722D01*
X661678Y770518D01*
X661069Y771127D01*
X660273Y771457D01*
D02*
G37*
G36*
X484289Y771063D02*
X483427D01*
X482632Y770733D01*
X482023Y770124D01*
X481693Y769328D01*
Y768467D01*
X482023Y767671D01*
X482632Y767062D01*
X483427Y766732D01*
X484289D01*
X485085Y767062D01*
X485694Y767671D01*
X486024Y768467D01*
Y769328D01*
X485694Y770124D01*
X485085Y770733D01*
X484289Y771063D01*
D02*
G37*
G36*
X590803Y770775D02*
X589941D01*
X589146Y770446D01*
X588536Y769836D01*
X588207Y769041D01*
Y768179D01*
X588536Y767383D01*
X589146Y766774D01*
X589941Y766444D01*
X590803D01*
X591599Y766774D01*
X592208Y767383D01*
X592537Y768179D01*
Y769041D01*
X592208Y769836D01*
X591599Y770446D01*
X590803Y770775D01*
D02*
G37*
G36*
X615391Y767913D02*
X614530D01*
X613734Y767584D01*
X613125Y766975D01*
X612795Y766179D01*
Y765317D01*
X613125Y764522D01*
X613734Y763912D01*
X614530Y763583D01*
X615391D01*
X616187Y763912D01*
X616796Y764522D01*
X617126Y765317D01*
Y766179D01*
X616796Y766975D01*
X616187Y767584D01*
X615391Y767913D01*
D02*
G37*
G36*
X660290Y765535D02*
X659429D01*
X658633Y765206D01*
X658024Y764597D01*
X657694Y763801D01*
Y762939D01*
X658024Y762144D01*
X658633Y761534D01*
X659429Y761205D01*
X660290D01*
X661086Y761534D01*
X661695Y762144D01*
X662025Y762939D01*
Y763801D01*
X661695Y764597D01*
X661086Y765206D01*
X660290Y765535D01*
D02*
G37*
G36*
X24304Y768646D02*
X22853D01*
X21451Y768270D01*
X20194Y767544D01*
X19168Y766518D01*
X18442Y765261D01*
X18067Y763860D01*
Y762408D01*
X18442Y761006D01*
X19168Y759750D01*
X20194Y758723D01*
X21451Y757998D01*
X22853Y757622D01*
X24304D01*
X25706Y757998D01*
X26963Y758723D01*
X27989Y759750D01*
X28715Y761006D01*
X29091Y762408D01*
Y763860D01*
X28715Y765261D01*
X27989Y766518D01*
X26963Y767544D01*
X25706Y768270D01*
X24304Y768646D01*
D02*
G37*
G36*
X747675Y760827D02*
X746813D01*
X746018Y760497D01*
X745408Y759888D01*
X745079Y759092D01*
Y758231D01*
X745408Y757435D01*
X746018Y756826D01*
X746813Y756496D01*
X747675D01*
X748471Y756826D01*
X749080Y757435D01*
X749409Y758231D01*
Y759092D01*
X749080Y759888D01*
X748471Y760497D01*
X747675Y760827D01*
D02*
G37*
G36*
X196100Y759252D02*
X195239D01*
X194443Y758922D01*
X193834Y758313D01*
X193504Y757517D01*
Y756656D01*
X193834Y755860D01*
X194443Y755251D01*
X195239Y754921D01*
X196100D01*
X196896Y755251D01*
X197505Y755860D01*
X197835Y756656D01*
Y757517D01*
X197505Y758313D01*
X196896Y758922D01*
X196100Y759252D01*
D02*
G37*
G36*
X591376Y758858D02*
X590514D01*
X589718Y758529D01*
X589109Y757920D01*
X588779Y757124D01*
Y756262D01*
X589109Y755466D01*
X589718Y754857D01*
X590514Y754528D01*
X591376D01*
X592171Y754857D01*
X592781Y755466D01*
X593110Y756262D01*
Y757124D01*
X592781Y757920D01*
X592171Y758529D01*
X591376Y758858D01*
D02*
G37*
G36*
X583502Y758465D02*
X582640D01*
X581844Y758135D01*
X581235Y757526D01*
X580905Y756730D01*
Y755868D01*
X581235Y755073D01*
X581844Y754463D01*
X582640Y754134D01*
X583502D01*
X584297Y754463D01*
X584906Y755073D01*
X585236Y755868D01*
Y756730D01*
X584906Y757526D01*
X584297Y758135D01*
X583502Y758465D01*
D02*
G37*
G36*
X528346Y753646D02*
Y749213D01*
X530927D01*
Y750228D01*
X530805Y751151D01*
X530449Y752011D01*
X529883Y752749D01*
X529145Y753315D01*
X528346Y753646D01*
D02*
G37*
G36*
X526378D02*
X525580Y753315D01*
X524841Y752749D01*
X524275Y752011D01*
X523919Y751151D01*
X523798Y750228D01*
Y749213D01*
X526378D01*
Y753646D01*
D02*
G37*
G36*
X573265Y748622D02*
X572404D01*
X571608Y748292D01*
X570999Y747683D01*
X570669Y746887D01*
Y746026D01*
X570999Y745230D01*
X571608Y744621D01*
X572404Y744291D01*
X573265D01*
X574061Y744621D01*
X574670Y745230D01*
X575000Y746026D01*
Y746887D01*
X574670Y747683D01*
X574061Y748292D01*
X573265Y748622D01*
D02*
G37*
G36*
X675779Y748439D02*
X674918D01*
X674122Y748109D01*
X673513Y747500D01*
X673183Y746704D01*
Y745843D01*
X673513Y745047D01*
X674122Y744438D01*
X674918Y744108D01*
X675779D01*
X676575Y744438D01*
X677184Y745047D01*
X677514Y745843D01*
Y746704D01*
X677184Y747500D01*
X676575Y748109D01*
X675779Y748439D01*
D02*
G37*
G36*
X683494Y748237D02*
X682632D01*
X681836Y747907D01*
X681227Y747298D01*
X680898Y746502D01*
Y745641D01*
X681227Y744845D01*
X681836Y744236D01*
X682632Y743906D01*
X683494D01*
X684290Y744236D01*
X684899Y744845D01*
X685228Y745641D01*
Y746502D01*
X684899Y747298D01*
X684290Y747907D01*
X683494Y748237D01*
D02*
G37*
G36*
X519488Y753594D02*
X518617Y753480D01*
X517805Y753144D01*
X517108Y752609D01*
X516573Y751911D01*
X516237Y751100D01*
X516122Y750228D01*
Y746228D01*
X516237Y745357D01*
X516573Y744545D01*
X517108Y743848D01*
X517805Y743313D01*
X518617Y742977D01*
X519488Y742862D01*
X520359Y742977D01*
X521171Y743313D01*
X521868Y743848D01*
X522403Y744545D01*
X522740Y745357D01*
X522854Y746228D01*
Y750228D01*
X522740Y751100D01*
X522403Y751911D01*
X521868Y752609D01*
X521171Y753144D01*
X520359Y753480D01*
X519488Y753594D01*
D02*
G37*
G36*
X511614D02*
X510743Y753480D01*
X509931Y753144D01*
X509234Y752609D01*
X508699Y751911D01*
X508363Y751100D01*
X508248Y750228D01*
Y746228D01*
X508363Y745357D01*
X508699Y744545D01*
X509234Y743848D01*
X509931Y743313D01*
X510743Y742977D01*
X511614Y742862D01*
X512485Y742977D01*
X513297Y743313D01*
X513994Y743848D01*
X514529Y744545D01*
X514866Y745357D01*
X514980Y746228D01*
Y750228D01*
X514866Y751100D01*
X514529Y751911D01*
X513994Y752609D01*
X513297Y753144D01*
X512485Y753480D01*
X511614Y753594D01*
D02*
G37*
G36*
X503740D02*
X502869Y753480D01*
X502057Y753144D01*
X501360Y752609D01*
X500825Y751911D01*
X500489Y751100D01*
X500374Y750228D01*
Y746228D01*
X500489Y745357D01*
X500825Y744545D01*
X501360Y743848D01*
X502057Y743313D01*
X502869Y742977D01*
X503740Y742862D01*
X504611Y742977D01*
X505423Y743313D01*
X506120Y743848D01*
X506655Y744545D01*
X506992Y745357D01*
X507106Y746228D01*
Y750228D01*
X506992Y751100D01*
X506655Y751911D01*
X506120Y752609D01*
X505423Y753144D01*
X504611Y753480D01*
X503740Y753594D01*
D02*
G37*
G36*
X530927Y747244D02*
X528346D01*
Y742811D01*
X529145Y743141D01*
X529883Y743708D01*
X530449Y744446D01*
X530805Y745306D01*
X530927Y746228D01*
Y747244D01*
D02*
G37*
G36*
X526378D02*
X523798D01*
Y746228D01*
X523919Y745306D01*
X524275Y744446D01*
X524841Y743708D01*
X525580Y743141D01*
X526378Y742811D01*
Y747244D01*
D02*
G37*
G36*
X27545Y748677D02*
X26612D01*
X25711Y748436D01*
X24903Y747969D01*
X24243Y747309D01*
X23777Y746501D01*
X23535Y745600D01*
Y744667D01*
X23777Y743766D01*
X24243Y742958D01*
X24903Y742299D01*
X25711Y741832D01*
X26612Y741591D01*
X27545D01*
X28446Y741832D01*
X29254Y742299D01*
X29914Y742958D01*
X30381Y743766D01*
X30622Y744667D01*
Y745600D01*
X30381Y746501D01*
X29914Y747309D01*
X29254Y747969D01*
X28446Y748436D01*
X27545Y748677D01*
D02*
G37*
G36*
X707124Y744291D02*
X706262D01*
X705466Y743962D01*
X704857Y743353D01*
X704528Y742557D01*
Y741695D01*
X704857Y740899D01*
X705466Y740290D01*
X706262Y739961D01*
X707124D01*
X707920Y740290D01*
X708529Y740899D01*
X708858Y741695D01*
Y742557D01*
X708529Y743353D01*
X707920Y743962D01*
X707124Y744291D01*
D02*
G37*
G36*
X20545Y744677D02*
X19612D01*
X18711Y744436D01*
X17903Y743969D01*
X17243Y743309D01*
X16777Y742501D01*
X16535Y741600D01*
Y740667D01*
X16777Y739766D01*
X17243Y738958D01*
X17903Y738299D01*
X18711Y737832D01*
X19612Y737591D01*
X20545D01*
X21446Y737832D01*
X22254Y738299D01*
X22914Y738958D01*
X23381Y739766D01*
X23622Y740667D01*
Y741600D01*
X23381Y742501D01*
X22914Y743309D01*
X22254Y743969D01*
X21446Y744436D01*
X20545Y744677D01*
D02*
G37*
G36*
X27545Y740677D02*
X26612D01*
X25711Y740436D01*
X24903Y739969D01*
X24243Y739310D01*
X23777Y738502D01*
X23535Y737600D01*
Y736667D01*
X23777Y735766D01*
X24243Y734958D01*
X24903Y734299D01*
X25711Y733832D01*
X26612Y733591D01*
X27545D01*
X28446Y733832D01*
X29254Y734299D01*
X29914Y734958D01*
X30381Y735766D01*
X30622Y736667D01*
Y737600D01*
X30381Y738502D01*
X29914Y739310D01*
X29254Y739969D01*
X28446Y740436D01*
X27545Y740677D01*
D02*
G37*
G36*
X683108Y736024D02*
X682246D01*
X681451Y735694D01*
X680841Y735085D01*
X680512Y734289D01*
Y733427D01*
X680841Y732632D01*
X681451Y732023D01*
X682246Y731693D01*
X683108D01*
X683904Y732023D01*
X684513Y732632D01*
X684842Y733427D01*
Y734289D01*
X684513Y735085D01*
X683904Y735694D01*
X683108Y736024D01*
D02*
G37*
G36*
X676021Y735630D02*
X675160D01*
X674364Y735300D01*
X673755Y734691D01*
X673425Y733895D01*
Y733034D01*
X673755Y732238D01*
X674364Y731629D01*
X675160Y731299D01*
X676021D01*
X676817Y731629D01*
X677426Y732238D01*
X677756Y733034D01*
Y733895D01*
X677426Y734691D01*
X676817Y735300D01*
X676021Y735630D01*
D02*
G37*
G36*
X20545Y736677D02*
X19612D01*
X18711Y736436D01*
X17903Y735969D01*
X17243Y735310D01*
X16777Y734502D01*
X16535Y733600D01*
Y732667D01*
X16777Y731766D01*
X17243Y730958D01*
X17903Y730299D01*
X18711Y729832D01*
X19612Y729591D01*
X20545D01*
X21446Y729832D01*
X22254Y730299D01*
X22914Y730958D01*
X23381Y731766D01*
X23622Y732667D01*
Y733600D01*
X23381Y734502D01*
X22914Y735310D01*
X22254Y735969D01*
X21446Y736436D01*
X20545Y736677D01*
D02*
G37*
G36*
X9486Y732480D02*
X8624D01*
X7829Y732151D01*
X7219Y731541D01*
X6890Y730746D01*
Y729884D01*
X7219Y729088D01*
X7829Y728479D01*
X8624Y728150D01*
X9486D01*
X10282Y728479D01*
X10891Y729088D01*
X11220Y729884D01*
Y730746D01*
X10891Y731541D01*
X10282Y732151D01*
X9486Y732480D01*
D02*
G37*
G36*
X617717Y731205D02*
Y726772D01*
X620297D01*
Y727787D01*
X620176Y728710D01*
X619819Y729570D01*
X619253Y730308D01*
X618515Y730874D01*
X617717Y731205D01*
D02*
G37*
G36*
X615748D02*
X614950Y730874D01*
X614212Y730308D01*
X613645Y729570D01*
X613289Y728710D01*
X613167Y727787D01*
Y726772D01*
X615748D01*
Y731205D01*
D02*
G37*
G36*
X27545Y732677D02*
X26612D01*
X25711Y732436D01*
X24903Y731969D01*
X24243Y731310D01*
X23777Y730502D01*
X23535Y729600D01*
Y728667D01*
X23777Y727766D01*
X24243Y726958D01*
X24903Y726299D01*
X25711Y725832D01*
X26612Y725591D01*
X27545D01*
X28446Y725832D01*
X29254Y726299D01*
X29914Y726958D01*
X30381Y727766D01*
X30622Y728667D01*
Y729600D01*
X30381Y730502D01*
X29914Y731310D01*
X29254Y731969D01*
X28446Y732436D01*
X27545Y732677D01*
D02*
G37*
G36*
X20545Y728677D02*
X19612D01*
X18711Y728436D01*
X17903Y727969D01*
X17243Y727310D01*
X16777Y726502D01*
X16535Y725600D01*
Y724667D01*
X16777Y723766D01*
X17243Y722958D01*
X17903Y722298D01*
X18711Y721832D01*
X19612Y721591D01*
X20545D01*
X21446Y721832D01*
X22254Y722298D01*
X22914Y722958D01*
X23381Y723766D01*
X23622Y724667D01*
Y725600D01*
X23381Y726502D01*
X22914Y727310D01*
X22254Y727969D01*
X21446Y728436D01*
X20545Y728677D01*
D02*
G37*
G36*
X664604Y725787D02*
X663742D01*
X662947Y725458D01*
X662337Y724849D01*
X662008Y724053D01*
Y723191D01*
X662337Y722396D01*
X662947Y721786D01*
X663742Y721457D01*
X664604D01*
X665400Y721786D01*
X666009Y722396D01*
X666339Y723191D01*
Y724053D01*
X666009Y724849D01*
X665400Y725458D01*
X664604Y725787D01*
D02*
G37*
G36*
X38226Y729331D02*
X37365D01*
X36569Y729001D01*
X35960Y728392D01*
X35630Y727596D01*
Y726735D01*
X35960Y725939D01*
X36284Y725614D01*
X36536Y725287D01*
X36284Y724961D01*
X35960Y724636D01*
X35630Y723840D01*
Y722979D01*
X35960Y722183D01*
X36569Y721574D01*
X37365Y721244D01*
X38226D01*
X39022Y721574D01*
X39631Y722183D01*
X39961Y722979D01*
Y723840D01*
X39631Y724636D01*
X39306Y724961D01*
X39054Y725287D01*
X39306Y725614D01*
X39631Y725939D01*
X39961Y726735D01*
Y727596D01*
X39631Y728392D01*
X39022Y729001D01*
X38226Y729331D01*
D02*
G37*
G36*
X27545Y724677D02*
X26612D01*
X25711Y724436D01*
X24903Y723969D01*
X24243Y723310D01*
X23777Y722502D01*
X23535Y721600D01*
Y720808D01*
X23535Y720677D01*
X23297Y720677D01*
X16535D01*
Y713591D01*
X23622D01*
Y719034D01*
X24122Y719168D01*
X24243Y718958D01*
X24903Y718298D01*
X25711Y717832D01*
X26612Y717591D01*
X27545D01*
X28446Y717832D01*
X29254Y718298D01*
X29914Y718958D01*
X30381Y719766D01*
X30622Y720667D01*
Y721600D01*
X30381Y722502D01*
X29914Y723310D01*
X29254Y723969D01*
X28446Y724436D01*
X27545Y724677D01*
D02*
G37*
G36*
X118546Y717141D02*
X117684D01*
X116888Y716811D01*
X116279Y716202D01*
X116114Y715802D01*
X115573D01*
X115430Y716146D01*
X114821Y716755D01*
X114025Y717085D01*
X113164D01*
X112368Y716755D01*
X111759Y716146D01*
X111429Y715350D01*
Y714489D01*
X111759Y713693D01*
X112368Y713084D01*
X113164Y712754D01*
X114025D01*
X114821Y713084D01*
X115430Y713693D01*
X115596Y714093D01*
X116137D01*
X116279Y713749D01*
X116888Y713140D01*
X117684Y712810D01*
X118546D01*
X119342Y713140D01*
X119951Y713749D01*
X120280Y714545D01*
Y715406D01*
X119951Y716202D01*
X119342Y716811D01*
X118546Y717141D01*
D02*
G37*
G36*
X123663Y717204D02*
X122801D01*
X122006Y716874D01*
X121397Y716265D01*
X121067Y715469D01*
Y714608D01*
X121397Y713812D01*
X122006Y713203D01*
X122801Y712873D01*
X123663D01*
X124459Y713203D01*
X125068Y713812D01*
X125398Y714608D01*
Y715469D01*
X125068Y716265D01*
X124459Y716874D01*
X123663Y717204D01*
D02*
G37*
G36*
X709842Y707977D02*
Y703543D01*
X712423D01*
Y704559D01*
X712301Y705482D01*
X711945Y706341D01*
X711379Y707080D01*
X710641Y707646D01*
X709842Y707977D01*
D02*
G37*
G36*
X707874D02*
X707076Y707646D01*
X706338Y707080D01*
X705771Y706341D01*
X705415Y705482D01*
X705294Y704559D01*
Y703543D01*
X707874D01*
Y707977D01*
D02*
G37*
G36*
X9486Y702953D02*
X8624D01*
X7829Y702623D01*
X7219Y702014D01*
X6890Y701218D01*
Y700357D01*
X7219Y699561D01*
X7829Y698952D01*
X8624Y698622D01*
X9486D01*
X10282Y698952D01*
X10891Y699561D01*
X11220Y700357D01*
Y701218D01*
X10891Y702014D01*
X10282Y702623D01*
X9486Y702953D01*
D02*
G37*
G36*
X700984Y707925D02*
X700113Y707810D01*
X699301Y707474D01*
X698604Y706939D01*
X698069Y706242D01*
X697733Y705430D01*
X697618Y704559D01*
Y700559D01*
X697733Y699688D01*
X698069Y698876D01*
X698604Y698179D01*
X699301Y697644D01*
X700113Y697307D01*
X700984Y697193D01*
X701856Y697307D01*
X702667Y697644D01*
X703365Y698179D01*
X703899Y698876D01*
X704236Y699688D01*
X704350Y700559D01*
Y704559D01*
X704236Y705430D01*
X703899Y706242D01*
X703365Y706939D01*
X702667Y707474D01*
X701856Y707810D01*
X700984Y707925D01*
D02*
G37*
G36*
X693110D02*
X692239Y707810D01*
X691427Y707474D01*
X690730Y706939D01*
X690195Y706242D01*
X689859Y705430D01*
X689744Y704559D01*
Y700559D01*
X689859Y699688D01*
X690195Y698876D01*
X690730Y698179D01*
X691427Y697644D01*
X692239Y697307D01*
X693110Y697193D01*
X693982Y697307D01*
X694793Y697644D01*
X695491Y698179D01*
X696025Y698876D01*
X696362Y699688D01*
X696476Y700559D01*
Y704559D01*
X696362Y705430D01*
X696025Y706242D01*
X695491Y706939D01*
X694793Y707474D01*
X693982Y707810D01*
X693110Y707925D01*
D02*
G37*
G36*
X685236D02*
X684365Y707810D01*
X683553Y707474D01*
X682856Y706939D01*
X682321Y706242D01*
X681985Y705430D01*
X681870Y704559D01*
Y700559D01*
X681985Y699688D01*
X682321Y698876D01*
X682856Y698179D01*
X683553Y697644D01*
X684365Y697307D01*
X685236Y697193D01*
X686107Y697307D01*
X686919Y697644D01*
X687616Y698179D01*
X688151Y698876D01*
X688488Y699688D01*
X688602Y700559D01*
Y704559D01*
X688488Y705430D01*
X688151Y706242D01*
X687616Y706939D01*
X686919Y707474D01*
X686107Y707810D01*
X685236Y707925D01*
D02*
G37*
G36*
X712423Y701575D02*
X709842D01*
Y697141D01*
X710641Y697472D01*
X711379Y698038D01*
X711945Y698777D01*
X712301Y699636D01*
X712423Y700559D01*
Y701575D01*
D02*
G37*
G36*
X707874D02*
X705294D01*
Y700559D01*
X705415Y699636D01*
X705771Y698777D01*
X706338Y698038D01*
X707076Y697472D01*
X707874Y697141D01*
Y701575D01*
D02*
G37*
G36*
X27545Y686677D02*
X26612D01*
X25711Y686436D01*
X24903Y685969D01*
X24243Y685310D01*
X23777Y684502D01*
X23535Y683600D01*
Y682667D01*
X23777Y681766D01*
X24243Y680958D01*
X24903Y680299D01*
X25711Y679832D01*
X26612Y679591D01*
X27545D01*
X28446Y679832D01*
X29254Y680299D01*
X29914Y680958D01*
X30381Y681766D01*
X30622Y682667D01*
Y683600D01*
X30381Y684502D01*
X29914Y685310D01*
X29254Y685969D01*
X28446Y686436D01*
X27545Y686677D01*
D02*
G37*
G36*
X70509Y683268D02*
X69648D01*
X68852Y682938D01*
X68243Y682329D01*
X67913Y681533D01*
Y680672D01*
X68243Y679876D01*
X68852Y679267D01*
X69648Y678937D01*
X70509D01*
X71305Y679267D01*
X71914Y679876D01*
X72244Y680672D01*
Y681533D01*
X71914Y682329D01*
X71305Y682938D01*
X70509Y683268D01*
D02*
G37*
G36*
X20545Y682677D02*
X19612D01*
X18711Y682436D01*
X17903Y681969D01*
X17243Y681310D01*
X16777Y680502D01*
X16535Y679600D01*
Y678667D01*
X16777Y677766D01*
X17243Y676958D01*
X17903Y676299D01*
X18711Y675832D01*
X19612Y675591D01*
X20545D01*
X21446Y675832D01*
X22254Y676299D01*
X22914Y676958D01*
X23381Y677766D01*
X23622Y678667D01*
Y679600D01*
X23381Y680502D01*
X22914Y681310D01*
X22254Y681969D01*
X21446Y682436D01*
X20545Y682677D01*
D02*
G37*
G36*
X96887Y678543D02*
X96026D01*
X95230Y678214D01*
X94621Y677604D01*
X94291Y676809D01*
Y675947D01*
X94621Y675151D01*
X95230Y674542D01*
X96026Y674213D01*
X96887D01*
X97683Y674542D01*
X98292Y675151D01*
X98622Y675947D01*
Y676809D01*
X98292Y677604D01*
X97683Y678214D01*
X96887Y678543D01*
D02*
G37*
G36*
X9486Y675394D02*
X8624D01*
X7829Y675064D01*
X7219Y674455D01*
X6890Y673659D01*
Y672798D01*
X7219Y672002D01*
X7829Y671393D01*
X8624Y671063D01*
X9486D01*
X10282Y671393D01*
X10891Y672002D01*
X11220Y672798D01*
Y673659D01*
X10891Y674455D01*
X10282Y675064D01*
X9486Y675394D01*
D02*
G37*
G36*
X20545Y674677D02*
X19612D01*
X18711Y674436D01*
X17903Y673969D01*
X17243Y673310D01*
X16777Y672502D01*
X16535Y671600D01*
Y670667D01*
X16777Y669766D01*
X17243Y668958D01*
X17903Y668298D01*
X18711Y667832D01*
X19612Y667591D01*
X20545D01*
X21446Y667832D01*
X22254Y668298D01*
X22914Y668958D01*
X23381Y669766D01*
X23622Y670667D01*
Y671600D01*
X23381Y672502D01*
X22914Y673310D01*
X22254Y673969D01*
X21446Y674436D01*
X20545Y674677D01*
D02*
G37*
G36*
X27545Y678677D02*
X26612D01*
X25711Y678436D01*
X24903Y677969D01*
X24243Y677310D01*
X23777Y676502D01*
X23535Y675600D01*
Y674667D01*
X23777Y673766D01*
X24243Y672958D01*
X24903Y672298D01*
X25711Y671832D01*
X26612Y671591D01*
X27545D01*
X28446Y671832D01*
X28593Y671917D01*
X32290Y668219D01*
X32290Y668219D01*
X35219Y665290D01*
X35219Y665290D01*
X35610Y665029D01*
X36071Y664937D01*
X37598D01*
X37598Y664937D01*
X38059Y665029D01*
X38450Y665290D01*
X38966Y665271D01*
X39040Y665197D01*
X39292Y664870D01*
X39040Y664543D01*
X38772Y664275D01*
X29938D01*
X29731Y664775D01*
X29914Y664958D01*
X30381Y665766D01*
X30622Y666667D01*
Y667600D01*
X30381Y668502D01*
X29914Y669310D01*
X29254Y669969D01*
X28446Y670436D01*
X27545Y670677D01*
X26612D01*
X25711Y670436D01*
X24903Y669969D01*
X24243Y669310D01*
X23777Y668502D01*
X23535Y667600D01*
Y666667D01*
X23777Y665766D01*
X24243Y664958D01*
X24427Y664775D01*
X24219Y664275D01*
X23441D01*
X23381Y664501D01*
X22914Y665309D01*
X22254Y665969D01*
X21446Y666436D01*
X20545Y666677D01*
X19612D01*
X18711Y666436D01*
X17903Y665969D01*
X17243Y665309D01*
X16777Y664501D01*
X16535Y663600D01*
Y662667D01*
X16777Y661766D01*
X17243Y660958D01*
X17903Y660298D01*
X18711Y659832D01*
X19612Y659591D01*
X20545D01*
X21446Y659832D01*
X22254Y660298D01*
X22914Y660958D01*
X23381Y661766D01*
X23407Y661867D01*
X24147D01*
X24339Y661405D01*
X24243Y661309D01*
X23777Y660501D01*
X23535Y659600D01*
Y658808D01*
X23535Y658677D01*
X23297Y658677D01*
X16535D01*
Y651591D01*
X23622D01*
Y657034D01*
X24122Y657168D01*
X24243Y656958D01*
X24903Y656298D01*
X25711Y655832D01*
X26612Y655591D01*
X27545D01*
X28446Y655832D01*
X29254Y656298D01*
X29914Y656958D01*
X30381Y657766D01*
X30622Y658667D01*
Y659600D01*
X30381Y660501D01*
X29914Y661309D01*
X29819Y661405D01*
X30010Y661867D01*
X38674D01*
X38715Y661766D01*
X39325Y661156D01*
X40121Y660827D01*
X40982D01*
X41778Y661156D01*
X42387Y661766D01*
X42717Y662561D01*
Y663423D01*
X42387Y664219D01*
X42062Y664543D01*
X41810Y664870D01*
X42062Y665197D01*
X42387Y665521D01*
X42717Y666317D01*
Y667179D01*
X42387Y667975D01*
X41778Y668584D01*
X40982Y668913D01*
X40121D01*
X39325Y668584D01*
X38715Y667975D01*
X38618Y667740D01*
X37992D01*
X37531Y667648D01*
X37141Y667387D01*
X37141Y667387D01*
X37100Y667346D01*
X36570D01*
X33994Y669922D01*
X33993Y669922D01*
X30296Y673620D01*
X30381Y673766D01*
X30622Y674667D01*
Y675600D01*
X30381Y676502D01*
X29914Y677310D01*
X29254Y677969D01*
X28446Y678436D01*
X27545Y678677D01*
D02*
G37*
G36*
X837304Y904055D02*
X834980D01*
X832685Y903692D01*
X830474Y902973D01*
X828404Y901918D01*
X826524Y900552D01*
X824881Y898909D01*
X823515Y897029D01*
X822460Y894959D01*
X821741Y892749D01*
X821378Y890453D01*
Y888129D01*
X821741Y885834D01*
X822460Y883624D01*
X823515Y881553D01*
X824881Y879673D01*
X826524Y878030D01*
X828404Y876664D01*
X829497Y876107D01*
X829575Y875613D01*
X828590Y874628D01*
X827525Y873034D01*
X826791Y871264D01*
X826417Y869384D01*
Y867467D01*
X826791Y865587D01*
X827525Y863816D01*
X828590Y862222D01*
X829945Y860867D01*
X831539Y859802D01*
X833309Y859069D01*
X835189Y858695D01*
X837106D01*
X838986Y859069D01*
X840757Y859802D01*
X842351Y860867D01*
X843706Y862222D01*
X844771Y863816D01*
X845504Y865587D01*
X845878Y867467D01*
Y869384D01*
X845504Y871264D01*
X844771Y873034D01*
X843706Y874628D01*
X842716Y875618D01*
X842795Y876111D01*
X843880Y876664D01*
X845760Y878030D01*
X847403Y879673D01*
X848769Y881553D01*
X849824Y883624D01*
X850542Y885834D01*
X850906Y888129D01*
Y890453D01*
X850542Y892749D01*
X849824Y894959D01*
X848769Y897029D01*
X847403Y898909D01*
X845760Y900552D01*
X843880Y901918D01*
X841809Y902973D01*
X839599Y903692D01*
X837304Y904055D01*
D02*
G37*
G36*
X797106Y878156D02*
X795189D01*
X793309Y877782D01*
X791539Y877048D01*
X789945Y875983D01*
X788589Y874628D01*
X787525Y873034D01*
X786791Y871264D01*
X786417Y869384D01*
Y867467D01*
X786791Y865587D01*
X787525Y863816D01*
X788589Y862222D01*
X789945Y860867D01*
X791539Y859802D01*
X793309Y859069D01*
X795189Y858695D01*
X797106D01*
X798986Y859069D01*
X800757Y859802D01*
X802351Y860867D01*
X803706Y862222D01*
X804771Y863816D01*
X805504Y865587D01*
X805878Y867467D01*
Y869384D01*
X805504Y871264D01*
X804771Y873034D01*
X803706Y874628D01*
X802351Y875983D01*
X800757Y877048D01*
X798986Y877782D01*
X797106Y878156D01*
D02*
G37*
G36*
X837106Y838156D02*
X835189D01*
X833309Y837782D01*
X831539Y837048D01*
X829945Y835983D01*
X828590Y834628D01*
X827525Y833034D01*
X826791Y831264D01*
X826417Y829384D01*
Y827467D01*
X826791Y825587D01*
X827525Y823816D01*
X828590Y822222D01*
X829945Y820867D01*
X831539Y819802D01*
X833309Y819069D01*
X835189Y818695D01*
X837106D01*
X838986Y819069D01*
X840757Y819802D01*
X842351Y820867D01*
X843706Y822222D01*
X844771Y823816D01*
X845504Y825587D01*
X845878Y827467D01*
Y829384D01*
X845504Y831264D01*
X844771Y833034D01*
X843706Y834628D01*
X842351Y835983D01*
X840757Y837048D01*
X838986Y837782D01*
X837106Y838156D01*
D02*
G37*
G36*
X797106D02*
X795189D01*
X793309Y837782D01*
X791539Y837048D01*
X789945Y835983D01*
X788589Y834628D01*
X787525Y833034D01*
X786791Y831264D01*
X786417Y829384D01*
Y827467D01*
X786791Y825587D01*
X787525Y823816D01*
X788589Y822222D01*
X789945Y820867D01*
X791539Y819802D01*
X793309Y819069D01*
X795189Y818695D01*
X797106D01*
X798986Y819069D01*
X800757Y819802D01*
X802351Y820867D01*
X803706Y822222D01*
X804771Y823816D01*
X805504Y825587D01*
X805878Y827467D01*
Y829384D01*
X805504Y831264D01*
X804771Y833034D01*
X803706Y834628D01*
X802351Y835983D01*
X800757Y837048D01*
X798986Y837782D01*
X797106Y838156D01*
D02*
G37*
G36*
X173659Y674213D02*
X172798D01*
X172002Y673883D01*
X171393Y673274D01*
X171063Y672478D01*
Y671617D01*
X171393Y670821D01*
X172002Y670212D01*
X172798Y669882D01*
X173659D01*
X174455Y670212D01*
X175064Y670821D01*
X175394Y671617D01*
Y672478D01*
X175064Y673274D01*
X174455Y673883D01*
X173659Y674213D01*
D02*
G37*
G36*
X219291Y655109D02*
X217717D01*
X216792Y654987D01*
X215930Y654631D01*
X215189Y654063D01*
X214621Y653322D01*
X214264Y652460D01*
X214143Y651535D01*
X214264Y650610D01*
X214621Y649749D01*
X215189Y649008D01*
X215930Y648440D01*
X216792Y648083D01*
X217717Y647962D01*
X219291D01*
X220216Y648083D01*
X221078Y648440D01*
X221818Y649008D01*
X222386Y649749D01*
X222743Y650610D01*
X222865Y651535D01*
X222743Y652460D01*
X222386Y653322D01*
X221818Y654063D01*
X221078Y654631D01*
X220216Y654987D01*
X219291Y655109D01*
D02*
G37*
G36*
X207492Y648810D02*
X205917D01*
X204992Y648688D01*
X204130Y648331D01*
X203390Y647763D01*
X202822Y647023D01*
X202465Y646161D01*
X202344Y645236D01*
X202465Y644311D01*
X202822Y643449D01*
X203390Y642709D01*
X204130Y642141D01*
X204992Y641784D01*
X205917Y641662D01*
X207492D01*
X208417Y641784D01*
X209279Y642141D01*
X210019Y642709D01*
X210587Y643449D01*
X210944Y644311D01*
X211066Y645236D01*
X210944Y646161D01*
X210587Y647023D01*
X210019Y647763D01*
X209279Y648331D01*
X208417Y648688D01*
X207492Y648810D01*
D02*
G37*
G36*
X176809Y643504D02*
X175947D01*
X175151Y643174D01*
X174542Y642565D01*
X174213Y641769D01*
Y640908D01*
X174542Y640112D01*
X175151Y639503D01*
X175947Y639173D01*
X176809D01*
X177604Y639503D01*
X178214Y640112D01*
X178543Y640908D01*
Y641769D01*
X178214Y642565D01*
X177604Y643174D01*
X176809Y643504D01*
D02*
G37*
G36*
X219291Y642511D02*
X217717D01*
X216792Y642389D01*
X215930Y642032D01*
X215189Y641464D01*
X214621Y640724D01*
X214264Y639862D01*
X214143Y638937D01*
X214264Y638012D01*
X214621Y637150D01*
X215189Y636410D01*
X215930Y635842D01*
X216792Y635485D01*
X217717Y635363D01*
X219291D01*
X220216Y635485D01*
X221078Y635842D01*
X221818Y636410D01*
X222386Y637150D01*
X222743Y638012D01*
X222865Y638937D01*
X222743Y639862D01*
X222386Y640724D01*
X221818Y641464D01*
X221078Y642032D01*
X220216Y642389D01*
X219291Y642511D01*
D02*
G37*
G36*
X207492Y636212D02*
X205917D01*
X204992Y636090D01*
X204130Y635733D01*
X203390Y635165D01*
X202822Y634425D01*
X202465Y633563D01*
X202344Y632638D01*
X202465Y631713D01*
X202822Y630851D01*
X203390Y630111D01*
X204130Y629543D01*
X204992Y629186D01*
X205917Y629064D01*
X207492D01*
X208417Y629186D01*
X209279Y629543D01*
X210019Y630111D01*
X210587Y630851D01*
X210944Y631713D01*
X211066Y632638D01*
X210944Y633563D01*
X210587Y634425D01*
X210019Y635165D01*
X209279Y635733D01*
X208417Y636090D01*
X207492Y636212D01*
D02*
G37*
G36*
X179171Y628937D02*
X178309D01*
X177514Y628607D01*
X176904Y627998D01*
X176575Y627202D01*
Y626341D01*
X176904Y625545D01*
X177514Y624936D01*
X178309Y624606D01*
X179171D01*
X179967Y624936D01*
X180576Y625545D01*
X180905Y626341D01*
Y627202D01*
X180576Y627998D01*
X179967Y628607D01*
X179171Y628937D01*
D02*
G37*
G36*
X219291Y629912D02*
X217717D01*
X216792Y629791D01*
X215930Y629434D01*
X215189Y628866D01*
X214621Y628125D01*
X214264Y627263D01*
X214143Y626339D01*
X214264Y625414D01*
X214621Y624552D01*
X215189Y623811D01*
X215930Y623244D01*
X216792Y622887D01*
X217717Y622765D01*
X219291D01*
X220216Y622887D01*
X221078Y623244D01*
X221818Y623811D01*
X222386Y624552D01*
X222743Y625414D01*
X222865Y626339D01*
X222743Y627263D01*
X222386Y628125D01*
X221818Y628866D01*
X221078Y629434D01*
X220216Y629791D01*
X219291Y629912D01*
D02*
G37*
G36*
X207492Y623613D02*
X205917D01*
X204992Y623491D01*
X204130Y623134D01*
X203390Y622566D01*
X202822Y621826D01*
X202465Y620964D01*
X202344Y620039D01*
X202465Y619114D01*
X202822Y618252D01*
X203390Y617512D01*
X204130Y616944D01*
X204992Y616587D01*
X205917Y616466D01*
X207492D01*
X208417Y616587D01*
X209279Y616944D01*
X210019Y617512D01*
X210587Y618252D01*
X210944Y619114D01*
X211066Y620039D01*
X210944Y620964D01*
X210587Y621826D01*
X210019Y622566D01*
X209279Y623134D01*
X208417Y623491D01*
X207492Y623613D01*
D02*
G37*
G36*
X41837Y620716D02*
X40840D01*
X39877Y620458D01*
X39013Y619960D01*
X38308Y619255D01*
X37809Y618391D01*
X37551Y617428D01*
Y616431D01*
X37809Y615467D01*
X38308Y614604D01*
X39013Y613899D01*
X39877Y613400D01*
X40840Y613142D01*
X41837D01*
X42800Y613400D01*
X43664Y613899D01*
X44369Y614604D01*
X44868Y615467D01*
X45126Y616431D01*
Y617428D01*
X44868Y618391D01*
X44369Y619255D01*
X43664Y619960D01*
X42800Y620458D01*
X41837Y620716D01*
D02*
G37*
G36*
X11837D02*
X10840D01*
X9877Y620458D01*
X9013Y619960D01*
X8308Y619255D01*
X7809Y618391D01*
X7551Y617428D01*
Y616431D01*
X7809Y615467D01*
X8308Y614604D01*
X9013Y613899D01*
X9877Y613400D01*
X10840Y613142D01*
X11837D01*
X12800Y613400D01*
X13664Y613899D01*
X14369Y614604D01*
X14868Y615467D01*
X15126Y616431D01*
Y617428D01*
X14868Y618391D01*
X14369Y619255D01*
X13664Y619960D01*
X12800Y620458D01*
X11837Y620716D01*
D02*
G37*
G36*
X129565Y623819D02*
X128703D01*
X127907Y623489D01*
X127298Y622880D01*
X126969Y622084D01*
Y621223D01*
X127298Y620427D01*
X127646Y620079D01*
X127298Y619731D01*
X126969Y618935D01*
Y618073D01*
X127298Y617277D01*
X127843Y616732D01*
X127298Y616187D01*
X126969Y615391D01*
Y614530D01*
X127298Y613734D01*
X127907Y613125D01*
X128703Y612795D01*
X129565D01*
X130360Y613125D01*
X130970Y613734D01*
X131299Y614530D01*
Y615391D01*
X130970Y616187D01*
X130424Y616732D01*
X130970Y617277D01*
X131299Y618073D01*
Y618935D01*
X130970Y619731D01*
X130621Y620079D01*
X130970Y620427D01*
X131299Y621223D01*
Y622084D01*
X130970Y622880D01*
X130360Y623489D01*
X129565Y623819D01*
D02*
G37*
G36*
X42323Y610790D02*
Y607913D01*
X45200D01*
X45051Y608467D01*
X44527Y609375D01*
X43785Y610117D01*
X42876Y610642D01*
X42323Y610790D01*
D02*
G37*
G36*
X40354D02*
X39801Y610642D01*
X38892Y610117D01*
X38150Y609375D01*
X37626Y608467D01*
X37477Y607913D01*
X40354D01*
Y610790D01*
D02*
G37*
G36*
X181533Y611614D02*
X180672D01*
X179876Y611284D01*
X179267Y610675D01*
X178937Y609879D01*
Y609018D01*
X179267Y608222D01*
X179876Y607613D01*
X180672Y607283D01*
X181533D01*
X182329Y607613D01*
X182938Y608222D01*
X183268Y609018D01*
Y609879D01*
X182938Y610675D01*
X182329Y611284D01*
X181533Y611614D01*
D02*
G37*
G36*
X207492Y611015D02*
X205917D01*
X204992Y610893D01*
X204130Y610536D01*
X203390Y609968D01*
X202822Y609228D01*
X202465Y608366D01*
X202344Y607441D01*
X202465Y606516D01*
X202822Y605654D01*
X203390Y604914D01*
X204130Y604346D01*
X204992Y603989D01*
X205917Y603867D01*
X207492D01*
X208417Y603989D01*
X209279Y604346D01*
X210019Y604914D01*
X210587Y605654D01*
X210944Y606516D01*
X211066Y607441D01*
X210944Y608366D01*
X210587Y609228D01*
X210019Y609968D01*
X209279Y610536D01*
X208417Y610893D01*
X207492Y611015D01*
D02*
G37*
G36*
X45200Y605945D02*
X42323D01*
Y603068D01*
X42876Y603216D01*
X43785Y603741D01*
X44527Y604483D01*
X45051Y605391D01*
X45200Y605945D01*
D02*
G37*
G36*
X40354D02*
X37477D01*
X37626Y605391D01*
X38150Y604483D01*
X38892Y603741D01*
X39801Y603216D01*
X40354Y603068D01*
Y605945D01*
D02*
G37*
G36*
X219291Y604716D02*
X217717D01*
X216792Y604594D01*
X215930Y604237D01*
X215189Y603669D01*
X214621Y602929D01*
X214264Y602067D01*
X214143Y601142D01*
X214264Y600217D01*
X214621Y599355D01*
X215189Y598615D01*
X215930Y598047D01*
X216792Y597690D01*
X217717Y597568D01*
X219291D01*
X220216Y597690D01*
X221078Y598047D01*
X221818Y598615D01*
X222386Y599355D01*
X222743Y600217D01*
X222865Y601142D01*
X222743Y602067D01*
X222386Y602929D01*
X221818Y603669D01*
X221078Y604237D01*
X220216Y604594D01*
X219291Y604716D01*
D02*
G37*
G36*
X41837Y600716D02*
X40840D01*
X39877Y600458D01*
X39013Y599960D01*
X38308Y599255D01*
X37809Y598391D01*
X37551Y597428D01*
Y596430D01*
X37809Y595467D01*
X38308Y594604D01*
X39013Y593898D01*
X39877Y593400D01*
X40840Y593142D01*
X41837D01*
X42800Y593400D01*
X43664Y593898D01*
X44369Y594604D01*
X44868Y595467D01*
X45126Y596430D01*
Y597428D01*
X44868Y598391D01*
X44369Y599255D01*
X43664Y599960D01*
X42800Y600458D01*
X41837Y600716D01*
D02*
G37*
G36*
X207492Y598416D02*
X205917D01*
X204992Y598295D01*
X204130Y597938D01*
X203390Y597370D01*
X202822Y596629D01*
X202465Y595767D01*
X202344Y594842D01*
X202465Y593918D01*
X202822Y593056D01*
X203390Y592315D01*
X204130Y591747D01*
X204992Y591390D01*
X205917Y591269D01*
X207492D01*
X208417Y591390D01*
X209279Y591747D01*
X210019Y592315D01*
X210587Y593056D01*
X210944Y593918D01*
X211066Y594842D01*
X210944Y595767D01*
X210587Y596629D01*
X210019Y597370D01*
X209279Y597938D01*
X208417Y598295D01*
X207492Y598416D01*
D02*
G37*
G36*
X56375Y591829D02*
X55514D01*
X54718Y591499D01*
X54109Y590890D01*
X53779Y590094D01*
Y589232D01*
X54109Y588437D01*
X54718Y587828D01*
X55514Y587498D01*
X56375D01*
X57171Y587828D01*
X57780Y588437D01*
X58110Y589232D01*
Y590094D01*
X57780Y590890D01*
X57171Y591499D01*
X56375Y591829D01*
D02*
G37*
G36*
X219291Y590542D02*
X217717D01*
X216792Y590421D01*
X215930Y590063D01*
X215189Y589496D01*
X214621Y588755D01*
X214264Y587893D01*
X214143Y586969D01*
X214264Y586044D01*
X214621Y585182D01*
X215189Y584441D01*
X215930Y583873D01*
X216792Y583516D01*
X217717Y583395D01*
X219291D01*
X220216Y583516D01*
X221078Y583873D01*
X221818Y584441D01*
X222386Y585182D01*
X222743Y586044D01*
X222865Y586969D01*
X222743Y587893D01*
X222386Y588755D01*
X221818Y589496D01*
X221078Y590063D01*
X220216Y590421D01*
X219291Y590542D01*
D02*
G37*
G36*
X41837Y590717D02*
X40840D01*
X39877Y590458D01*
X39013Y589960D01*
X38308Y589255D01*
X37809Y588391D01*
X37551Y587428D01*
Y586431D01*
X37809Y585467D01*
X38308Y584604D01*
X39013Y583898D01*
X39877Y583400D01*
X40840Y583142D01*
X41837D01*
X42800Y583400D01*
X43664Y583898D01*
X44369Y584604D01*
X44868Y585467D01*
X45126Y586431D01*
Y587428D01*
X44868Y588391D01*
X44369Y589255D01*
X43664Y589960D01*
X42800Y590458D01*
X41837Y590717D01*
D02*
G37*
G36*
X11837D02*
X10840D01*
X9877Y590458D01*
X9013Y589960D01*
X8308Y589255D01*
X7809Y588391D01*
X7551Y587428D01*
Y586431D01*
X7809Y585467D01*
X8308Y584604D01*
X9013Y583898D01*
X9877Y583400D01*
X10840Y583142D01*
X11837D01*
X12800Y583400D01*
X13664Y583898D01*
X14369Y584604D01*
X14868Y585467D01*
X15126Y586431D01*
Y587428D01*
X14868Y588391D01*
X14369Y589255D01*
X13664Y589960D01*
X12800Y590458D01*
X11837Y590717D01*
D02*
G37*
G36*
X41837Y580717D02*
X40840D01*
X39877Y580458D01*
X39013Y579960D01*
X38308Y579255D01*
X37809Y578391D01*
X37551Y577428D01*
Y576431D01*
X37809Y575467D01*
X38308Y574604D01*
X39013Y573899D01*
X39877Y573400D01*
X40840Y573142D01*
X41837D01*
X42800Y573400D01*
X43664Y573899D01*
X44369Y574604D01*
X44868Y575467D01*
X45126Y576431D01*
Y577428D01*
X44868Y578391D01*
X44369Y579255D01*
X43664Y579960D01*
X42800Y580458D01*
X41837Y580717D01*
D02*
G37*
G36*
X11837D02*
X10840D01*
X9877Y580458D01*
X9013Y579960D01*
X8308Y579255D01*
X7809Y578391D01*
X7551Y577428D01*
Y576431D01*
X7809Y575467D01*
X8308Y574604D01*
X9013Y573899D01*
X9877Y573400D01*
X10840Y573142D01*
X11837D01*
X12800Y573400D01*
X13664Y573899D01*
X14369Y574604D01*
X14868Y575467D01*
X15126Y576431D01*
Y577428D01*
X14868Y578391D01*
X14369Y579255D01*
X13664Y579960D01*
X12800Y580458D01*
X11837Y580717D01*
D02*
G37*
G36*
X216966Y576968D02*
X216105D01*
X215309Y576639D01*
X214700Y576030D01*
X214370Y575234D01*
Y574372D01*
X214700Y573577D01*
X215309Y572967D01*
X216105Y572638D01*
X216966D01*
X217762Y572967D01*
X218371Y573577D01*
X218701Y574372D01*
Y575234D01*
X218371Y576030D01*
X217762Y576639D01*
X216966Y576968D01*
D02*
G37*
G36*
X42323Y570790D02*
Y567913D01*
X45200D01*
X45051Y568467D01*
X44527Y569376D01*
X43785Y570117D01*
X42876Y570642D01*
X42323Y570790D01*
D02*
G37*
G36*
X40354D02*
X39801Y570642D01*
X38892Y570117D01*
X38150Y569376D01*
X37626Y568467D01*
X37477Y567913D01*
X40354D01*
Y570790D01*
D02*
G37*
G36*
X194525Y567520D02*
X193664D01*
X192868Y567190D01*
X192259Y566581D01*
X191929Y565785D01*
Y564924D01*
X192259Y564128D01*
X192868Y563519D01*
X193664Y563189D01*
X194525D01*
X195321Y563519D01*
X195930Y564128D01*
X196260Y564924D01*
Y565785D01*
X195930Y566581D01*
X195321Y567190D01*
X194525Y567520D01*
D02*
G37*
G36*
X45200Y565945D02*
X42323D01*
Y563068D01*
X42876Y563216D01*
X43785Y563741D01*
X44527Y564483D01*
X45051Y565391D01*
X45200Y565945D01*
D02*
G37*
G36*
X40354D02*
X37477D01*
X37626Y565391D01*
X38150Y564483D01*
X38892Y563741D01*
X39801Y563216D01*
X40354Y563068D01*
Y565945D01*
D02*
G37*
G36*
X41837Y560716D02*
X40840D01*
X39877Y560458D01*
X39013Y559960D01*
X38308Y559255D01*
X37809Y558391D01*
X37551Y557428D01*
Y556430D01*
X37809Y555467D01*
X38308Y554604D01*
X39013Y553898D01*
X39877Y553400D01*
X40840Y553142D01*
X41837D01*
X42800Y553400D01*
X43664Y553898D01*
X44369Y554604D01*
X44868Y555467D01*
X45126Y556430D01*
Y557428D01*
X44868Y558391D01*
X44369Y559255D01*
X43664Y559960D01*
X42800Y560458D01*
X41837Y560716D01*
D02*
G37*
G36*
X56590Y552280D02*
X55729D01*
X54933Y551951D01*
X54324Y551341D01*
X53994Y550546D01*
Y549684D01*
X54324Y548888D01*
X54933Y548279D01*
X55729Y547950D01*
X56590D01*
X57386Y548279D01*
X57995Y548888D01*
X58325Y549684D01*
Y550546D01*
X57995Y551341D01*
X57386Y551951D01*
X56590Y552280D01*
D02*
G37*
G36*
X41837Y550716D02*
X40840D01*
X39877Y550458D01*
X39013Y549960D01*
X38308Y549255D01*
X37809Y548391D01*
X37551Y547428D01*
Y546430D01*
X37809Y545467D01*
X38308Y544604D01*
X39013Y543898D01*
X39877Y543400D01*
X40840Y543142D01*
X41837D01*
X42800Y543400D01*
X43664Y543898D01*
X44369Y544604D01*
X44868Y545467D01*
X45126Y546430D01*
Y547428D01*
X44868Y548391D01*
X44369Y549255D01*
X43664Y549960D01*
X42800Y550458D01*
X41837Y550716D01*
D02*
G37*
G36*
X11837D02*
X10840D01*
X9877Y550458D01*
X9013Y549960D01*
X8308Y549255D01*
X7809Y548391D01*
X7551Y547428D01*
Y546430D01*
X7809Y545467D01*
X8308Y544604D01*
X9013Y543898D01*
X9877Y543400D01*
X10840Y543142D01*
X11837D01*
X12800Y543400D01*
X13664Y543898D01*
X14369Y544604D01*
X14868Y545467D01*
X15126Y546430D01*
Y547428D01*
X14868Y548391D01*
X14369Y549255D01*
X13664Y549960D01*
X12800Y550458D01*
X11837Y550716D01*
D02*
G37*
G36*
X41837Y540717D02*
X40840D01*
X39877Y540458D01*
X39013Y539960D01*
X38308Y539255D01*
X37809Y538391D01*
X37551Y537428D01*
Y536431D01*
X37809Y535467D01*
X38308Y534604D01*
X39013Y533898D01*
X39877Y533400D01*
X40840Y533142D01*
X41837D01*
X42800Y533400D01*
X43664Y533898D01*
X44369Y534604D01*
X44868Y535467D01*
X45126Y536431D01*
Y537428D01*
X44868Y538391D01*
X44369Y539255D01*
X43664Y539960D01*
X42800Y540458D01*
X41837Y540717D01*
D02*
G37*
G36*
X11837D02*
X10840D01*
X9877Y540458D01*
X9013Y539960D01*
X8308Y539255D01*
X7809Y538391D01*
X7551Y537428D01*
Y536431D01*
X7809Y535467D01*
X8308Y534604D01*
X9013Y533898D01*
X9877Y533400D01*
X10840Y533142D01*
X11837D01*
X12800Y533400D01*
X13664Y533898D01*
X14369Y534604D01*
X14868Y535467D01*
X15126Y536431D01*
Y537428D01*
X14868Y538391D01*
X14369Y539255D01*
X13664Y539960D01*
X12800Y540458D01*
X11837Y540717D01*
D02*
G37*
G36*
X42323Y530790D02*
Y527913D01*
X45200D01*
X45051Y528467D01*
X44527Y529376D01*
X43785Y530117D01*
X42876Y530642D01*
X42323Y530790D01*
D02*
G37*
G36*
X40354D02*
X39801Y530642D01*
X38892Y530117D01*
X38150Y529376D01*
X37626Y528467D01*
X37477Y527913D01*
X40354D01*
Y530790D01*
D02*
G37*
G36*
X45200Y525945D02*
X42323D01*
Y523068D01*
X42876Y523216D01*
X43785Y523741D01*
X44527Y524483D01*
X45051Y525391D01*
X45200Y525945D01*
D02*
G37*
G36*
X40354D02*
X37477D01*
X37626Y525391D01*
X38150Y524483D01*
X38892Y523741D01*
X39801Y523216D01*
X40354Y523068D01*
Y525945D01*
D02*
G37*
G36*
X162635Y524606D02*
X161774D01*
X160978Y524277D01*
X160369Y523667D01*
X160039Y522872D01*
Y522010D01*
X160369Y521214D01*
X160978Y520605D01*
X161774Y520276D01*
X162635D01*
X163431Y520605D01*
X164040Y521214D01*
X164370Y522010D01*
Y522872D01*
X164040Y523667D01*
X163431Y524277D01*
X162635Y524606D01*
D02*
G37*
G36*
X41837Y520716D02*
X40840D01*
X39877Y520458D01*
X39013Y519960D01*
X38308Y519255D01*
X37809Y518391D01*
X37551Y517428D01*
Y516431D01*
X37809Y515467D01*
X38308Y514604D01*
X39013Y513898D01*
X39877Y513400D01*
X40840Y513142D01*
X41837D01*
X42800Y513400D01*
X43664Y513898D01*
X44369Y514604D01*
X44868Y515467D01*
X45126Y516431D01*
Y517428D01*
X44868Y518391D01*
X44369Y519255D01*
X43664Y519960D01*
X42800Y520458D01*
X41837Y520716D01*
D02*
G37*
G36*
X56341Y512449D02*
X55480D01*
X54684Y512119D01*
X54075Y511510D01*
X53745Y510714D01*
Y509853D01*
X54075Y509057D01*
X54684Y508448D01*
X55480Y508118D01*
X56341D01*
X57137Y508448D01*
X57746Y509057D01*
X58076Y509853D01*
Y510714D01*
X57746Y511510D01*
X57137Y512119D01*
X56341Y512449D01*
D02*
G37*
G36*
X41837Y510716D02*
X40840D01*
X39877Y510458D01*
X39013Y509960D01*
X38308Y509255D01*
X37809Y508391D01*
X37551Y507428D01*
Y506430D01*
X37809Y505467D01*
X38308Y504604D01*
X39013Y503898D01*
X39877Y503400D01*
X40840Y503142D01*
X41837D01*
X42800Y503400D01*
X43664Y503898D01*
X44369Y504604D01*
X44868Y505467D01*
X45126Y506430D01*
Y507428D01*
X44868Y508391D01*
X44369Y509255D01*
X43664Y509960D01*
X42800Y510458D01*
X41837Y510716D01*
D02*
G37*
G36*
X11837D02*
X10840D01*
X9877Y510458D01*
X9013Y509960D01*
X8308Y509255D01*
X7809Y508391D01*
X7551Y507428D01*
Y506430D01*
X7809Y505467D01*
X8308Y504604D01*
X9013Y503898D01*
X9877Y503400D01*
X10840Y503142D01*
X11837D01*
X12800Y503400D01*
X13664Y503898D01*
X14369Y504604D01*
X14868Y505467D01*
X15126Y506430D01*
Y507428D01*
X14868Y508391D01*
X14369Y509255D01*
X13664Y509960D01*
X12800Y510458D01*
X11837Y510716D01*
D02*
G37*
G36*
X41837Y500716D02*
X40840D01*
X39877Y500458D01*
X39013Y499960D01*
X38308Y499255D01*
X37809Y498391D01*
X37551Y497428D01*
Y496430D01*
X37809Y495467D01*
X38308Y494604D01*
X39013Y493898D01*
X39877Y493400D01*
X40840Y493142D01*
X41837D01*
X42800Y493400D01*
X43664Y493898D01*
X44369Y494604D01*
X44868Y495467D01*
X45126Y496430D01*
Y497428D01*
X44868Y498391D01*
X44369Y499255D01*
X43664Y499960D01*
X42800Y500458D01*
X41837Y500716D01*
D02*
G37*
G36*
X11837D02*
X10840D01*
X9877Y500458D01*
X9013Y499960D01*
X8308Y499255D01*
X7809Y498391D01*
X7551Y497428D01*
Y496430D01*
X7809Y495467D01*
X8308Y494604D01*
X9013Y493898D01*
X9877Y493400D01*
X10840Y493142D01*
X11837D01*
X12800Y493400D01*
X13664Y493898D01*
X14369Y494604D01*
X14868Y495467D01*
X15126Y496430D01*
Y497428D01*
X14868Y498391D01*
X14369Y499255D01*
X13664Y499960D01*
X12800Y500458D01*
X11837Y500716D01*
D02*
G37*
G36*
X42323Y490790D02*
Y487913D01*
X45200D01*
X45051Y488467D01*
X44527Y489375D01*
X43785Y490117D01*
X42876Y490642D01*
X42323Y490790D01*
D02*
G37*
G36*
X40354D02*
X39801Y490642D01*
X38892Y490117D01*
X38150Y489375D01*
X37626Y488467D01*
X37477Y487913D01*
X40354D01*
Y490790D01*
D02*
G37*
G36*
X45200Y485945D02*
X42323D01*
Y483068D01*
X42876Y483216D01*
X43785Y483741D01*
X44527Y484483D01*
X45051Y485391D01*
X45200Y485945D01*
D02*
G37*
G36*
X40354D02*
X37477D01*
X37626Y485391D01*
X38150Y484483D01*
X38892Y483741D01*
X39801Y483216D01*
X40354Y483068D01*
Y485945D01*
D02*
G37*
G36*
X41837Y480717D02*
X40840D01*
X39877Y480458D01*
X39013Y479960D01*
X38308Y479255D01*
X37809Y478391D01*
X37551Y477428D01*
Y476431D01*
X37809Y475467D01*
X38308Y474604D01*
X39013Y473899D01*
X39877Y473400D01*
X40840Y473142D01*
X41837D01*
X42800Y473400D01*
X43664Y473899D01*
X44369Y474604D01*
X44868Y475467D01*
X45126Y476431D01*
Y477428D01*
X44868Y478391D01*
X44369Y479255D01*
X43664Y479960D01*
X42800Y480458D01*
X41837Y480717D01*
D02*
G37*
G36*
X56341Y472685D02*
X55480D01*
X54684Y472356D01*
X54075Y471746D01*
X53745Y470951D01*
Y470089D01*
X54075Y469293D01*
X54684Y468684D01*
X55480Y468355D01*
X56341D01*
X57137Y468684D01*
X57746Y469293D01*
X58076Y470089D01*
Y470951D01*
X57746Y471746D01*
X57137Y472356D01*
X56341Y472685D01*
D02*
G37*
G36*
X41837Y470716D02*
X40840D01*
X39877Y470458D01*
X39013Y469960D01*
X38308Y469255D01*
X37809Y468391D01*
X37551Y467428D01*
Y466431D01*
X37809Y465467D01*
X38308Y464604D01*
X39013Y463899D01*
X39877Y463400D01*
X40840Y463142D01*
X41837D01*
X42800Y463400D01*
X43664Y463899D01*
X44369Y464604D01*
X44868Y465467D01*
X45126Y466431D01*
Y467428D01*
X44868Y468391D01*
X44369Y469255D01*
X43664Y469960D01*
X42800Y470458D01*
X41837Y470716D01*
D02*
G37*
G36*
X11837D02*
X10840D01*
X9877Y470458D01*
X9013Y469960D01*
X8308Y469255D01*
X7809Y468391D01*
X7551Y467428D01*
Y466431D01*
X7809Y465467D01*
X8308Y464604D01*
X9013Y463899D01*
X9877Y463400D01*
X10840Y463142D01*
X11837D01*
X12800Y463400D01*
X13664Y463899D01*
X14369Y464604D01*
X14868Y465467D01*
X15126Y466431D01*
Y467428D01*
X14868Y468391D01*
X14369Y469255D01*
X13664Y469960D01*
X12800Y470458D01*
X11837Y470716D01*
D02*
G37*
G36*
X41837Y460716D02*
X40840D01*
X39877Y460458D01*
X39013Y459960D01*
X38308Y459255D01*
X37809Y458391D01*
X37551Y457428D01*
Y456430D01*
X37809Y455467D01*
X38308Y454604D01*
X39013Y453898D01*
X39877Y453400D01*
X40840Y453142D01*
X41837D01*
X42800Y453400D01*
X43664Y453898D01*
X44369Y454604D01*
X44868Y455467D01*
X45126Y456430D01*
Y457428D01*
X44868Y458391D01*
X44369Y459255D01*
X43664Y459960D01*
X42800Y460458D01*
X41837Y460716D01*
D02*
G37*
G36*
X11837D02*
X10840D01*
X9877Y460458D01*
X9013Y459960D01*
X8308Y459255D01*
X7809Y458391D01*
X7551Y457428D01*
Y456430D01*
X7809Y455467D01*
X8308Y454604D01*
X9013Y453898D01*
X9877Y453400D01*
X10840Y453142D01*
X11837D01*
X12800Y453400D01*
X13664Y453898D01*
X14369Y454604D01*
X14868Y455467D01*
X15126Y456430D01*
Y457428D01*
X14868Y458391D01*
X14369Y459255D01*
X13664Y459960D01*
X12800Y460458D01*
X11837Y460716D01*
D02*
G37*
G36*
X42323Y450790D02*
Y447913D01*
X45200D01*
X45051Y448467D01*
X44527Y449375D01*
X43785Y450117D01*
X42876Y450642D01*
X42323Y450790D01*
D02*
G37*
G36*
X40354D02*
X39801Y450642D01*
X38892Y450117D01*
X38150Y449375D01*
X37626Y448467D01*
X37477Y447913D01*
X40354D01*
Y450790D01*
D02*
G37*
G36*
X45200Y445945D02*
X42323D01*
Y443068D01*
X42876Y443216D01*
X43785Y443741D01*
X44527Y444483D01*
X45051Y445391D01*
X45200Y445945D01*
D02*
G37*
G36*
X40354D02*
X37477D01*
X37626Y445391D01*
X38150Y444483D01*
X38892Y443741D01*
X39801Y443216D01*
X40354Y443068D01*
Y445945D01*
D02*
G37*
G36*
X41837Y440717D02*
X40840D01*
X39877Y440458D01*
X39013Y439960D01*
X38308Y439255D01*
X37809Y438391D01*
X37551Y437428D01*
Y436431D01*
X37809Y435467D01*
X38308Y434604D01*
X39013Y433898D01*
X39877Y433400D01*
X40840Y433142D01*
X41837D01*
X42800Y433400D01*
X43664Y433898D01*
X44369Y434604D01*
X44868Y435467D01*
X45126Y436431D01*
Y437428D01*
X44868Y438391D01*
X44369Y439255D01*
X43664Y439960D01*
X42800Y440458D01*
X41837Y440717D01*
D02*
G37*
G36*
X56333Y432558D02*
X55472D01*
X54676Y432229D01*
X54067Y431620D01*
X53737Y430824D01*
Y429962D01*
X54067Y429166D01*
X54676Y428557D01*
X55472Y428228D01*
X56333D01*
X57129Y428557D01*
X57738Y429166D01*
X58068Y429962D01*
Y430824D01*
X57738Y431620D01*
X57129Y432229D01*
X56333Y432558D01*
D02*
G37*
G36*
X41837Y430717D02*
X40840D01*
X39877Y430458D01*
X39013Y429960D01*
X38308Y429255D01*
X37809Y428391D01*
X37551Y427428D01*
Y426431D01*
X37809Y425467D01*
X38308Y424604D01*
X39013Y423899D01*
X39877Y423400D01*
X40840Y423142D01*
X41837D01*
X42800Y423400D01*
X43664Y423899D01*
X44369Y424604D01*
X44868Y425467D01*
X45126Y426431D01*
Y427428D01*
X44868Y428391D01*
X44369Y429255D01*
X43664Y429960D01*
X42800Y430458D01*
X41837Y430717D01*
D02*
G37*
G36*
X11837D02*
X10840D01*
X9877Y430458D01*
X9013Y429960D01*
X8308Y429255D01*
X7809Y428391D01*
X7551Y427428D01*
Y426431D01*
X7809Y425467D01*
X8308Y424604D01*
X9013Y423899D01*
X9877Y423400D01*
X10840Y423142D01*
X11837D01*
X12800Y423400D01*
X13664Y423899D01*
X14369Y424604D01*
X14868Y425467D01*
X15126Y426431D01*
Y427428D01*
X14868Y428391D01*
X14369Y429255D01*
X13664Y429960D01*
X12800Y430458D01*
X11837Y430717D01*
D02*
G37*
G36*
X41837Y420716D02*
X40840D01*
X39877Y420458D01*
X39013Y419960D01*
X38308Y419255D01*
X37809Y418391D01*
X37551Y417428D01*
Y416431D01*
X37809Y415467D01*
X38308Y414604D01*
X39013Y413899D01*
X39877Y413400D01*
X40840Y413142D01*
X41837D01*
X42800Y413400D01*
X43664Y413899D01*
X44369Y414604D01*
X44868Y415467D01*
X45126Y416431D01*
Y417428D01*
X44868Y418391D01*
X44369Y419255D01*
X43664Y419960D01*
X42800Y420458D01*
X41837Y420716D01*
D02*
G37*
G36*
X11837D02*
X10840D01*
X9877Y420458D01*
X9013Y419960D01*
X8308Y419255D01*
X7809Y418391D01*
X7551Y417428D01*
Y416431D01*
X7809Y415467D01*
X8308Y414604D01*
X9013Y413899D01*
X9877Y413400D01*
X10840Y413142D01*
X11837D01*
X12800Y413400D01*
X13664Y413899D01*
X14369Y414604D01*
X14868Y415467D01*
X15126Y416431D01*
Y417428D01*
X14868Y418391D01*
X14369Y419255D01*
X13664Y419960D01*
X12800Y420458D01*
X11837Y420716D01*
D02*
G37*
G36*
X42323Y410790D02*
Y407913D01*
X45200D01*
X45051Y408467D01*
X44527Y409375D01*
X43785Y410117D01*
X42876Y410642D01*
X42323Y410790D01*
D02*
G37*
G36*
X40354D02*
X39801Y410642D01*
X38892Y410117D01*
X38150Y409375D01*
X37626Y408467D01*
X37477Y407913D01*
X40354D01*
Y410790D01*
D02*
G37*
G36*
X45200Y405945D02*
X42323D01*
Y403068D01*
X42876Y403216D01*
X43785Y403741D01*
X44527Y404483D01*
X45051Y405391D01*
X45200Y405945D01*
D02*
G37*
G36*
X40354D02*
X37477D01*
X37626Y405391D01*
X38150Y404483D01*
X38892Y403741D01*
X39801Y403216D01*
X40354Y403068D01*
Y405945D01*
D02*
G37*
G36*
X41837Y400716D02*
X40840D01*
X39877Y400458D01*
X39013Y399960D01*
X38308Y399255D01*
X37809Y398391D01*
X37551Y397428D01*
Y396430D01*
X37809Y395467D01*
X38308Y394604D01*
X39013Y393899D01*
X39877Y393400D01*
X40840Y393142D01*
X41837D01*
X42800Y393400D01*
X43664Y393899D01*
X44369Y394604D01*
X44868Y395467D01*
X45126Y396430D01*
Y397428D01*
X44868Y398391D01*
X44369Y399255D01*
X43664Y399960D01*
X42800Y400458D01*
X41837Y400716D01*
D02*
G37*
G36*
X56364Y392668D02*
X55503D01*
X54707Y392338D01*
X54098Y391729D01*
X53768Y390933D01*
Y390072D01*
X54098Y389276D01*
X54707Y388667D01*
X55503Y388337D01*
X56364D01*
X57160Y388667D01*
X57769Y389276D01*
X58099Y390072D01*
Y390933D01*
X57769Y391729D01*
X57160Y392338D01*
X56364Y392668D01*
D02*
G37*
G36*
X41837Y390717D02*
X40840D01*
X39877Y390458D01*
X39013Y389960D01*
X38308Y389255D01*
X37809Y388391D01*
X37551Y387428D01*
Y386431D01*
X37809Y385467D01*
X38308Y384604D01*
X39013Y383898D01*
X39877Y383400D01*
X40840Y383142D01*
X41837D01*
X42800Y383400D01*
X43664Y383898D01*
X44369Y384604D01*
X44868Y385467D01*
X45126Y386431D01*
Y387428D01*
X44868Y388391D01*
X44369Y389255D01*
X43664Y389960D01*
X42800Y390458D01*
X41837Y390717D01*
D02*
G37*
G36*
X11837D02*
X10840D01*
X9877Y390458D01*
X9013Y389960D01*
X8308Y389255D01*
X7809Y388391D01*
X7551Y387428D01*
Y386431D01*
X7809Y385467D01*
X8308Y384604D01*
X9013Y383898D01*
X9877Y383400D01*
X10840Y383142D01*
X11837D01*
X12800Y383400D01*
X13664Y383898D01*
X14369Y384604D01*
X14868Y385467D01*
X15126Y386431D01*
Y387428D01*
X14868Y388391D01*
X14369Y389255D01*
X13664Y389960D01*
X12800Y390458D01*
X11837Y390717D01*
D02*
G37*
G36*
X41837Y380716D02*
X40840D01*
X39877Y380458D01*
X39013Y379960D01*
X38308Y379255D01*
X37809Y378391D01*
X37551Y377428D01*
Y376431D01*
X37809Y375467D01*
X38308Y374604D01*
X39013Y373899D01*
X39877Y373400D01*
X40840Y373142D01*
X41837D01*
X42800Y373400D01*
X43664Y373899D01*
X44369Y374604D01*
X44868Y375467D01*
X45126Y376431D01*
Y377428D01*
X44868Y378391D01*
X44369Y379255D01*
X43664Y379960D01*
X42800Y380458D01*
X41837Y380716D01*
D02*
G37*
G36*
X11837D02*
X10840D01*
X9877Y380458D01*
X9013Y379960D01*
X8308Y379255D01*
X7809Y378391D01*
X7551Y377428D01*
Y376431D01*
X7809Y375467D01*
X8308Y374604D01*
X9013Y373899D01*
X9877Y373400D01*
X10840Y373142D01*
X11837D01*
X12800Y373400D01*
X13664Y373899D01*
X14369Y374604D01*
X14868Y375467D01*
X15126Y376431D01*
Y377428D01*
X14868Y378391D01*
X14369Y379255D01*
X13664Y379960D01*
X12800Y380458D01*
X11837Y380716D01*
D02*
G37*
G36*
X42323Y370790D02*
Y367913D01*
X45200D01*
X45051Y368467D01*
X44527Y369375D01*
X43785Y370117D01*
X42876Y370642D01*
X42323Y370790D01*
D02*
G37*
G36*
X40354D02*
X39801Y370642D01*
X38892Y370117D01*
X38150Y369375D01*
X37626Y368467D01*
X37477Y367913D01*
X40354D01*
Y370790D01*
D02*
G37*
G36*
X45200Y365945D02*
X42323D01*
Y363068D01*
X42876Y363216D01*
X43785Y363741D01*
X44527Y364483D01*
X45051Y365391D01*
X45200Y365945D01*
D02*
G37*
G36*
X40354D02*
X37477D01*
X37626Y365391D01*
X38150Y364483D01*
X38892Y363741D01*
X39801Y363216D01*
X40354Y363068D01*
Y365945D01*
D02*
G37*
G36*
X41837Y360717D02*
X40840D01*
X39877Y360458D01*
X39013Y359960D01*
X38308Y359255D01*
X37809Y358391D01*
X37551Y357428D01*
Y356431D01*
X37809Y355467D01*
X38308Y354604D01*
X39013Y353899D01*
X39877Y353400D01*
X40840Y353142D01*
X41837D01*
X42800Y353400D01*
X43664Y353899D01*
X44369Y354604D01*
X44868Y355467D01*
X45126Y356431D01*
Y357428D01*
X44868Y358391D01*
X44369Y359255D01*
X43664Y359960D01*
X42800Y360458D01*
X41837Y360717D01*
D02*
G37*
G36*
X56341Y353000D02*
X55480D01*
X54684Y352671D01*
X54075Y352062D01*
X53745Y351266D01*
Y350405D01*
X54075Y349609D01*
X54684Y349000D01*
X55480Y348670D01*
X56341D01*
X57137Y349000D01*
X57746Y349609D01*
X58076Y350405D01*
Y351266D01*
X57746Y352062D01*
X57137Y352671D01*
X56341Y353000D01*
D02*
G37*
G36*
X41837Y350716D02*
X40840D01*
X39877Y350458D01*
X39013Y349960D01*
X38308Y349255D01*
X37809Y348391D01*
X37551Y347428D01*
Y346430D01*
X37809Y345467D01*
X38308Y344604D01*
X39013Y343899D01*
X39877Y343400D01*
X40840Y343142D01*
X41837D01*
X42800Y343400D01*
X43664Y343899D01*
X44369Y344604D01*
X44868Y345467D01*
X45126Y346430D01*
Y347428D01*
X44868Y348391D01*
X44369Y349255D01*
X43664Y349960D01*
X42800Y350458D01*
X41837Y350716D01*
D02*
G37*
G36*
X11837D02*
X10840D01*
X9877Y350458D01*
X9013Y349960D01*
X8308Y349255D01*
X7809Y348391D01*
X7551Y347428D01*
Y346430D01*
X7809Y345467D01*
X8308Y344604D01*
X9013Y343899D01*
X9877Y343400D01*
X10840Y343142D01*
X11837D01*
X12800Y343400D01*
X13664Y343899D01*
X14369Y344604D01*
X14868Y345467D01*
X15126Y346430D01*
Y347428D01*
X14868Y348391D01*
X14369Y349255D01*
X13664Y349960D01*
X12800Y350458D01*
X11837Y350716D01*
D02*
G37*
G36*
X41916Y340717D02*
X40919D01*
X39955Y340458D01*
X39092Y339960D01*
X38387Y339255D01*
X37888Y338391D01*
X37630Y337428D01*
Y336431D01*
X37888Y335467D01*
X38387Y334604D01*
X39092Y333898D01*
X39955Y333400D01*
X40919Y333142D01*
X41916D01*
X42879Y333400D01*
X43743Y333898D01*
X44448Y334604D01*
X44947Y335467D01*
X45205Y336431D01*
Y337428D01*
X44947Y338391D01*
X44448Y339255D01*
X43743Y339960D01*
X42879Y340458D01*
X41916Y340717D01*
D02*
G37*
G36*
X11916D02*
X10919D01*
X9955Y340458D01*
X9092Y339960D01*
X8387Y339255D01*
X7888Y338391D01*
X7630Y337428D01*
Y336431D01*
X7888Y335467D01*
X8387Y334604D01*
X9092Y333898D01*
X9955Y333400D01*
X10919Y333142D01*
X11916D01*
X12879Y333400D01*
X13743Y333898D01*
X14448Y334604D01*
X14947Y335467D01*
X15205Y336431D01*
Y337428D01*
X14947Y338391D01*
X14448Y339255D01*
X13743Y339960D01*
X12879Y340458D01*
X11916Y340717D01*
D02*
G37*
G36*
X41916Y330716D02*
X40919D01*
X39955Y330458D01*
X39092Y329960D01*
X38387Y329255D01*
X37888Y328391D01*
X37630Y327428D01*
Y326431D01*
X37888Y325467D01*
X38387Y324604D01*
X39092Y323899D01*
X39955Y323400D01*
X40919Y323142D01*
X41916D01*
X42879Y323400D01*
X43743Y323899D01*
X44448Y324604D01*
X44947Y325467D01*
X45205Y326431D01*
Y327428D01*
X44947Y328391D01*
X44448Y329255D01*
X43743Y329960D01*
X42879Y330458D01*
X41916Y330716D01*
D02*
G37*
G36*
Y320717D02*
X40919D01*
X39955Y320458D01*
X39092Y319960D01*
X38387Y319255D01*
X37888Y318391D01*
X37630Y317428D01*
Y316430D01*
X37888Y315467D01*
X38387Y314604D01*
X39092Y313898D01*
X39955Y313400D01*
X40919Y313142D01*
X41916D01*
X42879Y313400D01*
X43743Y313898D01*
X44448Y314604D01*
X44947Y315467D01*
X45205Y316430D01*
Y317428D01*
X44947Y318391D01*
X44448Y319255D01*
X43743Y319960D01*
X42879Y320458D01*
X41916Y320717D01*
D02*
G37*
G36*
X54570Y314896D02*
X53709D01*
X52913Y314566D01*
X52304Y313957D01*
X51974Y313161D01*
Y312299D01*
X52304Y311504D01*
X52913Y310894D01*
X53709Y310565D01*
X54570D01*
X55366Y310894D01*
X55975Y311504D01*
X56305Y312299D01*
Y313161D01*
X55975Y313957D01*
X55366Y314566D01*
X54570Y314896D01*
D02*
G37*
G36*
X20903Y308071D02*
X20042D01*
X19246Y307741D01*
X18637Y307132D01*
X18307Y306336D01*
Y305475D01*
X18637Y304679D01*
X19246Y304070D01*
X20042Y303740D01*
X20903D01*
X21699Y304070D01*
X22308Y304679D01*
X22638Y305475D01*
Y306336D01*
X22308Y307132D01*
X21699Y307741D01*
X20903Y308071D01*
D02*
G37*
G36*
X41916Y310717D02*
X40919D01*
X39955Y310458D01*
X39092Y309960D01*
X38387Y309255D01*
X37888Y308391D01*
X37630Y307428D01*
Y306431D01*
X37888Y305467D01*
X38387Y304604D01*
X39092Y303899D01*
X39955Y303400D01*
X40919Y303142D01*
X41916D01*
X42879Y303400D01*
X43743Y303899D01*
X44448Y304604D01*
X44947Y305467D01*
X45205Y306431D01*
Y307428D01*
X44947Y308391D01*
X44448Y309255D01*
X43743Y309960D01*
X42879Y310458D01*
X41916Y310717D01*
D02*
G37*
G36*
X11916D02*
X10919D01*
X9955Y310458D01*
X9092Y309960D01*
X8387Y309255D01*
X7888Y308391D01*
X7630Y307428D01*
Y306431D01*
X7888Y305467D01*
X8387Y304604D01*
X9092Y303899D01*
X9955Y303400D01*
X10919Y303142D01*
X11916D01*
X12879Y303400D01*
X13743Y303899D01*
X14448Y304604D01*
X14947Y305467D01*
X15205Y306431D01*
Y307428D01*
X14947Y308391D01*
X14448Y309255D01*
X13743Y309960D01*
X12879Y310458D01*
X11916Y310717D01*
D02*
G37*
G36*
X41916Y300716D02*
X40919D01*
X39955Y300458D01*
X39092Y299960D01*
X38387Y299255D01*
X37888Y298391D01*
X37630Y297428D01*
Y296430D01*
X37888Y295467D01*
X38387Y294604D01*
X39092Y293899D01*
X39955Y293400D01*
X40919Y293142D01*
X41916D01*
X42879Y293400D01*
X43743Y293899D01*
X44448Y294604D01*
X44947Y295467D01*
X45205Y296430D01*
Y297428D01*
X44947Y298391D01*
X44448Y299255D01*
X43743Y299960D01*
X42879Y300458D01*
X41916Y300716D01*
D02*
G37*
G36*
X11916D02*
X10919D01*
X9955Y300458D01*
X9092Y299960D01*
X8387Y299255D01*
X7888Y298391D01*
X7630Y297428D01*
Y296430D01*
X7888Y295467D01*
X8387Y294604D01*
X9092Y293899D01*
X9955Y293400D01*
X10919Y293142D01*
X11916D01*
X12879Y293400D01*
X13743Y293899D01*
X14448Y294604D01*
X14947Y295467D01*
X15205Y296430D01*
Y297428D01*
X14947Y298391D01*
X14448Y299255D01*
X13743Y299960D01*
X12879Y300458D01*
X11916Y300716D01*
D02*
G37*
G36*
X41916Y290717D02*
X40919D01*
X39955Y290458D01*
X39092Y289960D01*
X38387Y289255D01*
X37888Y288391D01*
X37630Y287428D01*
Y286431D01*
X37888Y285467D01*
X38387Y284604D01*
X39092Y283898D01*
X39955Y283400D01*
X40919Y283142D01*
X41916D01*
X42879Y283400D01*
X43743Y283898D01*
X44448Y284604D01*
X44947Y285467D01*
X45205Y286431D01*
Y287428D01*
X44947Y288391D01*
X44448Y289255D01*
X43743Y289960D01*
X42879Y290458D01*
X41916Y290717D01*
D02*
G37*
G36*
X98462Y282480D02*
X97601D01*
X96805Y282151D01*
X96196Y281541D01*
X95866Y280746D01*
Y279884D01*
X96196Y279088D01*
X96805Y278479D01*
X97601Y278150D01*
X98462D01*
X99258Y278479D01*
X99867Y279088D01*
X100197Y279884D01*
Y280746D01*
X99867Y281541D01*
X99258Y282151D01*
X98462Y282480D01*
D02*
G37*
G36*
X41916Y280716D02*
X40919D01*
X39955Y280458D01*
X39092Y279960D01*
X38387Y279255D01*
X37888Y278391D01*
X37630Y277428D01*
Y276431D01*
X37888Y275467D01*
X38387Y274604D01*
X39092Y273899D01*
X39955Y273400D01*
X40919Y273142D01*
X41916D01*
X42879Y273400D01*
X43743Y273899D01*
X44448Y274604D01*
X44947Y275467D01*
X45205Y276431D01*
Y277428D01*
X44947Y278391D01*
X44448Y279255D01*
X43743Y279960D01*
X42879Y280458D01*
X41916Y280716D01*
D02*
G37*
G36*
X54564Y275787D02*
X53703D01*
X52907Y275458D01*
X52298Y274849D01*
X51968Y274053D01*
Y273191D01*
X52298Y272395D01*
X52907Y271786D01*
X53703Y271457D01*
X54564D01*
X55360Y271786D01*
X55970Y272395D01*
X56299Y273191D01*
Y274053D01*
X55970Y274849D01*
X55360Y275458D01*
X54564Y275787D01*
D02*
G37*
G36*
X20903Y268307D02*
X20042D01*
X19246Y267977D01*
X18637Y267368D01*
X18307Y266572D01*
Y265711D01*
X18637Y264915D01*
X19246Y264306D01*
X20042Y263976D01*
X20903D01*
X21699Y264306D01*
X22308Y264915D01*
X22638Y265711D01*
Y266572D01*
X22308Y267368D01*
X21699Y267977D01*
X20903Y268307D01*
D02*
G37*
G36*
X41916Y270717D02*
X40919D01*
X39955Y270458D01*
X39092Y269960D01*
X38387Y269255D01*
X37888Y268391D01*
X37630Y267428D01*
Y266430D01*
X37888Y265467D01*
X38387Y264604D01*
X39092Y263898D01*
X39955Y263400D01*
X40919Y263142D01*
X41916D01*
X42879Y263400D01*
X43743Y263898D01*
X44448Y264604D01*
X44947Y265467D01*
X45205Y266430D01*
Y267428D01*
X44947Y268391D01*
X44448Y269255D01*
X43743Y269960D01*
X42879Y270458D01*
X41916Y270717D01*
D02*
G37*
G36*
X11916D02*
X10919D01*
X9955Y270458D01*
X9092Y269960D01*
X8387Y269255D01*
X7888Y268391D01*
X7630Y267428D01*
Y266430D01*
X7888Y265467D01*
X8387Y264604D01*
X9092Y263898D01*
X9955Y263400D01*
X10919Y263142D01*
X11916D01*
X12879Y263400D01*
X13743Y263898D01*
X14448Y264604D01*
X14947Y265467D01*
X15205Y266430D01*
Y267428D01*
X14947Y268391D01*
X14448Y269255D01*
X13743Y269960D01*
X12879Y270458D01*
X11916Y270717D01*
D02*
G37*
G36*
X68935Y255315D02*
X68073D01*
X67277Y254985D01*
X66668Y254376D01*
X66339Y253580D01*
Y252719D01*
X66668Y251923D01*
X67277Y251314D01*
X68073Y250984D01*
X68935D01*
X69731Y251314D01*
X70340Y251923D01*
X70669Y252719D01*
Y253580D01*
X70340Y254376D01*
X69731Y254985D01*
X68935Y255315D01*
D02*
G37*
G36*
X456642Y515945D02*
X455169D01*
X453724Y515657D01*
X452362Y515094D01*
X451137Y514275D01*
X450095Y513233D01*
X449277Y512008D01*
X448713Y510646D01*
X448425Y509201D01*
Y507728D01*
X448713Y506283D01*
X449277Y504921D01*
X450095Y503696D01*
X451137Y502654D01*
X452362Y501836D01*
X453724Y501272D01*
X455169Y500984D01*
X456642D01*
X458087Y501272D01*
X459449Y501836D01*
X460674Y502654D01*
X461716Y503696D01*
X462535Y504921D01*
X463098Y506283D01*
X463386Y507728D01*
Y509201D01*
X463098Y510646D01*
X462535Y512008D01*
X461716Y513233D01*
X460674Y514275D01*
X459449Y515094D01*
X458087Y515657D01*
X456642Y515945D01*
D02*
G37*
G36*
X664000Y260236D02*
X661984D01*
X660006Y259843D01*
X658144Y259071D01*
X656467Y257951D01*
X655041Y256525D01*
X653921Y254849D01*
X653149Y252986D01*
X652756Y251008D01*
Y248992D01*
X653149Y247014D01*
X653921Y245151D01*
X655041Y243475D01*
X656467Y242049D01*
X658144Y240929D01*
X660006Y240157D01*
X661984Y239764D01*
X664000D01*
X665978Y240157D01*
X667841Y240929D01*
X669517Y242049D01*
X670943Y243475D01*
X672063Y245151D01*
X672835Y247014D01*
X673228Y248992D01*
Y251008D01*
X672835Y252986D01*
X672063Y254849D01*
X670943Y256525D01*
X669517Y257951D01*
X667841Y259071D01*
X665978Y259843D01*
X664000Y260236D01*
D02*
G37*
G36*
X584079D02*
X582063D01*
X580085Y259843D01*
X578222Y259071D01*
X576546Y257951D01*
X575120Y256525D01*
X574000Y254849D01*
X573228Y252986D01*
X572835Y251008D01*
Y248992D01*
X573228Y247014D01*
X574000Y245151D01*
X575120Y243475D01*
X576546Y242049D01*
X578222Y240929D01*
X580085Y240157D01*
X582063Y239764D01*
X584079D01*
X586057Y240157D01*
X587920Y240929D01*
X589596Y242049D01*
X591022Y243475D01*
X592142Y245151D01*
X592914Y247014D01*
X593307Y248992D01*
Y251008D01*
X592914Y252986D01*
X592142Y254849D01*
X591022Y256525D01*
X589596Y257951D01*
X587920Y259071D01*
X586057Y259843D01*
X584079Y260236D01*
D02*
G37*
G36*
X523055D02*
X521039D01*
X519061Y259843D01*
X517199Y259071D01*
X515522Y257951D01*
X514096Y256525D01*
X512976Y254849D01*
X512204Y252986D01*
X511811Y251008D01*
Y248992D01*
X512204Y247014D01*
X512976Y245151D01*
X514096Y243475D01*
X515522Y242049D01*
X517199Y240929D01*
X519061Y240157D01*
X521039Y239764D01*
X523055D01*
X525033Y240157D01*
X526896Y240929D01*
X528573Y242049D01*
X529998Y243475D01*
X531118Y245151D01*
X531890Y247014D01*
X532283Y248992D01*
Y251008D01*
X531890Y252986D01*
X531118Y254849D01*
X529998Y256525D01*
X528573Y257951D01*
X526896Y259071D01*
X525033Y259843D01*
X523055Y260236D01*
D02*
G37*
G36*
X443134D02*
X441118D01*
X439140Y259843D01*
X437277Y259071D01*
X435601Y257951D01*
X434175Y256525D01*
X433055Y254849D01*
X432283Y252986D01*
X431890Y251008D01*
Y248992D01*
X432283Y247014D01*
X433055Y245151D01*
X434175Y243475D01*
X435601Y242049D01*
X437277Y240929D01*
X439140Y240157D01*
X441118Y239764D01*
X443134D01*
X445112Y240157D01*
X446975Y240929D01*
X448651Y242049D01*
X450077Y243475D01*
X451197Y245151D01*
X451969Y247014D01*
X452362Y248992D01*
Y251008D01*
X451969Y252986D01*
X451197Y254849D01*
X450077Y256525D01*
X448651Y257951D01*
X446975Y259071D01*
X445112Y259843D01*
X443134Y260236D01*
D02*
G37*
G36*
X382111D02*
X380094D01*
X378117Y259843D01*
X376254Y259071D01*
X374577Y257951D01*
X373151Y256525D01*
X372031Y254849D01*
X371259Y252986D01*
X370866Y251008D01*
Y248992D01*
X371259Y247014D01*
X372031Y245151D01*
X373151Y243475D01*
X374577Y242049D01*
X376254Y240929D01*
X378117Y240157D01*
X380094Y239764D01*
X382111D01*
X384088Y240157D01*
X385951Y240929D01*
X387628Y242049D01*
X389053Y243475D01*
X390174Y245151D01*
X390945Y247014D01*
X391339Y248992D01*
Y251008D01*
X390945Y252986D01*
X390174Y254849D01*
X389053Y256525D01*
X387628Y257951D01*
X385951Y259071D01*
X384088Y259843D01*
X382111Y260236D01*
D02*
G37*
G36*
X302189D02*
X300173D01*
X298195Y259843D01*
X296332Y259071D01*
X294656Y257951D01*
X293230Y256525D01*
X292110Y254849D01*
X291338Y252986D01*
X290945Y251008D01*
Y248992D01*
X291338Y247014D01*
X292110Y245151D01*
X293230Y243475D01*
X294656Y242049D01*
X296332Y240929D01*
X298195Y240157D01*
X300173Y239764D01*
X302189D01*
X304167Y240157D01*
X306030Y240929D01*
X307706Y242049D01*
X309132Y243475D01*
X310252Y245151D01*
X311024Y247014D01*
X311417Y248992D01*
Y251008D01*
X311024Y252986D01*
X310252Y254849D01*
X309132Y256525D01*
X307706Y257951D01*
X306030Y259071D01*
X304167Y259843D01*
X302189Y260236D01*
D02*
G37*
G36*
X241559D02*
X239543D01*
X237565Y259843D01*
X235702Y259071D01*
X234026Y257951D01*
X232600Y256525D01*
X231480Y254849D01*
X230708Y252986D01*
X230315Y251008D01*
Y248992D01*
X230708Y247014D01*
X231480Y245151D01*
X232600Y243475D01*
X234026Y242049D01*
X235702Y240929D01*
X237565Y240157D01*
X239543Y239764D01*
X241559D01*
X243537Y240157D01*
X245400Y240929D01*
X247076Y242049D01*
X248502Y243475D01*
X249622Y245151D01*
X250394Y247014D01*
X250787Y248992D01*
Y251008D01*
X250394Y252986D01*
X249622Y254849D01*
X248502Y256525D01*
X247076Y257951D01*
X245400Y259071D01*
X243537Y259843D01*
X241559Y260236D01*
D02*
G37*
G36*
X161638D02*
X159622D01*
X157644Y259843D01*
X155781Y259071D01*
X154105Y257951D01*
X152679Y256525D01*
X151559Y254849D01*
X150787Y252986D01*
X150394Y251008D01*
Y248992D01*
X150787Y247014D01*
X151559Y245151D01*
X152679Y243475D01*
X154105Y242049D01*
X155781Y240929D01*
X157644Y240157D01*
X159622Y239764D01*
X161638D01*
X163616Y240157D01*
X165479Y240929D01*
X167155Y242049D01*
X168581Y243475D01*
X169701Y245151D01*
X170473Y247014D01*
X170866Y248992D01*
Y251008D01*
X170473Y252986D01*
X169701Y254849D01*
X168581Y256525D01*
X167155Y257951D01*
X165479Y259071D01*
X163616Y259843D01*
X161638Y260236D01*
D02*
G37*
G36*
X643922Y238189D02*
X641905D01*
X639928Y237796D01*
X638065Y237024D01*
X636388Y235904D01*
X634962Y234478D01*
X633842Y232801D01*
X633071Y230939D01*
X632677Y228961D01*
Y226945D01*
X633071Y224967D01*
X633842Y223104D01*
X634962Y221427D01*
X636388Y220002D01*
X638065Y218882D01*
X639928Y218110D01*
X641905Y217717D01*
X643922D01*
X645899Y218110D01*
X647762Y218882D01*
X649439Y220002D01*
X650864Y221427D01*
X651985Y223104D01*
X652756Y224967D01*
X653150Y226945D01*
Y228961D01*
X652756Y230939D01*
X651985Y232801D01*
X650864Y234478D01*
X649439Y235904D01*
X647762Y237024D01*
X645899Y237796D01*
X643922Y238189D01*
D02*
G37*
G36*
X583292D02*
X581275D01*
X579298Y237796D01*
X577435Y237024D01*
X575758Y235904D01*
X574333Y234478D01*
X573212Y232801D01*
X572441Y230939D01*
X572047Y228961D01*
Y226945D01*
X572441Y224967D01*
X573212Y223104D01*
X574333Y221427D01*
X575758Y220002D01*
X577435Y218882D01*
X579298Y218110D01*
X581275Y217717D01*
X583292D01*
X585269Y218110D01*
X587132Y218882D01*
X588809Y220002D01*
X590235Y221427D01*
X591355Y223104D01*
X592126Y224967D01*
X592520Y226945D01*
Y228961D01*
X592126Y230939D01*
X591355Y232801D01*
X590235Y234478D01*
X588809Y235904D01*
X587132Y237024D01*
X585269Y237796D01*
X583292Y238189D01*
D02*
G37*
G36*
X503370D02*
X501354D01*
X499376Y237796D01*
X497513Y237024D01*
X495837Y235904D01*
X494411Y234478D01*
X493291Y232801D01*
X492519Y230939D01*
X492126Y228961D01*
Y226945D01*
X492519Y224967D01*
X493291Y223104D01*
X494411Y221427D01*
X495837Y220002D01*
X497513Y218882D01*
X499376Y218110D01*
X501354Y217717D01*
X503370D01*
X505348Y218110D01*
X507211Y218882D01*
X508887Y220002D01*
X510313Y221427D01*
X511433Y223104D01*
X512205Y224967D01*
X512598Y226945D01*
Y228961D01*
X512205Y230939D01*
X511433Y232801D01*
X510313Y234478D01*
X508887Y235904D01*
X507211Y237024D01*
X505348Y237796D01*
X503370Y238189D01*
D02*
G37*
G36*
X443134D02*
X441118D01*
X439140Y237796D01*
X437277Y237024D01*
X435601Y235904D01*
X434175Y234478D01*
X433055Y232801D01*
X432283Y230939D01*
X431890Y228961D01*
Y226945D01*
X432283Y224967D01*
X433055Y223104D01*
X434175Y221427D01*
X435601Y220002D01*
X437277Y218882D01*
X439140Y218110D01*
X441118Y217717D01*
X443134D01*
X445112Y218110D01*
X446975Y218882D01*
X448651Y220002D01*
X450077Y221427D01*
X451197Y223104D01*
X451969Y224967D01*
X452362Y226945D01*
Y228961D01*
X451969Y230939D01*
X451197Y232801D01*
X450077Y234478D01*
X448651Y235904D01*
X446975Y237024D01*
X445112Y237796D01*
X443134Y238189D01*
D02*
G37*
G36*
X363213D02*
X361196D01*
X359219Y237796D01*
X357356Y237024D01*
X355679Y235904D01*
X354254Y234478D01*
X353134Y232801D01*
X352362Y230939D01*
X351969Y228961D01*
Y226945D01*
X352362Y224967D01*
X353134Y223104D01*
X354254Y221427D01*
X355679Y220002D01*
X357356Y218882D01*
X359219Y218110D01*
X361196Y217717D01*
X363213D01*
X365191Y218110D01*
X367053Y218882D01*
X368730Y220002D01*
X370156Y221427D01*
X371276Y223104D01*
X372048Y224967D01*
X372441Y226945D01*
Y228961D01*
X372048Y230939D01*
X371276Y232801D01*
X370156Y234478D01*
X368730Y235904D01*
X367053Y237024D01*
X365191Y237796D01*
X363213Y238189D01*
D02*
G37*
G36*
X302583D02*
X300567D01*
X298589Y237796D01*
X296726Y237024D01*
X295050Y235904D01*
X293624Y234478D01*
X292504Y232801D01*
X291732Y230939D01*
X291339Y228961D01*
Y226945D01*
X291732Y224967D01*
X292504Y223104D01*
X293624Y221427D01*
X295050Y220002D01*
X296726Y218882D01*
X298589Y218110D01*
X300567Y217717D01*
X302583D01*
X304561Y218110D01*
X306423Y218882D01*
X308100Y220002D01*
X309526Y221427D01*
X310646Y223104D01*
X311418Y224967D01*
X311811Y226945D01*
Y228961D01*
X311418Y230939D01*
X310646Y232801D01*
X309526Y234478D01*
X308100Y235904D01*
X306423Y237024D01*
X304561Y237796D01*
X302583Y238189D01*
D02*
G37*
G36*
X222662D02*
X220645D01*
X218668Y237796D01*
X216805Y237024D01*
X215128Y235904D01*
X213703Y234478D01*
X212582Y232801D01*
X211811Y230939D01*
X211417Y228961D01*
Y226945D01*
X211811Y224967D01*
X212582Y223104D01*
X213703Y221427D01*
X215128Y220002D01*
X216805Y218882D01*
X218668Y218110D01*
X220645Y217717D01*
X222662D01*
X224639Y218110D01*
X226502Y218882D01*
X228179Y220002D01*
X229605Y221427D01*
X230725Y223104D01*
X231496Y224967D01*
X231890Y226945D01*
Y228961D01*
X231496Y230939D01*
X230725Y232801D01*
X229605Y234478D01*
X228179Y235904D01*
X226502Y237024D01*
X224639Y237796D01*
X222662Y238189D01*
D02*
G37*
G36*
X161638D02*
X159622D01*
X157644Y237796D01*
X155781Y237024D01*
X154105Y235904D01*
X152679Y234478D01*
X151559Y232801D01*
X150787Y230939D01*
X150394Y228961D01*
Y226945D01*
X150787Y224967D01*
X151559Y223104D01*
X152679Y221427D01*
X154105Y220002D01*
X155781Y218882D01*
X157644Y218110D01*
X159622Y217717D01*
X161638D01*
X163616Y218110D01*
X165479Y218882D01*
X167155Y220002D01*
X168581Y221427D01*
X169701Y223104D01*
X170473Y224967D01*
X170866Y226945D01*
Y228961D01*
X170473Y230939D01*
X169701Y232801D01*
X168581Y234478D01*
X167155Y235904D01*
X165479Y237024D01*
X163616Y237796D01*
X161638Y238189D01*
D02*
G37*
G36*
X81717D02*
X79700D01*
X77723Y237796D01*
X75860Y237024D01*
X74183Y235904D01*
X72758Y234478D01*
X71637Y232801D01*
X70866Y230939D01*
X70472Y228961D01*
Y226945D01*
X70866Y224967D01*
X71637Y223104D01*
X72758Y221427D01*
X74183Y220002D01*
X75860Y218882D01*
X77723Y218110D01*
X79700Y217717D01*
X81717D01*
X83694Y218110D01*
X85557Y218882D01*
X87234Y220002D01*
X88660Y221427D01*
X89780Y223104D01*
X90552Y224967D01*
X90945Y226945D01*
Y228961D01*
X90552Y230939D01*
X89780Y232801D01*
X88660Y234478D01*
X87234Y235904D01*
X85557Y237024D01*
X83694Y237796D01*
X81717Y238189D01*
D02*
G37*
G36*
X836755Y111227D02*
X835540D01*
X834367Y110912D01*
X833316Y110305D01*
X832457Y109446D01*
X831850Y108395D01*
X831535Y107221D01*
Y106007D01*
X831850Y104834D01*
X832457Y103782D01*
X833316Y102923D01*
X834367Y102316D01*
X835540Y102002D01*
X836755D01*
X837928Y102316D01*
X838980Y102923D01*
X839839Y103782D01*
X840446Y104834D01*
X840760Y106007D01*
Y107221D01*
X840446Y108395D01*
X839839Y109446D01*
X838980Y110305D01*
X837928Y110912D01*
X836755Y111227D01*
D02*
G37*
G36*
X796755D02*
X795541D01*
X794367Y110912D01*
X793316Y110305D01*
X792457Y109446D01*
X791850Y108395D01*
X791535Y107221D01*
Y106007D01*
X791850Y104834D01*
X792457Y103782D01*
X793316Y102923D01*
X794367Y102316D01*
X795541Y102002D01*
X796755D01*
X797928Y102316D01*
X798980Y102923D01*
X799839Y103782D01*
X800446Y104834D01*
X800760Y106007D01*
Y107221D01*
X800446Y108395D01*
X799839Y109446D01*
X798980Y110305D01*
X797928Y110912D01*
X796755Y111227D01*
D02*
G37*
G36*
X836755Y71227D02*
X835540D01*
X834367Y70912D01*
X833316Y70305D01*
X832457Y69446D01*
X831850Y68395D01*
X831535Y67221D01*
Y66007D01*
X831850Y64834D01*
X832457Y63782D01*
X833316Y62923D01*
X834367Y62316D01*
X835540Y62002D01*
X836755D01*
X837928Y62316D01*
X838980Y62923D01*
X839839Y63782D01*
X840446Y64834D01*
X840760Y66007D01*
Y67221D01*
X840446Y68395D01*
X839839Y69446D01*
X838980Y70305D01*
X837928Y70912D01*
X836755Y71227D01*
D02*
G37*
G36*
X796755D02*
X795541D01*
X794367Y70912D01*
X793316Y70305D01*
X792457Y69446D01*
X791850Y68395D01*
X791535Y67221D01*
Y66007D01*
X791850Y64834D01*
X792457Y63782D01*
X793316Y62923D01*
X794367Y62316D01*
X795541Y62002D01*
X796755D01*
X797928Y62316D01*
X798980Y62923D01*
X799839Y63782D01*
X800446Y64834D01*
X800760Y66007D01*
Y67221D01*
X800446Y68395D01*
X799839Y69446D01*
X798980Y70305D01*
X797928Y70912D01*
X796755Y71227D01*
D02*
G37*
G36*
X837092Y39646D02*
X835192D01*
X833328Y39275D01*
X831573Y38548D01*
X829993Y37492D01*
X828650Y36149D01*
X827594Y34569D01*
X826867Y32814D01*
X826496Y30950D01*
Y29050D01*
X826867Y27187D01*
X827594Y25431D01*
X828650Y23851D01*
X829993Y22508D01*
X831573Y21452D01*
X833328Y20725D01*
X835192Y20354D01*
X837092D01*
X838955Y20725D01*
X840711Y21452D01*
X842290Y22508D01*
X843634Y23851D01*
X844690Y25431D01*
X845417Y27187D01*
X845787Y29050D01*
Y30950D01*
X845417Y32814D01*
X844690Y34569D01*
X843634Y36149D01*
X842290Y37492D01*
X840711Y38548D01*
X838955Y39275D01*
X837092Y39646D01*
D02*
G37*
G36*
X30950D02*
X29050D01*
X27187Y39275D01*
X25431Y38548D01*
X23851Y37492D01*
X22508Y36149D01*
X21452Y34569D01*
X20725Y32814D01*
X20354Y30950D01*
Y29050D01*
X20725Y27187D01*
X21452Y25431D01*
X22508Y23851D01*
X23851Y22508D01*
X25431Y21452D01*
X27187Y20725D01*
X29050Y20354D01*
X30950D01*
X32814Y20725D01*
X34569Y21452D01*
X36149Y22508D01*
X37492Y23851D01*
X38548Y25431D01*
X39275Y27187D01*
X39646Y29050D01*
Y30950D01*
X39275Y32814D01*
X38548Y34569D01*
X37492Y36149D01*
X36149Y37492D01*
X34569Y38548D01*
X32814Y39275D01*
X30950Y39646D01*
D02*
G37*
%LPD*%
D10*
X212804Y820866D02*
G03*
X203716Y817102I0J-12851D01*
G01*
X244283Y820866D02*
G03*
X251354Y823795I0J10000D01*
G01*
X185433Y759842D02*
G03*
X187795Y765545I-5703J5703D01*
G01*
X33142Y669071D02*
X36071Y666142D01*
X40339Y666536D02*
X40551Y666748D01*
X37992Y666536D02*
X40339D01*
X37598Y666142D02*
X37992Y666536D01*
X20142Y663071D02*
X40472D01*
X36071Y666142D02*
X37598D01*
X20079Y663134D02*
X20142Y663071D01*
X40472D02*
X40551Y662992D01*
X27079Y675134D02*
X33142Y669071D01*
X275811Y848252D02*
X279072Y851513D01*
X429072D02*
X431669Y854110D01*
X279072Y851513D02*
X429072D01*
X191559Y804945D02*
X203716Y817102D01*
X191559Y804945D02*
X191559D01*
X187795Y801181D02*
X191559Y804945D01*
X187795Y795858D02*
Y801181D01*
X431669Y854110D02*
X436614Y859055D01*
X251354Y823795D02*
X275811Y848252D01*
X212804Y820866D02*
X244283D01*
X187795Y765545D02*
Y795858D01*
D87*
X20079Y663134D02*
D03*
X27079Y675134D02*
D03*
D90*
X221654Y21260D02*
D03*
X642913D02*
D03*
X722835Y227953D02*
D03*
X240551Y456693D02*
D03*
X381102D02*
D03*
X522047D02*
D03*
X723622Y250000D02*
D03*
X803543D02*
D03*
Y456693D02*
D03*
X80709Y21260D02*
D03*
X362205D02*
D03*
X502362D02*
D03*
X662992Y456693D02*
D03*
D91*
X301575Y21260D02*
D03*
X722835D02*
D03*
X160630Y456693D02*
D03*
X301181D02*
D03*
X442126D02*
D03*
X723622D02*
D03*
X160630Y21260D02*
D03*
X442126D02*
D03*
X582283D02*
D03*
X583071Y456693D02*
D03*
D93*
X811108Y848425D02*
D03*
Y86614D02*
D03*
D94*
X41339Y366929D02*
D03*
Y406929D02*
D03*
Y446929D02*
D03*
Y486929D02*
D03*
Y526929D02*
D03*
Y566929D02*
D03*
Y606929D02*
D03*
D95*
X353937Y605118D02*
D03*
X399213D02*
D03*
D96*
X353937Y713386D02*
D03*
X399213D02*
D03*
D97*
X762402Y794291D02*
D03*
D98*
X812402Y757480D02*
D03*
X792402Y807480D02*
D03*
X802402D02*
D03*
Y757480D02*
D03*
X792402D02*
D03*
X812402Y807480D02*
D03*
D100*
X326043Y717323D02*
D03*
Y692803D02*
D03*
Y666516D02*
D03*
Y640224D02*
D03*
Y613937D02*
D03*
Y601339D02*
D03*
Y588740D02*
D03*
D101*
X218504Y613740D02*
D03*
D102*
X490551Y718228D02*
D03*
Y708228D02*
D03*
Y698228D02*
D03*
X672047Y672559D02*
D03*
Y662559D02*
D03*
Y652559D02*
D03*
X579921Y695787D02*
D03*
Y685787D02*
D03*
Y675787D02*
D03*
D103*
X527362Y748228D02*
D03*
X708858Y702559D02*
D03*
X616732Y725787D02*
D03*
D104*
X678346Y794882D02*
D03*
X260005Y894472D02*
D03*
X40551Y666748D02*
D03*
Y662992D02*
D03*
X654331Y784646D02*
D03*
X432677Y722835D02*
D03*
X436221D02*
D03*
X432677Y719291D02*
D03*
X436221D02*
D03*
X432677Y715748D02*
D03*
X436221D02*
D03*
X138976Y763779D02*
D03*
X125984Y759055D02*
D03*
X144882Y870079D02*
D03*
X182283Y720079D02*
D03*
X35827Y270079D02*
D03*
X34646Y309842D02*
D03*
X723622Y852756D02*
D03*
X711811Y834646D02*
D03*
X741339Y829921D02*
D03*
X657087Y805906D02*
D03*
X611024Y781496D02*
D03*
X636614Y794882D02*
D03*
X616142Y804331D02*
D03*
X585039Y861024D02*
D03*
X527559Y825197D02*
D03*
X548819Y815354D02*
D03*
X522441Y800787D02*
D03*
X86221Y676772D02*
D03*
X444488Y715748D02*
D03*
X440945D02*
D03*
X444488Y719291D02*
D03*
X440945D02*
D03*
X444488Y722835D02*
D03*
X440945D02*
D03*
X93701Y614961D02*
D03*
X436614Y859055D02*
D03*
X185433Y759842D02*
D03*
X148819Y616142D02*
D03*
X757874Y250394D02*
D03*
X764961D02*
D03*
X772047D02*
D03*
X778398Y250247D02*
D03*
X331496Y635827D02*
D03*
X333465Y637795D02*
D03*
Y642520D02*
D03*
X331496Y644488D02*
D03*
X331890Y662205D02*
D03*
X333858Y664173D02*
D03*
Y668898D02*
D03*
X331890Y670866D02*
D03*
X332677Y689370D02*
D03*
X335039Y690551D02*
D03*
Y695276D02*
D03*
X332677Y696457D02*
D03*
X182677Y714173D02*
D03*
X185827Y588189D02*
D03*
X179921Y565748D02*
D03*
X148819Y619685D02*
D03*
Y622835D02*
D03*
X143307Y615354D02*
D03*
X155118Y715354D02*
D03*
X159055D02*
D03*
X162598D02*
D03*
X144882Y866535D02*
D03*
X144488Y874016D02*
D03*
X145276Y863780D02*
D03*
X201181Y757480D02*
D03*
X251181Y801181D02*
D03*
X309842Y831102D02*
D03*
X524409Y783071D02*
D03*
X614567Y760630D02*
D03*
X705905Y736614D02*
D03*
X742520Y796457D02*
D03*
D105*
X182677Y719128D02*
G03*
X182283Y720079I-1344J0D01*
G01*
X146236Y756126D02*
G03*
X139165Y759055I-7071J-7071D01*
G01*
X148205Y760851D02*
G03*
X141133Y763779I-7071J-7071D01*
G01*
X182677Y714173D02*
Y719128D01*
X146236Y756126D02*
X182283Y720079D01*
X125984Y759055D02*
X139165D01*
X193579Y616669D02*
X196508Y613740D01*
X187721Y721334D02*
X189354Y719701D01*
Y620894D02*
Y719701D01*
Y620894D02*
X193579Y616669D01*
X196508Y613740D02*
X200650D01*
X218504D01*
X138976Y763779D02*
X141133D01*
X148205Y760851D02*
X187721Y721334D01*
M02*
