G04*
G04 #@! TF.GenerationSoftware,Altium Limited,Altium Designer,23.1.1 (15)*
G04*
G04 Layer_Physical_Order=3*
G04 Layer_Color=16440176*
%FSLAX25Y25*%
%MOIN*%
G70*
G04*
G04 #@! TF.SameCoordinates,50E881D1-A5C9-4074-B1F6-D6CF4ECD5912*
G04*
G04*
G04 #@! TF.FilePolarity,Positive*
G04*
G01*
G75*
%ADD12C,0.01000*%
%ADD21C,0.01968*%
%ADD85C,0.01181*%
%ADD87C,0.08661*%
%ADD90C,0.13287*%
%ADD91C,0.06000*%
%ADD94O,0.09100X0.05100*%
%ADD95O,0.07500X0.10000*%
%ADD97O,0.09843X0.07874*%
%ADD98O,0.07087X0.05512*%
%ADD99O,0.10000X0.07500*%
%ADD100O,0.05100X0.09100*%
%ADD102C,0.05512*%
%ADD104C,0.09449*%
%ADD105C,0.01968*%
G36*
X857328Y912605D02*
X858068Y912299D01*
X858734Y911854D01*
X859300Y911287D01*
X859745Y910621D01*
X860051Y909881D01*
X860208Y909096D01*
Y908696D01*
Y796850D01*
X784606D01*
X782674Y797235D01*
X780854Y797989D01*
X779216Y799083D01*
X777823Y800476D01*
X776729Y802114D01*
X776406Y802891D01*
Y912761D01*
X856542D01*
X857328Y912605D01*
D02*
G37*
G36*
X634601Y712608D02*
X636421Y711854D01*
X638059Y710760D01*
X638756Y710063D01*
X647465Y701354D01*
X647465Y701354D01*
X648161Y700658D01*
X649256Y699020D01*
X650009Y697200D01*
X650394Y695268D01*
Y694283D01*
Y649811D01*
X650442Y648831D01*
X650824Y646909D01*
X651575Y645097D01*
X652664Y643468D01*
X653323Y642740D01*
X675024Y621039D01*
X675751Y620380D01*
X677381Y619291D01*
X679192Y618541D01*
X681115Y618158D01*
X682095Y618110D01*
X787650D01*
X787886Y617669D01*
X787525Y617129D01*
X786791Y615358D01*
X786417Y613478D01*
Y611561D01*
X786791Y609681D01*
X787525Y607911D01*
X788589Y606317D01*
X789945Y604961D01*
X791539Y603897D01*
X793309Y603163D01*
X795189Y602789D01*
X797106D01*
X798986Y603163D01*
X800757Y603897D01*
X802351Y604961D01*
X803706Y606317D01*
X804771Y607911D01*
X805504Y609681D01*
X805878Y611561D01*
Y613478D01*
X805504Y615358D01*
X804771Y617129D01*
X804410Y617669D01*
X804645Y618110D01*
X819725D01*
X821657Y617726D01*
X823477Y616972D01*
X825115Y615878D01*
X826508Y614485D01*
X826592Y614358D01*
X826417Y613478D01*
Y611561D01*
X826791Y609681D01*
X827525Y607911D01*
X828590Y606317D01*
X828740Y606166D01*
Y578873D01*
X828590Y578722D01*
X827525Y577129D01*
X826791Y575358D01*
X826417Y573478D01*
Y571561D01*
X826791Y569681D01*
X827525Y567911D01*
X828590Y566317D01*
X828740Y566166D01*
Y564133D01*
X828356Y562201D01*
X827602Y560381D01*
X826508Y558743D01*
X825115Y557351D01*
X823477Y556256D01*
X821657Y555502D01*
X819725Y555118D01*
X675992D01*
X674060Y555502D01*
X672240Y556256D01*
X670602Y557351D01*
X669906Y558047D01*
X605291Y622662D01*
X604595Y623358D01*
X603500Y624996D01*
X602746Y626816D01*
X602362Y628748D01*
Y629733D01*
Y699795D01*
Y700780D01*
X602746Y702712D01*
X603500Y704532D01*
X604595Y706170D01*
X608488Y710063D01*
X608488Y710063D01*
Y710063D01*
X609185Y710760D01*
X610823Y711854D01*
X612643Y712608D01*
X614574Y712992D01*
X632669D01*
X634601Y712608D01*
D02*
G37*
G36*
X808224Y709064D02*
X810044Y708311D01*
X811681Y707216D01*
X812378Y706520D01*
X826461Y692437D01*
X826417Y692218D01*
Y690302D01*
X826791Y688422D01*
X827165Y687518D01*
Y657874D01*
X800567Y631275D01*
X800567D01*
X799870Y630579D01*
X798232Y629485D01*
X796413Y628731D01*
X794481Y628346D01*
X723630D01*
X721698Y628731D01*
X719878Y629485D01*
X718240Y630579D01*
X717544Y631275D01*
X710015Y638803D01*
X709319Y639500D01*
X708225Y641138D01*
X707471Y642957D01*
X707087Y644889D01*
Y645874D01*
Y671055D01*
Y672040D01*
X707471Y673972D01*
X708225Y675792D01*
X709319Y677429D01*
X710015Y678126D01*
X738410Y706520D01*
X738410Y706520D01*
Y706520D01*
X739106Y707216D01*
X740744Y708311D01*
X742564Y709064D01*
X744496Y709449D01*
X806292D01*
X808224Y709064D01*
D02*
G37*
G36*
X770472Y759654D02*
Y758669D01*
X770088Y756737D01*
X769334Y754917D01*
X768240Y753279D01*
X767544Y752583D01*
X713559Y698598D01*
X713559D01*
X712862Y697902D01*
X711225Y696807D01*
X709405Y696054D01*
X707473Y695669D01*
X680716D01*
X678784Y696054D01*
X676964Y696807D01*
X675327Y697902D01*
X674630Y698598D01*
X655685Y717544D01*
X655685Y717544D01*
X654958Y718202D01*
X653328Y719292D01*
X651517Y720042D01*
X649594Y720424D01*
X648614Y720472D01*
X617728D01*
X617629Y720972D01*
X618217Y721216D01*
X618832Y721688D01*
X619304Y722303D01*
X619600Y723019D01*
X619701Y723787D01*
Y727787D01*
X619600Y728556D01*
X619304Y729272D01*
X618832Y729887D01*
X618217Y730359D01*
X617501Y730655D01*
X616732Y730757D01*
X615964Y730655D01*
X615248Y730359D01*
X614633Y729887D01*
X614161Y729272D01*
X613864Y728556D01*
X613763Y727787D01*
Y723787D01*
X613864Y723019D01*
X614161Y722303D01*
X614633Y721688D01*
X615248Y721216D01*
X615836Y720972D01*
X615736Y720472D01*
X611165D01*
X610995Y720972D01*
X611379Y721267D01*
X611945Y722005D01*
X612301Y722865D01*
X612423Y723787D01*
Y724803D01*
X605294D01*
Y723787D01*
X605415Y722865D01*
X605771Y722005D01*
X606338Y721267D01*
X606721Y720972D01*
X606551Y720472D01*
X601980D01*
X601881Y720972D01*
X602469Y721216D01*
X603084Y721688D01*
X603556Y722303D01*
X603852Y723019D01*
X603953Y723787D01*
Y727787D01*
X603852Y728556D01*
X603556Y729272D01*
X603084Y729887D01*
X602469Y730359D01*
X601753Y730655D01*
X600984Y730757D01*
X600216Y730655D01*
X599500Y730359D01*
X598885Y729887D01*
X598413Y729272D01*
X598116Y728556D01*
X598015Y727787D01*
Y723787D01*
X598116Y723019D01*
X598413Y722303D01*
X598885Y721688D01*
X599500Y721216D01*
X600088Y720972D01*
X599988Y720472D01*
X594106D01*
X594007Y720972D01*
X594595Y721216D01*
X595210Y721688D01*
X595681Y722303D01*
X595978Y723019D01*
X596079Y723787D01*
Y727787D01*
X595978Y728556D01*
X595681Y729272D01*
X595210Y729887D01*
X594595Y730359D01*
X593879Y730655D01*
X593110Y730757D01*
X592342Y730655D01*
X591626Y730359D01*
X591011Y729887D01*
X590539Y729272D01*
X590242Y728556D01*
X590141Y727787D01*
Y723787D01*
X590242Y723019D01*
X590539Y722303D01*
X591011Y721688D01*
X591626Y721216D01*
X592214Y720972D01*
X592114Y720472D01*
X589771D01*
X587839Y720857D01*
X586020Y721610D01*
X584382Y722705D01*
X583685Y723401D01*
X569464Y737622D01*
X569464Y737622D01*
X568737Y738281D01*
X567107Y739370D01*
X565296Y740121D01*
X563374Y740503D01*
X562393Y740551D01*
X505126D01*
X503194Y740936D01*
X501374Y741689D01*
X499736Y742784D01*
X499040Y743480D01*
X430488Y812032D01*
X430488Y812032D01*
X429761Y812691D01*
X428740Y813373D01*
Y827953D01*
X339764D01*
X326772Y814961D01*
X308459D01*
X307668Y814922D01*
X306118Y814613D01*
X304657Y814008D01*
X303342Y813130D01*
X302756Y812598D01*
X298031Y807874D01*
X272047D01*
X263779Y799606D01*
Y791339D01*
X237402Y764961D01*
X218709D01*
X217729Y764913D01*
X215806Y764530D01*
X213995Y763780D01*
X212365Y762691D01*
X211638Y762032D01*
X178126Y728519D01*
Y728519D01*
X177467Y727792D01*
X176378Y726162D01*
X175627Y724351D01*
X175245Y722429D01*
X175197Y721448D01*
Y693512D01*
Y692527D01*
X174813Y690595D01*
X174059Y688775D01*
X172964Y687138D01*
X172268Y686441D01*
X162026Y676199D01*
X162026Y676199D01*
Y676199D01*
X153811Y667984D01*
X151163Y665336D01*
X150701Y665527D01*
Y673721D01*
X150576Y674022D01*
X150275Y674147D01*
X99275D01*
X98973Y674022D01*
X98848Y673721D01*
Y652756D01*
X78552D01*
X77571Y652708D01*
X75649Y652325D01*
X73838Y651575D01*
X72208Y650486D01*
X71481Y649827D01*
X56078Y634425D01*
X56078D01*
X55382Y633729D01*
X53744Y632634D01*
X51924Y631880D01*
X49992Y631496D01*
X26231D01*
X26097Y631996D01*
X27084Y632566D01*
X28147Y633629D01*
X28898Y634930D01*
X29225Y636150D01*
X23579D01*
X17932D01*
X18259Y634930D01*
X19011Y633629D01*
X20074Y632566D01*
X21060Y631996D01*
X20926Y631496D01*
X5934D01*
Y638205D01*
X6375Y638441D01*
X6862Y638115D01*
X8098Y637604D01*
X9410Y637343D01*
X10748D01*
X12060Y637604D01*
X13296Y638115D01*
X14408Y638859D01*
X15354Y639805D01*
X16097Y640917D01*
X16609Y642153D01*
X16870Y643465D01*
Y644803D01*
X16609Y646115D01*
X16097Y647351D01*
X15354Y648463D01*
X14408Y649409D01*
X13296Y650152D01*
X12060Y650664D01*
X10748Y650925D01*
X9410D01*
X8098Y650664D01*
X6862Y650152D01*
X6375Y649827D01*
X5934Y650063D01*
Y750205D01*
X6375Y750441D01*
X6862Y750115D01*
X8098Y749604D01*
X9410Y749342D01*
X10748D01*
X12060Y749604D01*
X13296Y750115D01*
X14408Y750859D01*
X15354Y751805D01*
X16097Y752917D01*
X16609Y754153D01*
X16870Y755465D01*
Y756803D01*
X16609Y758115D01*
X16097Y759351D01*
X15354Y760463D01*
X14408Y761409D01*
X13296Y762152D01*
X12060Y762664D01*
X10748Y762925D01*
X9410D01*
X8098Y762664D01*
X6862Y762152D01*
X6375Y761827D01*
X5934Y762063D01*
Y908696D01*
Y909096D01*
X6090Y909881D01*
X6397Y910621D01*
X6842Y911287D01*
X7408Y911854D01*
X8074Y912299D01*
X8814Y912605D01*
X9600Y912761D01*
X770472D01*
Y759654D01*
D02*
G37*
G36*
X330439Y668293D02*
X330511Y668126D01*
X330630Y667979D01*
X330797Y667852D01*
X331011Y667745D01*
X331274Y667657D01*
X331583Y667588D01*
X331941Y667539D01*
X332346Y667510D01*
X332799Y667500D01*
Y665531D01*
X332346Y665522D01*
X331583Y665443D01*
X331274Y665375D01*
X331011Y665287D01*
X330797Y665179D01*
X330630Y665052D01*
X330511Y664905D01*
X330439Y664739D01*
X330415Y664553D01*
Y668479D01*
X330439Y668293D01*
D02*
G37*
G36*
Y642001D02*
X330511Y641835D01*
X330630Y641688D01*
X330797Y641561D01*
X331011Y641453D01*
X331274Y641365D01*
X331583Y641297D01*
X331941Y641248D01*
X332346Y641218D01*
X332799Y641209D01*
Y639240D01*
X332346Y639230D01*
X331583Y639152D01*
X331274Y639084D01*
X331011Y638996D01*
X330797Y638888D01*
X330630Y638761D01*
X330511Y638614D01*
X330439Y638448D01*
X330415Y638262D01*
Y642187D01*
X330439Y642001D01*
D02*
G37*
G36*
X192913Y661024D02*
X226378D01*
Y584063D01*
Y583078D01*
X225994Y581146D01*
X225240Y579327D01*
X224145Y577689D01*
X223449Y576992D01*
X223449D01*
X223449Y576992D01*
X167496Y521039D01*
X166799Y520343D01*
X165162Y519248D01*
X163342Y518495D01*
X161410Y518110D01*
X141150D01*
X140170Y518062D01*
X138247Y517680D01*
X136436Y516929D01*
X134806Y515840D01*
X134079Y515181D01*
X134079Y515181D01*
Y515181D01*
X105291Y486393D01*
X104632Y485666D01*
X103543Y484036D01*
X102793Y482225D01*
X102410Y480303D01*
X102362Y479322D01*
Y284063D01*
Y283079D01*
X101978Y281147D01*
X101224Y279327D01*
X100130Y277689D01*
X99433Y276992D01*
X99433D01*
X99433Y276992D01*
X75370Y252929D01*
X74673Y252233D01*
X73036Y251138D01*
X71216Y250384D01*
X69284Y250000D01*
X5934D01*
Y629489D01*
X20926D01*
X21056Y629515D01*
X21188Y629506D01*
X21437Y629591D01*
X21694Y629642D01*
X21804Y629715D01*
X21930Y629758D01*
X22116Y629921D01*
X25041D01*
X25228Y629758D01*
X25353Y629715D01*
X25463Y629642D01*
X25721Y629591D01*
X25969Y629506D01*
X26101Y629515D01*
X26231Y629489D01*
X49992D01*
X50186Y629528D01*
X50384D01*
X52316Y629912D01*
X52339Y629921D01*
X120661D01*
X121641Y629969D01*
X123564Y630352D01*
X125375Y631102D01*
X127005Y632191D01*
X127732Y632850D01*
X127732D01*
X143176Y648294D01*
X150275D01*
X150576Y648419D01*
X150701Y648721D01*
Y655819D01*
X175811Y680929D01*
X176470Y681657D01*
X177559Y683286D01*
X178310Y685098D01*
X178692Y687020D01*
X178740Y688000D01*
Y717118D01*
Y718103D01*
X179124Y720035D01*
X179878Y721854D01*
X180973Y723492D01*
X181669Y724189D01*
Y724189D01*
X185827Y728346D01*
X186482Y729002D01*
X188023Y730031D01*
X189735Y730741D01*
X191553Y731102D01*
X192913D01*
Y661024D01*
D02*
G37*
G36*
X445702Y726166D02*
X446705Y725751D01*
X447608Y725147D01*
X448376Y724380D01*
X448979Y723477D01*
X449395Y722474D01*
X449606Y721409D01*
Y720866D01*
Y637607D01*
X449654Y636626D01*
X450037Y634704D01*
X450787Y632893D01*
X451876Y631263D01*
X452535Y630536D01*
X471346Y611725D01*
X597465Y485606D01*
X597465Y485606D01*
X598192Y484947D01*
X599822Y483858D01*
X601633Y483108D01*
X603556Y482725D01*
X604536Y482677D01*
X860208D01*
Y10000D01*
Y9600D01*
X860051Y8814D01*
X859745Y8074D01*
X859300Y7408D01*
X858734Y6842D01*
X858068Y6397D01*
X857328Y6090D01*
X856542Y5934D01*
X9600D01*
X8814Y6090D01*
X8074Y6397D01*
X7408Y6842D01*
X6842Y7408D01*
X6397Y8074D01*
X6090Y8814D01*
X5934Y9600D01*
Y10000D01*
Y238976D01*
X89952D01*
X90933Y239024D01*
X92855Y239407D01*
X94666Y240157D01*
X96296Y241246D01*
X97023Y241905D01*
X122662Y267544D01*
X123321Y268271D01*
X124410Y269901D01*
X125160Y271712D01*
X125542Y273634D01*
X125591Y274615D01*
X125591Y274615D01*
Y452945D01*
Y453929D01*
X125975Y455861D01*
X126729Y457681D01*
X127823Y459319D01*
X128519Y460015D01*
X149433Y480929D01*
X150130Y481626D01*
X151768Y482720D01*
X153587Y483474D01*
X155519Y483858D01*
X156504Y483858D01*
X156504Y483858D01*
X182866D01*
X183846Y483906D01*
X185769Y484289D01*
X187580Y485039D01*
X189210Y486128D01*
X189937Y486787D01*
X268870Y565720D01*
X269686Y565327D01*
X272190Y564450D01*
X274777Y563860D01*
X277414Y563563D01*
X280067D01*
X282703Y563860D01*
X285290Y564450D01*
X287794Y565327D01*
X290185Y566478D01*
X292431Y567889D01*
X294505Y569544D01*
X296381Y571420D01*
X298036Y573494D01*
X299447Y575741D01*
X300599Y578131D01*
X301475Y580635D01*
X302065Y583222D01*
X302362Y585858D01*
Y588512D01*
X302065Y591148D01*
X301475Y593735D01*
X300599Y596239D01*
X300205Y597056D01*
X309983Y606833D01*
X314911Y611762D01*
X315476Y611620D01*
X315922Y610152D01*
X316836Y608442D01*
X317496Y607638D01*
X316836Y606833D01*
X315922Y605123D01*
X315359Y603268D01*
X315169Y601339D01*
X315359Y599409D01*
X315922Y597554D01*
X316836Y595844D01*
X317496Y595039D01*
X316836Y594235D01*
X315922Y592525D01*
X315359Y590670D01*
X315169Y588740D01*
X315359Y586811D01*
X315922Y584955D01*
X316836Y583246D01*
X318066Y581747D01*
X319564Y580517D01*
X321274Y579603D01*
X323130Y579040D01*
X325059Y578850D01*
X327028D01*
X328957Y579040D01*
X330812Y579603D01*
X332522Y580517D01*
X334021Y581747D01*
X335251Y583246D01*
X336165Y584955D01*
X336728Y586811D01*
X336918Y588740D01*
X336728Y590670D01*
X336165Y592525D01*
X335251Y594235D01*
X334591Y595039D01*
X335251Y595844D01*
X336165Y597554D01*
X336728Y599409D01*
X336918Y601339D01*
X336728Y603268D01*
X336165Y605123D01*
X335251Y606833D01*
X334591Y607638D01*
X335251Y608442D01*
X336165Y610152D01*
X336728Y612008D01*
X336918Y613937D01*
X336728Y615866D01*
X336165Y617722D01*
X335766Y618469D01*
X336023Y618898D01*
X346252D01*
X347232Y618946D01*
X349154Y619328D01*
X350965Y620078D01*
X352595Y621168D01*
X353323Y621827D01*
X357307Y625811D01*
X358004Y626508D01*
X359642Y627602D01*
X361461Y628356D01*
X363393Y628740D01*
X364378Y628740D01*
X364378Y628740D01*
X419134D01*
X420114Y628788D01*
X422037Y629171D01*
X423848Y629921D01*
X425478Y631010D01*
X426864Y632396D01*
X427953Y634026D01*
X428703Y635837D01*
X429086Y637760D01*
X429134Y638740D01*
X429134Y720079D01*
X429114Y720680D01*
X429311Y721866D01*
X429735Y722992D01*
X430371Y724013D01*
X431193Y724890D01*
X432171Y725590D01*
X433267Y726086D01*
X434438Y726359D01*
X435039Y726378D01*
X435039Y726378D01*
X444637D01*
X445702Y726166D01*
D02*
G37*
G36*
X553153Y730718D02*
X554973Y729964D01*
X556611Y728870D01*
X558004Y727477D01*
X559098Y725839D01*
X559852Y724019D01*
X560236Y722087D01*
Y721102D01*
Y652174D01*
X560284Y651194D01*
X560667Y649271D01*
X561417Y647460D01*
X562506Y645830D01*
X563165Y645103D01*
X657701Y550567D01*
X658428Y549908D01*
X660058Y548819D01*
X661869Y548068D01*
X663792Y547686D01*
X664772Y547638D01*
X819725D01*
X821657Y547254D01*
X823477Y546500D01*
X825115Y545405D01*
X826508Y544012D01*
X827602Y542375D01*
X828356Y540555D01*
X828497Y539844D01*
X827525Y538389D01*
X826791Y536618D01*
X826417Y534738D01*
Y532821D01*
X826791Y530941D01*
X827525Y529170D01*
X828590Y527577D01*
X828740Y527426D01*
Y504331D01*
Y500133D01*
X828590Y499982D01*
X827525Y498389D01*
X826791Y496618D01*
X826417Y494738D01*
Y492821D01*
X826469Y492563D01*
X825115Y491209D01*
X823477Y490114D01*
X821657Y489361D01*
X819725Y488976D01*
X805230D01*
X804897Y489476D01*
X805504Y490941D01*
X805878Y492821D01*
Y494738D01*
X805504Y496618D01*
X804771Y498389D01*
X803706Y499982D01*
X802351Y501338D01*
X800757Y502403D01*
X798986Y503136D01*
X797106Y503510D01*
X795189D01*
X793309Y503136D01*
X791539Y502403D01*
X789945Y501338D01*
X788589Y499982D01*
X787525Y498389D01*
X786791Y496618D01*
X786417Y494738D01*
Y492821D01*
X786791Y490941D01*
X787398Y489476D01*
X787065Y488976D01*
X674024D01*
X672094Y489360D01*
X670276Y490112D01*
X668639Y491205D01*
X667943Y491900D01*
X524189Y635654D01*
X524189Y635654D01*
X523492Y636350D01*
X522398Y637988D01*
X521644Y639808D01*
X521260Y641740D01*
X521260Y642725D01*
Y721102D01*
Y722087D01*
X521644Y724019D01*
X522398Y725839D01*
X523492Y727477D01*
X524885Y728870D01*
X526523Y729964D01*
X528343Y730718D01*
X530275Y731102D01*
X551221D01*
X553153Y730718D01*
D02*
G37*
%LPC*%
G36*
X837304Y904055D02*
X834980D01*
X832685Y903692D01*
X830474Y902973D01*
X828404Y901918D01*
X826524Y900552D01*
X824881Y898909D01*
X823515Y897029D01*
X822460Y894959D01*
X821741Y892749D01*
X821378Y890453D01*
Y888129D01*
X821741Y885834D01*
X822460Y883624D01*
X823515Y881553D01*
X824881Y879673D01*
X826524Y878030D01*
X828404Y876664D01*
X829497Y876107D01*
X829575Y875613D01*
X828590Y874628D01*
X827525Y873034D01*
X826791Y871264D01*
X826417Y869384D01*
Y867467D01*
X826791Y865587D01*
X827525Y863816D01*
X828590Y862222D01*
X829945Y860867D01*
X831539Y859802D01*
X833309Y859069D01*
X835189Y858695D01*
X837106D01*
X838986Y859069D01*
X840757Y859802D01*
X842351Y860867D01*
X843706Y862222D01*
X844771Y863816D01*
X845504Y865587D01*
X845878Y867467D01*
Y869384D01*
X845504Y871264D01*
X844771Y873034D01*
X843706Y874628D01*
X842716Y875618D01*
X842795Y876111D01*
X843880Y876664D01*
X845760Y878030D01*
X847403Y879673D01*
X848769Y881553D01*
X849824Y883624D01*
X850542Y885834D01*
X850906Y888129D01*
Y890453D01*
X850542Y892749D01*
X849824Y894959D01*
X848769Y897029D01*
X847403Y898909D01*
X845760Y900552D01*
X843880Y901918D01*
X841809Y902973D01*
X839599Y903692D01*
X837304Y904055D01*
D02*
G37*
G36*
X797106Y878156D02*
X795189D01*
X793309Y877782D01*
X791539Y877048D01*
X789945Y875983D01*
X788589Y874628D01*
X787525Y873034D01*
X786791Y871264D01*
X786417Y869384D01*
Y867467D01*
X786791Y865587D01*
X787525Y863816D01*
X788589Y862222D01*
X789945Y860867D01*
X791539Y859802D01*
X793309Y859069D01*
X795189Y858695D01*
X797106D01*
X798986Y859069D01*
X800757Y859802D01*
X802351Y860867D01*
X803706Y862222D01*
X804771Y863816D01*
X805504Y865587D01*
X805878Y867467D01*
Y869384D01*
X805504Y871264D01*
X804771Y873034D01*
X803706Y874628D01*
X802351Y875983D01*
X800757Y877048D01*
X798986Y877782D01*
X797106Y878156D01*
D02*
G37*
G36*
X837106Y838156D02*
X835189D01*
X833309Y837782D01*
X831539Y837048D01*
X829945Y835983D01*
X828590Y834628D01*
X827525Y833034D01*
X826791Y831264D01*
X826417Y829384D01*
Y827467D01*
X826791Y825587D01*
X827525Y823816D01*
X828590Y822222D01*
X829945Y820867D01*
X831539Y819802D01*
X833309Y819069D01*
X835189Y818695D01*
X837106D01*
X838986Y819069D01*
X840757Y819802D01*
X842351Y820867D01*
X843706Y822222D01*
X844771Y823816D01*
X845504Y825587D01*
X845878Y827467D01*
Y829384D01*
X845504Y831264D01*
X844771Y833034D01*
X843706Y834628D01*
X842351Y835983D01*
X840757Y837048D01*
X838986Y837782D01*
X837106Y838156D01*
D02*
G37*
G36*
X797106D02*
X795189D01*
X793309Y837782D01*
X791539Y837048D01*
X789945Y835983D01*
X788589Y834628D01*
X787525Y833034D01*
X786791Y831264D01*
X786417Y829384D01*
Y827467D01*
X786791Y825587D01*
X787525Y823816D01*
X788589Y822222D01*
X789945Y820867D01*
X791539Y819802D01*
X793309Y819069D01*
X795189Y818695D01*
X797106D01*
X798986Y819069D01*
X800757Y819802D01*
X802351Y820867D01*
X803706Y822222D01*
X804771Y823816D01*
X805504Y825587D01*
X805878Y827467D01*
Y829384D01*
X805504Y831264D01*
X804771Y833034D01*
X803706Y834628D01*
X802351Y835983D01*
X800757Y837048D01*
X798986Y837782D01*
X797106Y838156D01*
D02*
G37*
G36*
Y582250D02*
X795189D01*
X793309Y581876D01*
X791539Y581143D01*
X789945Y580078D01*
X788589Y578722D01*
X787525Y577129D01*
X786791Y575358D01*
X786417Y573478D01*
Y571561D01*
X786791Y569681D01*
X787525Y567911D01*
X788589Y566317D01*
X789945Y564961D01*
X791539Y563897D01*
X793309Y563163D01*
X795189Y562789D01*
X797106D01*
X798986Y563163D01*
X800757Y563897D01*
X802351Y564961D01*
X803706Y566317D01*
X804771Y567911D01*
X805504Y569681D01*
X805878Y571561D01*
Y573478D01*
X805504Y575358D01*
X804771Y577129D01*
X803706Y578722D01*
X802351Y580078D01*
X800757Y581143D01*
X798986Y581876D01*
X797106Y582250D01*
D02*
G37*
G36*
Y700990D02*
X795189D01*
X793309Y700616D01*
X791539Y699883D01*
X789945Y698818D01*
X788589Y697463D01*
X787525Y695869D01*
X786791Y694098D01*
X786417Y692218D01*
Y690302D01*
X786791Y688422D01*
X787525Y686651D01*
X788589Y685057D01*
X789945Y683702D01*
X791539Y682637D01*
X793309Y681903D01*
X795189Y681529D01*
X797106D01*
X798986Y681903D01*
X800757Y682637D01*
X802351Y683702D01*
X803706Y685057D01*
X804771Y686651D01*
X805504Y688422D01*
X805878Y690302D01*
Y692218D01*
X805504Y694098D01*
X804771Y695869D01*
X803706Y697463D01*
X802351Y698818D01*
X800757Y699883D01*
X798986Y700616D01*
X797106Y700990D01*
D02*
G37*
G36*
Y660990D02*
X795189D01*
X793309Y660616D01*
X791539Y659883D01*
X789945Y658818D01*
X788589Y657463D01*
X787525Y655869D01*
X786791Y654098D01*
X786417Y652218D01*
Y650302D01*
X786791Y648422D01*
X787525Y646651D01*
X788589Y645057D01*
X789945Y643702D01*
X791539Y642637D01*
X793309Y641903D01*
X795189Y641529D01*
X797106D01*
X798986Y641903D01*
X800757Y642637D01*
X802351Y643702D01*
X803706Y645057D01*
X804771Y646651D01*
X805504Y648422D01*
X805878Y650302D01*
Y652218D01*
X805504Y654098D01*
X804771Y655869D01*
X803706Y657463D01*
X802351Y658818D01*
X800757Y659883D01*
X798986Y660616D01*
X797106Y660990D01*
D02*
G37*
G36*
X258777Y899238D02*
X258229D01*
X257722Y899028D01*
X257335Y898641D01*
X257125Y898134D01*
Y897586D01*
X257335Y897080D01*
X257722Y896692D01*
X258229Y896482D01*
X258777D01*
X259283Y896692D01*
X259671Y897080D01*
X259881Y897586D01*
Y898134D01*
X259671Y898641D01*
X259283Y899028D01*
X258777Y899238D01*
D02*
G37*
G36*
X105786Y893898D02*
X105238D01*
X104731Y893688D01*
X104344Y893300D01*
X104202Y892959D01*
X103672D01*
X103530Y893300D01*
X103143Y893688D01*
X102636Y893898D01*
X102088D01*
X101582Y893688D01*
X101194Y893300D01*
X101052Y892959D01*
X100522D01*
X100381Y893300D01*
X99993Y893688D01*
X99487Y893898D01*
X98939D01*
X98432Y893688D01*
X98044Y893300D01*
X97835Y892794D01*
Y892246D01*
X98044Y891739D01*
X98432Y891352D01*
X98939Y891142D01*
X99487D01*
X99993Y891352D01*
X100381Y891739D01*
X100522Y892081D01*
X101052D01*
X101194Y891739D01*
X101582Y891352D01*
X102088Y891142D01*
X102636D01*
X103143Y891352D01*
X103530Y891739D01*
X103672Y892081D01*
X104202D01*
X104344Y891739D01*
X104731Y891352D01*
X105238Y891142D01*
X105786D01*
X106292Y891352D01*
X106680Y891739D01*
X106890Y892246D01*
Y892794D01*
X106680Y893300D01*
X106292Y893688D01*
X105786Y893898D01*
D02*
G37*
G36*
X613660Y895472D02*
X613112D01*
X612605Y895263D01*
X612218Y894875D01*
X612008Y894369D01*
Y893820D01*
X612218Y893314D01*
X612605Y892926D01*
X613112Y892717D01*
X613660D01*
X614166Y892926D01*
X614554Y893314D01*
X614764Y893820D01*
Y894369D01*
X614554Y894875D01*
X614166Y895263D01*
X613660Y895472D01*
D02*
G37*
G36*
X616022Y891929D02*
X615474D01*
X614967Y891719D01*
X614580Y891332D01*
X614370Y890825D01*
Y890277D01*
X614580Y889771D01*
X614967Y889383D01*
X615474Y889173D01*
X616022D01*
X616529Y889383D01*
X616916Y889771D01*
X617126Y890277D01*
Y890825D01*
X616916Y891332D01*
X616529Y891719D01*
X616022Y891929D01*
D02*
G37*
G36*
X30911Y898543D02*
X29089D01*
X27301Y898188D01*
X25618Y897490D01*
X24102Y896478D01*
X22814Y895189D01*
X21801Y893674D01*
X21104Y891990D01*
X20748Y890203D01*
Y888380D01*
X21104Y886593D01*
X21801Y884909D01*
X22814Y883393D01*
X24102Y882105D01*
X25618Y881092D01*
X27301Y880395D01*
X29089Y880039D01*
X30911D01*
X32699Y880395D01*
X34383Y881092D01*
X35898Y882105D01*
X37187Y883393D01*
X38199Y884909D01*
X38896Y886593D01*
X39252Y888380D01*
Y890203D01*
X38896Y891990D01*
X38199Y893674D01*
X37187Y895189D01*
X35898Y896478D01*
X34383Y897490D01*
X32699Y898188D01*
X30911Y898543D01*
D02*
G37*
G36*
X249777Y877689D02*
X249229D01*
X248722Y877480D01*
X248335Y877092D01*
X248125Y876585D01*
Y876037D01*
X248335Y875531D01*
X248722Y875143D01*
X249229Y874934D01*
X249777D01*
X250284Y875143D01*
X250671Y875531D01*
X250881Y876037D01*
Y876585D01*
X250671Y877092D01*
X250284Y877480D01*
X249777Y877689D01*
D02*
G37*
G36*
X261298Y876968D02*
X260750D01*
X260243Y876759D01*
X259856Y876371D01*
X259646Y875865D01*
Y875317D01*
X259856Y874810D01*
X260243Y874422D01*
X260750Y874213D01*
X261298D01*
X261804Y874422D01*
X262192Y874810D01*
X262402Y875317D01*
Y875865D01*
X262192Y876371D01*
X261804Y876759D01*
X261298Y876968D01*
D02*
G37*
G36*
X144762Y875394D02*
X144214D01*
X143708Y875184D01*
X143320Y874796D01*
X143110Y874290D01*
Y873742D01*
X143320Y873235D01*
X143708Y872848D01*
X144214Y872638D01*
X144762D01*
X145269Y872848D01*
X145656Y873235D01*
X145866Y873742D01*
Y874290D01*
X145656Y874796D01*
X145269Y875184D01*
X144762Y875394D01*
D02*
G37*
G36*
X145156Y871457D02*
X144608D01*
X144101Y871247D01*
X143714Y870859D01*
X143504Y870353D01*
Y869805D01*
X143714Y869298D01*
X144101Y868911D01*
X144608Y868701D01*
X145156D01*
X145662Y868911D01*
X146050Y869298D01*
X146260Y869805D01*
Y870353D01*
X146050Y870859D01*
X145662Y871247D01*
X145156Y871457D01*
D02*
G37*
G36*
X262085Y869488D02*
X261537D01*
X261031Y869278D01*
X260643Y868891D01*
X260433Y868384D01*
Y867836D01*
X260643Y867330D01*
X261031Y866942D01*
X261537Y866732D01*
X262085D01*
X262592Y866942D01*
X262979Y867330D01*
X263189Y867836D01*
Y868384D01*
X262979Y868891D01*
X262592Y869278D01*
X262085Y869488D01*
D02*
G37*
G36*
X68581Y874612D02*
X67470D01*
X66397Y874325D01*
X65435Y873769D01*
X64650Y872984D01*
X64094Y872022D01*
X63807Y870949D01*
Y869838D01*
X64094Y868765D01*
X64650Y867803D01*
X65435Y867018D01*
X66397Y866463D01*
X67470Y866175D01*
X68581D01*
X69654Y866463D01*
X70616Y867018D01*
X71401Y867803D01*
X71957Y868765D01*
X72244Y869838D01*
Y870949D01*
X71957Y872022D01*
X71401Y872984D01*
X70616Y873769D01*
X69654Y874325D01*
X68581Y874612D01*
D02*
G37*
G36*
X28581D02*
X27470D01*
X26397Y874325D01*
X25435Y873769D01*
X24650Y872984D01*
X24094Y872022D01*
X23807Y870949D01*
Y869838D01*
X24094Y868765D01*
X24650Y867803D01*
X25435Y867018D01*
X26397Y866463D01*
X27470Y866175D01*
X28581D01*
X29654Y866463D01*
X30616Y867018D01*
X31401Y867803D01*
X31957Y868765D01*
X32244Y869838D01*
Y870949D01*
X31957Y872022D01*
X31401Y872984D01*
X30616Y873769D01*
X29654Y874325D01*
X28581Y874612D01*
D02*
G37*
G36*
X249654Y868830D02*
X249106D01*
X248599Y868620D01*
X248212Y868232D01*
X248002Y867726D01*
Y867177D01*
X248212Y866671D01*
X248599Y866283D01*
X249106Y866074D01*
X249654D01*
X250160Y866283D01*
X250548Y866671D01*
X250758Y867177D01*
Y867726D01*
X250548Y868232D01*
X250160Y868620D01*
X249654Y868830D01*
D02*
G37*
G36*
X145156Y867913D02*
X144608D01*
X144101Y867704D01*
X143714Y867316D01*
X143504Y866809D01*
Y866261D01*
X143714Y865755D01*
X144101Y865367D01*
X144201Y865326D01*
X144294Y864746D01*
X144107Y864560D01*
X143898Y864054D01*
Y863505D01*
X144107Y862999D01*
X144495Y862611D01*
X145001Y862402D01*
X145550D01*
X146056Y862611D01*
X146444Y862999D01*
X146653Y863505D01*
Y864054D01*
X146444Y864560D01*
X146056Y864948D01*
X145956Y864989D01*
X145864Y865569D01*
X146050Y865755D01*
X146260Y866261D01*
Y866809D01*
X146050Y867316D01*
X145662Y867704D01*
X145156Y867913D01*
D02*
G37*
G36*
X656957Y864754D02*
X656409D01*
X655902Y864544D01*
X655515Y864157D01*
X655305Y863650D01*
Y863546D01*
X655288Y863101D01*
X654843Y863084D01*
X654739D01*
X654232Y862874D01*
X653844Y862486D01*
X653635Y861980D01*
Y861432D01*
X653844Y860925D01*
X654232Y860537D01*
X654739Y860328D01*
X655287D01*
X655793Y860537D01*
X656181Y860925D01*
X656391Y861432D01*
Y861536D01*
X656408Y861980D01*
X656853Y861998D01*
X656957D01*
X657464Y862208D01*
X657851Y862595D01*
X658061Y863102D01*
Y863650D01*
X657851Y864157D01*
X657464Y864544D01*
X656957Y864754D01*
D02*
G37*
G36*
X585314Y862402D02*
X584765D01*
X584259Y862192D01*
X583871Y861804D01*
X583661Y861298D01*
Y860750D01*
X583871Y860243D01*
X584259Y859855D01*
X584765Y859646D01*
X585314D01*
X585820Y859855D01*
X586207Y860243D01*
X586417Y860750D01*
Y861298D01*
X586207Y861804D01*
X585820Y862192D01*
X585314Y862402D01*
D02*
G37*
G36*
X436888Y860433D02*
X436340D01*
X435834Y860223D01*
X435446Y859836D01*
X435236Y859329D01*
Y858781D01*
X435446Y858275D01*
X435834Y857887D01*
X436340Y857677D01*
X436888D01*
X437395Y857887D01*
X437782Y858275D01*
X437992Y858781D01*
Y859329D01*
X437782Y859836D01*
X437395Y860223D01*
X436888Y860433D01*
D02*
G37*
G36*
X310904Y857677D02*
X310356D01*
X309849Y857467D01*
X309462Y857080D01*
X309252Y856573D01*
Y856025D01*
X309462Y855519D01*
X309849Y855131D01*
X310356Y854921D01*
X310904D01*
X311410Y855131D01*
X311798Y855519D01*
X312008Y856025D01*
Y856573D01*
X311798Y857080D01*
X311410Y857467D01*
X310904Y857677D01*
D02*
G37*
G36*
X298028Y857436D02*
X297480D01*
X296973Y857226D01*
X296586Y856839D01*
X296376Y856332D01*
Y855784D01*
X296586Y855278D01*
X296973Y854890D01*
X297480Y854680D01*
X298028D01*
X298534Y854890D01*
X298922Y855278D01*
X299132Y855784D01*
Y856332D01*
X298922Y856839D01*
X298534Y857226D01*
X298028Y857436D01*
D02*
G37*
G36*
X336495Y856890D02*
X335946D01*
X335440Y856680D01*
X335052Y856292D01*
X334842Y855786D01*
Y855238D01*
X335052Y854731D01*
X335440Y854344D01*
X335946Y854134D01*
X336495D01*
X337001Y854344D01*
X337389Y854731D01*
X337598Y855238D01*
Y855786D01*
X337389Y856292D01*
X337001Y856680D01*
X336495Y856890D01*
D02*
G37*
G36*
X217511Y880153D02*
Y880145D01*
X207087D01*
X206951Y880118D01*
X206813D01*
X206685Y880065D01*
X206549Y880038D01*
X206434Y879961D01*
X206306Y879908D01*
X206208Y879811D01*
X206093Y879734D01*
X206016Y879618D01*
X205918Y879521D01*
X205866Y879393D01*
X205789Y879278D01*
X205762Y879142D01*
X205709Y879014D01*
Y878876D01*
X205682Y878740D01*
Y819497D01*
X205674D01*
X205814Y817711D01*
X206232Y815970D01*
X206917Y814315D01*
X207853Y812788D01*
X209016Y811426D01*
X209022Y811432D01*
X219873Y800581D01*
X219988Y800504D01*
X220086Y800407D01*
X220213Y800354D01*
X220328Y800277D01*
X220464Y800250D01*
X220592Y800197D01*
X220730D01*
X220866Y800170D01*
X221002Y800197D01*
X221140D01*
X221268Y800250D01*
X221404Y800277D01*
X221519Y800354D01*
X221647Y800407D01*
X221744Y800504D01*
X221860Y800581D01*
X221936Y800696D01*
X222034Y800794D01*
X222087Y800922D01*
X222164Y801037D01*
X222191Y801173D01*
X222244Y801301D01*
Y801439D01*
X222271Y801575D01*
X222244Y801711D01*
Y801849D01*
X222191Y801977D01*
X222164Y802112D01*
X222087Y802227D01*
X222034Y802355D01*
X221936Y802453D01*
X221860Y802568D01*
X211009Y813419D01*
X210956Y813454D01*
X209925Y814711D01*
X209129Y816200D01*
X208639Y817816D01*
X208479Y819434D01*
X208492Y819497D01*
Y877335D01*
X217511D01*
X217573Y877348D01*
X219192Y877188D01*
X220808Y876698D01*
X222297Y875902D01*
X223554Y874870D01*
X223589Y874818D01*
X257101Y841306D01*
X257096Y841300D01*
X258457Y840137D01*
X259984Y839201D01*
X261639Y838516D01*
X263380Y838097D01*
X265166Y837957D01*
Y837965D01*
X266705D01*
Y835433D01*
X266732Y835297D01*
Y835159D01*
X266785Y835031D01*
X266812Y834895D01*
X266889Y834780D01*
X266942Y834653D01*
X267040Y834555D01*
X267117Y834440D01*
X267232Y834363D01*
X267330Y834265D01*
X267458Y834212D01*
X267573Y834135D01*
X267708Y834108D01*
X267836Y834055D01*
X267974D01*
X268110Y834028D01*
X268246Y834055D01*
X268384D01*
X268512Y834108D01*
X268648Y834135D01*
X268763Y834212D01*
X268891Y834265D01*
X268989Y834363D01*
X269104Y834440D01*
X269181Y834555D01*
X269278Y834653D01*
X269331Y834780D01*
X269408Y834895D01*
X269435Y835031D01*
X269488Y835159D01*
Y835297D01*
X269515Y835433D01*
Y837965D01*
X303338D01*
Y837957D01*
X305124Y838097D01*
X306865Y838516D01*
X308520Y839201D01*
X310047Y840137D01*
X311408Y841300D01*
X311403Y841306D01*
X322474Y852377D01*
X322480Y852371D01*
X323643Y853733D01*
X324579Y855260D01*
X325264Y856915D01*
X325682Y858656D01*
X325823Y860441D01*
X325814D01*
Y864567D01*
X325787Y864703D01*
Y864841D01*
X325734Y864969D01*
X325708Y865105D01*
X325631Y865220D01*
X325578Y865347D01*
X325480Y865445D01*
X325403Y865560D01*
X325288Y865637D01*
X325190Y865735D01*
X325062Y865788D01*
X324947Y865865D01*
X324811Y865892D01*
X324683Y865945D01*
X324545D01*
X324410Y865972D01*
X324274Y865945D01*
X324135D01*
X324008Y865892D01*
X323872Y865865D01*
X323757Y865788D01*
X323629Y865735D01*
X323531Y865637D01*
X323416Y865560D01*
X323339Y865445D01*
X323241Y865347D01*
X323188Y865220D01*
X323112Y865105D01*
X323084Y864969D01*
X323031Y864841D01*
Y864703D01*
X323005Y864567D01*
Y860441D01*
X323017Y860379D01*
X322857Y858761D01*
X322367Y857145D01*
X321571Y855656D01*
X320540Y854399D01*
X320487Y854364D01*
X309416Y843293D01*
X309381Y843240D01*
X308124Y842208D01*
X306634Y841412D01*
X305019Y840922D01*
X303400Y840763D01*
X303338Y840775D01*
X269515D01*
Y844460D01*
X269527D01*
X269371Y846048D01*
X268908Y847575D01*
X268156Y848981D01*
X267144Y850215D01*
X267135Y850206D01*
X267020Y850283D01*
X266922Y850381D01*
X266794Y850434D01*
X266679Y850511D01*
X266544Y850538D01*
X266416Y850591D01*
X266278D01*
X266142Y850618D01*
X266006Y850591D01*
X265868D01*
X265740Y850538D01*
X265604Y850511D01*
X265489Y850434D01*
X265361Y850381D01*
X265263Y850283D01*
X265148Y850206D01*
X265071Y850091D01*
X264974Y849993D01*
X264921Y849865D01*
X264844Y849750D01*
X264817Y849615D01*
X264764Y849487D01*
Y849348D01*
X264737Y849213D01*
X264764Y849077D01*
Y848938D01*
X264817Y848811D01*
X264844Y848675D01*
X264887Y848611D01*
X264921Y848560D01*
X264973Y848432D01*
X265148Y848219D01*
X265461Y847849D01*
X266013Y847130D01*
X266546Y845842D01*
X266719Y844529D01*
X266705Y844460D01*
Y840775D01*
X265166D01*
X265104Y840763D01*
X263485Y840922D01*
X261870Y841412D01*
X260380Y842208D01*
X259123Y843240D01*
X259088Y843293D01*
X225576Y876805D01*
X225582Y876810D01*
X224220Y877974D01*
X222693Y878909D01*
X221038Y879595D01*
X219297Y880013D01*
X217511Y880153D01*
D02*
G37*
G36*
X723896Y854134D02*
X723348D01*
X722842Y853924D01*
X722454Y853537D01*
X722244Y853030D01*
Y852482D01*
X722454Y851975D01*
X722842Y851588D01*
X723348Y851378D01*
X723896D01*
X724403Y851588D01*
X724790Y851975D01*
X725000Y852482D01*
Y853030D01*
X724790Y853537D01*
X724403Y853924D01*
X723896Y854134D01*
D02*
G37*
G36*
X606573Y851378D02*
X606025D01*
X605519Y851168D01*
X605131Y850781D01*
X604921Y850274D01*
Y849726D01*
X605131Y849219D01*
X605519Y848832D01*
X606025Y848622D01*
X606573D01*
X607080Y848832D01*
X607467Y849219D01*
X607677Y849726D01*
Y850274D01*
X607467Y850781D01*
X607080Y851168D01*
X606573Y851378D01*
D02*
G37*
G36*
X310117Y849803D02*
X309568D01*
X309062Y849593D01*
X308674Y849206D01*
X308465Y848699D01*
Y848151D01*
X308674Y847645D01*
X309062Y847257D01*
X309568Y847047D01*
X310117D01*
X310623Y847257D01*
X311011Y847645D01*
X311221Y848151D01*
Y848699D01*
X311011Y849206D01*
X310623Y849593D01*
X310117Y849803D01*
D02*
G37*
G36*
X298443Y849758D02*
X297895D01*
X297388Y849548D01*
X297001Y849160D01*
X296791Y848654D01*
Y848106D01*
X297001Y847599D01*
X297388Y847211D01*
X297895Y847002D01*
X298443D01*
X298949Y847211D01*
X299337Y847599D01*
X299547Y848106D01*
Y848654D01*
X299337Y849160D01*
X298949Y849548D01*
X298443Y849758D01*
D02*
G37*
G36*
X246731Y849409D02*
X246183D01*
X245676Y849200D01*
X245288Y848812D01*
X245079Y848306D01*
Y847757D01*
X245288Y847251D01*
X245676Y846863D01*
X246183Y846653D01*
X246731D01*
X247237Y846863D01*
X247625Y847251D01*
X247835Y847757D01*
Y848306D01*
X247625Y848812D01*
X247237Y849200D01*
X246731Y849409D01*
D02*
G37*
G36*
X734920Y847835D02*
X734372D01*
X733865Y847625D01*
X733477Y847237D01*
X733268Y846731D01*
Y846183D01*
X733477Y845676D01*
X733865Y845288D01*
X734372Y845079D01*
X734920D01*
X735426Y845288D01*
X735814Y845676D01*
X736024Y846183D01*
Y846731D01*
X735814Y847237D01*
X735426Y847625D01*
X734920Y847835D01*
D02*
G37*
G36*
X53758Y857431D02*
X52372D01*
X51012Y857161D01*
X49731Y856630D01*
X48579Y855860D01*
X47599Y854880D01*
X46828Y853727D01*
X46298Y852446D01*
X46027Y851087D01*
Y849701D01*
X46298Y848341D01*
X46828Y847060D01*
X47599Y845908D01*
X48579Y844927D01*
X49731Y844157D01*
X51012Y843627D01*
X52372Y843356D01*
X53758D01*
X55118Y843627D01*
X56398Y844157D01*
X57551Y844927D01*
X58531Y845908D01*
X59301Y847060D01*
X59832Y848341D01*
X60102Y849701D01*
Y851087D01*
X59832Y852446D01*
X59301Y853727D01*
X58531Y854880D01*
X57551Y855860D01*
X56398Y856630D01*
X55118Y857161D01*
X53758Y857431D01*
D02*
G37*
G36*
X279014Y844685D02*
X278466D01*
X277960Y844475D01*
X277572Y844088D01*
X277362Y843581D01*
Y843033D01*
X277572Y842527D01*
X277960Y842139D01*
X278466Y841929D01*
X279014D01*
X279521Y842139D01*
X279908Y842527D01*
X280118Y843033D01*
Y843581D01*
X279908Y844088D01*
X279521Y844475D01*
X279014Y844685D01*
D02*
G37*
G36*
X606927Y843579D02*
X606379D01*
X605872Y843370D01*
X605485Y842982D01*
X605275Y842476D01*
Y841927D01*
X605485Y841421D01*
X605872Y841033D01*
X606379Y840823D01*
X606927D01*
X607433Y841033D01*
X607821Y841421D01*
X608031Y841927D01*
Y842476D01*
X607821Y842982D01*
X607433Y843370D01*
X606927Y843579D01*
D02*
G37*
G36*
X742400Y841142D02*
X741852D01*
X741345Y840932D01*
X740958Y840544D01*
X740748Y840038D01*
Y839490D01*
X740958Y838983D01*
X741345Y838596D01*
X741852Y838386D01*
X742400D01*
X742907Y838596D01*
X743294Y838983D01*
X743504Y839490D01*
Y840038D01*
X743294Y840544D01*
X742907Y840932D01*
X742400Y841142D01*
D02*
G37*
G36*
X252636D02*
X252088D01*
X251582Y840932D01*
X251194Y840544D01*
X250984Y840038D01*
Y839490D01*
X251194Y838983D01*
X251582Y838596D01*
X252088Y838386D01*
X252636D01*
X253143Y838596D01*
X253530Y838983D01*
X253740Y839490D01*
Y840038D01*
X253530Y840544D01*
X253143Y840932D01*
X252636Y841142D01*
D02*
G37*
G36*
X238069Y840748D02*
X237521D01*
X237015Y840538D01*
X236627Y840151D01*
X236417Y839644D01*
Y839096D01*
X236627Y838589D01*
X237015Y838202D01*
X237521Y837992D01*
X238069D01*
X238576Y838202D01*
X238964Y838589D01*
X239173Y839096D01*
Y839644D01*
X238964Y840151D01*
X238576Y840538D01*
X238069Y840748D01*
D02*
G37*
G36*
X415235Y836417D02*
X414686D01*
X414180Y836207D01*
X413793Y835820D01*
X413583Y835314D01*
Y834765D01*
X413793Y834259D01*
X414180Y833871D01*
X414686Y833661D01*
X415235D01*
X415741Y833871D01*
X416129Y834259D01*
X416339Y834765D01*
Y835314D01*
X416129Y835820D01*
X415741Y836207D01*
X415235Y836417D01*
D02*
G37*
G36*
X712085Y836024D02*
X711537D01*
X711030Y835814D01*
X710643Y835426D01*
X710433Y834920D01*
Y834372D01*
X710643Y833865D01*
X711030Y833477D01*
X711537Y833268D01*
X712085D01*
X712592Y833477D01*
X712979Y833865D01*
X713189Y834372D01*
Y834920D01*
X712979Y835426D01*
X712592Y835814D01*
X712085Y836024D01*
D02*
G37*
G36*
X310117Y832480D02*
X309568D01*
X309062Y832271D01*
X308674Y831883D01*
X308465Y831376D01*
Y830828D01*
X308674Y830322D01*
X309062Y829934D01*
X309568Y829724D01*
X310117D01*
X310623Y829934D01*
X311011Y830322D01*
X311221Y830828D01*
Y831376D01*
X311011Y831883D01*
X310623Y832271D01*
X310117Y832480D01*
D02*
G37*
G36*
X741613Y831299D02*
X741065D01*
X740558Y831089D01*
X740170Y830702D01*
X739961Y830195D01*
Y829647D01*
X740170Y829141D01*
X740558Y828753D01*
X741065Y828543D01*
X741613D01*
X742119Y828753D01*
X742507Y829141D01*
X742717Y829647D01*
Y830195D01*
X742507Y830702D01*
X742119Y831089D01*
X741613Y831299D01*
D02*
G37*
G36*
X68581Y834612D02*
X67470D01*
X66397Y834325D01*
X65435Y833770D01*
X64650Y832984D01*
X64094Y832022D01*
X63807Y830949D01*
Y829838D01*
X64094Y828765D01*
X64650Y827803D01*
X65435Y827018D01*
X66397Y826462D01*
X67470Y826175D01*
X68581D01*
X69654Y826462D01*
X70616Y827018D01*
X71401Y827803D01*
X71957Y828765D01*
X72244Y829838D01*
Y830949D01*
X71957Y832022D01*
X71401Y832984D01*
X70616Y833770D01*
X69654Y834325D01*
X68581Y834612D01*
D02*
G37*
G36*
X28581D02*
X27470D01*
X26397Y834325D01*
X25435Y833770D01*
X24650Y832984D01*
X24094Y832022D01*
X23807Y830949D01*
Y829838D01*
X24094Y828765D01*
X24650Y827803D01*
X25435Y827018D01*
X26397Y826462D01*
X27470Y826175D01*
X28581D01*
X29654Y826462D01*
X30616Y827018D01*
X31401Y827803D01*
X31957Y828765D01*
X32244Y829838D01*
Y830949D01*
X31957Y832022D01*
X31401Y832984D01*
X30616Y833770D01*
X29654Y834325D01*
X28581Y834612D01*
D02*
G37*
G36*
X527833Y826575D02*
X527285D01*
X526779Y826365D01*
X526391Y825977D01*
X526181Y825471D01*
Y824923D01*
X526391Y824416D01*
X526779Y824029D01*
X527285Y823819D01*
X527833D01*
X528340Y824029D01*
X528727Y824416D01*
X528937Y824923D01*
Y825471D01*
X528727Y825977D01*
X528340Y826365D01*
X527833Y826575D01*
D02*
G37*
G36*
X277439Y825776D02*
X276891D01*
X276385Y825566D01*
X275997Y825178D01*
X275787Y824672D01*
Y824124D01*
X275997Y823617D01*
X276385Y823230D01*
X276891Y823020D01*
X277439D01*
X277946Y823230D01*
X278334Y823617D01*
X278543Y824124D01*
Y824672D01*
X278334Y825178D01*
X277946Y825566D01*
X277439Y825776D01*
D02*
G37*
G36*
X68581Y825400D02*
X67470D01*
X66397Y825112D01*
X65435Y824557D01*
X64650Y823771D01*
X64094Y822810D01*
X63807Y821737D01*
Y820626D01*
X64094Y819553D01*
X64650Y818591D01*
X65435Y817805D01*
X66397Y817250D01*
X67470Y816962D01*
X68581D01*
X69654Y817250D01*
X70616Y817805D01*
X71401Y818591D01*
X71957Y819553D01*
X72244Y820626D01*
Y821737D01*
X71957Y822810D01*
X71401Y823771D01*
X70616Y824557D01*
X69654Y825112D01*
X68581Y825400D01*
D02*
G37*
G36*
X28581D02*
X27470D01*
X26397Y825112D01*
X25435Y824557D01*
X24650Y823771D01*
X24094Y822810D01*
X23807Y821737D01*
Y820626D01*
X24094Y819553D01*
X24650Y818591D01*
X25435Y817805D01*
X26397Y817250D01*
X27470Y816962D01*
X28581D01*
X29654Y817250D01*
X30616Y817805D01*
X31401Y818591D01*
X31957Y819553D01*
X32244Y820626D01*
Y821737D01*
X31957Y822810D01*
X31401Y823771D01*
X30616Y824557D01*
X29654Y825112D01*
X28581Y825400D01*
D02*
G37*
G36*
X549093Y816732D02*
X548545D01*
X548038Y816523D01*
X547651Y816135D01*
X547441Y815628D01*
Y815080D01*
X547651Y814574D01*
X548038Y814186D01*
X548545Y813976D01*
X549093D01*
X549599Y814186D01*
X549987Y814574D01*
X550197Y815080D01*
Y815628D01*
X549987Y816135D01*
X549599Y816523D01*
X549093Y816732D01*
D02*
G37*
G36*
X219565Y815945D02*
X219017D01*
X218511Y815735D01*
X218123Y815347D01*
X217913Y814841D01*
Y814293D01*
X218123Y813786D01*
X218511Y813399D01*
X219017Y813189D01*
X219565D01*
X220072Y813399D01*
X220460Y813786D01*
X220669Y814293D01*
Y814841D01*
X220460Y815347D01*
X220072Y815735D01*
X219565Y815945D01*
D02*
G37*
G36*
X187676Y815551D02*
X187127D01*
X186621Y815341D01*
X186233Y814954D01*
X186024Y814447D01*
Y813899D01*
X186233Y813393D01*
X186621Y813005D01*
X187127Y812795D01*
X187676D01*
X188182Y813005D01*
X188570Y813393D01*
X188779Y813899D01*
Y814447D01*
X188570Y814954D01*
X188182Y815341D01*
X187676Y815551D01*
D02*
G37*
G36*
X161328Y824606D02*
X159932D01*
X158563Y824334D01*
X157273Y823800D01*
X156113Y823024D01*
X155125Y822037D01*
X154350Y820877D01*
X153816Y819587D01*
X153543Y818218D01*
Y816822D01*
X153816Y815453D01*
X154350Y814163D01*
X155125Y813002D01*
X156113Y812015D01*
X157273Y811240D01*
X158563Y810705D01*
X159932Y810433D01*
X161328D01*
X162697Y810705D01*
X163987Y811240D01*
X165147Y812015D01*
X166134Y813002D01*
X166910Y814163D01*
X167444Y815453D01*
X167717Y816822D01*
Y818218D01*
X167444Y819587D01*
X166910Y820877D01*
X166134Y822037D01*
X165147Y823024D01*
X163987Y823800D01*
X162697Y824334D01*
X161328Y824606D01*
D02*
G37*
G36*
X499093Y807677D02*
X498545D01*
X498038Y807467D01*
X497781Y807210D01*
X495132D01*
X494875Y807467D01*
X494369Y807677D01*
X493820D01*
X493314Y807467D01*
X492926Y807080D01*
X492717Y806573D01*
Y806025D01*
X492926Y805519D01*
X493314Y805131D01*
X493820Y804921D01*
X494369D01*
X494875Y805131D01*
X495132Y805388D01*
X497781D01*
X498038Y805131D01*
X498545Y804921D01*
X499093D01*
X499599Y805131D01*
X499987Y805519D01*
X500197Y806025D01*
Y806573D01*
X499987Y807080D01*
X499599Y807467D01*
X499093Y807677D01*
D02*
G37*
G36*
X238722Y809324D02*
X238174D01*
X237667Y809114D01*
X237280Y808726D01*
X237070Y808220D01*
Y807671D01*
X237280Y807165D01*
X237667Y806777D01*
X238174Y806568D01*
X238722D01*
X239228Y806777D01*
X239616Y807165D01*
X239826Y807671D01*
Y808220D01*
X239616Y808726D01*
X239228Y809114D01*
X238722Y809324D01*
D02*
G37*
G36*
X251849Y808858D02*
X251301D01*
X250794Y808648D01*
X250407Y808261D01*
X250197Y807754D01*
Y807206D01*
X250407Y806700D01*
X250794Y806312D01*
X251301Y806102D01*
X251849D01*
X252355Y806312D01*
X252743Y806700D01*
X252953Y807206D01*
Y807754D01*
X252743Y808261D01*
X252355Y808648D01*
X251849Y808858D01*
D02*
G37*
G36*
X731376Y808071D02*
X730828D01*
X730322Y807861D01*
X729934Y807473D01*
X729724Y806967D01*
Y806419D01*
X729934Y805912D01*
X730322Y805525D01*
X730828Y805315D01*
X731376D01*
X731883Y805525D01*
X732270Y805912D01*
X732480Y806419D01*
Y806967D01*
X732270Y807473D01*
X731883Y807861D01*
X731376Y808071D01*
D02*
G37*
G36*
X701061D02*
X700513D01*
X700007Y807861D01*
X699619Y807473D01*
X699409Y806967D01*
Y806419D01*
X699619Y805912D01*
X700007Y805525D01*
X700513Y805315D01*
X701061D01*
X701568Y805525D01*
X701956Y805912D01*
X702165Y806419D01*
Y806967D01*
X701956Y807473D01*
X701568Y807861D01*
X701061Y808071D01*
D02*
G37*
G36*
X657361Y807283D02*
X656812D01*
X656306Y807074D01*
X655918Y806686D01*
X655709Y806180D01*
Y805631D01*
X655918Y805125D01*
X656306Y804737D01*
X656812Y804528D01*
X657361D01*
X657867Y804737D01*
X658255Y805125D01*
X658465Y805631D01*
Y806180D01*
X658255Y806686D01*
X657867Y807074D01*
X657361Y807283D01*
D02*
G37*
G36*
X616416Y805709D02*
X615868D01*
X615361Y805499D01*
X614974Y805111D01*
X614764Y804605D01*
Y804057D01*
X614974Y803550D01*
X615361Y803162D01*
X615868Y802953D01*
X616416D01*
X616922Y803162D01*
X617310Y803550D01*
X617520Y804057D01*
Y804605D01*
X617310Y805111D01*
X616922Y805499D01*
X616416Y805709D01*
D02*
G37*
G36*
X541219Y805315D02*
X540671D01*
X540164Y805105D01*
X539777Y804718D01*
X539567Y804211D01*
Y803663D01*
X539777Y803156D01*
X540164Y802769D01*
X540671Y802559D01*
X541219D01*
X541725Y802769D01*
X542113Y803156D01*
X542323Y803663D01*
Y804211D01*
X542113Y804718D01*
X541725Y805105D01*
X541219Y805315D01*
D02*
G37*
G36*
X54049Y808763D02*
Y802165D01*
X60646D01*
X60400Y803406D01*
X59825Y804794D01*
X58990Y806044D01*
X57927Y807106D01*
X56678Y807941D01*
X55290Y808516D01*
X54049Y808763D01*
D02*
G37*
G36*
X52081D02*
X50840Y808516D01*
X49452Y807941D01*
X48202Y807106D01*
X47140Y806044D01*
X46305Y804794D01*
X45730Y803406D01*
X45483Y802165D01*
X52081D01*
Y808763D01*
D02*
G37*
G36*
X251455Y802559D02*
X250907D01*
X250401Y802349D01*
X250013Y801962D01*
X249803Y801455D01*
Y800907D01*
X250013Y800401D01*
X250401Y800013D01*
X250907Y799803D01*
X251455D01*
X251962Y800013D01*
X252349Y800401D01*
X252559Y800907D01*
Y801455D01*
X252349Y801962D01*
X251962Y802349D01*
X251455Y802559D01*
D02*
G37*
G36*
X522715Y802165D02*
X522167D01*
X521660Y801956D01*
X521273Y801568D01*
X521063Y801062D01*
Y800513D01*
X521273Y800007D01*
X521660Y799619D01*
X522167Y799409D01*
X522715D01*
X523221Y799619D01*
X523609Y800007D01*
X523819Y800513D01*
Y801062D01*
X523609Y801568D01*
X523221Y801956D01*
X522715Y802165D01*
D02*
G37*
G36*
X536495Y798622D02*
X535946D01*
X535440Y798412D01*
X535052Y798025D01*
X534842Y797518D01*
Y796970D01*
X535052Y796463D01*
X535440Y796076D01*
X535946Y795866D01*
X536495D01*
X537001Y796076D01*
X537389Y796463D01*
X537598Y796970D01*
Y797518D01*
X537389Y798025D01*
X537001Y798412D01*
X536495Y798622D01*
D02*
G37*
G36*
X742794Y797835D02*
X742246D01*
X741739Y797625D01*
X741352Y797237D01*
X741142Y796731D01*
Y796183D01*
X741352Y795676D01*
X741739Y795289D01*
X742246Y795079D01*
X742794D01*
X743300Y795289D01*
X743688Y795676D01*
X743898Y796183D01*
Y796731D01*
X743688Y797237D01*
X743300Y797625D01*
X742794Y797835D01*
D02*
G37*
G36*
X60646Y800197D02*
X54049D01*
Y793600D01*
X55290Y793846D01*
X56678Y794421D01*
X57927Y795256D01*
X58990Y796319D01*
X59825Y797568D01*
X60400Y798956D01*
X60646Y800197D01*
D02*
G37*
G36*
X52081D02*
X45483D01*
X45730Y798956D01*
X46305Y797568D01*
X47140Y796319D01*
X48202Y795256D01*
X49452Y794421D01*
X50840Y793846D01*
X52081Y793600D01*
Y800197D01*
D02*
G37*
G36*
X678621Y796260D02*
X678072D01*
X677566Y796050D01*
X677178Y795662D01*
X676968Y795156D01*
Y794608D01*
X677178Y794101D01*
X677566Y793714D01*
X678072Y793504D01*
X678621D01*
X679127Y793714D01*
X679515Y794101D01*
X679724Y794608D01*
Y795156D01*
X679515Y795662D01*
X679127Y796050D01*
X678621Y796260D01*
D02*
G37*
G36*
X636888D02*
X636340D01*
X635834Y796050D01*
X635446Y795662D01*
X635236Y795156D01*
Y794608D01*
X635446Y794101D01*
X635834Y793714D01*
X636340Y793504D01*
X636888D01*
X637395Y793714D01*
X637782Y794101D01*
X637992Y794608D01*
Y795156D01*
X637782Y795662D01*
X637395Y796050D01*
X636888Y796260D01*
D02*
G37*
G36*
X701455Y795472D02*
X700907D01*
X700400Y795263D01*
X700013Y794875D01*
X699803Y794369D01*
Y793820D01*
X700013Y793314D01*
X700400Y792926D01*
X700907Y792717D01*
X701455D01*
X701962Y792926D01*
X702349Y793314D01*
X702559Y793820D01*
Y794369D01*
X702349Y794875D01*
X701962Y795263D01*
X701455Y795472D01*
D02*
G37*
G36*
X142005Y818241D02*
X79005D01*
X78704Y818116D01*
X78579Y817814D01*
Y792814D01*
X78704Y792513D01*
X79005Y792388D01*
X142005D01*
X142306Y792513D01*
X142431Y792814D01*
Y817814D01*
X142306Y818116D01*
X142005Y818241D01*
D02*
G37*
G36*
X764402Y797261D02*
X760402D01*
X759633Y797159D01*
X758917Y796863D01*
X758302Y796391D01*
X757830Y795776D01*
X757534Y795060D01*
X757433Y794291D01*
X757534Y793523D01*
X757830Y792807D01*
X758302Y792192D01*
X758917Y791720D01*
X759633Y791423D01*
X760402Y791322D01*
X764402D01*
X765170Y791423D01*
X765886Y791720D01*
X766501Y792192D01*
X766973Y792807D01*
X767270Y793523D01*
X767371Y794291D01*
X767270Y795060D01*
X766973Y795776D01*
X766501Y796391D01*
X765886Y796863D01*
X765170Y797159D01*
X764402Y797261D01*
D02*
G37*
G36*
X731770Y793504D02*
X731222D01*
X730716Y793294D01*
X730328Y792907D01*
X730118Y792400D01*
Y791852D01*
X730328Y791345D01*
X730716Y790958D01*
X731222Y790748D01*
X731770D01*
X732277Y790958D01*
X732664Y791345D01*
X732874Y791852D01*
Y792400D01*
X732664Y792907D01*
X732277Y793294D01*
X731770Y793504D01*
D02*
G37*
G36*
X456603Y804921D02*
X455207D01*
X453838Y804649D01*
X452549Y804115D01*
X451388Y803339D01*
X450401Y802352D01*
X449625Y801191D01*
X449091Y799902D01*
X448819Y798533D01*
Y797137D01*
X449091Y795768D01*
X449625Y794478D01*
X450401Y793317D01*
X451388Y792330D01*
X452549Y791555D01*
X453838Y791020D01*
X455207Y790748D01*
X456603D01*
X457973Y791020D01*
X459262Y791555D01*
X460423Y792330D01*
X461410Y793317D01*
X462186Y794478D01*
X462720Y795768D01*
X462992Y797137D01*
Y798533D01*
X462720Y799902D01*
X462186Y801191D01*
X461410Y802352D01*
X460423Y803339D01*
X459262Y804115D01*
X457973Y804649D01*
X456603Y804921D01*
D02*
G37*
G36*
X502128Y792847D02*
X501580D01*
X501073Y792637D01*
X500686Y792250D01*
X500476Y791743D01*
Y791195D01*
X500686Y790689D01*
X501073Y790301D01*
X501580Y790091D01*
X502128D01*
X502634Y790301D01*
X503022Y790689D01*
X503232Y791195D01*
Y791743D01*
X503022Y792250D01*
X502634Y792637D01*
X502128Y792847D01*
D02*
G37*
G36*
X494369Y792717D02*
X493820D01*
X493314Y792507D01*
X492926Y792119D01*
X492717Y791613D01*
Y791065D01*
X492926Y790558D01*
X493314Y790170D01*
X493820Y789961D01*
X494369D01*
X494875Y790170D01*
X495263Y790558D01*
X495472Y791065D01*
Y791613D01*
X495263Y792119D01*
X494875Y792507D01*
X494369Y792717D01*
D02*
G37*
G36*
X764402Y789982D02*
X763386D01*
Y787401D01*
X767819D01*
X767489Y788200D01*
X766922Y788938D01*
X766184Y789504D01*
X765324Y789861D01*
X764402Y789982D01*
D02*
G37*
G36*
X761417D02*
X760402D01*
X759479Y789861D01*
X758619Y789504D01*
X757881Y788938D01*
X757314Y788200D01*
X756984Y787401D01*
X761417D01*
Y789982D01*
D02*
G37*
G36*
X192400Y789173D02*
X191852D01*
X191345Y788963D01*
X190958Y788576D01*
X190748Y788069D01*
Y787521D01*
X190958Y787015D01*
X191345Y786627D01*
X191852Y786417D01*
X192400D01*
X192906Y786627D01*
X193294Y787015D01*
X193504Y787521D01*
Y788069D01*
X193294Y788576D01*
X192906Y788963D01*
X192400Y789173D01*
D02*
G37*
G36*
X205392Y788779D02*
X204844D01*
X204338Y788570D01*
X203950Y788182D01*
X203740Y787676D01*
Y787127D01*
X203950Y786621D01*
X204338Y786233D01*
X204844Y786024D01*
X205392D01*
X205899Y786233D01*
X206286Y786621D01*
X206496Y787127D01*
Y787676D01*
X206286Y788182D01*
X205899Y788570D01*
X205392Y788779D01*
D02*
G37*
G36*
X228621Y787598D02*
X228072D01*
X227566Y787389D01*
X227178Y787001D01*
X226969Y786495D01*
Y785946D01*
X227178Y785440D01*
X227566Y785052D01*
X228072Y784842D01*
X228621D01*
X229127Y785052D01*
X229515Y785440D01*
X229724Y785946D01*
Y786495D01*
X229515Y787001D01*
X229127Y787389D01*
X228621Y787598D01*
D02*
G37*
G36*
X588069Y785236D02*
X587521D01*
X587015Y785026D01*
X586758Y784769D01*
X583715D01*
X583458Y785026D01*
X582951Y785236D01*
X582403D01*
X581897Y785026D01*
X581509Y784639D01*
X581299Y784132D01*
Y783584D01*
X581509Y783078D01*
X581897Y782690D01*
X582403Y782480D01*
X582951D01*
X583458Y782690D01*
X583715Y782947D01*
X586758D01*
X587015Y782690D01*
X587521Y782480D01*
X588069D01*
X588576Y782690D01*
X588964Y783078D01*
X589173Y783584D01*
Y784132D01*
X588964Y784639D01*
X588576Y785026D01*
X588069Y785236D01*
D02*
G37*
G36*
X671140Y786024D02*
X670592D01*
X670086Y785814D01*
X669698Y785426D01*
X669488Y784920D01*
Y784372D01*
X669698Y783865D01*
X670086Y783477D01*
X670592Y783268D01*
X671140D01*
X671647Y783477D01*
X672034Y783865D01*
X672244Y784372D01*
Y784920D01*
X672034Y785426D01*
X671647Y785814D01*
X671140Y786024D01*
D02*
G37*
G36*
X654605D02*
X654057D01*
X653550Y785814D01*
X653162Y785426D01*
X652953Y784920D01*
Y784372D01*
X653162Y783865D01*
X653550Y783477D01*
X654057Y783268D01*
X654605D01*
X655111Y783477D01*
X655499Y783865D01*
X655709Y784372D01*
Y784920D01*
X655499Y785426D01*
X655111Y785814D01*
X654605Y786024D01*
D02*
G37*
G36*
X629802Y785630D02*
X629253D01*
X628747Y785420D01*
X628359Y785033D01*
X628150Y784526D01*
Y783978D01*
X628359Y783471D01*
X628747Y783084D01*
X629253Y782874D01*
X629802D01*
X630308Y783084D01*
X630696Y783471D01*
X630905Y783978D01*
Y784526D01*
X630696Y785033D01*
X630308Y785420D01*
X629802Y785630D01*
D02*
G37*
G36*
X767819Y785433D02*
X763386D01*
Y782853D01*
X764402D01*
X765324Y782974D01*
X766184Y783330D01*
X766922Y783897D01*
X767489Y784635D01*
X767819Y785433D01*
D02*
G37*
G36*
X761417D02*
X756984D01*
X757314Y784635D01*
X757881Y783897D01*
X758619Y783330D01*
X759479Y782974D01*
X760402Y782853D01*
X761417D01*
Y785433D01*
D02*
G37*
G36*
X173896Y784449D02*
X173348D01*
X172842Y784239D01*
X172454Y783851D01*
X172244Y783345D01*
Y782797D01*
X172454Y782290D01*
X172842Y781903D01*
X173348Y781693D01*
X173896D01*
X174403Y781903D01*
X174790Y782290D01*
X175000Y782797D01*
Y783345D01*
X174790Y783851D01*
X174403Y784239D01*
X173896Y784449D01*
D02*
G37*
G36*
X524684Y784449D02*
X524135D01*
X523629Y784239D01*
X523241Y783851D01*
X523032Y783345D01*
Y782797D01*
X523241Y782290D01*
X523629Y781903D01*
X524135Y781693D01*
X524684D01*
X525190Y781903D01*
X525578Y782290D01*
X525787Y782797D01*
Y783345D01*
X525578Y783851D01*
X525190Y784239D01*
X524684Y784449D01*
D02*
G37*
G36*
X611298Y782874D02*
X610749D01*
X610243Y782664D01*
X609856Y782277D01*
X609646Y781770D01*
Y781222D01*
X609856Y780716D01*
X610243Y780328D01*
X610749Y780118D01*
X611298D01*
X611804Y780328D01*
X612192Y780716D01*
X612402Y781222D01*
Y781770D01*
X612192Y782277D01*
X611804Y782664D01*
X611298Y782874D01*
D02*
G37*
G36*
X179802D02*
X179253D01*
X178747Y782664D01*
X178359Y782277D01*
X178150Y781770D01*
Y781222D01*
X178359Y780716D01*
X178747Y780328D01*
X179253Y780118D01*
X179802D01*
X180308Y780328D01*
X180696Y780716D01*
X180905Y781222D01*
Y781770D01*
X180696Y782277D01*
X180308Y782664D01*
X179802Y782874D01*
D02*
G37*
G36*
X204998Y782087D02*
X204450D01*
X203944Y781877D01*
X203556Y781489D01*
X203346Y780983D01*
Y780435D01*
X203556Y779928D01*
X203944Y779540D01*
X204450Y779331D01*
X204998D01*
X205505Y779540D01*
X205893Y779928D01*
X206102Y780435D01*
Y780983D01*
X205893Y781489D01*
X205505Y781877D01*
X204998Y782087D01*
D02*
G37*
G36*
X193581Y781693D02*
X193033D01*
X192526Y781483D01*
X192139Y781096D01*
X191929Y780589D01*
Y780041D01*
X192139Y779534D01*
X192526Y779147D01*
X193033Y778937D01*
X193581D01*
X194088Y779147D01*
X194475Y779534D01*
X194685Y780041D01*
Y780589D01*
X194475Y781096D01*
X194088Y781483D01*
X193581Y781693D01*
D02*
G37*
G36*
X501849Y780905D02*
X501301D01*
X500794Y780696D01*
X500407Y780308D01*
X500197Y779802D01*
Y779253D01*
X500407Y778747D01*
X500794Y778359D01*
X501301Y778150D01*
X501849D01*
X502355Y778359D01*
X502743Y778747D01*
X502953Y779253D01*
Y779802D01*
X502743Y780308D01*
X502355Y780696D01*
X501849Y780905D01*
D02*
G37*
G36*
X494762D02*
X494214D01*
X493708Y780696D01*
X493320Y780308D01*
X493110Y779802D01*
Y779253D01*
X493320Y778747D01*
X493708Y778359D01*
X494214Y778150D01*
X494762D01*
X495269Y778359D01*
X495656Y778747D01*
X495866Y779253D01*
Y779802D01*
X495656Y780308D01*
X495269Y780696D01*
X494762Y780905D01*
D02*
G37*
G36*
X68581Y785400D02*
X67470D01*
X66397Y785112D01*
X65435Y784557D01*
X64650Y783771D01*
X64094Y782809D01*
X63807Y781737D01*
Y780626D01*
X64094Y779553D01*
X64650Y778591D01*
X65435Y777805D01*
X66397Y777250D01*
X67470Y776962D01*
X68581D01*
X69654Y777250D01*
X70616Y777805D01*
X71401Y778591D01*
X71957Y779553D01*
X72244Y780626D01*
Y781737D01*
X71957Y782809D01*
X71401Y783771D01*
X70616Y784557D01*
X69654Y785112D01*
X68581Y785400D01*
D02*
G37*
G36*
X28581D02*
X27470D01*
X26397Y785112D01*
X25435Y784557D01*
X24650Y783771D01*
X24094Y782809D01*
X23807Y781737D01*
Y780626D01*
X24094Y779553D01*
X24650Y778591D01*
X25435Y777805D01*
X26397Y777250D01*
X27470Y776962D01*
X28581D01*
X29654Y777250D01*
X30616Y777805D01*
X31401Y778591D01*
X31957Y779553D01*
X32244Y780626D01*
Y781737D01*
X31957Y782809D01*
X31401Y783771D01*
X30616Y784557D01*
X29654Y785112D01*
X28581Y785400D01*
D02*
G37*
G36*
X664841Y778937D02*
X664293D01*
X663786Y778727D01*
X663399Y778340D01*
X663189Y777833D01*
Y777285D01*
X663399Y776779D01*
X663786Y776391D01*
X664293Y776181D01*
X664841D01*
X665347Y776391D01*
X665735Y776779D01*
X665945Y777285D01*
Y777833D01*
X665735Y778340D01*
X665347Y778727D01*
X664841Y778937D01*
D02*
G37*
G36*
X625077D02*
X624529D01*
X624023Y778727D01*
X623635Y778340D01*
X623425Y777833D01*
Y777285D01*
X623635Y776779D01*
X624023Y776391D01*
X624529Y776181D01*
X625077D01*
X625584Y776391D01*
X625971Y776779D01*
X626181Y777285D01*
Y777833D01*
X625971Y778340D01*
X625584Y778727D01*
X625077Y778937D01*
D02*
G37*
G36*
X764402Y781512D02*
X760402D01*
X759633Y781411D01*
X758917Y781115D01*
X758302Y780643D01*
X757830Y780028D01*
X757534Y779312D01*
X757433Y778543D01*
X757534Y777775D01*
X757830Y777059D01*
X758302Y776444D01*
X758917Y775972D01*
X759633Y775675D01*
X760402Y775574D01*
X764402D01*
X765170Y775675D01*
X765886Y775972D01*
X766501Y776444D01*
X766973Y777059D01*
X767270Y777775D01*
X767371Y778543D01*
X767270Y779312D01*
X766973Y780028D01*
X766501Y780643D01*
X765886Y781115D01*
X765170Y781411D01*
X764402Y781512D01*
D02*
G37*
G36*
X583739Y770669D02*
X583190D01*
X582684Y770460D01*
X582296Y770072D01*
X582087Y769565D01*
Y769017D01*
X582296Y768511D01*
X582684Y768123D01*
X583190Y767913D01*
X583739D01*
X584245Y768123D01*
X584633Y768511D01*
X584842Y769017D01*
Y769565D01*
X584633Y770072D01*
X584245Y770460D01*
X583739Y770669D01*
D02*
G37*
G36*
X764402Y773638D02*
X760402D01*
X759633Y773537D01*
X758917Y773241D01*
X758302Y772769D01*
X757830Y772154D01*
X757534Y771438D01*
X757433Y770669D01*
X757534Y769901D01*
X757830Y769185D01*
X758302Y768570D01*
X758917Y768098D01*
X759633Y767801D01*
X760402Y767700D01*
X764402D01*
X765170Y767801D01*
X765886Y768098D01*
X766501Y768570D01*
X766973Y769185D01*
X767270Y769901D01*
X767371Y770669D01*
X767270Y771438D01*
X766973Y772154D01*
X766501Y772769D01*
X765886Y773241D01*
X765170Y773537D01*
X764402Y773638D01*
D02*
G37*
G36*
X590652Y768833D02*
X590104D01*
X589598Y768623D01*
X589210Y768235D01*
X589000Y767729D01*
Y767181D01*
X589210Y766674D01*
X589598Y766287D01*
X590104Y766077D01*
X590652D01*
X591159Y766287D01*
X591546Y766674D01*
X591756Y767181D01*
Y767729D01*
X591546Y768235D01*
X591159Y768623D01*
X590652Y768833D01*
D02*
G37*
G36*
X24563Y768780D02*
Y764118D01*
X29225D01*
X28898Y765337D01*
X28147Y766639D01*
X27084Y767702D01*
X25782Y768454D01*
X24563Y768780D01*
D02*
G37*
G36*
X22594D02*
X21375Y768454D01*
X20074Y767702D01*
X19011Y766639D01*
X18259Y765337D01*
X17932Y764118D01*
X22594D01*
Y768780D01*
D02*
G37*
G36*
X139251Y765158D02*
X138702D01*
X138196Y764948D01*
X137808Y764560D01*
X137598Y764054D01*
Y763505D01*
X137808Y762999D01*
X138196Y762611D01*
X138702Y762402D01*
X139251D01*
X139757Y762611D01*
X140145Y762999D01*
X140354Y763505D01*
Y764054D01*
X140145Y764560D01*
X139757Y764948D01*
X139251Y765158D01*
D02*
G37*
G36*
X677347Y761221D02*
X676799D01*
X676292Y761011D01*
X676035Y760754D01*
X674354D01*
X674097Y761011D01*
X673591Y761221D01*
X673043D01*
X672536Y761011D01*
X672149Y760623D01*
X671939Y760117D01*
Y759568D01*
X672149Y759062D01*
X672536Y758674D01*
X673043Y758465D01*
X673591D01*
X674097Y758674D01*
X674354Y758931D01*
X676035D01*
X676292Y758674D01*
X676799Y758465D01*
X677347D01*
X677853Y758674D01*
X678241Y759062D01*
X678451Y759568D01*
Y760117D01*
X678241Y760623D01*
X677853Y761011D01*
X677347Y761221D01*
D02*
G37*
G36*
X614841Y762008D02*
X614293D01*
X613786Y761798D01*
X613399Y761411D01*
X613189Y760904D01*
Y760356D01*
X613399Y759849D01*
X613786Y759462D01*
X614293Y759252D01*
X614841D01*
X615347Y759462D01*
X615735Y759849D01*
X615945Y760356D01*
Y760904D01*
X615735Y761411D01*
X615347Y761798D01*
X614841Y762008D01*
D02*
G37*
G36*
X185707Y761221D02*
X185159D01*
X184652Y761011D01*
X184265Y760623D01*
X184055Y760117D01*
Y759568D01*
X184265Y759062D01*
X184652Y758674D01*
X185159Y758465D01*
X185707D01*
X186214Y758674D01*
X186601Y759062D01*
X186811Y759568D01*
Y760117D01*
X186601Y760623D01*
X186214Y761011D01*
X185707Y761221D01*
D02*
G37*
G36*
X126258Y760433D02*
X125710D01*
X125204Y760223D01*
X124816Y759836D01*
X124606Y759329D01*
Y758781D01*
X124816Y758275D01*
X125204Y757887D01*
X125710Y757677D01*
X126258D01*
X126765Y757887D01*
X127152Y758275D01*
X127362Y758781D01*
Y759329D01*
X127152Y759836D01*
X126765Y760223D01*
X126258Y760433D01*
D02*
G37*
G36*
X29225Y762150D02*
X24563D01*
Y757488D01*
X25782Y757814D01*
X27084Y758566D01*
X28147Y759629D01*
X28898Y760930D01*
X29225Y762150D01*
D02*
G37*
G36*
X22594D02*
X17932D01*
X18259Y760930D01*
X19011Y759629D01*
X20074Y758566D01*
X21375Y757814D01*
X22594Y757488D01*
Y762150D01*
D02*
G37*
G36*
X201455Y758858D02*
X200907D01*
X200400Y758648D01*
X200013Y758261D01*
X199803Y757754D01*
Y757206D01*
X200013Y756700D01*
X200400Y756312D01*
X200907Y756102D01*
X201455D01*
X201962Y756312D01*
X202349Y756700D01*
X202559Y757206D01*
Y757754D01*
X202349Y758261D01*
X201962Y758648D01*
X201455Y758858D01*
D02*
G37*
G36*
X591219Y758071D02*
X590671D01*
X590164Y757861D01*
X589777Y757474D01*
X589567Y756967D01*
Y756419D01*
X589777Y755912D01*
X590164Y755525D01*
X590671Y755315D01*
X591219D01*
X591725Y755525D01*
X592113Y755912D01*
X592323Y756419D01*
Y756967D01*
X592113Y757474D01*
X591725Y757861D01*
X591219Y758071D01*
D02*
G37*
G36*
X583345Y757677D02*
X582797D01*
X582290Y757467D01*
X581903Y757080D01*
X581693Y756573D01*
Y756025D01*
X581903Y755519D01*
X582290Y755131D01*
X582797Y754921D01*
X583345D01*
X583851Y755131D01*
X584239Y755519D01*
X584449Y756025D01*
Y756573D01*
X584239Y757080D01*
X583851Y757467D01*
X583345Y757677D01*
D02*
G37*
G36*
X520472Y753646D02*
Y749213D01*
X523053D01*
Y750228D01*
X522931Y751151D01*
X522575Y752011D01*
X522009Y752749D01*
X521271Y753315D01*
X520472Y753646D01*
D02*
G37*
G36*
X518504D02*
X517706Y753315D01*
X516967Y752749D01*
X516401Y752011D01*
X516045Y751151D01*
X515923Y750228D01*
Y749213D01*
X518504D01*
Y753646D01*
D02*
G37*
G36*
X683399Y746955D02*
X682851D01*
X682345Y746745D01*
X681957Y746357D01*
X681747Y745851D01*
Y745302D01*
X681957Y744796D01*
X682345Y744408D01*
X682851Y744199D01*
X683399D01*
X683906Y744408D01*
X684294Y744796D01*
X684503Y745302D01*
Y745851D01*
X684294Y746357D01*
X683906Y746745D01*
X683399Y746955D01*
D02*
G37*
G36*
X675810Y746954D02*
X675262D01*
X674755Y746745D01*
X674368Y746357D01*
X674158Y745851D01*
Y745302D01*
X674368Y744796D01*
X674755Y744408D01*
X675262Y744199D01*
X675810D01*
X676317Y744408D01*
X676704Y744796D01*
X676914Y745302D01*
Y745851D01*
X676704Y746357D01*
X676317Y746745D01*
X675810Y746954D01*
D02*
G37*
G36*
X527362Y753197D02*
X526594Y753096D01*
X525878Y752800D01*
X525263Y752328D01*
X524791Y751713D01*
X524494Y750997D01*
X524393Y750228D01*
Y746228D01*
X524494Y745460D01*
X524791Y744744D01*
X525263Y744129D01*
X525878Y743657D01*
X526594Y743360D01*
X527362Y743259D01*
X528131Y743360D01*
X528847Y743657D01*
X529462Y744129D01*
X529934Y744744D01*
X530230Y745460D01*
X530331Y746228D01*
Y750228D01*
X530230Y750997D01*
X529934Y751713D01*
X529462Y752328D01*
X528847Y752800D01*
X528131Y753096D01*
X527362Y753197D01*
D02*
G37*
G36*
X511614D02*
X510846Y753096D01*
X510130Y752800D01*
X509515Y752328D01*
X509043Y751713D01*
X508746Y750997D01*
X508645Y750228D01*
Y746228D01*
X508746Y745460D01*
X509043Y744744D01*
X509515Y744129D01*
X510130Y743657D01*
X510846Y743360D01*
X511614Y743259D01*
X512383Y743360D01*
X513099Y743657D01*
X513714Y744129D01*
X514185Y744744D01*
X514482Y745460D01*
X514583Y746228D01*
Y750228D01*
X514482Y750997D01*
X514185Y751713D01*
X513714Y752328D01*
X513099Y752800D01*
X512383Y753096D01*
X511614Y753197D01*
D02*
G37*
G36*
X503740D02*
X502972Y753096D01*
X502256Y752800D01*
X501641Y752328D01*
X501169Y751713D01*
X500872Y750997D01*
X500771Y750228D01*
Y746228D01*
X500872Y745460D01*
X501169Y744744D01*
X501641Y744129D01*
X502256Y743657D01*
X502972Y743360D01*
X503740Y743259D01*
X504509Y743360D01*
X505225Y743657D01*
X505840Y744129D01*
X506312Y744744D01*
X506608Y745460D01*
X506709Y746228D01*
Y750228D01*
X506608Y750997D01*
X506312Y751713D01*
X505840Y752328D01*
X505225Y752800D01*
X504509Y753096D01*
X503740Y753197D01*
D02*
G37*
G36*
X523053Y747244D02*
X520472D01*
Y742811D01*
X521271Y743141D01*
X522009Y743708D01*
X522575Y744446D01*
X522931Y745306D01*
X523053Y746228D01*
Y747244D01*
D02*
G37*
G36*
X518504D02*
X515923D01*
Y746228D01*
X516045Y745306D01*
X516401Y744446D01*
X516967Y743708D01*
X517706Y743141D01*
X518504Y742811D01*
Y747244D01*
D02*
G37*
G36*
X27493Y748283D02*
X26664D01*
X25863Y748069D01*
X25145Y747654D01*
X24558Y747068D01*
X24144Y746350D01*
X23929Y745548D01*
Y744719D01*
X24144Y743918D01*
X24558Y743200D01*
X25145Y742614D01*
X25863Y742199D01*
X26664Y741984D01*
X27493D01*
X28294Y742199D01*
X29013Y742614D01*
X29599Y743200D01*
X30014Y743918D01*
X30228Y744719D01*
Y745548D01*
X30014Y746350D01*
X29599Y747068D01*
X29013Y747654D01*
X28294Y748069D01*
X27493Y748283D01*
D02*
G37*
G36*
X20493Y744283D02*
X19664D01*
X18863Y744069D01*
X18145Y743654D01*
X17558Y743068D01*
X17144Y742350D01*
X16929Y741548D01*
Y740719D01*
X17144Y739918D01*
X17558Y739200D01*
X18145Y738614D01*
X18863Y738199D01*
X19664Y737984D01*
X20493D01*
X21294Y738199D01*
X22013Y738614D01*
X22599Y739200D01*
X23014Y739918D01*
X23228Y740719D01*
Y741548D01*
X23014Y742350D01*
X22599Y743068D01*
X22013Y743654D01*
X21294Y744069D01*
X20493Y744283D01*
D02*
G37*
G36*
X706180Y737992D02*
X705631D01*
X705125Y737782D01*
X704737Y737395D01*
X704528Y736888D01*
Y736340D01*
X704737Y735834D01*
X705125Y735446D01*
X705631Y735236D01*
X706180D01*
X706686Y735446D01*
X707074Y735834D01*
X707283Y736340D01*
Y736888D01*
X707074Y737395D01*
X706686Y737782D01*
X706180Y737992D01*
D02*
G37*
G36*
X682951Y735236D02*
X682403D01*
X681897Y735026D01*
X681509Y734639D01*
X681299Y734132D01*
Y733584D01*
X681509Y733078D01*
X681897Y732690D01*
X682403Y732480D01*
X682951D01*
X683458Y732690D01*
X683845Y733078D01*
X684055Y733584D01*
Y734132D01*
X683845Y734639D01*
X683458Y735026D01*
X682951Y735236D01*
D02*
G37*
G36*
X675865Y734842D02*
X675316D01*
X674810Y734633D01*
X674422Y734245D01*
X674213Y733739D01*
Y733190D01*
X674422Y732684D01*
X674810Y732296D01*
X675316Y732087D01*
X675865D01*
X676371Y732296D01*
X676759Y732684D01*
X676968Y733190D01*
Y733739D01*
X676759Y734245D01*
X676371Y734633D01*
X675865Y734842D01*
D02*
G37*
G36*
X20493Y736283D02*
X19664D01*
X18863Y736069D01*
X18145Y735654D01*
X17558Y735068D01*
X17144Y734350D01*
X16929Y733548D01*
Y732719D01*
X17144Y731918D01*
X17558Y731200D01*
X18145Y730614D01*
X18863Y730199D01*
X19664Y729984D01*
X20493D01*
X21294Y730199D01*
X22013Y730614D01*
X22599Y731200D01*
X23014Y731918D01*
X23228Y732719D01*
Y733548D01*
X23014Y734350D01*
X22599Y735068D01*
X22013Y735654D01*
X21294Y736069D01*
X20493Y736283D01*
D02*
G37*
G36*
X609842Y731205D02*
Y726772D01*
X612423D01*
Y727787D01*
X612301Y728710D01*
X611945Y729570D01*
X611379Y730308D01*
X610641Y730874D01*
X609842Y731205D01*
D02*
G37*
G36*
X607874D02*
X607076Y730874D01*
X606338Y730308D01*
X605771Y729570D01*
X605415Y728710D01*
X605294Y727787D01*
Y726772D01*
X607874D01*
Y731205D01*
D02*
G37*
G36*
X27493Y740283D02*
X26664D01*
X25863Y740069D01*
X25145Y739654D01*
X24558Y739068D01*
X24144Y738350D01*
X23929Y737548D01*
Y736719D01*
X24144Y735918D01*
X24558Y735200D01*
X25145Y734614D01*
X25863Y734199D01*
X26664Y733984D01*
X27493D01*
X28294Y734199D01*
X28485Y734309D01*
X35390Y727404D01*
X35390Y727404D01*
X35370Y727385D01*
X36152Y726862D01*
X36225Y726848D01*
X36332Y726805D01*
X36406Y726581D01*
X36099Y726169D01*
X29243D01*
X29105Y726436D01*
X29068Y726669D01*
X29599Y727200D01*
X30014Y727918D01*
X30228Y728719D01*
Y729549D01*
X30014Y730350D01*
X29599Y731068D01*
X29013Y731654D01*
X28294Y732069D01*
X27493Y732283D01*
X26664D01*
X25863Y732069D01*
X25145Y731654D01*
X24558Y731068D01*
X24144Y730350D01*
X23929Y729549D01*
Y728719D01*
X24144Y727918D01*
X24558Y727200D01*
X25089Y726669D01*
X25053Y726436D01*
X24915Y726169D01*
X23062D01*
X23014Y726350D01*
X22599Y727068D01*
X22013Y727654D01*
X21294Y728069D01*
X20493Y728284D01*
X19664D01*
X18863Y728069D01*
X18145Y727654D01*
X17558Y727068D01*
X17144Y726350D01*
X16929Y725549D01*
Y724719D01*
X17144Y723918D01*
X17558Y723200D01*
X18145Y722614D01*
X18863Y722199D01*
X19664Y721984D01*
X20493D01*
X21294Y722199D01*
X22013Y722614D01*
X22599Y723200D01*
X23014Y723918D01*
X23079Y724162D01*
X25024D01*
X25158Y723662D01*
X25145Y723654D01*
X24558Y723068D01*
X24144Y722350D01*
X23929Y721549D01*
Y720719D01*
X24144Y719918D01*
X24558Y719200D01*
X25145Y718614D01*
X25863Y718199D01*
X26664Y717984D01*
X27493D01*
X28294Y718199D01*
X29013Y718614D01*
X29599Y719200D01*
X30014Y719918D01*
X30228Y720719D01*
Y721549D01*
X30014Y722350D01*
X29599Y723068D01*
X29013Y723654D01*
X28999Y723662D01*
X29133Y724162D01*
X36882D01*
X37015Y724029D01*
X37521Y723819D01*
X38069D01*
X38576Y724029D01*
X38963Y724416D01*
X39173Y724923D01*
Y725471D01*
X38963Y725977D01*
X38890Y726051D01*
X38588Y726378D01*
X38890Y726705D01*
X38963Y726779D01*
X39173Y727285D01*
Y727833D01*
X38963Y728340D01*
X38576Y728727D01*
X38069Y728937D01*
X37521D01*
X37030Y728734D01*
X36810Y728825D01*
X36809Y728823D01*
X36809Y728823D01*
X29904Y735728D01*
X30014Y735918D01*
X30228Y736719D01*
Y737548D01*
X30014Y738350D01*
X29599Y739068D01*
X29013Y739654D01*
X28294Y740069D01*
X27493Y740283D01*
D02*
G37*
G36*
X23228Y720284D02*
X16929D01*
Y713984D01*
X23228D01*
Y720284D01*
D02*
G37*
G36*
X162873Y716732D02*
X162324D01*
X161818Y716523D01*
X161430Y716135D01*
X161221Y715628D01*
Y715080D01*
X161430Y714574D01*
X161818Y714186D01*
X162324Y713976D01*
X162873D01*
X163379Y714186D01*
X163767Y714574D01*
X163976Y715080D01*
Y715628D01*
X163767Y716135D01*
X163379Y716523D01*
X162873Y716732D01*
D02*
G37*
G36*
X159329D02*
X158781D01*
X158275Y716523D01*
X157887Y716135D01*
X157677Y715628D01*
Y715080D01*
X157887Y714574D01*
X158275Y714186D01*
X158781Y713976D01*
X159329D01*
X159836Y714186D01*
X160223Y714574D01*
X160433Y715080D01*
Y715628D01*
X160223Y716135D01*
X159836Y716523D01*
X159329Y716732D01*
D02*
G37*
G36*
X155392D02*
X154844D01*
X154338Y716523D01*
X153950Y716135D01*
X153740Y715628D01*
Y715080D01*
X153950Y714574D01*
X154338Y714186D01*
X154844Y713976D01*
X155392D01*
X155899Y714186D01*
X156286Y714574D01*
X156496Y715080D01*
Y715628D01*
X156286Y716135D01*
X155899Y716523D01*
X155392Y716732D01*
D02*
G37*
G36*
X701968Y707977D02*
Y703543D01*
X704549D01*
Y704559D01*
X704427Y705482D01*
X704071Y706341D01*
X703505Y707080D01*
X702767Y707646D01*
X701968Y707977D01*
D02*
G37*
G36*
X700000D02*
X699202Y707646D01*
X698464Y707080D01*
X697897Y706341D01*
X697541Y705482D01*
X697420Y704559D01*
Y703543D01*
X700000D01*
Y707977D01*
D02*
G37*
G36*
X708858Y707528D02*
X708090Y707427D01*
X707374Y707130D01*
X706759Y706659D01*
X706287Y706044D01*
X705990Y705328D01*
X705889Y704559D01*
Y700559D01*
X705990Y699791D01*
X706287Y699075D01*
X706759Y698460D01*
X707374Y697988D01*
X708090Y697691D01*
X708858Y697590D01*
X709627Y697691D01*
X710343Y697988D01*
X710958Y698460D01*
X711430Y699075D01*
X711726Y699791D01*
X711827Y700559D01*
Y704559D01*
X711726Y705328D01*
X711430Y706044D01*
X710958Y706659D01*
X710343Y707130D01*
X709627Y707427D01*
X708858Y707528D01*
D02*
G37*
G36*
X693110D02*
X692342Y707427D01*
X691626Y707130D01*
X691011Y706659D01*
X690539Y706044D01*
X690242Y705328D01*
X690141Y704559D01*
Y700559D01*
X690242Y699791D01*
X690539Y699075D01*
X691011Y698460D01*
X691626Y697988D01*
X692342Y697691D01*
X693110Y697590D01*
X693879Y697691D01*
X694595Y697988D01*
X695210Y698460D01*
X695681Y699075D01*
X695978Y699791D01*
X696079Y700559D01*
Y704559D01*
X695978Y705328D01*
X695681Y706044D01*
X695210Y706659D01*
X694595Y707130D01*
X693879Y707427D01*
X693110Y707528D01*
D02*
G37*
G36*
X685236D02*
X684468Y707427D01*
X683752Y707130D01*
X683137Y706659D01*
X682665Y706044D01*
X682368Y705328D01*
X682267Y704559D01*
Y700559D01*
X682368Y699791D01*
X682665Y699075D01*
X683137Y698460D01*
X683752Y697988D01*
X684468Y697691D01*
X685236Y697590D01*
X686005Y697691D01*
X686721Y697988D01*
X687336Y698460D01*
X687808Y699075D01*
X688104Y699791D01*
X688205Y700559D01*
Y704559D01*
X688104Y705328D01*
X687808Y706044D01*
X687336Y706659D01*
X686721Y707130D01*
X686005Y707427D01*
X685236Y707528D01*
D02*
G37*
G36*
X704549Y701575D02*
X701968D01*
Y697141D01*
X702767Y697472D01*
X703505Y698038D01*
X704071Y698777D01*
X704427Y699636D01*
X704549Y700559D01*
Y701575D01*
D02*
G37*
G36*
X700000D02*
X697420D01*
Y700559D01*
X697541Y699636D01*
X697897Y698777D01*
X698464Y698038D01*
X699202Y697472D01*
X700000Y697141D01*
Y701575D01*
D02*
G37*
G36*
X27493Y686283D02*
X26664D01*
X25863Y686069D01*
X25145Y685654D01*
X24558Y685068D01*
X24144Y684350D01*
X23929Y683548D01*
Y682719D01*
X24144Y681918D01*
X24558Y681200D01*
X25145Y680614D01*
X25863Y680199D01*
X26664Y679984D01*
X27493D01*
X28294Y680199D01*
X29013Y680614D01*
X29599Y681200D01*
X30014Y681918D01*
X30228Y682719D01*
Y683548D01*
X30014Y684350D01*
X29599Y685068D01*
X29013Y685654D01*
X28294Y686069D01*
X27493Y686283D01*
D02*
G37*
G36*
X20493Y682283D02*
X19664D01*
X18863Y682069D01*
X18145Y681654D01*
X17558Y681068D01*
X17144Y680350D01*
X16929Y679549D01*
Y678719D01*
X17144Y677918D01*
X17558Y677200D01*
X18145Y676614D01*
X18863Y676199D01*
X19664Y675984D01*
X20493D01*
X21294Y676199D01*
X22013Y676614D01*
X22599Y677200D01*
X23014Y677918D01*
X23228Y678719D01*
Y679549D01*
X23014Y680350D01*
X22599Y681068D01*
X22013Y681654D01*
X21294Y682069D01*
X20493Y682283D01*
D02*
G37*
G36*
X86495Y678150D02*
X85946D01*
X85440Y677940D01*
X85052Y677552D01*
X84842Y677046D01*
Y676498D01*
X85052Y675991D01*
X85440Y675603D01*
X85946Y675394D01*
X86495D01*
X87001Y675603D01*
X87389Y675991D01*
X87598Y676498D01*
Y677046D01*
X87389Y677552D01*
X87001Y677940D01*
X86495Y678150D01*
D02*
G37*
G36*
X27493Y678284D02*
X26664D01*
X25863Y678069D01*
X25145Y677654D01*
X24558Y677068D01*
X24144Y676350D01*
X23929Y675549D01*
Y674719D01*
X24144Y673918D01*
X24558Y673200D01*
X25145Y672614D01*
X25863Y672199D01*
X26664Y671984D01*
X27493D01*
X28294Y672199D01*
X29013Y672614D01*
X29599Y673200D01*
X30014Y673918D01*
X30228Y674719D01*
Y675549D01*
X30014Y676350D01*
X29599Y677068D01*
X29013Y677654D01*
X28294Y678069D01*
X27493Y678284D01*
D02*
G37*
G36*
X20493Y674284D02*
X19664D01*
X18863Y674069D01*
X18145Y673654D01*
X17558Y673068D01*
X17144Y672350D01*
X16929Y671549D01*
Y670719D01*
X17144Y669918D01*
X17558Y669200D01*
X18145Y668614D01*
X18863Y668199D01*
X19664Y667984D01*
X20493D01*
X21294Y668199D01*
X22013Y668614D01*
X22599Y669200D01*
X23014Y669918D01*
X23228Y670719D01*
Y671549D01*
X23014Y672350D01*
X22599Y673068D01*
X22013Y673654D01*
X21294Y674069D01*
X20493Y674284D01*
D02*
G37*
G36*
X27493Y670284D02*
X26664D01*
X25863Y670069D01*
X25145Y669654D01*
X24558Y669068D01*
X24144Y668350D01*
X23929Y667549D01*
Y666719D01*
X24144Y665918D01*
X24558Y665200D01*
X25145Y664614D01*
X25863Y664199D01*
X26664Y663984D01*
X27493D01*
X28294Y664199D01*
X29013Y664614D01*
X29599Y665200D01*
X30014Y665918D01*
X30228Y666719D01*
Y667549D01*
X30014Y668350D01*
X29599Y669068D01*
X29013Y669654D01*
X28294Y670069D01*
X27493Y670284D01*
D02*
G37*
G36*
X41219Y667520D02*
X40671D01*
X40164Y667310D01*
X39777Y666922D01*
X39567Y666416D01*
Y665868D01*
X39777Y665361D01*
X39851Y665287D01*
X40152Y664961D01*
X39851Y664634D01*
X39777Y664560D01*
X39567Y664054D01*
Y663506D01*
X39777Y662999D01*
X40164Y662611D01*
X40671Y662402D01*
X41219D01*
X41725Y662611D01*
X42113Y662999D01*
X42323Y663506D01*
Y664054D01*
X42113Y664560D01*
X42039Y664634D01*
X41737Y664961D01*
X42039Y665287D01*
X42113Y665361D01*
X42323Y665868D01*
Y666416D01*
X42113Y666922D01*
X41725Y667310D01*
X41219Y667520D01*
D02*
G37*
G36*
X20493Y666284D02*
X19664D01*
X18863Y666069D01*
X18145Y665654D01*
X17558Y665068D01*
X17144Y664350D01*
X16929Y663549D01*
Y662719D01*
X17144Y661918D01*
X17558Y661200D01*
X18145Y660614D01*
X18863Y660199D01*
X19664Y659984D01*
X20493D01*
X21294Y660199D01*
X22013Y660614D01*
X22599Y661200D01*
X23014Y661918D01*
X23228Y662719D01*
Y663549D01*
X23014Y664350D01*
X22599Y665068D01*
X22013Y665654D01*
X21294Y666069D01*
X20493Y666284D01*
D02*
G37*
G36*
X27493Y662284D02*
X26664D01*
X25863Y662069D01*
X25145Y661654D01*
X24558Y661068D01*
X24144Y660350D01*
X23929Y659549D01*
Y658719D01*
X24144Y657918D01*
X24558Y657200D01*
X25145Y656614D01*
X25863Y656199D01*
X26664Y655984D01*
X27493D01*
X28294Y656199D01*
X29013Y656614D01*
X29599Y657200D01*
X30014Y657918D01*
X30228Y658719D01*
Y659549D01*
X30014Y660350D01*
X29599Y661068D01*
X29013Y661654D01*
X28294Y662069D01*
X27493Y662284D01*
D02*
G37*
G36*
X23228Y658284D02*
X16929D01*
Y651984D01*
X23228D01*
Y658284D01*
D02*
G37*
G36*
X24563Y642780D02*
Y638118D01*
X29225D01*
X28898Y639337D01*
X28147Y640639D01*
X27084Y641702D01*
X25782Y642453D01*
X24563Y642780D01*
D02*
G37*
G36*
X22594D02*
X21375Y642453D01*
X20074Y641702D01*
X19011Y640639D01*
X18259Y639337D01*
X17932Y638118D01*
X22594D01*
Y642780D01*
D02*
G37*
%LPD*%
G36*
X36694Y728396D02*
X36763Y728358D01*
X36829Y728329D01*
X36893Y728308D01*
X36954Y728296D01*
X37013Y728292D01*
X37069Y728296D01*
X37124Y728309D01*
X37175Y728331D01*
X37225Y728361D01*
X36982Y727004D01*
X36339Y727261D01*
X36623Y728442D01*
X36694Y728396D01*
D02*
G37*
%LPC*%
G36*
X219291Y654712D02*
X217717D01*
X216894Y654604D01*
X216128Y654287D01*
X215470Y653782D01*
X214965Y653124D01*
X214648Y652358D01*
X214540Y651535D01*
X214648Y650713D01*
X214965Y649947D01*
X215470Y649289D01*
X216128Y648784D01*
X216894Y648467D01*
X217717Y648359D01*
X219291D01*
X220113Y648467D01*
X220880Y648784D01*
X221538Y649289D01*
X222042Y649947D01*
X222360Y650713D01*
X222468Y651535D01*
X222360Y652358D01*
X222042Y653124D01*
X221538Y653782D01*
X220880Y654287D01*
X220113Y654604D01*
X219291Y654712D01*
D02*
G37*
G36*
X207492Y648413D02*
X205917D01*
X205095Y648305D01*
X204329Y647987D01*
X203671Y647482D01*
X203166Y646825D01*
X202849Y646058D01*
X202741Y645236D01*
X202849Y644414D01*
X203166Y643648D01*
X203671Y642990D01*
X204329Y642485D01*
X205095Y642168D01*
X205917Y642059D01*
X207492D01*
X208314Y642168D01*
X209081Y642485D01*
X209738Y642990D01*
X210243Y643648D01*
X210561Y644414D01*
X210669Y645236D01*
X210561Y646058D01*
X210243Y646825D01*
X209738Y647482D01*
X209081Y647987D01*
X208314Y648305D01*
X207492Y648413D01*
D02*
G37*
G36*
X219291Y642114D02*
X217717D01*
X216894Y642005D01*
X216128Y641688D01*
X215470Y641183D01*
X214965Y640525D01*
X214648Y639759D01*
X214540Y638937D01*
X214648Y638115D01*
X214965Y637349D01*
X215470Y636691D01*
X216128Y636186D01*
X216894Y635869D01*
X217717Y635760D01*
X219291D01*
X220113Y635869D01*
X220880Y636186D01*
X221538Y636691D01*
X222042Y637349D01*
X222360Y638115D01*
X222468Y638937D01*
X222360Y639759D01*
X222042Y640525D01*
X221538Y641183D01*
X220880Y641688D01*
X220113Y642005D01*
X219291Y642114D01*
D02*
G37*
G36*
X207492Y635815D02*
X205917D01*
X205095Y635706D01*
X204329Y635389D01*
X203671Y634884D01*
X203166Y634226D01*
X202849Y633460D01*
X202741Y632638D01*
X202849Y631816D01*
X203166Y631049D01*
X203671Y630391D01*
X204329Y629887D01*
X205095Y629569D01*
X205917Y629461D01*
X207492D01*
X208314Y629569D01*
X209081Y629887D01*
X209738Y630391D01*
X210243Y631049D01*
X210561Y631816D01*
X210669Y632638D01*
X210561Y633460D01*
X210243Y634226D01*
X209738Y634884D01*
X209081Y635389D01*
X208314Y635706D01*
X207492Y635815D01*
D02*
G37*
G36*
X219291Y629515D02*
X217717D01*
X216894Y629407D01*
X216128Y629090D01*
X215470Y628585D01*
X214965Y627927D01*
X214648Y627161D01*
X214540Y626339D01*
X214648Y625516D01*
X214965Y624750D01*
X215470Y624092D01*
X216128Y623587D01*
X216894Y623270D01*
X217717Y623162D01*
X219291D01*
X220113Y623270D01*
X220880Y623587D01*
X221538Y624092D01*
X222042Y624750D01*
X222360Y625516D01*
X222468Y626339D01*
X222360Y627161D01*
X222042Y627927D01*
X221538Y628585D01*
X220880Y629090D01*
X220113Y629407D01*
X219291Y629515D01*
D02*
G37*
G36*
X149093Y624213D02*
X148545D01*
X148038Y624003D01*
X147651Y623615D01*
X147441Y623109D01*
Y622561D01*
X147651Y622054D01*
X148038Y621666D01*
X148380Y621525D01*
Y620995D01*
X148038Y620853D01*
X147651Y620466D01*
X147441Y619959D01*
Y619411D01*
X147651Y618904D01*
X148038Y618517D01*
X148545Y618307D01*
X149093D01*
X149599Y618517D01*
X149987Y618904D01*
X150197Y619411D01*
Y619959D01*
X149987Y620466D01*
X149599Y620853D01*
X149258Y620995D01*
Y621525D01*
X149599Y621666D01*
X149987Y622054D01*
X150197Y622561D01*
Y623109D01*
X149987Y623615D01*
X149599Y624003D01*
X149093Y624213D01*
D02*
G37*
G36*
X207492Y623216D02*
X205917D01*
X205095Y623108D01*
X204329Y622790D01*
X203671Y622286D01*
X203166Y621628D01*
X202849Y620861D01*
X202741Y620039D01*
X202849Y619217D01*
X203166Y618451D01*
X203671Y617793D01*
X204329Y617288D01*
X205095Y616971D01*
X205917Y616863D01*
X207492D01*
X208314Y616971D01*
X209081Y617288D01*
X209738Y617793D01*
X210243Y618451D01*
X210561Y619217D01*
X210669Y620039D01*
X210561Y620861D01*
X210243Y621628D01*
X209738Y622286D01*
X209081Y622790D01*
X208314Y623108D01*
X207492Y623216D01*
D02*
G37*
G36*
X149093Y617520D02*
X148545D01*
X148038Y617310D01*
X147651Y616922D01*
X147441Y616416D01*
Y615868D01*
X147651Y615361D01*
X148038Y614973D01*
X148545Y614764D01*
X149093D01*
X149599Y614973D01*
X149987Y615361D01*
X150197Y615868D01*
Y616416D01*
X149987Y616922D01*
X149599Y617310D01*
X149093Y617520D01*
D02*
G37*
G36*
X143581Y616732D02*
X143033D01*
X142526Y616523D01*
X142139Y616135D01*
X141929Y615628D01*
Y615080D01*
X142139Y614574D01*
X142526Y614186D01*
X143033Y613976D01*
X143581D01*
X144088Y614186D01*
X144475Y614574D01*
X144685Y615080D01*
Y615628D01*
X144475Y616135D01*
X144088Y616523D01*
X143581Y616732D01*
D02*
G37*
G36*
X93975Y616339D02*
X93427D01*
X92920Y616129D01*
X92533Y615741D01*
X92323Y615235D01*
Y614686D01*
X92533Y614180D01*
X92920Y613793D01*
X93427Y613583D01*
X93975D01*
X94481Y613793D01*
X94869Y614180D01*
X95079Y614686D01*
Y615235D01*
X94869Y615741D01*
X94481Y616129D01*
X93975Y616339D01*
D02*
G37*
G36*
X41785Y620323D02*
X40892D01*
X40029Y620092D01*
X39255Y619645D01*
X38623Y619013D01*
X38176Y618239D01*
X37945Y617376D01*
Y616482D01*
X38176Y615619D01*
X38623Y614845D01*
X39255Y614214D01*
X40029Y613767D01*
X40892Y613535D01*
X41785D01*
X42649Y613767D01*
X43422Y614214D01*
X44054Y614845D01*
X44501Y615619D01*
X44732Y616482D01*
Y617376D01*
X44501Y618239D01*
X44054Y619013D01*
X43422Y619645D01*
X42649Y620092D01*
X41785Y620323D01*
D02*
G37*
G36*
X11785D02*
X10892D01*
X10029Y620092D01*
X9255Y619645D01*
X8623Y619013D01*
X8176Y618239D01*
X7945Y617376D01*
Y616482D01*
X8176Y615619D01*
X8623Y614845D01*
X9255Y614214D01*
X10029Y613767D01*
X10892Y613535D01*
X11785D01*
X12649Y613767D01*
X13422Y614214D01*
X14054Y614845D01*
X14501Y615619D01*
X14732Y616482D01*
Y617376D01*
X14501Y618239D01*
X14054Y619013D01*
X13422Y619645D01*
X12649Y620092D01*
X11785Y620323D01*
D02*
G37*
G36*
X219291Y616917D02*
X217717D01*
X216894Y616809D01*
X216128Y616491D01*
X215470Y615986D01*
X214965Y615329D01*
X214648Y614562D01*
X214540Y613740D01*
X214648Y612918D01*
X214965Y612152D01*
X215470Y611494D01*
X216128Y610989D01*
X216894Y610672D01*
X217717Y610563D01*
X219291D01*
X220113Y610672D01*
X220880Y610989D01*
X221538Y611494D01*
X222042Y612152D01*
X222360Y612918D01*
X222468Y613740D01*
X222360Y614562D01*
X222042Y615329D01*
X221538Y615986D01*
X220880Y616491D01*
X220113Y616809D01*
X219291Y616917D01*
D02*
G37*
G36*
X207492Y610618D02*
X205917D01*
X205095Y610509D01*
X204329Y610192D01*
X203671Y609687D01*
X203166Y609029D01*
X202849Y608263D01*
X202741Y607441D01*
X202849Y606619D01*
X203166Y605853D01*
X203671Y605195D01*
X204329Y604690D01*
X205095Y604372D01*
X205917Y604264D01*
X207492D01*
X208314Y604372D01*
X209081Y604690D01*
X209738Y605195D01*
X210243Y605853D01*
X210561Y606619D01*
X210669Y607441D01*
X210561Y608263D01*
X210243Y609029D01*
X209738Y609687D01*
X209081Y610192D01*
X208314Y610509D01*
X207492Y610618D01*
D02*
G37*
G36*
X41785Y610323D02*
X40892D01*
X40029Y610092D01*
X39255Y609645D01*
X38623Y609013D01*
X38176Y608239D01*
X37945Y607376D01*
Y606482D01*
X38176Y605619D01*
X38623Y604845D01*
X39255Y604213D01*
X40029Y603767D01*
X40892Y603535D01*
X41785D01*
X42649Y603767D01*
X43422Y604213D01*
X44054Y604845D01*
X44501Y605619D01*
X44732Y606482D01*
Y607376D01*
X44501Y608239D01*
X44054Y609013D01*
X43422Y609645D01*
X42649Y610092D01*
X41785Y610323D01*
D02*
G37*
G36*
X219291Y604319D02*
X217717D01*
X216894Y604210D01*
X216128Y603893D01*
X215470Y603388D01*
X214965Y602730D01*
X214648Y601964D01*
X214540Y601142D01*
X214648Y600319D01*
X214965Y599553D01*
X215470Y598895D01*
X216128Y598390D01*
X216894Y598073D01*
X217717Y597965D01*
X219291D01*
X220113Y598073D01*
X220880Y598390D01*
X221538Y598895D01*
X222042Y599553D01*
X222360Y600319D01*
X222468Y601142D01*
X222360Y601964D01*
X222042Y602730D01*
X221538Y603388D01*
X220880Y603893D01*
X220113Y604210D01*
X219291Y604319D01*
D02*
G37*
G36*
X42323Y600790D02*
Y597913D01*
X45200D01*
X45051Y598467D01*
X44527Y599375D01*
X43785Y600117D01*
X42876Y600642D01*
X42323Y600790D01*
D02*
G37*
G36*
X40354D02*
X39801Y600642D01*
X38892Y600117D01*
X38150Y599375D01*
X37626Y598467D01*
X37477Y597913D01*
X40354D01*
Y600790D01*
D02*
G37*
G36*
X207689Y598589D02*
Y595827D01*
X211133D01*
X210759Y596729D01*
X210160Y597510D01*
X209378Y598109D01*
X208469Y598486D01*
X207689Y598589D01*
D02*
G37*
G36*
X205720Y598589D02*
X204941Y598486D01*
X204031Y598109D01*
X203250Y597510D01*
X202650Y596729D01*
X202277Y595827D01*
X205720D01*
Y598589D01*
D02*
G37*
G36*
X45200Y595945D02*
X42323D01*
Y593068D01*
X42876Y593216D01*
X43785Y593741D01*
X44527Y594483D01*
X45051Y595391D01*
X45200Y595945D01*
D02*
G37*
G36*
X40354D02*
X37477D01*
X37626Y595391D01*
X38150Y594483D01*
X38892Y593741D01*
X39801Y593216D01*
X40354Y593068D01*
Y595945D01*
D02*
G37*
G36*
X205720Y593858D02*
X202277D01*
X202650Y592956D01*
X203250Y592175D01*
X204031Y591575D01*
X204941Y591199D01*
X205720Y591096D01*
Y593858D01*
D02*
G37*
G36*
X211133D02*
X207689D01*
Y591096D01*
X208469Y591199D01*
X209378Y591575D01*
X210160Y592175D01*
X210759Y592956D01*
X211133Y593858D01*
D02*
G37*
G36*
X54791Y592550D02*
X54243D01*
X53737Y592340D01*
X53349Y591953D01*
X53139Y591446D01*
Y590898D01*
X53349Y590392D01*
X53737Y590004D01*
X54243Y589794D01*
X54791D01*
X55298Y590004D01*
X55686Y590392D01*
X55895Y590898D01*
Y591446D01*
X55686Y591953D01*
X55298Y592340D01*
X54791Y592550D01*
D02*
G37*
G36*
X186101Y589567D02*
X185553D01*
X185046Y589357D01*
X184659Y588970D01*
X184449Y588463D01*
Y587915D01*
X184659Y587408D01*
X185046Y587021D01*
X185553Y586811D01*
X186101D01*
X186607Y587021D01*
X186995Y587408D01*
X187205Y587915D01*
Y588463D01*
X186995Y588970D01*
X186607Y589357D01*
X186101Y589567D01*
D02*
G37*
G36*
X219291Y590145D02*
X217717D01*
X216894Y590037D01*
X216128Y589720D01*
X215470Y589215D01*
X214965Y588557D01*
X214648Y587791D01*
X214540Y586969D01*
X214648Y586146D01*
X214965Y585380D01*
X215470Y584722D01*
X216128Y584217D01*
X216894Y583900D01*
X217717Y583792D01*
X219291D01*
X220113Y583900D01*
X220880Y584217D01*
X221538Y584722D01*
X222042Y585380D01*
X222360Y586146D01*
X222468Y586969D01*
X222360Y587791D01*
X222042Y588557D01*
X221538Y589215D01*
X220880Y589720D01*
X220113Y590037D01*
X219291Y590145D01*
D02*
G37*
G36*
X41785Y590323D02*
X40892D01*
X40029Y590092D01*
X39255Y589645D01*
X38623Y589013D01*
X38176Y588239D01*
X37945Y587376D01*
Y586482D01*
X38176Y585619D01*
X38623Y584845D01*
X39255Y584213D01*
X40029Y583767D01*
X40892Y583535D01*
X41785D01*
X42649Y583767D01*
X43422Y584213D01*
X44054Y584845D01*
X44501Y585619D01*
X44732Y586482D01*
Y587376D01*
X44501Y588239D01*
X44054Y589013D01*
X43422Y589645D01*
X42649Y590092D01*
X41785Y590323D01*
D02*
G37*
G36*
X11785D02*
X10892D01*
X10029Y590092D01*
X9255Y589645D01*
X8623Y589013D01*
X8176Y588239D01*
X7945Y587376D01*
Y586482D01*
X8176Y585619D01*
X8623Y584845D01*
X9255Y584213D01*
X10029Y583767D01*
X10892Y583535D01*
X11785D01*
X12649Y583767D01*
X13422Y584213D01*
X14054Y584845D01*
X14501Y585619D01*
X14732Y586482D01*
Y587376D01*
X14501Y588239D01*
X14054Y589013D01*
X13422Y589645D01*
X12649Y590092D01*
X11785Y590323D01*
D02*
G37*
G36*
X41785Y580323D02*
X40892D01*
X40029Y580092D01*
X39255Y579645D01*
X38623Y579013D01*
X38176Y578239D01*
X37945Y577376D01*
Y576482D01*
X38176Y575619D01*
X38623Y574845D01*
X39255Y574214D01*
X40029Y573767D01*
X40892Y573535D01*
X41785D01*
X42649Y573767D01*
X43422Y574214D01*
X44054Y574845D01*
X44501Y575619D01*
X44732Y576482D01*
Y577376D01*
X44501Y578239D01*
X44054Y579013D01*
X43422Y579645D01*
X42649Y580092D01*
X41785Y580323D01*
D02*
G37*
G36*
X11785D02*
X10892D01*
X10029Y580092D01*
X9255Y579645D01*
X8623Y579013D01*
X8176Y578239D01*
X7945Y577376D01*
Y576482D01*
X8176Y575619D01*
X8623Y574845D01*
X9255Y574214D01*
X10029Y573767D01*
X10892Y573535D01*
X11785D01*
X12649Y573767D01*
X13422Y574214D01*
X14054Y574845D01*
X14501Y575619D01*
X14732Y576482D01*
Y577376D01*
X14501Y578239D01*
X14054Y579013D01*
X13422Y579645D01*
X12649Y580092D01*
X11785Y580323D01*
D02*
G37*
G36*
X180195Y567126D02*
X179647D01*
X179141Y566916D01*
X178753Y566529D01*
X178543Y566022D01*
Y565474D01*
X178753Y564967D01*
X179141Y564580D01*
X179647Y564370D01*
X180195D01*
X180702Y564580D01*
X181089Y564967D01*
X181299Y565474D01*
Y566022D01*
X181089Y566529D01*
X180702Y566916D01*
X180195Y567126D01*
D02*
G37*
G36*
X41785Y570323D02*
X40892D01*
X40029Y570092D01*
X39255Y569645D01*
X38623Y569013D01*
X38176Y568239D01*
X37945Y567376D01*
Y566482D01*
X38176Y565619D01*
X38623Y564845D01*
X39255Y564214D01*
X40029Y563767D01*
X40892Y563535D01*
X41785D01*
X42649Y563767D01*
X43422Y564214D01*
X44054Y564845D01*
X44501Y565619D01*
X44732Y566482D01*
Y567376D01*
X44501Y568239D01*
X44054Y569013D01*
X43422Y569645D01*
X42649Y570092D01*
X41785Y570323D01*
D02*
G37*
G36*
X42323Y560790D02*
Y557913D01*
X45200D01*
X45051Y558467D01*
X44527Y559375D01*
X43785Y560117D01*
X42876Y560642D01*
X42323Y560790D01*
D02*
G37*
G36*
X40354D02*
X39801Y560642D01*
X38892Y560117D01*
X38150Y559375D01*
X37626Y558467D01*
X37477Y557913D01*
X40354D01*
Y560790D01*
D02*
G37*
G36*
X45200Y555945D02*
X42323D01*
Y553068D01*
X42876Y553216D01*
X43785Y553741D01*
X44527Y554483D01*
X45051Y555391D01*
X45200Y555945D01*
D02*
G37*
G36*
X40354D02*
X37477D01*
X37626Y555391D01*
X38150Y554483D01*
X38892Y553741D01*
X39801Y553216D01*
X40354Y553068D01*
Y555945D01*
D02*
G37*
G36*
X55754Y552093D02*
X55206D01*
X54699Y551883D01*
X54312Y551495D01*
X54102Y550989D01*
Y550440D01*
X54312Y549934D01*
X54699Y549546D01*
X55206Y549337D01*
X55754D01*
X56260Y549546D01*
X56648Y549934D01*
X56858Y550440D01*
Y550989D01*
X56648Y551495D01*
X56260Y551883D01*
X55754Y552093D01*
D02*
G37*
G36*
X41785Y550323D02*
X40892D01*
X40029Y550092D01*
X39255Y549645D01*
X38623Y549013D01*
X38176Y548239D01*
X37945Y547376D01*
Y546482D01*
X38176Y545619D01*
X38623Y544845D01*
X39255Y544213D01*
X40029Y543767D01*
X40892Y543535D01*
X41785D01*
X42649Y543767D01*
X43422Y544213D01*
X44054Y544845D01*
X44501Y545619D01*
X44732Y546482D01*
Y547376D01*
X44501Y548239D01*
X44054Y549013D01*
X43422Y549645D01*
X42649Y550092D01*
X41785Y550323D01*
D02*
G37*
G36*
X11785D02*
X10892D01*
X10029Y550092D01*
X9255Y549645D01*
X8623Y549013D01*
X8176Y548239D01*
X7945Y547376D01*
Y546482D01*
X8176Y545619D01*
X8623Y544845D01*
X9255Y544213D01*
X10029Y543767D01*
X10892Y543535D01*
X11785D01*
X12649Y543767D01*
X13422Y544213D01*
X14054Y544845D01*
X14501Y545619D01*
X14732Y546482D01*
Y547376D01*
X14501Y548239D01*
X14054Y549013D01*
X13422Y549645D01*
X12649Y550092D01*
X11785Y550323D01*
D02*
G37*
G36*
X41785Y540323D02*
X40892D01*
X40029Y540092D01*
X39255Y539645D01*
X38623Y539013D01*
X38176Y538239D01*
X37945Y537376D01*
Y536482D01*
X38176Y535619D01*
X38623Y534845D01*
X39255Y534213D01*
X40029Y533767D01*
X40892Y533535D01*
X41785D01*
X42649Y533767D01*
X43422Y534213D01*
X44054Y534845D01*
X44501Y535619D01*
X44732Y536482D01*
Y537376D01*
X44501Y538239D01*
X44054Y539013D01*
X43422Y539645D01*
X42649Y540092D01*
X41785Y540323D01*
D02*
G37*
G36*
X11785D02*
X10892D01*
X10029Y540092D01*
X9255Y539645D01*
X8623Y539013D01*
X8176Y538239D01*
X7945Y537376D01*
Y536482D01*
X8176Y535619D01*
X8623Y534845D01*
X9255Y534213D01*
X10029Y533767D01*
X10892Y533535D01*
X11785D01*
X12649Y533767D01*
X13422Y534213D01*
X14054Y534845D01*
X14501Y535619D01*
X14732Y536482D01*
Y537376D01*
X14501Y538239D01*
X14054Y539013D01*
X13422Y539645D01*
X12649Y540092D01*
X11785Y540323D01*
D02*
G37*
G36*
X41785Y530323D02*
X40892D01*
X40029Y530091D01*
X39255Y529645D01*
X38623Y529013D01*
X38176Y528239D01*
X37945Y527376D01*
Y526482D01*
X38176Y525619D01*
X38623Y524845D01*
X39255Y524214D01*
X40029Y523767D01*
X40892Y523535D01*
X41785D01*
X42649Y523767D01*
X43422Y524214D01*
X44054Y524845D01*
X44501Y525619D01*
X44732Y526482D01*
Y527376D01*
X44501Y528239D01*
X44054Y529013D01*
X43422Y529645D01*
X42649Y530091D01*
X41785Y530323D01*
D02*
G37*
G36*
X42323Y520790D02*
Y517913D01*
X45200D01*
X45051Y518467D01*
X44527Y519376D01*
X43785Y520117D01*
X42876Y520642D01*
X42323Y520790D01*
D02*
G37*
G36*
X40354D02*
X39801Y520642D01*
X38892Y520117D01*
X38150Y519376D01*
X37626Y518467D01*
X37477Y517913D01*
X40354D01*
Y520790D01*
D02*
G37*
G36*
X45200Y515945D02*
X42323D01*
Y513068D01*
X42876Y513216D01*
X43785Y513741D01*
X44527Y514483D01*
X45051Y515391D01*
X45200Y515945D01*
D02*
G37*
G36*
X40354D02*
X37477D01*
X37626Y515391D01*
X38150Y514483D01*
X38892Y513741D01*
X39801Y513216D01*
X40354Y513068D01*
Y515945D01*
D02*
G37*
G36*
X55501Y512273D02*
X54953D01*
X54446Y512063D01*
X54058Y511675D01*
X53849Y511169D01*
Y510621D01*
X54058Y510114D01*
X54446Y509726D01*
X54953Y509517D01*
X55501D01*
X56007Y509726D01*
X56395Y510114D01*
X56605Y510621D01*
Y511169D01*
X56395Y511675D01*
X56007Y512063D01*
X55501Y512273D01*
D02*
G37*
G36*
X41785Y510323D02*
X40892D01*
X40029Y510091D01*
X39255Y509645D01*
X38623Y509013D01*
X38176Y508239D01*
X37945Y507376D01*
Y506482D01*
X38176Y505619D01*
X38623Y504845D01*
X39255Y504213D01*
X40029Y503767D01*
X40892Y503535D01*
X41785D01*
X42649Y503767D01*
X43422Y504213D01*
X44054Y504845D01*
X44501Y505619D01*
X44732Y506482D01*
Y507376D01*
X44501Y508239D01*
X44054Y509013D01*
X43422Y509645D01*
X42649Y510091D01*
X41785Y510323D01*
D02*
G37*
G36*
X11785D02*
X10892D01*
X10029Y510091D01*
X9255Y509645D01*
X8623Y509013D01*
X8176Y508239D01*
X7945Y507376D01*
Y506482D01*
X8176Y505619D01*
X8623Y504845D01*
X9255Y504213D01*
X10029Y503767D01*
X10892Y503535D01*
X11785D01*
X12649Y503767D01*
X13422Y504213D01*
X14054Y504845D01*
X14501Y505619D01*
X14732Y506482D01*
Y507376D01*
X14501Y508239D01*
X14054Y509013D01*
X13422Y509645D01*
X12649Y510091D01*
X11785Y510323D01*
D02*
G37*
G36*
X41785Y500323D02*
X40892D01*
X40029Y500092D01*
X39255Y499645D01*
X38623Y499013D01*
X38176Y498239D01*
X37945Y497376D01*
Y496482D01*
X38176Y495619D01*
X38623Y494845D01*
X39255Y494213D01*
X40029Y493767D01*
X40892Y493535D01*
X41785D01*
X42649Y493767D01*
X43422Y494213D01*
X44054Y494845D01*
X44501Y495619D01*
X44732Y496482D01*
Y497376D01*
X44501Y498239D01*
X44054Y499013D01*
X43422Y499645D01*
X42649Y500092D01*
X41785Y500323D01*
D02*
G37*
G36*
X11785D02*
X10892D01*
X10029Y500092D01*
X9255Y499645D01*
X8623Y499013D01*
X8176Y498239D01*
X7945Y497376D01*
Y496482D01*
X8176Y495619D01*
X8623Y494845D01*
X9255Y494213D01*
X10029Y493767D01*
X10892Y493535D01*
X11785D01*
X12649Y493767D01*
X13422Y494213D01*
X14054Y494845D01*
X14501Y495619D01*
X14732Y496482D01*
Y497376D01*
X14501Y498239D01*
X14054Y499013D01*
X13422Y499645D01*
X12649Y500092D01*
X11785Y500323D01*
D02*
G37*
G36*
X41785Y490323D02*
X40892D01*
X40029Y490092D01*
X39255Y489645D01*
X38623Y489013D01*
X38176Y488239D01*
X37945Y487376D01*
Y486482D01*
X38176Y485619D01*
X38623Y484845D01*
X39255Y484213D01*
X40029Y483767D01*
X40892Y483535D01*
X41785D01*
X42649Y483767D01*
X43422Y484213D01*
X44054Y484845D01*
X44501Y485619D01*
X44732Y486482D01*
Y487376D01*
X44501Y488239D01*
X44054Y489013D01*
X43422Y489645D01*
X42649Y490092D01*
X41785Y490323D01*
D02*
G37*
G36*
X42323Y480790D02*
Y477913D01*
X45200D01*
X45051Y478467D01*
X44527Y479376D01*
X43785Y480117D01*
X42876Y480642D01*
X42323Y480790D01*
D02*
G37*
G36*
X40354D02*
X39801Y480642D01*
X38892Y480117D01*
X38150Y479376D01*
X37626Y478467D01*
X37477Y477913D01*
X40354D01*
Y480790D01*
D02*
G37*
G36*
X45200Y475945D02*
X42323D01*
Y473068D01*
X42876Y473216D01*
X43785Y473741D01*
X44527Y474483D01*
X45051Y475391D01*
X45200Y475945D01*
D02*
G37*
G36*
X40354D02*
X37477D01*
X37626Y475391D01*
X38150Y474483D01*
X38892Y473741D01*
X39801Y473216D01*
X40354Y473068D01*
Y475945D01*
D02*
G37*
G36*
X55613Y472626D02*
X55064D01*
X54558Y472416D01*
X54170Y472029D01*
X53961Y471522D01*
Y470974D01*
X54170Y470468D01*
X54558Y470080D01*
X55064Y469870D01*
X55613D01*
X56119Y470080D01*
X56507Y470468D01*
X56717Y470974D01*
Y471522D01*
X56507Y472029D01*
X56119Y472416D01*
X55613Y472626D01*
D02*
G37*
G36*
X41785Y470323D02*
X40892D01*
X40029Y470092D01*
X39255Y469645D01*
X38623Y469013D01*
X38176Y468239D01*
X37945Y467376D01*
Y466482D01*
X38176Y465619D01*
X38623Y464845D01*
X39255Y464214D01*
X40029Y463767D01*
X40892Y463535D01*
X41785D01*
X42649Y463767D01*
X43422Y464214D01*
X44054Y464845D01*
X44501Y465619D01*
X44732Y466482D01*
Y467376D01*
X44501Y468239D01*
X44054Y469013D01*
X43422Y469645D01*
X42649Y470092D01*
X41785Y470323D01*
D02*
G37*
G36*
X11785D02*
X10892D01*
X10029Y470092D01*
X9255Y469645D01*
X8623Y469013D01*
X8176Y468239D01*
X7945Y467376D01*
Y466482D01*
X8176Y465619D01*
X8623Y464845D01*
X9255Y464214D01*
X10029Y463767D01*
X10892Y463535D01*
X11785D01*
X12649Y463767D01*
X13422Y464214D01*
X14054Y464845D01*
X14501Y465619D01*
X14732Y466482D01*
Y467376D01*
X14501Y468239D01*
X14054Y469013D01*
X13422Y469645D01*
X12649Y470092D01*
X11785Y470323D01*
D02*
G37*
G36*
X41785Y460323D02*
X40892D01*
X40029Y460092D01*
X39255Y459645D01*
X38623Y459013D01*
X38176Y458239D01*
X37945Y457376D01*
Y456482D01*
X38176Y455619D01*
X38623Y454845D01*
X39255Y454213D01*
X40029Y453767D01*
X40892Y453535D01*
X41785D01*
X42649Y453767D01*
X43422Y454213D01*
X44054Y454845D01*
X44501Y455619D01*
X44732Y456482D01*
Y457376D01*
X44501Y458239D01*
X44054Y459013D01*
X43422Y459645D01*
X42649Y460092D01*
X41785Y460323D01*
D02*
G37*
G36*
X11785D02*
X10892D01*
X10029Y460092D01*
X9255Y459645D01*
X8623Y459013D01*
X8176Y458239D01*
X7945Y457376D01*
Y456482D01*
X8176Y455619D01*
X8623Y454845D01*
X9255Y454213D01*
X10029Y453767D01*
X10892Y453535D01*
X11785D01*
X12649Y453767D01*
X13422Y454213D01*
X14054Y454845D01*
X14501Y455619D01*
X14732Y456482D01*
Y457376D01*
X14501Y458239D01*
X14054Y459013D01*
X13422Y459645D01*
X12649Y460092D01*
X11785Y460323D01*
D02*
G37*
G36*
X41785Y450323D02*
X40892D01*
X40029Y450092D01*
X39255Y449645D01*
X38623Y449013D01*
X38176Y448239D01*
X37945Y447376D01*
Y446482D01*
X38176Y445619D01*
X38623Y444845D01*
X39255Y444213D01*
X40029Y443767D01*
X40892Y443535D01*
X41785D01*
X42649Y443767D01*
X43422Y444213D01*
X44054Y444845D01*
X44501Y445619D01*
X44732Y446482D01*
Y447376D01*
X44501Y448239D01*
X44054Y449013D01*
X43422Y449645D01*
X42649Y450092D01*
X41785Y450323D01*
D02*
G37*
G36*
X42323Y440790D02*
Y437913D01*
X45200D01*
X45051Y438467D01*
X44527Y439375D01*
X43785Y440117D01*
X42876Y440642D01*
X42323Y440790D01*
D02*
G37*
G36*
X40354D02*
X39801Y440642D01*
X38892Y440117D01*
X38150Y439375D01*
X37626Y438467D01*
X37477Y437913D01*
X40354D01*
Y440790D01*
D02*
G37*
G36*
X45200Y435945D02*
X42323D01*
Y433068D01*
X42876Y433216D01*
X43785Y433741D01*
X44527Y434483D01*
X45051Y435391D01*
X45200Y435945D01*
D02*
G37*
G36*
X40354D02*
X37477D01*
X37626Y435391D01*
X38150Y434483D01*
X38892Y433741D01*
X39801Y433216D01*
X40354Y433068D01*
Y435945D01*
D02*
G37*
G36*
X55464Y432758D02*
X54916D01*
X54409Y432548D01*
X54022Y432161D01*
X53812Y431654D01*
Y431106D01*
X54022Y430599D01*
X54409Y430212D01*
X54916Y430002D01*
X55464D01*
X55971Y430212D01*
X56358Y430599D01*
X56568Y431106D01*
Y431654D01*
X56358Y432161D01*
X55971Y432548D01*
X55464Y432758D01*
D02*
G37*
G36*
X41785Y430323D02*
X40892D01*
X40029Y430092D01*
X39255Y429645D01*
X38623Y429013D01*
X38176Y428239D01*
X37945Y427376D01*
Y426482D01*
X38176Y425619D01*
X38623Y424845D01*
X39255Y424214D01*
X40029Y423767D01*
X40892Y423535D01*
X41785D01*
X42649Y423767D01*
X43422Y424214D01*
X44054Y424845D01*
X44501Y425619D01*
X44732Y426482D01*
Y427376D01*
X44501Y428239D01*
X44054Y429013D01*
X43422Y429645D01*
X42649Y430092D01*
X41785Y430323D01*
D02*
G37*
G36*
X11785D02*
X10892D01*
X10029Y430092D01*
X9255Y429645D01*
X8623Y429013D01*
X8176Y428239D01*
X7945Y427376D01*
Y426482D01*
X8176Y425619D01*
X8623Y424845D01*
X9255Y424214D01*
X10029Y423767D01*
X10892Y423535D01*
X11785D01*
X12649Y423767D01*
X13422Y424214D01*
X14054Y424845D01*
X14501Y425619D01*
X14732Y426482D01*
Y427376D01*
X14501Y428239D01*
X14054Y429013D01*
X13422Y429645D01*
X12649Y430092D01*
X11785Y430323D01*
D02*
G37*
G36*
X41785Y420323D02*
X40892D01*
X40029Y420092D01*
X39255Y419645D01*
X38623Y419013D01*
X38176Y418239D01*
X37945Y417376D01*
Y416482D01*
X38176Y415619D01*
X38623Y414845D01*
X39255Y414214D01*
X40029Y413767D01*
X40892Y413535D01*
X41785D01*
X42649Y413767D01*
X43422Y414214D01*
X44054Y414845D01*
X44501Y415619D01*
X44732Y416482D01*
Y417376D01*
X44501Y418239D01*
X44054Y419013D01*
X43422Y419645D01*
X42649Y420092D01*
X41785Y420323D01*
D02*
G37*
G36*
X11785D02*
X10892D01*
X10029Y420092D01*
X9255Y419645D01*
X8623Y419013D01*
X8176Y418239D01*
X7945Y417376D01*
Y416482D01*
X8176Y415619D01*
X8623Y414845D01*
X9255Y414214D01*
X10029Y413767D01*
X10892Y413535D01*
X11785D01*
X12649Y413767D01*
X13422Y414214D01*
X14054Y414845D01*
X14501Y415619D01*
X14732Y416482D01*
Y417376D01*
X14501Y418239D01*
X14054Y419013D01*
X13422Y419645D01*
X12649Y420092D01*
X11785Y420323D01*
D02*
G37*
G36*
X41785Y410323D02*
X40892D01*
X40029Y410092D01*
X39255Y409645D01*
X38623Y409013D01*
X38176Y408239D01*
X37945Y407376D01*
Y406482D01*
X38176Y405619D01*
X38623Y404845D01*
X39255Y404213D01*
X40029Y403767D01*
X40892Y403535D01*
X41785D01*
X42649Y403767D01*
X43422Y404213D01*
X44054Y404845D01*
X44501Y405619D01*
X44732Y406482D01*
Y407376D01*
X44501Y408239D01*
X44054Y409013D01*
X43422Y409645D01*
X42649Y410092D01*
X41785Y410323D01*
D02*
G37*
G36*
X42323Y400790D02*
Y397913D01*
X45200D01*
X45051Y398467D01*
X44527Y399376D01*
X43785Y400117D01*
X42876Y400642D01*
X42323Y400790D01*
D02*
G37*
G36*
X40354D02*
X39801Y400642D01*
X38892Y400117D01*
X38150Y399376D01*
X37626Y398467D01*
X37477Y397913D01*
X40354D01*
Y400790D01*
D02*
G37*
G36*
X45200Y395945D02*
X42323D01*
Y393068D01*
X42876Y393216D01*
X43785Y393741D01*
X44527Y394483D01*
X45051Y395391D01*
X45200Y395945D01*
D02*
G37*
G36*
X40354D02*
X37477D01*
X37626Y395391D01*
X38150Y394483D01*
X38892Y393741D01*
X39801Y393216D01*
X40354Y393068D01*
Y395945D01*
D02*
G37*
G36*
X55617Y392378D02*
X55069D01*
X54563Y392168D01*
X54175Y391780D01*
X53966Y391274D01*
Y390726D01*
X54175Y390219D01*
X54563Y389832D01*
X55069Y389622D01*
X55617D01*
X56124Y389832D01*
X56512Y390219D01*
X56721Y390726D01*
Y391274D01*
X56512Y391780D01*
X56124Y392168D01*
X55617Y392378D01*
D02*
G37*
G36*
X41785Y390323D02*
X40892D01*
X40029Y390092D01*
X39255Y389645D01*
X38623Y389013D01*
X38176Y388239D01*
X37945Y387376D01*
Y386482D01*
X38176Y385619D01*
X38623Y384845D01*
X39255Y384213D01*
X40029Y383767D01*
X40892Y383535D01*
X41785D01*
X42649Y383767D01*
X43422Y384213D01*
X44054Y384845D01*
X44501Y385619D01*
X44732Y386482D01*
Y387376D01*
X44501Y388239D01*
X44054Y389013D01*
X43422Y389645D01*
X42649Y390092D01*
X41785Y390323D01*
D02*
G37*
G36*
X11785D02*
X10892D01*
X10029Y390092D01*
X9255Y389645D01*
X8623Y389013D01*
X8176Y388239D01*
X7945Y387376D01*
Y386482D01*
X8176Y385619D01*
X8623Y384845D01*
X9255Y384213D01*
X10029Y383767D01*
X10892Y383535D01*
X11785D01*
X12649Y383767D01*
X13422Y384213D01*
X14054Y384845D01*
X14501Y385619D01*
X14732Y386482D01*
Y387376D01*
X14501Y388239D01*
X14054Y389013D01*
X13422Y389645D01*
X12649Y390092D01*
X11785Y390323D01*
D02*
G37*
G36*
X41785Y380323D02*
X40892D01*
X40029Y380092D01*
X39255Y379645D01*
X38623Y379013D01*
X38176Y378239D01*
X37945Y377376D01*
Y376482D01*
X38176Y375619D01*
X38623Y374845D01*
X39255Y374214D01*
X40029Y373767D01*
X40892Y373535D01*
X41785D01*
X42649Y373767D01*
X43422Y374214D01*
X44054Y374845D01*
X44501Y375619D01*
X44732Y376482D01*
Y377376D01*
X44501Y378239D01*
X44054Y379013D01*
X43422Y379645D01*
X42649Y380092D01*
X41785Y380323D01*
D02*
G37*
G36*
X11785D02*
X10892D01*
X10029Y380092D01*
X9255Y379645D01*
X8623Y379013D01*
X8176Y378239D01*
X7945Y377376D01*
Y376482D01*
X8176Y375619D01*
X8623Y374845D01*
X9255Y374214D01*
X10029Y373767D01*
X10892Y373535D01*
X11785D01*
X12649Y373767D01*
X13422Y374214D01*
X14054Y374845D01*
X14501Y375619D01*
X14732Y376482D01*
Y377376D01*
X14501Y378239D01*
X14054Y379013D01*
X13422Y379645D01*
X12649Y380092D01*
X11785Y380323D01*
D02*
G37*
G36*
X41785Y370323D02*
X40892D01*
X40029Y370092D01*
X39255Y369645D01*
X38623Y369013D01*
X38176Y368239D01*
X37945Y367376D01*
Y366482D01*
X38176Y365619D01*
X38623Y364845D01*
X39255Y364213D01*
X40029Y363767D01*
X40892Y363535D01*
X41785D01*
X42649Y363767D01*
X43422Y364213D01*
X44054Y364845D01*
X44501Y365619D01*
X44732Y366482D01*
Y367376D01*
X44501Y368239D01*
X44054Y369013D01*
X43422Y369645D01*
X42649Y370092D01*
X41785Y370323D01*
D02*
G37*
G36*
X42323Y360790D02*
Y357913D01*
X45200D01*
X45051Y358467D01*
X44527Y359376D01*
X43785Y360117D01*
X42876Y360642D01*
X42323Y360790D01*
D02*
G37*
G36*
X40354D02*
X39801Y360642D01*
X38892Y360117D01*
X38150Y359376D01*
X37626Y358467D01*
X37477Y357913D01*
X40354D01*
Y360790D01*
D02*
G37*
G36*
X45200Y355945D02*
X42323D01*
Y353068D01*
X42876Y353216D01*
X43785Y353741D01*
X44527Y354483D01*
X45051Y355391D01*
X45200Y355945D01*
D02*
G37*
G36*
X40354D02*
X37477D01*
X37626Y355391D01*
X38150Y354483D01*
X38892Y353741D01*
X39801Y353216D01*
X40354Y353068D01*
Y355945D01*
D02*
G37*
G36*
X55518Y352795D02*
X54970D01*
X54464Y352586D01*
X54076Y352198D01*
X53866Y351691D01*
Y351143D01*
X54076Y350637D01*
X54464Y350249D01*
X54970Y350039D01*
X55518D01*
X56025Y350249D01*
X56412Y350637D01*
X56622Y351143D01*
Y351691D01*
X56412Y352198D01*
X56025Y352586D01*
X55518Y352795D01*
D02*
G37*
G36*
X41785Y350323D02*
X40892D01*
X40029Y350092D01*
X39255Y349645D01*
X38623Y349013D01*
X38176Y348239D01*
X37945Y347376D01*
Y346482D01*
X38176Y345619D01*
X38623Y344845D01*
X39255Y344214D01*
X40029Y343767D01*
X40892Y343535D01*
X41785D01*
X42649Y343767D01*
X43422Y344214D01*
X44054Y344845D01*
X44501Y345619D01*
X44732Y346482D01*
Y347376D01*
X44501Y348239D01*
X44054Y349013D01*
X43422Y349645D01*
X42649Y350092D01*
X41785Y350323D01*
D02*
G37*
G36*
X11785D02*
X10892D01*
X10029Y350092D01*
X9255Y349645D01*
X8623Y349013D01*
X8176Y348239D01*
X7945Y347376D01*
Y346482D01*
X8176Y345619D01*
X8623Y344845D01*
X9255Y344214D01*
X10029Y343767D01*
X10892Y343535D01*
X11785D01*
X12649Y343767D01*
X13422Y344214D01*
X14054Y344845D01*
X14501Y345619D01*
X14732Y346482D01*
Y347376D01*
X14501Y348239D01*
X14054Y349013D01*
X13422Y349645D01*
X12649Y350092D01*
X11785Y350323D01*
D02*
G37*
G36*
X41864Y340323D02*
X40971D01*
X40107Y340092D01*
X39334Y339645D01*
X38702Y339013D01*
X38255Y338239D01*
X38024Y337376D01*
Y336482D01*
X38255Y335619D01*
X38702Y334845D01*
X39334Y334213D01*
X40107Y333767D01*
X40971Y333535D01*
X41864D01*
X42727Y333767D01*
X43501Y334213D01*
X44133Y334845D01*
X44580Y335619D01*
X44811Y336482D01*
Y337376D01*
X44580Y338239D01*
X44133Y339013D01*
X43501Y339645D01*
X42727Y340092D01*
X41864Y340323D01*
D02*
G37*
G36*
X11864D02*
X10971D01*
X10107Y340092D01*
X9334Y339645D01*
X8702Y339013D01*
X8255Y338239D01*
X8024Y337376D01*
Y336482D01*
X8255Y335619D01*
X8702Y334845D01*
X9334Y334213D01*
X10107Y333767D01*
X10971Y333535D01*
X11864D01*
X12727Y333767D01*
X13501Y334213D01*
X14133Y334845D01*
X14580Y335619D01*
X14811Y336482D01*
Y337376D01*
X14580Y338239D01*
X14133Y339013D01*
X13501Y339645D01*
X12727Y340092D01*
X11864Y340323D01*
D02*
G37*
G36*
X41864Y330323D02*
X40971D01*
X40107Y330092D01*
X39334Y329645D01*
X38702Y329013D01*
X38255Y328239D01*
X38024Y327376D01*
Y326482D01*
X38255Y325619D01*
X38702Y324845D01*
X39334Y324214D01*
X40107Y323767D01*
X40971Y323535D01*
X41864D01*
X42727Y323767D01*
X43501Y324214D01*
X44133Y324845D01*
X44580Y325619D01*
X44811Y326482D01*
Y327376D01*
X44580Y328239D01*
X44133Y329013D01*
X43501Y329645D01*
X42727Y330092D01*
X41864Y330323D01*
D02*
G37*
G36*
Y320323D02*
X40971D01*
X40107Y320092D01*
X39334Y319645D01*
X38702Y319013D01*
X38255Y318239D01*
X38024Y317376D01*
Y316482D01*
X38255Y315619D01*
X38702Y314845D01*
X39334Y314213D01*
X40107Y313767D01*
X40971Y313535D01*
X41864D01*
X42727Y313767D01*
X43501Y314213D01*
X44133Y314845D01*
X44580Y315619D01*
X44811Y316482D01*
Y317376D01*
X44580Y318239D01*
X44133Y319013D01*
X43501Y319645D01*
X42727Y320092D01*
X41864Y320323D01*
D02*
G37*
G36*
X54998Y313189D02*
X54450D01*
X53944Y312979D01*
X53556Y312592D01*
X53347Y312085D01*
Y311537D01*
X53556Y311031D01*
X53944Y310643D01*
X54450Y310433D01*
X54998D01*
X55505Y310643D01*
X55893Y311031D01*
X56102Y311537D01*
Y312085D01*
X55893Y312592D01*
X55505Y312979D01*
X54998Y313189D01*
D02*
G37*
G36*
X34920Y311220D02*
X34372D01*
X33865Y311011D01*
X33478Y310623D01*
X33268Y310117D01*
Y309568D01*
X33478Y309062D01*
X33865Y308674D01*
X34372Y308465D01*
X34920D01*
X35426Y308674D01*
X35814Y309062D01*
X36024Y309568D01*
Y310117D01*
X35814Y310623D01*
X35426Y311011D01*
X34920Y311220D01*
D02*
G37*
G36*
X41864Y310323D02*
X40971D01*
X40107Y310092D01*
X39334Y309645D01*
X38702Y309013D01*
X38255Y308239D01*
X38024Y307376D01*
Y306482D01*
X38255Y305619D01*
X38702Y304845D01*
X39334Y304214D01*
X40107Y303767D01*
X40971Y303535D01*
X41864D01*
X42727Y303767D01*
X43501Y304214D01*
X44133Y304845D01*
X44580Y305619D01*
X44811Y306482D01*
Y307376D01*
X44580Y308239D01*
X44133Y309013D01*
X43501Y309645D01*
X42727Y310092D01*
X41864Y310323D01*
D02*
G37*
G36*
X11864D02*
X10971D01*
X10107Y310092D01*
X9334Y309645D01*
X8702Y309013D01*
X8255Y308239D01*
X8024Y307376D01*
Y306482D01*
X8255Y305619D01*
X8702Y304845D01*
X9334Y304214D01*
X10107Y303767D01*
X10971Y303535D01*
X11864D01*
X12727Y303767D01*
X13501Y304214D01*
X14133Y304845D01*
X14580Y305619D01*
X14811Y306482D01*
Y307376D01*
X14580Y308239D01*
X14133Y309013D01*
X13501Y309645D01*
X12727Y310092D01*
X11864Y310323D01*
D02*
G37*
G36*
X41864Y300323D02*
X40971D01*
X40107Y300092D01*
X39334Y299645D01*
X38702Y299013D01*
X38255Y298239D01*
X38024Y297376D01*
Y296482D01*
X38255Y295619D01*
X38702Y294845D01*
X39334Y294214D01*
X40107Y293767D01*
X40971Y293535D01*
X41864D01*
X42727Y293767D01*
X43501Y294214D01*
X44133Y294845D01*
X44580Y295619D01*
X44811Y296482D01*
Y297376D01*
X44580Y298239D01*
X44133Y299013D01*
X43501Y299645D01*
X42727Y300092D01*
X41864Y300323D01*
D02*
G37*
G36*
X11864D02*
X10971D01*
X10107Y300092D01*
X9334Y299645D01*
X8702Y299013D01*
X8255Y298239D01*
X8024Y297376D01*
Y296482D01*
X8255Y295619D01*
X8702Y294845D01*
X9334Y294214D01*
X10107Y293767D01*
X10971Y293535D01*
X11864D01*
X12727Y293767D01*
X13501Y294214D01*
X14133Y294845D01*
X14580Y295619D01*
X14811Y296482D01*
Y297376D01*
X14580Y298239D01*
X14133Y299013D01*
X13501Y299645D01*
X12727Y300092D01*
X11864Y300323D01*
D02*
G37*
G36*
X41864Y290323D02*
X40971D01*
X40107Y290092D01*
X39334Y289645D01*
X38702Y289013D01*
X38255Y288239D01*
X38024Y287376D01*
Y286482D01*
X38255Y285619D01*
X38702Y284845D01*
X39334Y284213D01*
X40107Y283767D01*
X40971Y283535D01*
X41864D01*
X42727Y283767D01*
X43501Y284213D01*
X44133Y284845D01*
X44580Y285619D01*
X44811Y286482D01*
Y287376D01*
X44580Y288239D01*
X44133Y289013D01*
X43501Y289645D01*
X42727Y290092D01*
X41864Y290323D01*
D02*
G37*
G36*
Y280323D02*
X40971D01*
X40107Y280092D01*
X39334Y279645D01*
X38702Y279013D01*
X38255Y278239D01*
X38024Y277376D01*
Y276482D01*
X38255Y275619D01*
X38702Y274845D01*
X39334Y274214D01*
X40107Y273767D01*
X40971Y273535D01*
X41864D01*
X42727Y273767D01*
X43501Y274214D01*
X44133Y274845D01*
X44580Y275619D01*
X44811Y276482D01*
Y277376D01*
X44580Y278239D01*
X44133Y279013D01*
X43501Y279645D01*
X42727Y280092D01*
X41864Y280323D01*
D02*
G37*
G36*
X54802Y275000D02*
X54253D01*
X53747Y274790D01*
X53359Y274403D01*
X53150Y273896D01*
Y273348D01*
X53359Y272842D01*
X53747Y272454D01*
X54253Y272244D01*
X54802D01*
X55308Y272454D01*
X55696Y272842D01*
X55905Y273348D01*
Y273896D01*
X55696Y274403D01*
X55308Y274790D01*
X54802Y275000D01*
D02*
G37*
G36*
X36101Y271457D02*
X35553D01*
X35046Y271247D01*
X34659Y270859D01*
X34449Y270353D01*
Y269805D01*
X34659Y269298D01*
X35046Y268911D01*
X35553Y268701D01*
X36101D01*
X36607Y268911D01*
X36995Y269298D01*
X37205Y269805D01*
Y270353D01*
X36995Y270859D01*
X36607Y271247D01*
X36101Y271457D01*
D02*
G37*
G36*
X41864Y270323D02*
X40971D01*
X40107Y270092D01*
X39334Y269645D01*
X38702Y269013D01*
X38255Y268239D01*
X38024Y267376D01*
Y266482D01*
X38255Y265619D01*
X38702Y264845D01*
X39334Y264213D01*
X40107Y263767D01*
X40971Y263535D01*
X41864D01*
X42727Y263767D01*
X43501Y264213D01*
X44133Y264845D01*
X44580Y265619D01*
X44811Y266482D01*
Y267376D01*
X44580Y268239D01*
X44133Y269013D01*
X43501Y269645D01*
X42727Y270092D01*
X41864Y270323D01*
D02*
G37*
G36*
X11864D02*
X10971D01*
X10107Y270092D01*
X9334Y269645D01*
X8702Y269013D01*
X8255Y268239D01*
X8024Y267376D01*
Y266482D01*
X8255Y265619D01*
X8702Y264845D01*
X9334Y264213D01*
X10107Y263767D01*
X10971Y263535D01*
X11864D01*
X12727Y263767D01*
X13501Y264213D01*
X14133Y264845D01*
X14580Y265619D01*
X14811Y266482D01*
Y267376D01*
X14580Y268239D01*
X14133Y269013D01*
X13501Y269645D01*
X12727Y270092D01*
X11864Y270323D01*
D02*
G37*
G36*
X409055Y614961D02*
X389370D01*
Y595276D01*
X409055D01*
Y614961D01*
D02*
G37*
G36*
X363779D02*
X344094D01*
Y595276D01*
X363779D01*
Y614961D01*
D02*
G37*
G36*
X456897Y521063D02*
X454914D01*
X452955Y520753D01*
X451069Y520140D01*
X449302Y519240D01*
X447698Y518074D01*
X446296Y516672D01*
X445130Y515068D01*
X444230Y513301D01*
X443617Y511415D01*
X443307Y509456D01*
Y507473D01*
X443617Y505514D01*
X444230Y503628D01*
X445130Y501862D01*
X446296Y500257D01*
X447698Y498855D01*
X449302Y497689D01*
X451069Y496789D01*
X452955Y496176D01*
X454914Y495866D01*
X456897D01*
X458856Y496176D01*
X460742Y496789D01*
X462508Y497689D01*
X464113Y498855D01*
X465515Y500257D01*
X466681Y501862D01*
X467581Y503628D01*
X468194Y505514D01*
X468504Y507473D01*
Y509456D01*
X468194Y511415D01*
X467581Y513301D01*
X466681Y515068D01*
X465515Y516672D01*
X464113Y518074D01*
X462508Y519240D01*
X460742Y520140D01*
X458856Y520753D01*
X456897Y521063D01*
D02*
G37*
G36*
X804552Y466929D02*
X802535D01*
X800558Y466536D01*
X798695Y465764D01*
X797018Y464644D01*
X795592Y463218D01*
X794472Y461542D01*
X793701Y459679D01*
X793307Y457701D01*
Y455685D01*
X793701Y453707D01*
X794472Y451844D01*
X795592Y450168D01*
X797018Y448742D01*
X798695Y447622D01*
X800558Y446850D01*
X802535Y446457D01*
X804552D01*
X806529Y446850D01*
X808392Y447622D01*
X810069Y448742D01*
X811494Y450168D01*
X812615Y451844D01*
X813386Y453707D01*
X813780Y455685D01*
Y457701D01*
X813386Y459679D01*
X812615Y461542D01*
X811494Y463218D01*
X810069Y464644D01*
X808392Y465764D01*
X806529Y466536D01*
X804552Y466929D01*
D02*
G37*
G36*
X733858D02*
X713386D01*
Y446457D01*
X733858D01*
Y466929D01*
D02*
G37*
G36*
X664000D02*
X661984D01*
X660006Y466536D01*
X658144Y465764D01*
X656467Y464644D01*
X655041Y463218D01*
X653921Y461542D01*
X653149Y459679D01*
X652756Y457701D01*
Y455685D01*
X653149Y453707D01*
X653921Y451844D01*
X655041Y450168D01*
X656467Y448742D01*
X658144Y447622D01*
X660006Y446850D01*
X661984Y446457D01*
X664000D01*
X665978Y446850D01*
X667841Y447622D01*
X669517Y448742D01*
X670943Y450168D01*
X672063Y451844D01*
X672835Y453707D01*
X673228Y455685D01*
Y457701D01*
X672835Y459679D01*
X672063Y461542D01*
X670943Y463218D01*
X669517Y464644D01*
X667841Y465764D01*
X665978Y466536D01*
X664000Y466929D01*
D02*
G37*
G36*
X593307D02*
X572835D01*
Y446457D01*
X593307D01*
Y466929D01*
D02*
G37*
G36*
X523055D02*
X521039D01*
X519061Y466536D01*
X517199Y465764D01*
X515522Y464644D01*
X514096Y463218D01*
X512976Y461542D01*
X512204Y459679D01*
X511811Y457701D01*
Y455685D01*
X512204Y453707D01*
X512976Y451844D01*
X514096Y450168D01*
X515522Y448742D01*
X517199Y447622D01*
X519061Y446850D01*
X521039Y446457D01*
X523055D01*
X525033Y446850D01*
X526896Y447622D01*
X528573Y448742D01*
X529998Y450168D01*
X531118Y451844D01*
X531890Y453707D01*
X532283Y455685D01*
Y457701D01*
X531890Y459679D01*
X531118Y461542D01*
X529998Y463218D01*
X528573Y464644D01*
X526896Y465764D01*
X525033Y466536D01*
X523055Y466929D01*
D02*
G37*
G36*
X452362D02*
X431890D01*
Y446457D01*
X452362D01*
Y466929D01*
D02*
G37*
G36*
X382111D02*
X380094D01*
X378117Y466536D01*
X376254Y465764D01*
X374577Y464644D01*
X373151Y463218D01*
X372031Y461542D01*
X371259Y459679D01*
X370866Y457701D01*
Y455685D01*
X371259Y453707D01*
X372031Y451844D01*
X373151Y450168D01*
X374577Y448742D01*
X376254Y447622D01*
X378117Y446850D01*
X380094Y446457D01*
X382111D01*
X384088Y446850D01*
X385951Y447622D01*
X387628Y448742D01*
X389053Y450168D01*
X390174Y451844D01*
X390945Y453707D01*
X391339Y455685D01*
Y457701D01*
X390945Y459679D01*
X390174Y461542D01*
X389053Y463218D01*
X387628Y464644D01*
X385951Y465764D01*
X384088Y466536D01*
X382111Y466929D01*
D02*
G37*
G36*
X311417D02*
X290945D01*
Y446457D01*
X311417D01*
Y466929D01*
D02*
G37*
G36*
X241559D02*
X239543D01*
X237565Y466536D01*
X235702Y465764D01*
X234026Y464644D01*
X232600Y463218D01*
X231480Y461542D01*
X230708Y459679D01*
X230315Y457701D01*
Y455685D01*
X230708Y453707D01*
X231480Y451844D01*
X232600Y450168D01*
X234026Y448742D01*
X235702Y447622D01*
X237565Y446850D01*
X239543Y446457D01*
X241559D01*
X243537Y446850D01*
X245400Y447622D01*
X247076Y448742D01*
X248502Y450168D01*
X249622Y451844D01*
X250394Y453707D01*
X250787Y455685D01*
Y457701D01*
X250394Y459679D01*
X249622Y461542D01*
X248502Y463218D01*
X247076Y464644D01*
X245400Y465764D01*
X243537Y466536D01*
X241559Y466929D01*
D02*
G37*
G36*
X170866D02*
X150394D01*
Y446457D01*
X170866D01*
Y466929D01*
D02*
G37*
G36*
X837106Y116345D02*
X835189D01*
X833309Y115971D01*
X831539Y115237D01*
X829945Y114172D01*
X828590Y112817D01*
X827525Y111223D01*
X826791Y109452D01*
X826417Y107572D01*
Y105656D01*
X826791Y103776D01*
X827525Y102005D01*
X828590Y100411D01*
X829945Y99056D01*
X831539Y97991D01*
X833309Y97258D01*
X835189Y96884D01*
X837106D01*
X838986Y97258D01*
X840757Y97991D01*
X842351Y99056D01*
X843706Y100411D01*
X844771Y102005D01*
X845504Y103776D01*
X845878Y105656D01*
Y107572D01*
X845504Y109452D01*
X844771Y111223D01*
X843706Y112817D01*
X842351Y114172D01*
X840757Y115237D01*
X838986Y115971D01*
X837106Y116345D01*
D02*
G37*
G36*
X797106D02*
X795189D01*
X793309Y115971D01*
X791539Y115237D01*
X789945Y114172D01*
X788589Y112817D01*
X787525Y111223D01*
X786791Y109452D01*
X786417Y107572D01*
Y105656D01*
X786791Y103776D01*
X787525Y102005D01*
X788589Y100411D01*
X789945Y99056D01*
X791539Y97991D01*
X793309Y97258D01*
X795189Y96884D01*
X797106D01*
X798986Y97258D01*
X800757Y97991D01*
X802351Y99056D01*
X803706Y100411D01*
X804771Y102005D01*
X805504Y103776D01*
X805878Y105656D01*
Y107572D01*
X805504Y109452D01*
X804771Y111223D01*
X803706Y112817D01*
X802351Y114172D01*
X800757Y115237D01*
X798986Y115971D01*
X797106Y116345D01*
D02*
G37*
G36*
X812096Y99163D02*
X810121D01*
X808170Y98854D01*
X806291Y98244D01*
X804531Y97347D01*
X802933Y96186D01*
X801536Y94789D01*
X800375Y93191D01*
X799478Y91431D01*
X798868Y89553D01*
X798559Y87602D01*
Y85627D01*
X798868Y83676D01*
X799478Y81797D01*
X800375Y80037D01*
X801536Y78439D01*
X802933Y77042D01*
X804531Y75881D01*
X806291Y74984D01*
X808170Y74374D01*
X810121Y74065D01*
X812096D01*
X814047Y74374D01*
X815926Y74984D01*
X817686Y75881D01*
X819284Y77042D01*
X820680Y78439D01*
X821841Y80037D01*
X822738Y81797D01*
X823349Y83676D01*
X823658Y85627D01*
Y87602D01*
X823349Y89553D01*
X822738Y91431D01*
X821841Y93191D01*
X820680Y94789D01*
X819284Y96186D01*
X817686Y97347D01*
X815926Y98244D01*
X814047Y98854D01*
X812096Y99163D01*
D02*
G37*
G36*
X837106Y76345D02*
X835189D01*
X833309Y75971D01*
X831539Y75237D01*
X829945Y74172D01*
X828590Y72817D01*
X827525Y71223D01*
X826791Y69452D01*
X826417Y67572D01*
Y65656D01*
X826791Y63776D01*
X827525Y62005D01*
X828590Y60411D01*
X829945Y59056D01*
X831539Y57991D01*
X833309Y57258D01*
X835189Y56884D01*
X837106D01*
X838986Y57258D01*
X840757Y57991D01*
X842351Y59056D01*
X843706Y60411D01*
X844771Y62005D01*
X845504Y63776D01*
X845878Y65656D01*
Y67572D01*
X845504Y69452D01*
X844771Y71223D01*
X843706Y72817D01*
X842351Y74172D01*
X840757Y75237D01*
X838986Y75971D01*
X837106Y76345D01*
D02*
G37*
G36*
X797106D02*
X795189D01*
X793309Y75971D01*
X791539Y75237D01*
X789945Y74172D01*
X788589Y72817D01*
X787525Y71223D01*
X786791Y69452D01*
X786417Y67572D01*
Y65656D01*
X786791Y63776D01*
X787525Y62005D01*
X788589Y60411D01*
X789945Y59056D01*
X791539Y57991D01*
X793309Y57258D01*
X795189Y56884D01*
X797106D01*
X798986Y57258D01*
X800757Y57991D01*
X802351Y59056D01*
X803706Y60411D01*
X804771Y62005D01*
X805504Y63776D01*
X805878Y65656D01*
Y67572D01*
X805504Y69452D01*
X804771Y71223D01*
X803706Y72817D01*
X802351Y74172D01*
X800757Y75237D01*
X798986Y75971D01*
X797106Y76345D01*
D02*
G37*
G36*
X837304Y44764D02*
X834980D01*
X832685Y44400D01*
X830474Y43682D01*
X828404Y42627D01*
X826524Y41261D01*
X824881Y39618D01*
X823515Y37738D01*
X822460Y35667D01*
X821741Y33457D01*
X821378Y31162D01*
Y28838D01*
X821741Y26543D01*
X822460Y24333D01*
X823515Y22262D01*
X824881Y20382D01*
X826524Y18739D01*
X828404Y17373D01*
X830474Y16318D01*
X832685Y15600D01*
X834980Y15236D01*
X837304D01*
X839599Y15600D01*
X841809Y16318D01*
X843880Y17373D01*
X845760Y18739D01*
X847403Y20382D01*
X848769Y22262D01*
X849824Y24333D01*
X850542Y26543D01*
X850906Y28838D01*
Y31162D01*
X850542Y33457D01*
X849824Y35667D01*
X848769Y37738D01*
X847403Y39618D01*
X845760Y41261D01*
X843880Y42627D01*
X841809Y43682D01*
X839599Y44400D01*
X837304Y44764D01*
D02*
G37*
G36*
X31162D02*
X28838D01*
X26543Y44400D01*
X24333Y43682D01*
X22262Y42627D01*
X20382Y41261D01*
X18739Y39618D01*
X17373Y37738D01*
X16318Y35667D01*
X15600Y33457D01*
X15236Y31162D01*
Y28838D01*
X15600Y26543D01*
X16318Y24333D01*
X17373Y22262D01*
X18739Y20382D01*
X20382Y18739D01*
X22262Y17373D01*
X24333Y16318D01*
X26543Y15600D01*
X28838Y15236D01*
X31162D01*
X33457Y15600D01*
X35667Y16318D01*
X37738Y17373D01*
X39618Y18739D01*
X41261Y20382D01*
X42627Y22262D01*
X43682Y24333D01*
X44400Y26543D01*
X44764Y28838D01*
Y31162D01*
X44400Y33457D01*
X43682Y35667D01*
X42627Y37738D01*
X41261Y39618D01*
X39618Y41261D01*
X37738Y42627D01*
X35667Y43682D01*
X33457Y44400D01*
X31162Y44764D01*
D02*
G37*
G36*
X733071Y31496D02*
X712598D01*
Y11024D01*
X733071D01*
Y31496D01*
D02*
G37*
G36*
X643922D02*
X641905D01*
X639928Y31103D01*
X638065Y30331D01*
X636388Y29211D01*
X634962Y27785D01*
X633842Y26109D01*
X633071Y24246D01*
X632677Y22268D01*
Y20252D01*
X633071Y18274D01*
X633842Y16411D01*
X634962Y14735D01*
X636388Y13309D01*
X638065Y12189D01*
X639928Y11417D01*
X641905Y11024D01*
X643922D01*
X645899Y11417D01*
X647762Y12189D01*
X649439Y13309D01*
X650864Y14735D01*
X651985Y16411D01*
X652756Y18274D01*
X653150Y20252D01*
Y22268D01*
X652756Y24246D01*
X651985Y26109D01*
X650864Y27785D01*
X649439Y29211D01*
X647762Y30331D01*
X645899Y31103D01*
X643922Y31496D01*
D02*
G37*
G36*
X592520D02*
X572047D01*
Y11024D01*
X592520D01*
Y31496D01*
D02*
G37*
G36*
X503370D02*
X501354D01*
X499376Y31103D01*
X497513Y30331D01*
X495837Y29211D01*
X494411Y27785D01*
X493291Y26109D01*
X492519Y24246D01*
X492126Y22268D01*
Y20252D01*
X492519Y18274D01*
X493291Y16411D01*
X494411Y14735D01*
X495837Y13309D01*
X497513Y12189D01*
X499376Y11417D01*
X501354Y11024D01*
X503370D01*
X505348Y11417D01*
X507211Y12189D01*
X508887Y13309D01*
X510313Y14735D01*
X511433Y16411D01*
X512205Y18274D01*
X512598Y20252D01*
Y22268D01*
X512205Y24246D01*
X511433Y26109D01*
X510313Y27785D01*
X508887Y29211D01*
X507211Y30331D01*
X505348Y31103D01*
X503370Y31496D01*
D02*
G37*
G36*
X452362D02*
X431890D01*
Y11024D01*
X452362D01*
Y31496D01*
D02*
G37*
G36*
X363213D02*
X361196D01*
X359219Y31103D01*
X357356Y30331D01*
X355679Y29211D01*
X354254Y27785D01*
X353134Y26109D01*
X352362Y24246D01*
X351969Y22268D01*
Y20252D01*
X352362Y18274D01*
X353134Y16411D01*
X354254Y14735D01*
X355679Y13309D01*
X357356Y12189D01*
X359219Y11417D01*
X361196Y11024D01*
X363213D01*
X365191Y11417D01*
X367053Y12189D01*
X368730Y13309D01*
X370156Y14735D01*
X371276Y16411D01*
X372048Y18274D01*
X372441Y20252D01*
Y22268D01*
X372048Y24246D01*
X371276Y26109D01*
X370156Y27785D01*
X368730Y29211D01*
X367053Y30331D01*
X365191Y31103D01*
X363213Y31496D01*
D02*
G37*
G36*
X311811D02*
X291339D01*
Y11024D01*
X311811D01*
Y31496D01*
D02*
G37*
G36*
X222662D02*
X220645D01*
X218668Y31103D01*
X216805Y30331D01*
X215128Y29211D01*
X213703Y27785D01*
X212582Y26109D01*
X211811Y24246D01*
X211417Y22268D01*
Y20252D01*
X211811Y18274D01*
X212582Y16411D01*
X213703Y14735D01*
X215128Y13309D01*
X216805Y12189D01*
X218668Y11417D01*
X220645Y11024D01*
X222662D01*
X224639Y11417D01*
X226502Y12189D01*
X228179Y13309D01*
X229605Y14735D01*
X230725Y16411D01*
X231496Y18274D01*
X231890Y20252D01*
Y22268D01*
X231496Y24246D01*
X230725Y26109D01*
X229605Y27785D01*
X228179Y29211D01*
X226502Y30331D01*
X224639Y31103D01*
X222662Y31496D01*
D02*
G37*
G36*
X170866D02*
X150394D01*
Y11024D01*
X170866D01*
Y31496D01*
D02*
G37*
G36*
X81717D02*
X79700D01*
X77723Y31103D01*
X75860Y30331D01*
X74183Y29211D01*
X72758Y27785D01*
X71637Y26109D01*
X70866Y24246D01*
X70472Y22268D01*
Y20252D01*
X70866Y18274D01*
X71637Y16411D01*
X72758Y14735D01*
X74183Y13309D01*
X75860Y12189D01*
X77723Y11417D01*
X79700Y11024D01*
X81717D01*
X83694Y11417D01*
X85557Y12189D01*
X87234Y13309D01*
X88660Y14735D01*
X89780Y16411D01*
X90552Y18274D01*
X90945Y20252D01*
Y22268D01*
X90552Y24246D01*
X89780Y26109D01*
X88660Y27785D01*
X87234Y29211D01*
X85557Y30331D01*
X83694Y31103D01*
X81717Y31496D01*
D02*
G37*
G36*
X797106Y543510D02*
X795189D01*
X793309Y543136D01*
X791539Y542403D01*
X789945Y541338D01*
X788589Y539982D01*
X787525Y538389D01*
X786791Y536618D01*
X786417Y534738D01*
Y532821D01*
X786791Y530941D01*
X787525Y529170D01*
X788589Y527577D01*
X789945Y526221D01*
X791539Y525156D01*
X793309Y524423D01*
X795189Y524049D01*
X797106D01*
X798986Y524423D01*
X800757Y525156D01*
X802351Y526221D01*
X803706Y527577D01*
X804771Y529170D01*
X805504Y530941D01*
X805878Y532821D01*
Y534738D01*
X805504Y536618D01*
X804771Y538389D01*
X803706Y539982D01*
X802351Y541338D01*
X800757Y542403D01*
X798986Y543136D01*
X797106Y543510D01*
D02*
G37*
%LPD*%
D12*
X494095Y806299D02*
X498819D01*
X582677Y783858D02*
X587795D01*
X673317Y759842D02*
X677073D01*
D21*
X268110Y844460D02*
G03*
X266142Y849213I-6721J0D01*
G01*
X360866Y666516D02*
G03*
X370866Y676516I0J10000D01*
G01*
Y718299D02*
G03*
X367937Y725370I-10000J0D01*
G01*
X373465Y640224D02*
G03*
X383465Y650224I0J10000D01*
G01*
X321480Y853370D02*
G03*
X324410Y860441I-7071J7071D01*
G01*
X303338Y839370D02*
G03*
X310409Y842299I0J10000D01*
G01*
X207087Y819497D02*
G03*
X210016Y812425I10000J0D01*
G01*
X258095Y842299D02*
G03*
X265166Y839370I7071J7071D01*
G01*
X224583Y875811D02*
G03*
X217511Y878740I-7071J-7071D01*
G01*
X207087Y819497D02*
Y878740D01*
X326043Y666516D02*
X360866D01*
X370866Y676516D02*
Y718299D01*
X353543Y739764D02*
X367937Y725370D01*
X383465Y739511D02*
X383482Y739528D01*
X383465Y650224D02*
Y739511D01*
X326043Y640224D02*
X373465D01*
X310409Y842299D02*
X321480Y853370D01*
X265166Y839370D02*
X268110D01*
Y844460D01*
Y839370D02*
X303338D01*
X324410Y860441D02*
Y864567D01*
X268110Y835433D02*
Y839370D01*
X210016Y812425D02*
X220866Y801575D01*
X207087Y878740D02*
X217511D01*
X224583Y875811D02*
X258095Y842299D01*
D85*
X36099Y728113D02*
G03*
X37074Y727710I974J974D01*
G01*
X37795Y727559D02*
G03*
X37431Y727710I-364J-364D01*
G01*
X27079Y737134D02*
X36099Y728113D01*
X37074Y727710D02*
X37431D01*
X37764Y725165D02*
X37795Y725197D01*
X20110Y725165D02*
X37764D01*
X20079Y725134D02*
X20110Y725165D01*
D87*
X221654Y227953D02*
D03*
X301575D02*
D03*
X642913D02*
D03*
X722835D02*
D03*
X240551Y250000D02*
D03*
X160630D02*
D03*
X381102D02*
D03*
X301181D02*
D03*
X522047D02*
D03*
X442126D02*
D03*
X723622D02*
D03*
X803543D02*
D03*
X160630Y227953D02*
D03*
X80709D02*
D03*
X442126D02*
D03*
X362205D02*
D03*
X582283D02*
D03*
X502362D02*
D03*
X583071Y250000D02*
D03*
X662992D02*
D03*
D90*
X53065Y801181D02*
D03*
X811108Y671260D02*
D03*
Y592520D02*
D03*
Y848425D02*
D03*
Y513779D02*
D03*
D91*
X41339Y356929D02*
D03*
Y396929D02*
D03*
Y436929D02*
D03*
Y476929D02*
D03*
Y516929D02*
D03*
Y556929D02*
D03*
Y596929D02*
D03*
D94*
X762402Y786417D02*
D03*
D95*
X792402Y807480D02*
D03*
X802402D02*
D03*
X812402D02*
D03*
D97*
X326043Y666516D02*
D03*
Y640224D02*
D03*
D98*
X206705Y594842D02*
D03*
D99*
X540551Y698228D02*
D03*
Y708228D02*
D03*
Y718228D02*
D03*
X722047Y652559D02*
D03*
Y662559D02*
D03*
Y672559D02*
D03*
X629921Y675787D02*
D03*
Y685787D02*
D03*
Y695787D02*
D03*
D100*
X519488Y748228D02*
D03*
X700984Y702559D02*
D03*
X608858Y725787D02*
D03*
D102*
X20079Y725134D02*
D03*
X27079Y737134D02*
D03*
D104*
X23579Y763134D02*
D03*
Y637134D02*
D03*
D105*
X498819Y806299D02*
D03*
X494095D02*
D03*
X37795Y727559D02*
D03*
Y725197D02*
D03*
X582677Y783858D02*
D03*
X587795D02*
D03*
X673317Y759842D02*
D03*
X677073D02*
D03*
X443307Y620472D02*
D03*
X439370D02*
D03*
X435827D02*
D03*
X446850D02*
D03*
X431890D02*
D03*
Y617717D02*
D03*
X446850D02*
D03*
X435827D02*
D03*
X439370D02*
D03*
X443307D02*
D03*
X432677Y722835D02*
D03*
X436221D02*
D03*
X432677Y719291D02*
D03*
X436221D02*
D03*
X432677Y715748D02*
D03*
X436221D02*
D03*
X207087Y878740D02*
D03*
X70079Y681102D02*
D03*
X262220Y849564D02*
D03*
X266142Y849213D02*
D03*
X118115Y714975D02*
D03*
X113594Y714920D02*
D03*
X123232Y715039D02*
D03*
X182283Y720079D02*
D03*
X20472Y266142D02*
D03*
Y305906D02*
D03*
X6299Y313386D02*
D03*
X7874Y362598D02*
D03*
X6693Y401181D02*
D03*
Y481496D02*
D03*
X7874Y523228D02*
D03*
X7087Y560236D02*
D03*
Y602362D02*
D03*
X8661Y878740D02*
D03*
Y851181D02*
D03*
X353543Y739764D02*
D03*
X383482Y739528D02*
D03*
X444488Y715748D02*
D03*
X440945D02*
D03*
X444488Y719291D02*
D03*
X440945D02*
D03*
X444488Y722835D02*
D03*
X440945D02*
D03*
X324410Y864567D02*
D03*
X268110Y835433D02*
D03*
X220866Y801575D02*
D03*
X247638Y909449D02*
D03*
X217323D02*
D03*
X201181Y809842D02*
D03*
X310365Y872048D02*
D03*
X287402Y885827D02*
D03*
X173228Y672047D02*
D03*
X98032Y280315D02*
D03*
X68504Y253150D02*
D03*
X7480Y253937D02*
D03*
X162205Y522441D02*
D03*
X216535Y574803D02*
D03*
X8661Y908268D02*
D03*
X9055Y788189D02*
D03*
Y817717D02*
D03*
Y673228D02*
D03*
Y700787D02*
D03*
Y730315D02*
D03*
X395276Y909842D02*
D03*
X365748D02*
D03*
X338189D02*
D03*
X275197Y909449D02*
D03*
X304724D02*
D03*
X126772Y909055D02*
D03*
X97244D02*
D03*
X69685D02*
D03*
X160236Y909449D02*
D03*
X187795D02*
D03*
X578740Y910236D02*
D03*
X549213D02*
D03*
X521654D02*
D03*
X431102Y909842D02*
D03*
X458661D02*
D03*
X488189D02*
D03*
X666142Y910236D02*
D03*
X636614D02*
D03*
X609055D02*
D03*
X699606Y910630D02*
D03*
X727165D02*
D03*
X756693D02*
D03*
X747244Y758661D02*
D03*
X119291Y874016D02*
D03*
Y869685D02*
D03*
X118898Y864173D02*
D03*
X664173Y723622D02*
D03*
X572835Y746457D02*
D03*
X483858Y768898D02*
D03*
X96457Y676378D02*
D03*
X151969Y675984D02*
D03*
X240158Y840945D02*
D03*
X178740Y626772D02*
D03*
X176772Y641732D02*
D03*
X757874Y250394D02*
D03*
X764961D02*
D03*
X772047D02*
D03*
X778398Y250247D02*
D03*
X182677Y714173D02*
D03*
X193307Y661024D02*
D03*
X181102Y609449D02*
D03*
X194095Y565354D02*
D03*
X129134Y614961D02*
D03*
X129134Y618504D02*
D03*
Y621654D02*
D03*
X170079Y856299D02*
D03*
Y861417D02*
D03*
Y866535D02*
D03*
Y871260D02*
D03*
X85827Y856299D02*
D03*
X195669Y757087D02*
D03*
X238189Y801968D02*
D03*
X249213Y894882D02*
D03*
X296457Y831496D02*
D03*
X524409Y788583D02*
D03*
X614961Y765748D02*
D03*
X706693Y742126D02*
D03*
X742520Y802362D02*
D03*
X696457Y788583D02*
D03*
M02*
