G04*
G04 #@! TF.GenerationSoftware,Altium Limited,Altium Designer,23.1.1 (15)*
G04*
G04 Layer_Color=16711935*
%FSLAX25Y25*%
%MOIN*%
G70*
G04*
G04 #@! TF.SameCoordinates,86994FA9-9CC6-4329-B9FE-72B5C8D5A220*
G04*
G04*
G04 #@! TF.FilePolarity,Negative*
G04*
G01*
G75*
%ADD46R,0.04134X0.03740*%
G04:AMPARAMS|DCode=49|XSize=51.58mil|YSize=75.59mil|CornerRadius=9.83mil|HoleSize=0mil|Usage=FLASHONLY|Rotation=180.000|XOffset=0mil|YOffset=0mil|HoleType=Round|Shape=RoundedRectangle|*
%AMROUNDEDRECTD49*
21,1,0.05158,0.05593,0,0,180.0*
21,1,0.03192,0.07559,0,0,180.0*
1,1,0.01966,-0.01596,0.02797*
1,1,0.01966,0.01596,0.02797*
1,1,0.01966,0.01596,-0.02797*
1,1,0.01966,-0.01596,-0.02797*
%
%ADD49ROUNDEDRECTD49*%
%ADD50R,0.05709X0.06496*%
%ADD52R,0.03740X0.04134*%
%ADD53R,0.03937X0.03150*%
%ADD54R,0.03150X0.03937*%
%ADD60R,0.06890X0.05118*%
%ADD61R,0.05118X0.06890*%
%ADD64R,0.02559X0.08268*%
%ADD65R,0.02559X0.08268*%
%ADD67R,0.05906X0.05906*%
%ADD68C,0.05906*%
%ADD69C,0.09843*%
%ADD70C,0.13189*%
%ADD71C,0.09055*%
%ADD72R,0.09055X0.09055*%
%ADD73C,0.08044*%
%ADD74C,0.13681*%
%ADD75C,0.06394*%
%ADD76R,0.08268X0.08268*%
%ADD77C,0.08268*%
%ADD78O,0.09494X0.05494*%
%ADD79O,0.07894X0.10394*%
%ADD80C,0.20472*%
%ADD81O,0.10236X0.08268*%
%ADD82O,0.07480X0.05906*%
%ADD83O,0.10394X0.07894*%
%ADD84O,0.05494X0.09494*%
%ADD115R,0.03937X0.02953*%
%ADD116R,0.17087X0.15394*%
%ADD117R,0.04528X0.02559*%
%ADD118R,0.08268X0.02559*%
%ADD119R,0.08268X0.02559*%
%ADD120R,0.05709X0.04921*%
G36*
X128937Y856299D02*
X122244D01*
Y853347D01*
X116339D01*
Y846653D01*
X122244D01*
Y843701D01*
X128937D01*
Y856299D01*
D02*
G37*
G36*
X140748Y846653D02*
X146653D01*
Y853347D01*
X140748D01*
Y856299D01*
X134055D01*
Y843701D01*
X140748D01*
Y846653D01*
D02*
G37*
D46*
X33465Y280548D02*
D03*
Y275430D02*
D03*
Y320706D02*
D03*
Y315587D02*
D03*
X48819Y411614D02*
D03*
Y406496D02*
D03*
Y491535D02*
D03*
Y486417D02*
D03*
Y451378D02*
D03*
Y446260D02*
D03*
X50394Y273737D02*
D03*
Y268619D02*
D03*
X51181Y512992D02*
D03*
Y507874D02*
D03*
Y592520D02*
D03*
Y587402D02*
D03*
X48819Y610827D02*
D03*
Y605709D02*
D03*
X12992Y284091D02*
D03*
Y278973D02*
D03*
Y324249D02*
D03*
Y319131D02*
D03*
X50394Y313895D02*
D03*
Y308776D02*
D03*
X51181Y353543D02*
D03*
Y348425D02*
D03*
X48819Y371850D02*
D03*
Y366732D02*
D03*
X51181Y393307D02*
D03*
Y388189D02*
D03*
Y433071D02*
D03*
Y427953D02*
D03*
Y473228D02*
D03*
Y468110D02*
D03*
X48819Y531299D02*
D03*
Y526181D02*
D03*
X51181Y552953D02*
D03*
Y547835D02*
D03*
X48819Y571260D02*
D03*
Y566142D02*
D03*
X737683Y846469D02*
D03*
Y841350D02*
D03*
Y835445D02*
D03*
Y830327D02*
D03*
X270903Y853109D02*
D03*
Y847991D02*
D03*
X277755Y886220D02*
D03*
Y891339D02*
D03*
X725295Y814468D02*
D03*
Y819587D02*
D03*
X730413Y814468D02*
D03*
Y819587D02*
D03*
X700886Y814665D02*
D03*
Y819783D02*
D03*
X706398Y814665D02*
D03*
Y819783D02*
D03*
X175197Y571850D02*
D03*
Y566732D02*
D03*
X168898Y566732D02*
D03*
Y571850D02*
D03*
X693701Y759842D02*
D03*
Y754724D02*
D03*
X669685Y760039D02*
D03*
Y754921D02*
D03*
X688583Y759842D02*
D03*
Y754724D02*
D03*
X664173Y760039D02*
D03*
Y754921D02*
D03*
X689764Y725787D02*
D03*
Y720669D02*
D03*
X572047Y783268D02*
D03*
Y778150D02*
D03*
X601575Y783071D02*
D03*
Y777953D02*
D03*
X596457Y783071D02*
D03*
Y777953D02*
D03*
X508268Y771457D02*
D03*
Y766339D02*
D03*
X577559Y783268D02*
D03*
Y778150D02*
D03*
X597638Y749016D02*
D03*
Y743898D02*
D03*
X507087Y805512D02*
D03*
Y800394D02*
D03*
X512205Y805512D02*
D03*
Y800394D02*
D03*
X482677Y805709D02*
D03*
Y800591D02*
D03*
X488189Y805709D02*
D03*
Y800591D02*
D03*
X737683Y857098D02*
D03*
Y851980D02*
D03*
D49*
X111614Y874016D02*
D03*
X100197D02*
D03*
X111614Y865354D02*
D03*
X100197D02*
D03*
X69095Y849213D02*
D03*
X80512D02*
D03*
X36024Y848819D02*
D03*
X24606D02*
D03*
X140354Y873622D02*
D03*
X128937D02*
D03*
X140354Y865354D02*
D03*
X128937D02*
D03*
D50*
X24409Y405512D02*
D03*
X32283D02*
D03*
X24409Y365748D02*
D03*
X32283D02*
D03*
X24409Y565157D02*
D03*
X32283D02*
D03*
X24409Y525197D02*
D03*
X32283D02*
D03*
X24409Y485433D02*
D03*
X32283D02*
D03*
X24409Y445276D02*
D03*
X32283D02*
D03*
X24409Y604724D02*
D03*
X32283D02*
D03*
D52*
X26181Y264997D02*
D03*
X31299D02*
D03*
X26181Y305154D02*
D03*
X31299D02*
D03*
X28937Y335827D02*
D03*
X23819D02*
D03*
X660630Y781102D02*
D03*
X655512D02*
D03*
X671457D02*
D03*
X666339D02*
D03*
X619094Y781103D02*
D03*
X613976D02*
D03*
X629724D02*
D03*
X624606D02*
D03*
X530609Y800787D02*
D03*
X525491D02*
D03*
X275704Y859409D02*
D03*
X270586D02*
D03*
X269488Y891388D02*
D03*
X264370D02*
D03*
X677560Y781102D02*
D03*
X682678D02*
D03*
X635827D02*
D03*
X640946D02*
D03*
X541831Y800689D02*
D03*
X536713D02*
D03*
X547934Y800787D02*
D03*
X553052D02*
D03*
X191535Y602756D02*
D03*
X186417D02*
D03*
X743209Y778839D02*
D03*
X738091D02*
D03*
X743110Y772047D02*
D03*
X737992D02*
D03*
X188780Y653445D02*
D03*
X183662D02*
D03*
X182481Y631890D02*
D03*
X177363D02*
D03*
X187992Y622047D02*
D03*
X182874D02*
D03*
X188386Y615256D02*
D03*
X183268D02*
D03*
X187992Y637401D02*
D03*
X182874D02*
D03*
Y646456D02*
D03*
X177756D02*
D03*
X185630Y583858D02*
D03*
X190748D02*
D03*
X195473Y583858D02*
D03*
X200591D02*
D03*
X673819Y721260D02*
D03*
X678937D02*
D03*
X581693Y744488D02*
D03*
X586811D02*
D03*
X492323Y766929D02*
D03*
X497441D02*
D03*
X201871Y790413D02*
D03*
X196753D02*
D03*
X201871Y777028D02*
D03*
X196753D02*
D03*
X235336Y863130D02*
D03*
X240454D02*
D03*
X235336Y858012D02*
D03*
X240454D02*
D03*
X306595Y858524D02*
D03*
X301477D02*
D03*
X306595Y845138D02*
D03*
X301477D02*
D03*
X248189Y829385D02*
D03*
X243071D02*
D03*
X248189Y816000D02*
D03*
X243071D02*
D03*
X235336Y884390D02*
D03*
X240454D02*
D03*
X235336Y879272D02*
D03*
X240454D02*
D03*
D53*
X198425Y603937D02*
D03*
Y598425D02*
D03*
X734252Y796850D02*
D03*
Y802362D02*
D03*
X738976Y796850D02*
D03*
Y802362D02*
D03*
X696457Y797244D02*
D03*
Y791732D02*
D03*
X747736Y768209D02*
D03*
Y762697D02*
D03*
X194095Y657382D02*
D03*
Y651870D02*
D03*
X187796Y642126D02*
D03*
Y647638D02*
D03*
X192520Y642126D02*
D03*
Y636614D02*
D03*
X192914Y610138D02*
D03*
Y615649D02*
D03*
X192914Y627165D02*
D03*
Y621653D02*
D03*
X187402Y626771D02*
D03*
Y632283D02*
D03*
X697244Y742520D02*
D03*
Y737008D02*
D03*
X701968Y742520D02*
D03*
Y737008D02*
D03*
X661024Y732283D02*
D03*
Y737795D02*
D03*
X610236Y766142D02*
D03*
Y760630D02*
D03*
X568898Y755512D02*
D03*
Y761024D02*
D03*
X605512Y766142D02*
D03*
Y760630D02*
D03*
X479528Y777953D02*
D03*
Y783464D02*
D03*
X515748Y788583D02*
D03*
Y783071D02*
D03*
X520472Y788583D02*
D03*
Y783071D02*
D03*
X276772Y853150D02*
D03*
Y847638D02*
D03*
X257580Y848957D02*
D03*
Y854469D02*
D03*
X283465Y885827D02*
D03*
Y891339D02*
D03*
D54*
X25591Y558464D02*
D03*
X31102D02*
D03*
X25591Y598032D02*
D03*
X31102D02*
D03*
X25591Y398819D02*
D03*
X31102D02*
D03*
X25591Y518504D02*
D03*
X31102D02*
D03*
X25591Y438583D02*
D03*
X31102D02*
D03*
X25591Y478740D02*
D03*
X31102D02*
D03*
X25591Y359055D02*
D03*
X31102D02*
D03*
X20079Y270472D02*
D03*
X25591D02*
D03*
X20472Y310076D02*
D03*
X25984D02*
D03*
X196457Y771260D02*
D03*
X201969D02*
D03*
X196850Y796457D02*
D03*
X202362D02*
D03*
X242520Y810290D02*
D03*
X248031D02*
D03*
X242913Y835433D02*
D03*
X248425D02*
D03*
X301575Y864233D02*
D03*
X307087D02*
D03*
X301181Y839370D02*
D03*
X306693D02*
D03*
X103150Y858268D02*
D03*
X108661D02*
D03*
X113779Y840945D02*
D03*
X119291D02*
D03*
X760236Y801968D02*
D03*
X754724D02*
D03*
X754724Y806693D02*
D03*
X760236D02*
D03*
X189370Y565748D02*
D03*
X183858D02*
D03*
X673622Y716142D02*
D03*
X679134D02*
D03*
X523228Y756299D02*
D03*
X528740D02*
D03*
X528740Y761024D02*
D03*
X523228D02*
D03*
X492126Y761811D02*
D03*
X497638D02*
D03*
X612598Y733858D02*
D03*
X618110D02*
D03*
X618110Y738583D02*
D03*
X612598D02*
D03*
X581496Y739370D02*
D03*
X587008D02*
D03*
X252462Y889902D02*
D03*
X257973D02*
D03*
X252462Y894626D02*
D03*
X257973D02*
D03*
X704724Y710630D02*
D03*
X710236D02*
D03*
X710236Y715354D02*
D03*
X704724D02*
D03*
D60*
X340158Y811024D02*
D03*
Y800000D02*
D03*
X350000Y822835D02*
D03*
Y811811D02*
D03*
X350394Y798425D02*
D03*
Y787402D02*
D03*
Y763386D02*
D03*
Y774409D02*
D03*
X340551Y774803D02*
D03*
Y785827D02*
D03*
Y751575D02*
D03*
Y762598D02*
D03*
X324803Y765354D02*
D03*
Y776378D02*
D03*
X315354Y779528D02*
D03*
Y790551D02*
D03*
X314961Y753543D02*
D03*
Y764567D02*
D03*
X366535Y775984D02*
D03*
Y787008D02*
D03*
X376378Y763386D02*
D03*
Y774409D02*
D03*
X366535Y751968D02*
D03*
Y762992D02*
D03*
X376378Y799606D02*
D03*
Y788583D02*
D03*
X366535Y811024D02*
D03*
Y800000D02*
D03*
X376378Y822835D02*
D03*
Y811811D02*
D03*
D61*
X303543Y799213D02*
D03*
X314567D02*
D03*
X278346D02*
D03*
X289370D02*
D03*
Y789764D02*
D03*
X300394D02*
D03*
X290551Y760236D02*
D03*
X279528D02*
D03*
X230709Y759055D02*
D03*
X241732D02*
D03*
X303150Y750394D02*
D03*
X292126D02*
D03*
X278346Y750000D02*
D03*
X267323D02*
D03*
X255118Y759449D02*
D03*
X266142D02*
D03*
X242913Y749606D02*
D03*
X253937D02*
D03*
D64*
X247737Y881634D02*
D03*
X252737D02*
D03*
X257737D02*
D03*
X262737D02*
D03*
D65*
X247737Y862342D02*
D03*
X252737D02*
D03*
X257737D02*
D03*
X262737D02*
D03*
D67*
X20079Y655134D02*
D03*
Y717134D02*
D03*
D68*
X27079Y659134D02*
D03*
X20079Y663134D02*
D03*
X27079Y667134D02*
D03*
X20079Y671134D02*
D03*
X27079Y675134D02*
D03*
X20079Y679134D02*
D03*
X27079Y683134D02*
D03*
Y745134D02*
D03*
X20079Y741134D02*
D03*
X27079Y737134D02*
D03*
X20079Y733134D02*
D03*
X27079Y729134D02*
D03*
X20079Y725134D02*
D03*
X27079Y721134D02*
D03*
D69*
X23579Y637134D02*
D03*
Y763134D02*
D03*
D70*
X10079Y644134D02*
D03*
Y756134D02*
D03*
D71*
X221654Y21260D02*
D03*
Y227953D02*
D03*
X301575D02*
D03*
X642913Y21260D02*
D03*
Y227953D02*
D03*
X722835D02*
D03*
X240551Y456693D02*
D03*
Y250000D02*
D03*
X160630D02*
D03*
X381102Y456693D02*
D03*
Y250000D02*
D03*
X301181D02*
D03*
X522047Y456693D02*
D03*
Y250000D02*
D03*
X442126D02*
D03*
X723622D02*
D03*
X803543D02*
D03*
Y456693D02*
D03*
X160630Y227953D02*
D03*
X80709D02*
D03*
Y21260D02*
D03*
X442126Y227953D02*
D03*
X362205D02*
D03*
Y21260D02*
D03*
X582283Y227953D02*
D03*
X502362D02*
D03*
Y21260D02*
D03*
X583071Y250000D02*
D03*
X662992D02*
D03*
Y456693D02*
D03*
X30000Y30000D02*
D03*
X160630Y508465D02*
D03*
X455905Y797835D02*
D03*
Y508465D02*
D03*
X160630Y817520D02*
D03*
X30000Y889291D02*
D03*
X836142Y30000D02*
D03*
Y889291D02*
D03*
D72*
X301575Y21260D02*
D03*
X722835D02*
D03*
X160630Y456693D02*
D03*
X301181D02*
D03*
X442126D02*
D03*
X723622D02*
D03*
X160630Y21260D02*
D03*
X442126D02*
D03*
X582283D02*
D03*
X583071Y456693D02*
D03*
D73*
X28025Y830394D02*
D03*
X68025D02*
D03*
Y870394D02*
D03*
X28025D02*
D03*
Y821181D02*
D03*
X68025D02*
D03*
Y781181D02*
D03*
X28025D02*
D03*
X836148Y651260D02*
D03*
X796148D02*
D03*
Y691260D02*
D03*
X836148D02*
D03*
Y572520D02*
D03*
X796148D02*
D03*
Y612520D02*
D03*
X836148D02*
D03*
Y828425D02*
D03*
X796148D02*
D03*
Y868425D02*
D03*
X836148D02*
D03*
Y66614D02*
D03*
X796148D02*
D03*
Y106614D02*
D03*
X836148D02*
D03*
Y493780D02*
D03*
X796148D02*
D03*
Y533779D02*
D03*
X836148D02*
D03*
D74*
X53065Y850394D02*
D03*
Y801181D02*
D03*
X811108Y671260D02*
D03*
Y592520D02*
D03*
Y848425D02*
D03*
Y86614D02*
D03*
Y513779D02*
D03*
D75*
X41417Y286929D02*
D03*
Y296929D02*
D03*
Y266929D02*
D03*
Y276929D02*
D03*
X11417Y296929D02*
D03*
Y266929D02*
D03*
X41417Y326929D02*
D03*
Y336929D02*
D03*
Y306929D02*
D03*
Y316929D02*
D03*
X11417Y336929D02*
D03*
Y306929D02*
D03*
X41339Y366929D02*
D03*
Y376929D02*
D03*
Y346929D02*
D03*
Y356929D02*
D03*
X11339Y376929D02*
D03*
Y346929D02*
D03*
X41339Y406929D02*
D03*
Y416929D02*
D03*
Y386929D02*
D03*
Y396929D02*
D03*
X11339Y416929D02*
D03*
Y386929D02*
D03*
X41339Y446929D02*
D03*
Y456929D02*
D03*
Y426929D02*
D03*
Y436929D02*
D03*
X11339Y456929D02*
D03*
Y426929D02*
D03*
X41339Y486929D02*
D03*
Y496929D02*
D03*
Y466929D02*
D03*
Y476929D02*
D03*
X11339Y496929D02*
D03*
Y466929D02*
D03*
X41339Y526929D02*
D03*
Y536929D02*
D03*
Y506929D02*
D03*
Y516929D02*
D03*
X11339Y536929D02*
D03*
Y506929D02*
D03*
X41339Y566929D02*
D03*
Y576929D02*
D03*
Y546929D02*
D03*
Y556929D02*
D03*
X11339Y576929D02*
D03*
Y546929D02*
D03*
X41339Y606929D02*
D03*
Y616929D02*
D03*
Y586929D02*
D03*
Y596929D02*
D03*
X11339Y616929D02*
D03*
Y586929D02*
D03*
D76*
X353937Y605118D02*
D03*
X399213D02*
D03*
D77*
X353937Y713386D02*
D03*
X399213D02*
D03*
D78*
X762402Y786417D02*
D03*
Y770669D02*
D03*
Y794291D02*
D03*
Y778543D02*
D03*
D79*
X812402Y757480D02*
D03*
X792402Y807480D02*
D03*
X802402D02*
D03*
Y757480D02*
D03*
X792402D02*
D03*
X812402Y807480D02*
D03*
D80*
X278740Y719075D02*
D03*
Y587185D02*
D03*
D81*
X326043Y717323D02*
D03*
Y692803D02*
D03*
Y666516D02*
D03*
Y640224D02*
D03*
Y613937D02*
D03*
Y601339D02*
D03*
Y588740D02*
D03*
D82*
X218504Y586969D02*
D03*
X206705Y594842D02*
D03*
X218504Y601142D02*
D03*
X206705Y607441D02*
D03*
X218504Y613740D02*
D03*
X206705Y620039D02*
D03*
X218504Y626339D02*
D03*
X206705Y632638D02*
D03*
X218504Y638937D02*
D03*
X206705Y645236D02*
D03*
X218504Y651535D02*
D03*
X206705Y667823D02*
D03*
X218504Y674122D02*
D03*
X206705Y690406D02*
D03*
X218504Y696705D02*
D03*
X206705Y712992D02*
D03*
X218504Y719291D02*
D03*
D83*
X540551Y698228D02*
D03*
X490551Y718228D02*
D03*
Y708228D02*
D03*
X540551D02*
D03*
Y718228D02*
D03*
X490551Y698228D02*
D03*
X722047Y652559D02*
D03*
X672047Y672559D02*
D03*
Y662559D02*
D03*
X722047D02*
D03*
Y672559D02*
D03*
X672047Y652559D02*
D03*
X629921Y675787D02*
D03*
X579921Y695787D02*
D03*
Y685787D02*
D03*
X629921D02*
D03*
Y695787D02*
D03*
X579921Y675787D02*
D03*
D84*
X511614Y748228D02*
D03*
X527362D02*
D03*
X503740D02*
D03*
X519488D02*
D03*
X693110Y702559D02*
D03*
X708858D02*
D03*
X685236D02*
D03*
X700984D02*
D03*
X600984Y725787D02*
D03*
X616732D02*
D03*
X593110D02*
D03*
X608858D02*
D03*
D115*
X33465Y474213D02*
D03*
Y470472D02*
D03*
Y466732D02*
D03*
X24016D02*
D03*
Y474213D02*
D03*
X33465Y513976D02*
D03*
Y510236D02*
D03*
Y506496D02*
D03*
X24016D02*
D03*
Y513976D02*
D03*
X33465Y553937D02*
D03*
Y550197D02*
D03*
Y546457D02*
D03*
X24016D02*
D03*
Y553937D02*
D03*
X33465Y434055D02*
D03*
Y430315D02*
D03*
Y426575D02*
D03*
X24016D02*
D03*
Y434055D02*
D03*
X33465Y593504D02*
D03*
Y589764D02*
D03*
Y586024D02*
D03*
X24016D02*
D03*
Y593504D02*
D03*
X33465Y354527D02*
D03*
Y350787D02*
D03*
Y347047D02*
D03*
X24016D02*
D03*
Y354527D02*
D03*
X18504Y275036D02*
D03*
Y278776D02*
D03*
Y282517D02*
D03*
X27953D02*
D03*
Y275036D02*
D03*
X18504Y315194D02*
D03*
Y318934D02*
D03*
Y322674D02*
D03*
X27953D02*
D03*
Y315194D02*
D03*
X33465Y394291D02*
D03*
Y390551D02*
D03*
Y386811D02*
D03*
X24016D02*
D03*
Y394291D02*
D03*
D116*
X57087Y892520D02*
D03*
X82284D02*
D03*
D117*
X103150Y845866D02*
D03*
Y849606D02*
D03*
Y853346D02*
D03*
X113386D02*
D03*
Y849606D02*
D03*
Y845866D02*
D03*
X192126Y578150D02*
D03*
Y574409D02*
D03*
Y570669D02*
D03*
X181890D02*
D03*
Y574409D02*
D03*
Y578150D02*
D03*
D118*
X706398Y792539D02*
D03*
Y797539D02*
D03*
Y802539D02*
D03*
Y807539D02*
D03*
X669685Y747795D02*
D03*
Y742795D02*
D03*
Y737795D02*
D03*
Y732795D02*
D03*
X577559Y771024D02*
D03*
Y766024D02*
D03*
Y761024D02*
D03*
Y756024D02*
D03*
X488189Y793465D02*
D03*
Y788464D02*
D03*
Y783464D02*
D03*
Y778465D02*
D03*
D119*
X725689Y792539D02*
D03*
Y797539D02*
D03*
Y802539D02*
D03*
Y807539D02*
D03*
X688976Y747795D02*
D03*
Y742795D02*
D03*
Y737795D02*
D03*
Y732795D02*
D03*
X596850Y771024D02*
D03*
Y766024D02*
D03*
Y761024D02*
D03*
Y756024D02*
D03*
X507480Y793465D02*
D03*
Y788464D02*
D03*
Y783464D02*
D03*
Y778465D02*
D03*
D120*
X200394Y573524D02*
D03*
Y566634D02*
D03*
M02*
