G04*
G04 #@! TF.GenerationSoftware,Altium Limited,Altium Designer,23.1.1 (15)*
G04*
G04 Layer_Physical_Order=3*
G04 Layer_Color=16440176*
%FSLAX25Y25*%
%MOIN*%
G70*
G04*
G04 #@! TF.SameCoordinates,86994FA9-9CC6-4329-B9FE-72B5C8D5A220*
G04*
G04*
G04 #@! TF.FilePolarity,Positive*
G04*
G01*
G75*
%ADD10C,0.00787*%
%ADD12C,0.01000*%
%ADD87C,0.05512*%
%ADD88C,0.09449*%
%ADD90C,0.08661*%
%ADD93C,0.13287*%
%ADD94C,0.06000*%
%ADD97O,0.09100X0.05100*%
%ADD98O,0.07500X0.10000*%
%ADD100O,0.09843X0.07874*%
%ADD101O,0.07087X0.05512*%
%ADD102O,0.10000X0.07500*%
%ADD103O,0.05100X0.09100*%
%ADD104C,0.02756*%
G36*
X857328Y912605D02*
X858068Y912299D01*
X858734Y911854D01*
X859300Y911287D01*
X859745Y910621D01*
X860051Y909881D01*
X860208Y909096D01*
Y908696D01*
Y796850D01*
X784606D01*
X782674Y797235D01*
X780854Y797989D01*
X779216Y799083D01*
X777823Y800476D01*
X776729Y802114D01*
X776406Y802891D01*
Y912761D01*
X856542D01*
X857328Y912605D01*
D02*
G37*
G36*
X770472Y759654D02*
Y758669D01*
X770088Y756737D01*
X769334Y754917D01*
X768240Y753279D01*
X767544Y752583D01*
X713559Y698598D01*
X713559D01*
X712862Y697902D01*
X711225Y696807D01*
X709405Y696054D01*
X707473Y695669D01*
X680716D01*
X678784Y696054D01*
X676964Y696807D01*
X675327Y697902D01*
X674630Y698598D01*
X655685Y717544D01*
X655685Y717544D01*
X654958Y718202D01*
X653328Y719292D01*
X651517Y720042D01*
X649594Y720424D01*
X648614Y720472D01*
X618708D01*
X618546Y720972D01*
X619112Y721407D01*
X619648Y722104D01*
X619984Y722916D01*
X620098Y723787D01*
Y727787D01*
X619984Y728659D01*
X619648Y729470D01*
X619112Y730168D01*
X618415Y730703D01*
X617603Y731039D01*
X616732Y731154D01*
X615861Y731039D01*
X615049Y730703D01*
X614352Y730168D01*
X613817Y729470D01*
X613481Y728659D01*
X613366Y727787D01*
Y723787D01*
X613481Y722916D01*
X613817Y722104D01*
X614352Y721407D01*
X614919Y720972D01*
X614756Y720472D01*
X611165D01*
X610995Y720972D01*
X611379Y721267D01*
X611945Y722005D01*
X612301Y722865D01*
X612423Y723787D01*
Y724803D01*
X605294D01*
Y723787D01*
X605415Y722865D01*
X605771Y722005D01*
X606338Y721267D01*
X606721Y720972D01*
X606551Y720472D01*
X602960D01*
X602798Y720972D01*
X603365Y721407D01*
X603899Y722104D01*
X604236Y722916D01*
X604350Y723787D01*
Y727787D01*
X604236Y728659D01*
X603899Y729470D01*
X603365Y730168D01*
X602667Y730703D01*
X601856Y731039D01*
X600984Y731154D01*
X600113Y731039D01*
X599301Y730703D01*
X598604Y730168D01*
X598069Y729470D01*
X597733Y728659D01*
X597618Y727787D01*
Y723787D01*
X597733Y722916D01*
X598069Y722104D01*
X598604Y721407D01*
X599170Y720972D01*
X599008Y720472D01*
X595086D01*
X594924Y720972D01*
X595491Y721407D01*
X596025Y722104D01*
X596362Y722916D01*
X596476Y723787D01*
Y727787D01*
X596362Y728659D01*
X596025Y729470D01*
X595491Y730168D01*
X594793Y730703D01*
X593982Y731039D01*
X593110Y731154D01*
X592239Y731039D01*
X591427Y730703D01*
X590730Y730168D01*
X590195Y729470D01*
X589859Y728659D01*
X589744Y727787D01*
Y723787D01*
X589859Y722916D01*
X590195Y722104D01*
X590730Y721407D01*
X591296Y720972D01*
X591134Y720472D01*
X589771D01*
X587839Y720857D01*
X586020Y721610D01*
X584382Y722705D01*
X583685Y723401D01*
X569464Y737622D01*
X569464Y737622D01*
X568737Y738281D01*
X567107Y739370D01*
X565296Y740121D01*
X563374Y740503D01*
X562393Y740551D01*
X505126D01*
X503194Y740936D01*
X501374Y741689D01*
X499736Y742784D01*
X499040Y743480D01*
X451015Y791504D01*
X451334Y791893D01*
X452362Y791206D01*
X453724Y790642D01*
X455169Y790354D01*
X456642D01*
X458087Y790642D01*
X459449Y791206D01*
X460674Y792024D01*
X461716Y793066D01*
X462535Y794291D01*
X463098Y795653D01*
X463386Y797098D01*
Y798571D01*
X463098Y800017D01*
X462535Y801378D01*
X461716Y802603D01*
X460674Y803645D01*
X459449Y804464D01*
X458087Y805027D01*
X456642Y805315D01*
X455169D01*
X453724Y805027D01*
X452362Y804464D01*
X451137Y803645D01*
X450095Y802603D01*
X449277Y801378D01*
X448713Y800017D01*
X448425Y798571D01*
Y797098D01*
X448713Y795653D01*
X449277Y794291D01*
X449964Y793263D01*
X449575Y792944D01*
X430488Y812032D01*
X430488Y812032D01*
X429761Y812691D01*
X428740Y813373D01*
Y827953D01*
X339764D01*
X326772Y814961D01*
X308459D01*
X307668Y814922D01*
X306118Y814613D01*
X304657Y814008D01*
X303342Y813130D01*
X302756Y812598D01*
X298031Y807874D01*
X272047D01*
X263779Y799606D01*
Y791339D01*
X237402Y764961D01*
X218709D01*
X217729Y764913D01*
X215806Y764530D01*
X213995Y763780D01*
X212365Y762691D01*
X211638Y762032D01*
X178126Y728519D01*
Y728519D01*
X177467Y727792D01*
X176378Y726162D01*
X175627Y724351D01*
X175245Y722429D01*
X175197Y721448D01*
Y693512D01*
Y692527D01*
X174813Y690595D01*
X174059Y688775D01*
X172964Y687138D01*
X172268Y686441D01*
X151540Y665713D01*
X151077Y665904D01*
Y673721D01*
X151016Y674028D01*
X150842Y674288D01*
X150582Y674462D01*
X150275Y674523D01*
X99275D01*
X98967Y674462D01*
X98707Y674288D01*
X98533Y674028D01*
X98472Y673721D01*
Y652756D01*
X78552D01*
X77571Y652708D01*
X75649Y652325D01*
X73838Y651575D01*
X72208Y650486D01*
X71481Y649827D01*
X56078Y634425D01*
X56078D01*
X55382Y633729D01*
X53744Y632634D01*
X51924Y631880D01*
X49992Y631496D01*
X26231D01*
X26097Y631996D01*
X27084Y632566D01*
X28147Y633629D01*
X28898Y634930D01*
X29225Y636150D01*
X23579D01*
X17932D01*
X18259Y634930D01*
X19011Y633629D01*
X20074Y632566D01*
X21060Y631996D01*
X20926Y631496D01*
X5934D01*
Y637732D01*
X6375Y637967D01*
X6675Y637767D01*
X7983Y637225D01*
X9371Y636949D01*
X10786D01*
X12174Y637225D01*
X13482Y637767D01*
X14659Y638553D01*
X15660Y639554D01*
X16446Y640730D01*
X16988Y642038D01*
X17264Y643426D01*
Y644841D01*
X16988Y646230D01*
X16446Y647537D01*
X15660Y648714D01*
X14659Y649715D01*
X13482Y650501D01*
X12174Y651043D01*
X10786Y651319D01*
X9371D01*
X7983Y651043D01*
X6675Y650501D01*
X6375Y650301D01*
X5934Y650536D01*
Y749731D01*
X6375Y749967D01*
X6675Y749767D01*
X7983Y749225D01*
X9371Y748949D01*
X10786D01*
X12174Y749225D01*
X13482Y749767D01*
X14659Y750553D01*
X15660Y751554D01*
X16446Y752731D01*
X16988Y754038D01*
X17264Y755426D01*
Y756842D01*
X16988Y758230D01*
X16446Y759537D01*
X15660Y760714D01*
X14659Y761715D01*
X13482Y762501D01*
X12174Y763043D01*
X10786Y763319D01*
X9371D01*
X7983Y763043D01*
X6675Y762501D01*
X6375Y762300D01*
X5934Y762536D01*
Y908696D01*
Y909096D01*
X6090Y909881D01*
X6397Y910621D01*
X6842Y911287D01*
X7408Y911854D01*
X8074Y912299D01*
X8814Y912605D01*
X9600Y912761D01*
X770472D01*
Y759654D01*
D02*
G37*
G36*
X634601Y712608D02*
X636421Y711854D01*
X638059Y710760D01*
X638756Y710063D01*
X647465Y701354D01*
X647465Y701354D01*
X648161Y700658D01*
X649256Y699020D01*
X650009Y697200D01*
X650394Y695268D01*
Y694283D01*
Y649811D01*
X650442Y648831D01*
X650824Y646909D01*
X651575Y645097D01*
X652664Y643468D01*
X653323Y642740D01*
X675024Y621039D01*
X675751Y620380D01*
X677381Y619291D01*
X679192Y618541D01*
X681115Y618158D01*
X682095Y618110D01*
X787650D01*
X787886Y617669D01*
X787525Y617129D01*
X786791Y615358D01*
X786417Y613478D01*
Y611561D01*
X786791Y609681D01*
X787525Y607911D01*
X788589Y606317D01*
X789945Y604961D01*
X791539Y603897D01*
X793309Y603163D01*
X795189Y602789D01*
X797106D01*
X798986Y603163D01*
X800757Y603897D01*
X802351Y604961D01*
X803706Y606317D01*
X804771Y607911D01*
X805504Y609681D01*
X805878Y611561D01*
Y613478D01*
X805504Y615358D01*
X804771Y617129D01*
X804410Y617669D01*
X804645Y618110D01*
X819725D01*
X821657Y617726D01*
X823477Y616972D01*
X825115Y615878D01*
X826508Y614485D01*
X826592Y614358D01*
X826417Y613478D01*
Y611561D01*
X826791Y609681D01*
X827525Y607911D01*
X828590Y606317D01*
X828740Y606166D01*
Y578873D01*
X828590Y578722D01*
X827525Y577129D01*
X826791Y575358D01*
X826417Y573478D01*
Y571561D01*
X826791Y569681D01*
X827525Y567911D01*
X828590Y566317D01*
X828740Y566166D01*
Y564133D01*
X828356Y562201D01*
X827602Y560381D01*
X826508Y558743D01*
X825115Y557351D01*
X823477Y556256D01*
X821657Y555502D01*
X819725Y555118D01*
X675992D01*
X674060Y555502D01*
X672240Y556256D01*
X670602Y557351D01*
X669906Y558047D01*
X605291Y622662D01*
X604595Y623358D01*
X603500Y624996D01*
X602746Y626816D01*
X602362Y628748D01*
Y629733D01*
Y699795D01*
Y700780D01*
X602746Y702712D01*
X603500Y704532D01*
X604595Y706170D01*
X608488Y710063D01*
X608488Y710063D01*
Y710063D01*
X609185Y710760D01*
X610823Y711854D01*
X612643Y712608D01*
X614574Y712992D01*
X632669D01*
X634601Y712608D01*
D02*
G37*
G36*
X808224Y709064D02*
X810044Y708311D01*
X811681Y707216D01*
X812378Y706520D01*
X826461Y692437D01*
X826417Y692218D01*
Y690302D01*
X826791Y688422D01*
X827165Y687518D01*
Y657874D01*
X800567Y631275D01*
X800567D01*
X799870Y630579D01*
X798232Y629485D01*
X796413Y628731D01*
X794481Y628346D01*
X723630D01*
X721698Y628731D01*
X719878Y629485D01*
X718240Y630579D01*
X717544Y631275D01*
X710015Y638803D01*
X709319Y639500D01*
X708225Y641138D01*
X707471Y642957D01*
X707087Y644889D01*
Y645874D01*
Y671055D01*
Y672040D01*
X707471Y673972D01*
X708225Y675792D01*
X709319Y677429D01*
X710015Y678126D01*
X738410Y706520D01*
X738410Y706520D01*
Y706520D01*
X739106Y707216D01*
X740744Y708311D01*
X742564Y709064D01*
X744496Y709449D01*
X806292D01*
X808224Y709064D01*
D02*
G37*
G36*
X192913Y661024D02*
X226378D01*
Y584063D01*
Y583078D01*
X225994Y581146D01*
X225240Y579327D01*
X224145Y577689D01*
X223449Y576992D01*
X223449D01*
X223449Y576992D01*
X167496Y521039D01*
X166799Y520343D01*
X165162Y519248D01*
X163342Y518495D01*
X161410Y518110D01*
X141150D01*
X140170Y518062D01*
X138247Y517680D01*
X136436Y516929D01*
X134806Y515840D01*
X134079Y515181D01*
X134079Y515181D01*
Y515181D01*
X105291Y486393D01*
X104632Y485666D01*
X103543Y484036D01*
X102793Y482225D01*
X102410Y480303D01*
X102362Y479322D01*
Y284063D01*
Y283079D01*
X101978Y281147D01*
X101224Y279327D01*
X100130Y277689D01*
X99433Y276992D01*
X99433D01*
X99433Y276992D01*
X75370Y252929D01*
X74673Y252233D01*
X73036Y251138D01*
X71216Y250384D01*
X69284Y250000D01*
X5934D01*
Y629489D01*
X20926D01*
X21056Y629515D01*
X21188Y629506D01*
X21437Y629591D01*
X21694Y629642D01*
X21804Y629715D01*
X21930Y629758D01*
X22116Y629921D01*
X25041D01*
X25228Y629758D01*
X25353Y629715D01*
X25463Y629642D01*
X25721Y629591D01*
X25969Y629506D01*
X26101Y629515D01*
X26231Y629489D01*
X49992D01*
X50186Y629528D01*
X50384D01*
X52316Y629912D01*
X52339Y629921D01*
X120661D01*
X121641Y629969D01*
X123564Y630352D01*
X125375Y631102D01*
X127005Y632191D01*
X127732Y632850D01*
X127732D01*
X142800Y647918D01*
X150275D01*
X150582Y647979D01*
X150842Y648153D01*
X151016Y648414D01*
X151077Y648721D01*
Y656196D01*
X175811Y680929D01*
X176470Y681657D01*
X177559Y683286D01*
X178310Y685098D01*
X178692Y687020D01*
X178740Y688000D01*
Y717118D01*
Y718103D01*
X179124Y720035D01*
X179878Y721854D01*
X180973Y723492D01*
X181669Y724189D01*
Y724189D01*
X185827Y728346D01*
X186482Y729002D01*
X188023Y730031D01*
X189735Y730741D01*
X191553Y731102D01*
X192913D01*
Y661024D01*
D02*
G37*
G36*
X445702Y726166D02*
X446705Y725751D01*
X447608Y725147D01*
X448376Y724380D01*
X448979Y723477D01*
X449395Y722474D01*
X449606Y721409D01*
Y720866D01*
Y637607D01*
X449654Y636626D01*
X450037Y634704D01*
X450787Y632893D01*
X451876Y631263D01*
X452535Y630536D01*
X471346Y611725D01*
X597465Y485606D01*
X597465Y485606D01*
X598192Y484947D01*
X599822Y483858D01*
X601633Y483108D01*
X603556Y482725D01*
X604536Y482677D01*
X860208D01*
Y10000D01*
Y9600D01*
X860051Y8814D01*
X859745Y8074D01*
X859300Y7408D01*
X858734Y6842D01*
X858068Y6397D01*
X857328Y6090D01*
X856542Y5934D01*
X9600D01*
X8814Y6090D01*
X8074Y6397D01*
X7408Y6842D01*
X6842Y7408D01*
X6397Y8074D01*
X6090Y8814D01*
X5934Y9600D01*
Y10000D01*
Y238976D01*
X89952D01*
X90933Y239024D01*
X92855Y239407D01*
X94666Y240157D01*
X96296Y241246D01*
X97023Y241905D01*
X122662Y267544D01*
X123321Y268271D01*
X124410Y269901D01*
X125160Y271712D01*
X125542Y273634D01*
X125591Y274615D01*
X125591Y274615D01*
Y452945D01*
Y453929D01*
X125975Y455861D01*
X126729Y457681D01*
X127823Y459319D01*
X128519Y460015D01*
X149433Y480929D01*
X150130Y481626D01*
X151768Y482720D01*
X153587Y483474D01*
X155519Y483858D01*
X156504Y483858D01*
X156504Y483858D01*
X182866D01*
X183846Y483906D01*
X185769Y484289D01*
X187580Y485039D01*
X189210Y486128D01*
X189937Y486787D01*
X268870Y565720D01*
X269686Y565327D01*
X272190Y564450D01*
X274777Y563860D01*
X277414Y563563D01*
X280067D01*
X282703Y563860D01*
X285290Y564450D01*
X287794Y565327D01*
X290185Y566478D01*
X292431Y567889D01*
X294505Y569544D01*
X296381Y571420D01*
X298036Y573494D01*
X299447Y575741D01*
X300599Y578131D01*
X301475Y580635D01*
X302065Y583222D01*
X302362Y585858D01*
Y588512D01*
X302065Y591148D01*
X301475Y593735D01*
X300599Y596239D01*
X300205Y597056D01*
X309983Y606833D01*
X314911Y611762D01*
X315476Y611620D01*
X315922Y610152D01*
X316836Y608442D01*
X317496Y607638D01*
X316836Y606833D01*
X315922Y605123D01*
X315359Y603268D01*
X315169Y601339D01*
X315359Y599409D01*
X315922Y597554D01*
X316836Y595844D01*
X317496Y595039D01*
X316836Y594235D01*
X315922Y592525D01*
X315359Y590670D01*
X315169Y588740D01*
X315359Y586811D01*
X315922Y584955D01*
X316836Y583246D01*
X318066Y581747D01*
X319564Y580517D01*
X321274Y579603D01*
X323130Y579040D01*
X325059Y578850D01*
X327028D01*
X328957Y579040D01*
X330812Y579603D01*
X332522Y580517D01*
X334021Y581747D01*
X335251Y583246D01*
X336165Y584955D01*
X336728Y586811D01*
X336918Y588740D01*
X336728Y590670D01*
X336165Y592525D01*
X335251Y594235D01*
X334591Y595039D01*
X335251Y595844D01*
X336165Y597554D01*
X336728Y599409D01*
X336918Y601339D01*
X336728Y603268D01*
X336165Y605123D01*
X335251Y606833D01*
X334591Y607638D01*
X335251Y608442D01*
X336165Y610152D01*
X336728Y612008D01*
X336918Y613937D01*
X336728Y615866D01*
X336165Y617722D01*
X335766Y618469D01*
X336023Y618898D01*
X346252D01*
X347232Y618946D01*
X349154Y619328D01*
X350965Y620078D01*
X352595Y621168D01*
X353323Y621827D01*
X357307Y625811D01*
X358004Y626508D01*
X359642Y627602D01*
X361461Y628356D01*
X363393Y628740D01*
X364378Y628740D01*
X364378Y628740D01*
X419134D01*
X420114Y628788D01*
X422037Y629171D01*
X423848Y629921D01*
X425478Y631010D01*
X426864Y632396D01*
X427953Y634026D01*
X428703Y635837D01*
X429086Y637760D01*
X429134Y638740D01*
X429134Y720079D01*
X429114Y720680D01*
X429311Y721866D01*
X429735Y722992D01*
X430371Y724013D01*
X431193Y724890D01*
X432171Y725590D01*
X433267Y726086D01*
X434438Y726359D01*
X435039Y726378D01*
X435039Y726378D01*
X444637D01*
X445702Y726166D01*
D02*
G37*
G36*
X553153Y730718D02*
X554973Y729964D01*
X556611Y728870D01*
X558004Y727477D01*
X559098Y725839D01*
X559852Y724019D01*
X560236Y722087D01*
Y721102D01*
Y652174D01*
X560284Y651194D01*
X560667Y649271D01*
X561417Y647460D01*
X562506Y645830D01*
X563165Y645103D01*
X657701Y550567D01*
X658428Y549908D01*
X660058Y548819D01*
X661869Y548068D01*
X663792Y547686D01*
X664772Y547638D01*
X819725D01*
X821657Y547254D01*
X823477Y546500D01*
X825115Y545405D01*
X826508Y544012D01*
X827602Y542375D01*
X828356Y540555D01*
X828497Y539844D01*
X827525Y538389D01*
X826791Y536618D01*
X826417Y534738D01*
Y532821D01*
X826791Y530941D01*
X827525Y529170D01*
X828590Y527577D01*
X828740Y527426D01*
Y504331D01*
Y500133D01*
X828590Y499982D01*
X827525Y498389D01*
X826791Y496618D01*
X826417Y494738D01*
Y492821D01*
X826469Y492563D01*
X825115Y491209D01*
X823477Y490114D01*
X821657Y489361D01*
X819725Y488976D01*
X805230D01*
X804897Y489476D01*
X805504Y490941D01*
X805878Y492821D01*
Y494738D01*
X805504Y496618D01*
X804771Y498389D01*
X803706Y499982D01*
X802351Y501338D01*
X800757Y502403D01*
X798986Y503136D01*
X797106Y503510D01*
X795189D01*
X793309Y503136D01*
X791539Y502403D01*
X789945Y501338D01*
X788589Y499982D01*
X787525Y498389D01*
X786791Y496618D01*
X786417Y494738D01*
Y492821D01*
X786791Y490941D01*
X787398Y489476D01*
X787065Y488976D01*
X674024D01*
X672094Y489360D01*
X670276Y490112D01*
X668639Y491205D01*
X667943Y491900D01*
X524189Y635654D01*
X524189Y635654D01*
X523492Y636350D01*
X522398Y637988D01*
X521644Y639808D01*
X521260Y641740D01*
X521260Y642725D01*
Y721102D01*
Y722087D01*
X521644Y724019D01*
X522398Y725839D01*
X523492Y727477D01*
X524885Y728870D01*
X526523Y729964D01*
X528343Y730718D01*
X530275Y731102D01*
X551221D01*
X553153Y730718D01*
D02*
G37*
%LPC*%
G36*
X837304Y904055D02*
X834980D01*
X832685Y903692D01*
X830474Y902973D01*
X828404Y901918D01*
X826524Y900552D01*
X824881Y898909D01*
X823515Y897029D01*
X822460Y894959D01*
X821741Y892749D01*
X821378Y890453D01*
Y888129D01*
X821741Y885834D01*
X822460Y883624D01*
X823515Y881553D01*
X824881Y879673D01*
X826524Y878030D01*
X828404Y876664D01*
X829497Y876107D01*
X829575Y875613D01*
X828590Y874628D01*
X827525Y873034D01*
X826791Y871264D01*
X826417Y869384D01*
Y867467D01*
X826791Y865587D01*
X827525Y863816D01*
X828590Y862222D01*
X829945Y860867D01*
X831539Y859802D01*
X833309Y859069D01*
X835189Y858695D01*
X837106D01*
X838986Y859069D01*
X840757Y859802D01*
X842351Y860867D01*
X843706Y862222D01*
X844771Y863816D01*
X845504Y865587D01*
X845878Y867467D01*
Y869384D01*
X845504Y871264D01*
X844771Y873034D01*
X843706Y874628D01*
X842716Y875618D01*
X842795Y876111D01*
X843880Y876664D01*
X845760Y878030D01*
X847403Y879673D01*
X848769Y881553D01*
X849824Y883624D01*
X850542Y885834D01*
X850906Y888129D01*
Y890453D01*
X850542Y892749D01*
X849824Y894959D01*
X848769Y897029D01*
X847403Y898909D01*
X845760Y900552D01*
X843880Y901918D01*
X841809Y902973D01*
X839599Y903692D01*
X837304Y904055D01*
D02*
G37*
G36*
X797106Y878156D02*
X795189D01*
X793309Y877782D01*
X791539Y877048D01*
X789945Y875983D01*
X788589Y874628D01*
X787525Y873034D01*
X786791Y871264D01*
X786417Y869384D01*
Y867467D01*
X786791Y865587D01*
X787525Y863816D01*
X788589Y862222D01*
X789945Y860867D01*
X791539Y859802D01*
X793309Y859069D01*
X795189Y858695D01*
X797106D01*
X798986Y859069D01*
X800757Y859802D01*
X802351Y860867D01*
X803706Y862222D01*
X804771Y863816D01*
X805504Y865587D01*
X805878Y867467D01*
Y869384D01*
X805504Y871264D01*
X804771Y873034D01*
X803706Y874628D01*
X802351Y875983D01*
X800757Y877048D01*
X798986Y877782D01*
X797106Y878156D01*
D02*
G37*
G36*
X837106Y838156D02*
X835189D01*
X833309Y837782D01*
X831539Y837048D01*
X829945Y835983D01*
X828590Y834628D01*
X827525Y833034D01*
X826791Y831264D01*
X826417Y829384D01*
Y827467D01*
X826791Y825587D01*
X827525Y823816D01*
X828590Y822222D01*
X829945Y820867D01*
X831539Y819802D01*
X833309Y819069D01*
X835189Y818695D01*
X837106D01*
X838986Y819069D01*
X840757Y819802D01*
X842351Y820867D01*
X843706Y822222D01*
X844771Y823816D01*
X845504Y825587D01*
X845878Y827467D01*
Y829384D01*
X845504Y831264D01*
X844771Y833034D01*
X843706Y834628D01*
X842351Y835983D01*
X840757Y837048D01*
X838986Y837782D01*
X837106Y838156D01*
D02*
G37*
G36*
X797106D02*
X795189D01*
X793309Y837782D01*
X791539Y837048D01*
X789945Y835983D01*
X788589Y834628D01*
X787525Y833034D01*
X786791Y831264D01*
X786417Y829384D01*
Y827467D01*
X786791Y825587D01*
X787525Y823816D01*
X788589Y822222D01*
X789945Y820867D01*
X791539Y819802D01*
X793309Y819069D01*
X795189Y818695D01*
X797106D01*
X798986Y819069D01*
X800757Y819802D01*
X802351Y820867D01*
X803706Y822222D01*
X804771Y823816D01*
X805504Y825587D01*
X805878Y827467D01*
Y829384D01*
X805504Y831264D01*
X804771Y833034D01*
X803706Y834628D01*
X802351Y835983D01*
X800757Y837048D01*
X798986Y837782D01*
X797106Y838156D01*
D02*
G37*
G36*
X105942Y894685D02*
X105081D01*
X104285Y894355D01*
X103937Y894007D01*
X103589Y894355D01*
X102793Y894685D01*
X101932D01*
X101136Y894355D01*
X100787Y894007D01*
X100439Y894355D01*
X99643Y894685D01*
X98782D01*
X97986Y894355D01*
X97377Y893746D01*
X97047Y892950D01*
Y892089D01*
X97377Y891293D01*
X97986Y890684D01*
X98782Y890354D01*
X99643D01*
X100439Y890684D01*
X100787Y891032D01*
X101136Y890684D01*
X101932Y890354D01*
X102793D01*
X103589Y890684D01*
X103937Y891032D01*
X104285Y890684D01*
X105081Y890354D01*
X105942D01*
X106738Y890684D01*
X107348Y891293D01*
X107677Y892089D01*
Y892950D01*
X107348Y893746D01*
X106738Y894355D01*
X105942Y894685D01*
D02*
G37*
G36*
X260436Y896638D02*
X259575D01*
X258779Y896308D01*
X258170Y895699D01*
X257840Y894903D01*
Y894042D01*
X258170Y893246D01*
X258779Y892637D01*
X259575Y892307D01*
X260436D01*
X261232Y892637D01*
X261841Y893246D01*
X262171Y894042D01*
Y894903D01*
X261841Y895699D01*
X261232Y896308D01*
X260436Y896638D01*
D02*
G37*
G36*
X614785Y896260D02*
X613924D01*
X613128Y895930D01*
X612519Y895321D01*
X612189Y894525D01*
Y893664D01*
X612519Y892868D01*
X613128Y892259D01*
X613924Y891929D01*
X614785D01*
X615581Y892259D01*
X616190Y892868D01*
X616520Y893664D01*
Y894525D01*
X616190Y895321D01*
X615581Y895930D01*
X614785Y896260D01*
D02*
G37*
G36*
X618950Y892717D02*
X618089D01*
X617293Y892387D01*
X616684Y891778D01*
X616354Y890982D01*
Y890121D01*
X616684Y889325D01*
X617293Y888715D01*
X618089Y888386D01*
X618950D01*
X619746Y888715D01*
X620355Y889325D01*
X620685Y890121D01*
Y890982D01*
X620355Y891778D01*
X619746Y892387D01*
X618950Y892717D01*
D02*
G37*
G36*
X30950Y898937D02*
X29050D01*
X27187Y898566D01*
X25431Y897839D01*
X23851Y896784D01*
X22508Y895440D01*
X21452Y893860D01*
X20725Y892105D01*
X20354Y890241D01*
Y888341D01*
X20725Y886478D01*
X21452Y884722D01*
X22508Y883143D01*
X23851Y881799D01*
X25431Y880744D01*
X27187Y880016D01*
X29050Y879646D01*
X30950D01*
X32814Y880016D01*
X34569Y880744D01*
X36149Y881799D01*
X37492Y883143D01*
X38548Y884722D01*
X39275Y886478D01*
X39646Y888341D01*
Y890241D01*
X39275Y892105D01*
X38548Y893860D01*
X37492Y895440D01*
X36149Y896784D01*
X34569Y897839D01*
X32814Y898566D01*
X30950Y898937D01*
D02*
G37*
G36*
X249643Y878150D02*
X248782D01*
X247986Y877820D01*
X247377Y877211D01*
X247047Y876415D01*
Y875554D01*
X247377Y874758D01*
X247986Y874149D01*
X248782Y873819D01*
X249643D01*
X250439Y874149D01*
X251048Y874758D01*
X251378Y875554D01*
Y876415D01*
X251048Y877211D01*
X250439Y877820D01*
X249643Y878150D01*
D02*
G37*
G36*
X261454Y877756D02*
X260593D01*
X259797Y877426D01*
X259188Y876817D01*
X258858Y876021D01*
Y875160D01*
X259188Y874364D01*
X259797Y873755D01*
X260593Y873425D01*
X261454D01*
X262250Y873755D01*
X262859Y874364D01*
X263189Y875160D01*
Y876021D01*
X262859Y876817D01*
X262250Y877426D01*
X261454Y877756D01*
D02*
G37*
G36*
X262242Y870276D02*
X261380D01*
X260584Y869946D01*
X259975Y869337D01*
X259646Y868541D01*
Y867680D01*
X259975Y866884D01*
X260584Y866275D01*
X261380Y865945D01*
X262242D01*
X263038Y866275D01*
X263647Y866884D01*
X263976Y867680D01*
Y868541D01*
X263647Y869337D01*
X263038Y869946D01*
X262242Y870276D01*
D02*
G37*
G36*
X249668Y870141D02*
X248807D01*
X248011Y869811D01*
X247402Y869202D01*
X247072Y868406D01*
Y867545D01*
X247402Y866749D01*
X248011Y866140D01*
X248807Y865810D01*
X249668D01*
X250464Y866140D01*
X251073Y866749D01*
X251403Y867545D01*
Y868406D01*
X251073Y869202D01*
X250464Y869811D01*
X249668Y870141D01*
D02*
G37*
G36*
X68633Y875006D02*
X67418D01*
X66245Y874692D01*
X65193Y874084D01*
X64335Y873226D01*
X63727Y872174D01*
X63413Y871001D01*
Y869786D01*
X63727Y868613D01*
X64335Y867562D01*
X65193Y866703D01*
X66245Y866096D01*
X67418Y865781D01*
X68633D01*
X69806Y866096D01*
X70858Y866703D01*
X71716Y867562D01*
X72324Y868613D01*
X72638Y869786D01*
Y871001D01*
X72324Y872174D01*
X71716Y873226D01*
X70858Y874084D01*
X69806Y874692D01*
X68633Y875006D01*
D02*
G37*
G36*
X28633D02*
X27418D01*
X26245Y874692D01*
X25193Y874084D01*
X24335Y873226D01*
X23727Y872174D01*
X23413Y871001D01*
Y869786D01*
X23727Y868613D01*
X24335Y867562D01*
X25193Y866703D01*
X26245Y866096D01*
X27418Y865781D01*
X28633D01*
X29806Y866096D01*
X30858Y866703D01*
X31716Y867562D01*
X32324Y868613D01*
X32638Y869786D01*
Y871001D01*
X32324Y872174D01*
X31716Y873226D01*
X30858Y874084D01*
X29806Y874692D01*
X28633Y875006D01*
D02*
G37*
G36*
X144919Y876181D02*
X144058D01*
X143262Y875851D01*
X142652Y875242D01*
X142323Y874446D01*
Y873585D01*
X142652Y872789D01*
X143262Y872180D01*
X143345Y871604D01*
X143046Y871305D01*
X142717Y870509D01*
Y869648D01*
X143046Y868852D01*
X143591Y868307D01*
X143046Y867762D01*
X142717Y866966D01*
Y866105D01*
X143046Y865309D01*
X143413Y864942D01*
X143110Y864210D01*
Y863349D01*
X143440Y862553D01*
X144049Y861944D01*
X144845Y861614D01*
X145706D01*
X146502Y861944D01*
X147111Y862553D01*
X147441Y863349D01*
Y864210D01*
X147111Y865006D01*
X146744Y865373D01*
X147047Y866105D01*
Y866966D01*
X146718Y867762D01*
X146172Y868307D01*
X146718Y868852D01*
X147047Y869648D01*
Y870509D01*
X146718Y871305D01*
X146108Y871914D01*
X146025Y872490D01*
X146324Y872789D01*
X146653Y873585D01*
Y874446D01*
X146324Y875242D01*
X145715Y875851D01*
X144919Y876181D01*
D02*
G37*
G36*
X585470Y863189D02*
X584609D01*
X583813Y862859D01*
X583204Y862250D01*
X582874Y861454D01*
Y860593D01*
X583204Y859797D01*
X583813Y859188D01*
X584609Y858858D01*
X585470D01*
X586266Y859188D01*
X586875Y859797D01*
X587205Y860593D01*
Y861454D01*
X586875Y862250D01*
X586266Y862859D01*
X585470Y863189D01*
D02*
G37*
G36*
X657417Y864664D02*
X656556D01*
X655760Y864334D01*
X655151Y863725D01*
X654821Y862929D01*
Y862470D01*
X654768Y862061D01*
X654359Y862008D01*
X653900D01*
X653104Y861678D01*
X652495Y861069D01*
X652165Y860273D01*
Y859412D01*
X652495Y858616D01*
X653104Y858007D01*
X653900Y857677D01*
X654761D01*
X655557Y858007D01*
X656166Y858616D01*
X656496Y859412D01*
Y859871D01*
X656549Y860280D01*
X656958Y860333D01*
X657417D01*
X658213Y860663D01*
X658822Y861272D01*
X659152Y862068D01*
Y862929D01*
X658822Y863725D01*
X658213Y864334D01*
X657417Y864664D01*
D02*
G37*
G36*
X437045Y861220D02*
X436184D01*
X435388Y860891D01*
X434778Y860282D01*
X434449Y859486D01*
Y858624D01*
X434778Y857829D01*
X435388Y857219D01*
X436184Y856890D01*
X437045D01*
X437841Y857219D01*
X438450Y857829D01*
X438779Y858624D01*
Y859486D01*
X438450Y860282D01*
X437841Y860891D01*
X437045Y861220D01*
D02*
G37*
G36*
X311061Y858465D02*
X310199D01*
X309403Y858135D01*
X308794Y857526D01*
X308465Y856730D01*
Y855869D01*
X308794Y855073D01*
X309403Y854463D01*
X310199Y854134D01*
X311061D01*
X311857Y854463D01*
X312466Y855073D01*
X312795Y855869D01*
Y856730D01*
X312466Y857526D01*
X311857Y858135D01*
X311061Y858465D01*
D02*
G37*
G36*
X297699Y858206D02*
X296838D01*
X296042Y857876D01*
X295433Y857267D01*
X295103Y856471D01*
Y855610D01*
X295433Y854814D01*
X296042Y854205D01*
X296838Y853875D01*
X297699D01*
X298495Y854205D01*
X299104Y854814D01*
X299434Y855610D01*
Y856471D01*
X299104Y857267D01*
X298495Y857876D01*
X297699Y858206D01*
D02*
G37*
G36*
X336651Y857677D02*
X335790D01*
X334994Y857347D01*
X334385Y856738D01*
X334055Y855943D01*
Y855081D01*
X334385Y854285D01*
X334994Y853676D01*
X335790Y853347D01*
X336651D01*
X337447Y853676D01*
X338056Y854285D01*
X338386Y855081D01*
Y855943D01*
X338056Y856738D01*
X337447Y857347D01*
X336651Y857677D01*
D02*
G37*
G36*
X724053Y854921D02*
X723191D01*
X722396Y854592D01*
X721786Y853983D01*
X721457Y853187D01*
Y852325D01*
X721786Y851529D01*
X722396Y850920D01*
X723191Y850591D01*
X724053D01*
X724849Y850920D01*
X725458Y851529D01*
X725787Y852325D01*
Y853187D01*
X725458Y853983D01*
X724849Y854592D01*
X724053Y854921D01*
D02*
G37*
G36*
X606730Y852165D02*
X605868D01*
X605073Y851836D01*
X604463Y851227D01*
X604134Y850431D01*
Y849569D01*
X604463Y848773D01*
X605073Y848164D01*
X605868Y847835D01*
X606730D01*
X607526Y848164D01*
X608135Y848773D01*
X608465Y849569D01*
Y850431D01*
X608135Y851227D01*
X607526Y851836D01*
X606730Y852165D01*
D02*
G37*
G36*
X298428Y850907D02*
X297567D01*
X296771Y850577D01*
X296162Y849968D01*
X295832Y849172D01*
Y848310D01*
X296162Y847515D01*
X296771Y846906D01*
X297567Y846576D01*
X298428D01*
X299224Y846906D01*
X299833Y847515D01*
X300163Y848310D01*
Y849172D01*
X299833Y849968D01*
X299224Y850577D01*
X298428Y850907D01*
D02*
G37*
G36*
X310273Y850591D02*
X309412D01*
X308616Y850261D01*
X308007Y849652D01*
X307677Y848856D01*
Y847995D01*
X308007Y847199D01*
X308616Y846589D01*
X309412Y846260D01*
X310273D01*
X311069Y846589D01*
X311678Y847199D01*
X312008Y847995D01*
Y848856D01*
X311678Y849652D01*
X311069Y850261D01*
X310273Y850591D01*
D02*
G37*
G36*
X735358Y848634D02*
X734496D01*
X733700Y848304D01*
X733091Y847695D01*
X732762Y846899D01*
Y846038D01*
X733091Y845242D01*
X733700Y844633D01*
X734496Y844303D01*
X735358D01*
X736154Y844633D01*
X736763Y845242D01*
X737092Y846038D01*
Y846899D01*
X736763Y847695D01*
X736154Y848304D01*
X735358Y848634D01*
D02*
G37*
G36*
X53797Y857825D02*
X52333D01*
X50897Y857539D01*
X49545Y856979D01*
X48328Y856166D01*
X47293Y855131D01*
X46479Y853914D01*
X45919Y852561D01*
X45634Y851126D01*
Y849662D01*
X45919Y848226D01*
X46479Y846874D01*
X47293Y845657D01*
X48328Y844622D01*
X49545Y843808D01*
X50897Y843248D01*
X52333Y842963D01*
X53797D01*
X55232Y843248D01*
X56585Y843808D01*
X57802Y844622D01*
X58837Y845657D01*
X59650Y846874D01*
X60210Y848226D01*
X60496Y849662D01*
Y851126D01*
X60210Y852561D01*
X59650Y853914D01*
X58837Y855131D01*
X57802Y856166D01*
X56585Y856979D01*
X55232Y857539D01*
X53797Y857825D01*
D02*
G37*
G36*
X279171Y845472D02*
X278309D01*
X277514Y845143D01*
X276905Y844534D01*
X276575Y843738D01*
Y842876D01*
X276905Y842080D01*
X277514Y841471D01*
X278309Y841142D01*
X279171D01*
X279967Y841471D01*
X280576Y842080D01*
X280906Y842876D01*
Y843738D01*
X280576Y844534D01*
X279967Y845143D01*
X279171Y845472D01*
D02*
G37*
G36*
X606730Y844685D02*
X605868D01*
X605073Y844355D01*
X604463Y843746D01*
X604134Y842950D01*
Y842089D01*
X604463Y841293D01*
X605073Y840684D01*
X605868Y840354D01*
X606730D01*
X607526Y840684D01*
X608135Y841293D01*
X608465Y842089D01*
Y842950D01*
X608135Y843746D01*
X607526Y844355D01*
X606730Y844685D01*
D02*
G37*
G36*
X207517Y880906D02*
X206656D01*
X205860Y880576D01*
X205251Y879967D01*
X204921Y879171D01*
Y878309D01*
X205251Y877514D01*
X205860Y876904D01*
X205882Y876895D01*
Y819497D01*
X205871D01*
X206009Y817742D01*
X206420Y816031D01*
X207093Y814405D01*
X208013Y812904D01*
X209156Y811566D01*
X209164Y811574D01*
X218710Y802028D01*
X218701Y802005D01*
Y801144D01*
X219030Y800348D01*
X219640Y799739D01*
X220435Y799409D01*
X221297D01*
X222093Y799739D01*
X222702Y800348D01*
X223031Y801144D01*
Y802005D01*
X222702Y802801D01*
X222093Y803411D01*
X221297Y803740D01*
X220435D01*
X220413Y803731D01*
X210867Y813277D01*
X210823Y813307D01*
X209760Y814601D01*
X208946Y816125D01*
X208445Y817778D01*
X208280Y819444D01*
X208291Y819497D01*
Y876895D01*
X208313Y876904D01*
X208922Y877514D01*
X208932Y877536D01*
X217511D01*
X217564Y877546D01*
X219230Y877382D01*
X220883Y876881D01*
X222407Y876066D01*
X223701Y875004D01*
X223731Y874960D01*
X246813Y851878D01*
X246606Y851378D01*
X246026D01*
X245230Y851048D01*
X244621Y850439D01*
X244291Y849643D01*
Y848782D01*
X244621Y847986D01*
X245230Y847377D01*
X246026Y847047D01*
X246887D01*
X247683Y847377D01*
X248292Y847986D01*
X248622Y848782D01*
Y849362D01*
X249122Y849569D01*
X256890Y841801D01*
X257235Y841439D01*
X257235Y841439D01*
X258573Y840296D01*
X260074Y839377D01*
X261700Y838703D01*
X263411Y838293D01*
X265166Y838154D01*
Y838166D01*
X266906D01*
Y837278D01*
X266884Y837269D01*
X266274Y836660D01*
X265945Y835864D01*
Y835002D01*
X266274Y834206D01*
X266884Y833597D01*
X267680Y833268D01*
X268541D01*
X269337Y833597D01*
X269946Y834206D01*
X270276Y835002D01*
Y835864D01*
X269946Y836660D01*
X269337Y837269D01*
X269315Y837278D01*
Y838166D01*
X303338D01*
Y838154D01*
X305093Y838293D01*
X306804Y838703D01*
X308430Y839377D01*
X309931Y840296D01*
X311269Y841439D01*
X311261Y841448D01*
X321978Y852165D01*
X322340Y852511D01*
X322340Y852511D01*
X323483Y853849D01*
X324403Y855350D01*
X325076Y856975D01*
X325487Y858687D01*
X325625Y860441D01*
X325614D01*
Y862008D01*
X325614Y862008D01*
X325522Y862469D01*
X325398Y862654D01*
X325297Y862961D01*
X325417Y863299D01*
X325851Y863734D01*
X326181Y864530D01*
Y865391D01*
X325851Y866187D01*
X325242Y866796D01*
X324447Y867126D01*
X323585D01*
X322789Y866796D01*
X322180Y866187D01*
X321850Y865391D01*
Y864530D01*
X322180Y863734D01*
X322789Y863125D01*
X322812Y863116D01*
Y862402D01*
X322812Y862401D01*
X322903Y861941D01*
X323164Y861550D01*
X323205Y861509D01*
Y860441D01*
X323216Y860389D01*
X323052Y858722D01*
X322550Y857069D01*
X321736Y855546D01*
X320955Y854595D01*
X320629Y854222D01*
Y854222D01*
X320282Y853875D01*
X309558Y843151D01*
X309528Y843106D01*
X308233Y842044D01*
X306710Y841230D01*
X305057Y840728D01*
X303391Y840564D01*
X303338Y840574D01*
X269315D01*
Y844460D01*
X269330D01*
X269177Y846009D01*
X268725Y847499D01*
X268190Y848500D01*
X268307Y848782D01*
Y849643D01*
X267977Y850439D01*
X267368Y851048D01*
X266572Y851378D01*
X265711D01*
X264915Y851048D01*
X264306Y850439D01*
X263976Y849643D01*
Y848782D01*
X264306Y847986D01*
X264915Y847377D01*
X265711Y847047D01*
X266260D01*
X266738Y845893D01*
X266918Y844522D01*
X266906Y844460D01*
Y840574D01*
X265166D01*
X265113Y840564D01*
X263447Y840728D01*
X261794Y841230D01*
X260270Y842044D01*
X259313Y842829D01*
X258946Y843151D01*
X258946Y843151D01*
X225434Y876663D01*
X225442Y876671D01*
X224104Y877814D01*
X222603Y878733D01*
X220977Y879407D01*
X219266Y879818D01*
X217511Y879956D01*
Y879944D01*
X208932D01*
X208922Y879967D01*
X208313Y880576D01*
X207517Y880906D01*
D02*
G37*
G36*
X742557Y841929D02*
X741695D01*
X740899Y841599D01*
X740290Y840990D01*
X739961Y840195D01*
Y839333D01*
X740290Y838537D01*
X740899Y837928D01*
X741695Y837598D01*
X742557D01*
X743353Y837928D01*
X743962Y838537D01*
X744291Y839333D01*
Y840195D01*
X743962Y840990D01*
X743353Y841599D01*
X742557Y841929D01*
D02*
G37*
G36*
X253187Y841535D02*
X252325D01*
X251529Y841206D01*
X250920Y840597D01*
X250591Y839801D01*
Y838939D01*
X250920Y838144D01*
X251529Y837534D01*
X252325Y837205D01*
X253187D01*
X253982Y837534D01*
X254592Y838144D01*
X254921Y838939D01*
Y839801D01*
X254592Y840597D01*
X253982Y841206D01*
X253187Y841535D01*
D02*
G37*
G36*
X237832D02*
X236971D01*
X236175Y841206D01*
X235566Y840597D01*
X235236Y839801D01*
Y838939D01*
X235566Y838144D01*
X236175Y837534D01*
X236971Y837205D01*
X237832D01*
X238628Y837534D01*
X239237Y838144D01*
X239567Y838939D01*
Y839801D01*
X239237Y840597D01*
X238628Y841206D01*
X237832Y841535D01*
D02*
G37*
G36*
X415391Y837205D02*
X414530D01*
X413734Y836875D01*
X413125Y836266D01*
X412795Y835470D01*
Y834609D01*
X413125Y833813D01*
X413734Y833204D01*
X414530Y832874D01*
X415391D01*
X416187Y833204D01*
X416796Y833813D01*
X417126Y834609D01*
Y835470D01*
X416796Y836266D01*
X416187Y836875D01*
X415391Y837205D01*
D02*
G37*
G36*
X712242Y836811D02*
X711380D01*
X710584Y836481D01*
X709975Y835872D01*
X709646Y835076D01*
Y834215D01*
X709975Y833419D01*
X710584Y832810D01*
X711380Y832480D01*
X712242D01*
X713038Y832810D01*
X713647Y833419D01*
X713976Y834215D01*
Y835076D01*
X713647Y835872D01*
X713038Y836481D01*
X712242Y836811D01*
D02*
G37*
G36*
X310273Y833268D02*
X309412D01*
X308616Y832938D01*
X308007Y832329D01*
X307677Y831533D01*
Y830672D01*
X308007Y829876D01*
X308616Y829267D01*
X309412Y828937D01*
X310273D01*
X311069Y829267D01*
X311678Y829876D01*
X312008Y830672D01*
Y831533D01*
X311678Y832329D01*
X311069Y832938D01*
X310273Y833268D01*
D02*
G37*
G36*
X741769Y832087D02*
X740908D01*
X740112Y831757D01*
X739503Y831148D01*
X739173Y830352D01*
Y829491D01*
X739503Y828695D01*
X740112Y828086D01*
X740908Y827756D01*
X741769D01*
X742565Y828086D01*
X743174Y828695D01*
X743504Y829491D01*
Y830352D01*
X743174Y831148D01*
X742565Y831757D01*
X741769Y832087D01*
D02*
G37*
G36*
X527990Y827362D02*
X527128D01*
X526333Y827032D01*
X525723Y826423D01*
X525394Y825628D01*
Y824766D01*
X525723Y823970D01*
X526333Y823361D01*
X527128Y823032D01*
X527990D01*
X528786Y823361D01*
X529395Y823970D01*
X529724Y824766D01*
Y825628D01*
X529395Y826423D01*
X528786Y827032D01*
X527990Y827362D01*
D02*
G37*
G36*
X277596Y826563D02*
X276735D01*
X275939Y826233D01*
X275330Y825624D01*
X275000Y824829D01*
Y823967D01*
X275330Y823171D01*
X275939Y822562D01*
X276735Y822232D01*
X277596D01*
X278392Y822562D01*
X279001Y823171D01*
X279331Y823967D01*
Y824829D01*
X279001Y825624D01*
X278392Y826233D01*
X277596Y826563D01*
D02*
G37*
G36*
X68633Y835006D02*
X67418D01*
X66245Y834692D01*
X65193Y834085D01*
X64335Y833226D01*
X63727Y832174D01*
X63413Y831001D01*
Y829786D01*
X63727Y828613D01*
X64335Y827562D01*
X65193Y826703D01*
X66245Y826096D01*
X66462Y826037D01*
Y825537D01*
X66245Y825479D01*
X65193Y824872D01*
X64335Y824013D01*
X63727Y822961D01*
X63413Y821788D01*
Y820574D01*
X63727Y819401D01*
X64335Y818349D01*
X65193Y817490D01*
X66245Y816883D01*
X67418Y816569D01*
X68633D01*
X69806Y816883D01*
X70858Y817490D01*
X71716Y818349D01*
X72324Y819401D01*
X72638Y820574D01*
Y821788D01*
X72324Y822961D01*
X71716Y824013D01*
X70858Y824872D01*
X69806Y825479D01*
X69589Y825537D01*
Y826037D01*
X69806Y826096D01*
X70858Y826703D01*
X71716Y827562D01*
X72324Y828613D01*
X72638Y829786D01*
Y831001D01*
X72324Y832174D01*
X71716Y833226D01*
X70858Y834085D01*
X69806Y834692D01*
X68633Y835006D01*
D02*
G37*
G36*
X28633D02*
X27418D01*
X26245Y834692D01*
X25193Y834085D01*
X24335Y833226D01*
X23727Y832174D01*
X23413Y831001D01*
Y829786D01*
X23727Y828613D01*
X24335Y827562D01*
X25193Y826703D01*
X26245Y826096D01*
X26463Y826037D01*
Y825537D01*
X26245Y825479D01*
X25193Y824872D01*
X24335Y824013D01*
X23727Y822961D01*
X23413Y821788D01*
Y820574D01*
X23727Y819401D01*
X24335Y818349D01*
X25193Y817490D01*
X26245Y816883D01*
X27418Y816569D01*
X28633D01*
X29806Y816883D01*
X30858Y817490D01*
X31716Y818349D01*
X32324Y819401D01*
X32638Y820574D01*
Y821788D01*
X32324Y822961D01*
X31716Y824013D01*
X30858Y824872D01*
X29806Y825479D01*
X29588Y825537D01*
Y826037D01*
X29806Y826096D01*
X30858Y826703D01*
X31716Y827562D01*
X32324Y828613D01*
X32638Y829786D01*
Y831001D01*
X32324Y832174D01*
X31716Y833226D01*
X30858Y834085D01*
X29806Y834692D01*
X28633Y835006D01*
D02*
G37*
G36*
X549250Y817520D02*
X548388D01*
X547592Y817190D01*
X546983Y816581D01*
X546654Y815785D01*
Y814924D01*
X546983Y814128D01*
X547592Y813519D01*
X548388Y813189D01*
X549250D01*
X550045Y813519D01*
X550655Y814128D01*
X550984Y814924D01*
Y815785D01*
X550655Y816581D01*
X550045Y817190D01*
X549250Y817520D01*
D02*
G37*
G36*
X219722Y816732D02*
X218861D01*
X218065Y816403D01*
X217456Y815794D01*
X217126Y814998D01*
Y814136D01*
X217456Y813340D01*
X218065Y812731D01*
X218861Y812402D01*
X219722D01*
X220518Y812731D01*
X221127Y813340D01*
X221457Y814136D01*
Y814998D01*
X221127Y815794D01*
X220518Y816403D01*
X219722Y816732D01*
D02*
G37*
G36*
X188979Y816339D02*
X188118D01*
X187322Y816009D01*
X186713Y815400D01*
X186383Y814604D01*
Y813743D01*
X186713Y812947D01*
X187322Y812337D01*
X188118Y812008D01*
X188979D01*
X189775Y812337D01*
X190384Y812947D01*
X190714Y813743D01*
Y814604D01*
X190384Y815400D01*
X189775Y816009D01*
X188979Y816339D01*
D02*
G37*
G36*
X161367Y825000D02*
X159893D01*
X158448Y824712D01*
X157087Y824149D01*
X155861Y823330D01*
X154820Y822288D01*
X154001Y821063D01*
X153437Y819702D01*
X153150Y818256D01*
Y816783D01*
X153437Y815338D01*
X154001Y813976D01*
X154820Y812751D01*
X155861Y811709D01*
X157087Y810891D01*
X158448Y810327D01*
X159893Y810039D01*
X161367D01*
X162812Y810327D01*
X164173Y810891D01*
X165398Y811709D01*
X166440Y812751D01*
X167259Y813976D01*
X167823Y815338D01*
X168110Y816783D01*
Y818256D01*
X167823Y819702D01*
X167259Y821063D01*
X166440Y822288D01*
X165398Y823330D01*
X164173Y824149D01*
X162812Y824712D01*
X161367Y825000D01*
D02*
G37*
G36*
X499643Y808858D02*
X498782D01*
X497986Y808529D01*
X497377Y807920D01*
X497331Y807809D01*
X495010D01*
X494683Y808135D01*
X493887Y808465D01*
X493026D01*
X492230Y808135D01*
X491621Y807526D01*
X491291Y806730D01*
Y805869D01*
X491621Y805073D01*
X492230Y804463D01*
X493026Y804134D01*
X493887D01*
X494683Y804463D01*
X495292Y805073D01*
X495338Y805183D01*
X497660D01*
X497986Y804857D01*
X498782Y804528D01*
X499643D01*
X500439Y804857D01*
X501048Y805466D01*
X501378Y806262D01*
Y807124D01*
X501048Y807920D01*
X500439Y808529D01*
X499643Y808858D01*
D02*
G37*
G36*
X238269Y809603D02*
X237407D01*
X236611Y809273D01*
X236002Y808664D01*
X235673Y807868D01*
Y807007D01*
X236002Y806211D01*
X236611Y805602D01*
X237407Y805272D01*
X238269D01*
X239065Y805602D01*
X239674Y806211D01*
X240003Y807007D01*
Y807868D01*
X239674Y808664D01*
X239065Y809273D01*
X238269Y809603D01*
D02*
G37*
G36*
X252335Y809295D02*
X251474D01*
X250678Y808965D01*
X250069Y808356D01*
X249739Y807560D01*
Y806699D01*
X250069Y805903D01*
X250678Y805294D01*
X251474Y804964D01*
X252335D01*
X253131Y805294D01*
X253740Y805903D01*
X254070Y806699D01*
Y807560D01*
X253740Y808356D01*
X253131Y808965D01*
X252335Y809295D01*
D02*
G37*
G36*
X731533Y808858D02*
X730672D01*
X729876Y808529D01*
X729267Y807920D01*
X728937Y807124D01*
Y806262D01*
X729267Y805466D01*
X729876Y804857D01*
X730672Y804528D01*
X731533D01*
X732329Y804857D01*
X732938Y805466D01*
X733268Y806262D01*
Y807124D01*
X732938Y807920D01*
X732329Y808529D01*
X731533Y808858D01*
D02*
G37*
G36*
X701218D02*
X700357D01*
X699561Y808529D01*
X698952Y807920D01*
X698622Y807124D01*
Y806262D01*
X698952Y805466D01*
X699561Y804857D01*
X700357Y804528D01*
X701218D01*
X702014Y804857D01*
X702623Y805466D01*
X702953Y806262D01*
Y807124D01*
X702623Y807920D01*
X702014Y808529D01*
X701218Y808858D01*
D02*
G37*
G36*
X657517Y808071D02*
X656656D01*
X655860Y807741D01*
X655251Y807132D01*
X654921Y806336D01*
Y805475D01*
X655251Y804679D01*
X655860Y804070D01*
X656656Y803740D01*
X657517D01*
X658313Y804070D01*
X658922Y804679D01*
X659252Y805475D01*
Y806336D01*
X658922Y807132D01*
X658313Y807741D01*
X657517Y808071D01*
D02*
G37*
G36*
X54049Y808763D02*
Y802165D01*
X60646D01*
X60400Y803406D01*
X59825Y804794D01*
X58990Y806044D01*
X57927Y807106D01*
X56678Y807941D01*
X55290Y808516D01*
X54049Y808763D01*
D02*
G37*
G36*
X52081D02*
X50840Y808516D01*
X49452Y807941D01*
X48202Y807106D01*
X47140Y806044D01*
X46305Y804794D01*
X45730Y803406D01*
X45483Y802165D01*
X52081D01*
Y808763D01*
D02*
G37*
G36*
X616572Y806496D02*
X615711D01*
X614915Y806166D01*
X614306Y805557D01*
X613976Y804761D01*
Y803900D01*
X614306Y803104D01*
X614915Y802495D01*
X615711Y802165D01*
X616572D01*
X617368Y802495D01*
X617977Y803104D01*
X618307Y803900D01*
Y804761D01*
X617977Y805557D01*
X617368Y806166D01*
X616572Y806496D01*
D02*
G37*
G36*
X541308Y806310D02*
X540446D01*
X539650Y805980D01*
X539041Y805371D01*
X538712Y804575D01*
Y803714D01*
X539041Y802918D01*
X539650Y802309D01*
X540446Y801979D01*
X541308D01*
X542103Y802309D01*
X542713Y802918D01*
X543042Y803714D01*
Y804575D01*
X542713Y805371D01*
X542103Y805980D01*
X541308Y806310D01*
D02*
G37*
G36*
X251612Y803346D02*
X250750D01*
X249955Y803017D01*
X249345Y802408D01*
X249016Y801612D01*
Y800750D01*
X249345Y799955D01*
X249955Y799345D01*
X250750Y799016D01*
X251612D01*
X252408Y799345D01*
X253017Y799955D01*
X253346Y800750D01*
Y801612D01*
X253017Y802408D01*
X252408Y803017D01*
X251612Y803346D01*
D02*
G37*
G36*
X522872Y802953D02*
X522010D01*
X521214Y802623D01*
X520605Y802014D01*
X520276Y801218D01*
Y800357D01*
X520605Y799561D01*
X521214Y798952D01*
X522010Y798622D01*
X522872D01*
X523667Y798952D01*
X524277Y799561D01*
X524606Y800357D01*
Y801218D01*
X524277Y802014D01*
X523667Y802623D01*
X522872Y802953D01*
D02*
G37*
G36*
X536651Y799409D02*
X535790D01*
X534994Y799080D01*
X534385Y798471D01*
X534055Y797675D01*
Y796813D01*
X534385Y796018D01*
X534994Y795408D01*
X535790Y795079D01*
X536651D01*
X537447Y795408D01*
X538056Y796018D01*
X538386Y796813D01*
Y797675D01*
X538056Y798471D01*
X537447Y799080D01*
X536651Y799409D01*
D02*
G37*
G36*
X742950Y798622D02*
X742089D01*
X741293Y798292D01*
X740684Y797683D01*
X740354Y796887D01*
Y796026D01*
X740684Y795230D01*
X741293Y794621D01*
X742089Y794291D01*
X742950D01*
X743746Y794621D01*
X744355Y795230D01*
X744685Y796026D01*
Y796887D01*
X744355Y797683D01*
X743746Y798292D01*
X742950Y798622D01*
D02*
G37*
G36*
X60646Y800197D02*
X54049D01*
Y793600D01*
X55290Y793846D01*
X56678Y794421D01*
X57927Y795256D01*
X58990Y796319D01*
X59825Y797568D01*
X60400Y798956D01*
X60646Y800197D01*
D02*
G37*
G36*
X52081D02*
X45483D01*
X45730Y798956D01*
X46305Y797568D01*
X47140Y796319D01*
X48202Y795256D01*
X49452Y794421D01*
X50840Y793846D01*
X52081Y793600D01*
Y800197D01*
D02*
G37*
G36*
X678777Y797047D02*
X677916D01*
X677120Y796718D01*
X676511Y796108D01*
X676181Y795313D01*
Y794451D01*
X676511Y793655D01*
X677120Y793046D01*
X677916Y792717D01*
X678777D01*
X679573Y793046D01*
X680182Y793655D01*
X680512Y794451D01*
Y795313D01*
X680182Y796108D01*
X679573Y796718D01*
X678777Y797047D01*
D02*
G37*
G36*
X637045D02*
X636184D01*
X635388Y796718D01*
X634778Y796108D01*
X634449Y795313D01*
Y794451D01*
X634778Y793655D01*
X635388Y793046D01*
X636184Y792717D01*
X637045D01*
X637841Y793046D01*
X638450Y793655D01*
X638779Y794451D01*
Y795313D01*
X638450Y796108D01*
X637841Y796718D01*
X637045Y797047D01*
D02*
G37*
G36*
X142005Y818617D02*
X79005D01*
X78698Y818556D01*
X78437Y818382D01*
X78263Y818122D01*
X78202Y817814D01*
Y792814D01*
X78263Y792507D01*
X78437Y792247D01*
X78698Y792073D01*
X79005Y792011D01*
X142005D01*
X142312Y792073D01*
X142573Y792247D01*
X142747Y792507D01*
X142808Y792814D01*
Y817814D01*
X142747Y818122D01*
X142573Y818382D01*
X142312Y818556D01*
X142005Y818617D01*
D02*
G37*
G36*
X701612Y795866D02*
X700750D01*
X699955Y795537D01*
X699345Y794927D01*
X699016Y794132D01*
Y793270D01*
X699345Y792474D01*
X699955Y791865D01*
X700750Y791535D01*
X701612D01*
X702408Y791865D01*
X703017Y792474D01*
X703346Y793270D01*
Y794132D01*
X703017Y794927D01*
X702408Y795537D01*
X701612Y795866D01*
D02*
G37*
G36*
X764402Y797657D02*
X760402D01*
X759530Y797543D01*
X758718Y797207D01*
X758021Y796672D01*
X757486Y795974D01*
X757150Y795163D01*
X757035Y794291D01*
X757150Y793420D01*
X757486Y792608D01*
X758021Y791911D01*
X758718Y791376D01*
X759530Y791040D01*
X760402Y790925D01*
X764402D01*
X765273Y791040D01*
X766085Y791376D01*
X766782Y791911D01*
X767317Y792608D01*
X767653Y793420D01*
X767768Y794291D01*
X767653Y795163D01*
X767317Y795974D01*
X766782Y796672D01*
X766085Y797207D01*
X765273Y797543D01*
X764402Y797657D01*
D02*
G37*
G36*
X731927Y794291D02*
X731065D01*
X730269Y793962D01*
X729660Y793353D01*
X729331Y792557D01*
Y791695D01*
X729660Y790899D01*
X730269Y790290D01*
X731065Y789961D01*
X731927D01*
X732723Y790290D01*
X733332Y790899D01*
X733661Y791695D01*
Y792557D01*
X733332Y793353D01*
X732723Y793962D01*
X731927Y794291D01*
D02*
G37*
G36*
X502399Y794291D02*
X501538D01*
X500742Y793962D01*
X500133Y793353D01*
X499803Y792557D01*
Y791695D01*
X500133Y790899D01*
X500742Y790290D01*
X501538Y789961D01*
X502399D01*
X503195Y790290D01*
X503804Y790899D01*
X504134Y791695D01*
Y792557D01*
X503804Y793353D01*
X503195Y793962D01*
X502399Y794291D01*
D02*
G37*
G36*
X494525D02*
X493664D01*
X492868Y793962D01*
X492259Y793353D01*
X491929Y792557D01*
Y791695D01*
X492259Y790899D01*
X492868Y790290D01*
X493664Y789961D01*
X494525D01*
X495321Y790290D01*
X495930Y790899D01*
X496260Y791695D01*
Y792557D01*
X495930Y793353D01*
X495321Y793962D01*
X494525Y794291D01*
D02*
G37*
G36*
X764402Y789982D02*
X763386D01*
Y787401D01*
X767819D01*
X767489Y788200D01*
X766922Y788938D01*
X766184Y789504D01*
X765324Y789861D01*
X764402Y789982D01*
D02*
G37*
G36*
X761417D02*
X760402D01*
X759479Y789861D01*
X758619Y789504D01*
X757881Y788938D01*
X757314Y788200D01*
X756984Y787401D01*
X761417D01*
Y789982D01*
D02*
G37*
G36*
X192557Y789961D02*
X191695D01*
X190899Y789631D01*
X190290Y789022D01*
X189961Y788226D01*
Y787365D01*
X190290Y786569D01*
X190899Y785960D01*
X191695Y785630D01*
X192557D01*
X193352Y785960D01*
X193962Y786569D01*
X194291Y787365D01*
Y788226D01*
X193962Y789022D01*
X193352Y789631D01*
X192557Y789961D01*
D02*
G37*
G36*
X589710Y786630D02*
X588849D01*
X588053Y786301D01*
X587444Y785691D01*
X587291Y785323D01*
X584275D01*
X583904Y785694D01*
X583108Y786024D01*
X582246D01*
X581451Y785694D01*
X580841Y785085D01*
X580512Y784289D01*
Y783428D01*
X580841Y782632D01*
X581451Y782023D01*
X582246Y781693D01*
X583108D01*
X583904Y782023D01*
X584513Y782632D01*
X584540Y782697D01*
X587816D01*
X587957Y782725D01*
X588053Y782629D01*
X588849Y782300D01*
X589710D01*
X590506Y782629D01*
X591115Y783238D01*
X591445Y784034D01*
Y784896D01*
X591115Y785691D01*
X590506Y786301D01*
X589710Y786630D01*
D02*
G37*
G36*
X205549Y789567D02*
X204687D01*
X203891Y789237D01*
X203282Y788628D01*
X202953Y787832D01*
Y786971D01*
X203282Y786175D01*
X203891Y785566D01*
X204687Y785236D01*
X205549D01*
X206345Y785566D01*
X206954Y786175D01*
X207283Y786971D01*
Y787832D01*
X206954Y788628D01*
X206345Y789237D01*
X205549Y789567D01*
D02*
G37*
G36*
X228777Y788386D02*
X227916D01*
X227120Y788056D01*
X226511Y787447D01*
X226181Y786651D01*
Y785790D01*
X226511Y784994D01*
X227120Y784385D01*
X227916Y784055D01*
X228777D01*
X229573Y784385D01*
X230182Y784994D01*
X230512Y785790D01*
Y786651D01*
X230182Y787447D01*
X229573Y788056D01*
X228777Y788386D01*
D02*
G37*
G36*
X630352Y787205D02*
X629491D01*
X628695Y786875D01*
X628086Y786266D01*
X627756Y785470D01*
Y784609D01*
X628086Y783813D01*
X628695Y783204D01*
X629491Y782874D01*
X630352D01*
X631148Y783204D01*
X631757Y783813D01*
X632087Y784609D01*
Y785470D01*
X631757Y786266D01*
X631148Y786875D01*
X630352Y787205D01*
D02*
G37*
G36*
X767819Y785433D02*
X763386D01*
Y782853D01*
X764402D01*
X765324Y782974D01*
X766184Y783330D01*
X766922Y783897D01*
X767489Y784635D01*
X767819Y785433D01*
D02*
G37*
G36*
X761417D02*
X756984D01*
X757314Y784635D01*
X757881Y783897D01*
X758619Y783330D01*
X759479Y782974D01*
X760402Y782853D01*
X761417D01*
Y785433D01*
D02*
G37*
G36*
X671297Y786811D02*
X670435D01*
X669640Y786481D01*
X669031Y785872D01*
X668701Y785076D01*
Y784215D01*
X669031Y783419D01*
X669640Y782810D01*
X670435Y782480D01*
X671297D01*
X672093Y782810D01*
X672702Y783419D01*
X673032Y784215D01*
Y785076D01*
X672702Y785872D01*
X672093Y786481D01*
X671297Y786811D01*
D02*
G37*
G36*
X654761D02*
X653900D01*
X653104Y786481D01*
X652495Y785872D01*
X652165Y785076D01*
Y784215D01*
X652495Y783419D01*
X653104Y782810D01*
X653900Y782480D01*
X654761D01*
X655557Y782810D01*
X656166Y783419D01*
X656496Y784215D01*
Y785076D01*
X656166Y785872D01*
X655557Y786481D01*
X654761Y786811D01*
D02*
G37*
G36*
X173659Y786024D02*
X172798D01*
X172002Y785694D01*
X171393Y785085D01*
X171063Y784289D01*
Y783428D01*
X171393Y782632D01*
X172002Y782023D01*
X172798Y781693D01*
X173659D01*
X174455Y782023D01*
X175064Y782632D01*
X175394Y783428D01*
Y784289D01*
X175064Y785085D01*
X174455Y785694D01*
X173659Y786024D01*
D02*
G37*
G36*
X524840Y785236D02*
X523979D01*
X523183Y784906D01*
X522574Y784297D01*
X522244Y783502D01*
Y782640D01*
X522574Y781844D01*
X523183Y781235D01*
X523979Y780905D01*
X524840D01*
X525636Y781235D01*
X526245Y781844D01*
X526575Y782640D01*
Y783502D01*
X526245Y784297D01*
X525636Y784906D01*
X524840Y785236D01*
D02*
G37*
G36*
X611454Y783661D02*
X610593D01*
X609797Y783332D01*
X609188Y782723D01*
X608858Y781927D01*
Y781065D01*
X609188Y780269D01*
X609797Y779660D01*
X610593Y779331D01*
X611454D01*
X612250Y779660D01*
X612859Y780269D01*
X613189Y781065D01*
Y781927D01*
X612859Y782723D01*
X612250Y783332D01*
X611454Y783661D01*
D02*
G37*
G36*
X179958D02*
X179097D01*
X178301Y783332D01*
X177692Y782723D01*
X177362Y781927D01*
Y781065D01*
X177692Y780269D01*
X178301Y779660D01*
X179097Y779331D01*
X179958D01*
X180754Y779660D01*
X181363Y780269D01*
X181693Y781065D01*
Y781927D01*
X181363Y782723D01*
X180754Y783332D01*
X179958Y783661D01*
D02*
G37*
G36*
X205155Y782874D02*
X204294D01*
X203498Y782544D01*
X202889Y781935D01*
X202559Y781139D01*
Y780278D01*
X202889Y779482D01*
X203498Y778873D01*
X204294Y778543D01*
X205155D01*
X205951Y778873D01*
X206560Y779482D01*
X206890Y780278D01*
Y781139D01*
X206560Y781935D01*
X205951Y782544D01*
X205155Y782874D01*
D02*
G37*
G36*
X193334Y782491D02*
X192472D01*
X191676Y782161D01*
X191067Y781552D01*
X190738Y780756D01*
Y779895D01*
X191067Y779099D01*
X191676Y778490D01*
X192472Y778160D01*
X193334D01*
X194130Y778490D01*
X194739Y779099D01*
X195068Y779895D01*
Y780756D01*
X194739Y781552D01*
X194130Y782161D01*
X193334Y782491D01*
D02*
G37*
G36*
X502005Y781693D02*
X501144D01*
X500348Y781363D01*
X499739Y780754D01*
X499409Y779958D01*
Y779097D01*
X499739Y778301D01*
X500348Y777692D01*
X501144Y777362D01*
X502005D01*
X502801Y777692D01*
X503410Y778301D01*
X503740Y779097D01*
Y779958D01*
X503410Y780754D01*
X502801Y781363D01*
X502005Y781693D01*
D02*
G37*
G36*
X494919D02*
X494058D01*
X493262Y781363D01*
X492653Y780754D01*
X492323Y779958D01*
Y779097D01*
X492653Y778301D01*
X493262Y777692D01*
X494058Y777362D01*
X494919D01*
X495715Y777692D01*
X496324Y778301D01*
X496654Y779097D01*
Y779958D01*
X496324Y780754D01*
X495715Y781363D01*
X494919Y781693D01*
D02*
G37*
G36*
X68633Y785793D02*
X67418D01*
X66245Y785479D01*
X65193Y784872D01*
X64335Y784013D01*
X63727Y782961D01*
X63413Y781788D01*
Y780574D01*
X63727Y779401D01*
X64335Y778349D01*
X65193Y777490D01*
X66245Y776883D01*
X67418Y776569D01*
X68633D01*
X69806Y776883D01*
X70858Y777490D01*
X71716Y778349D01*
X72324Y779401D01*
X72638Y780574D01*
Y781788D01*
X72324Y782961D01*
X71716Y784013D01*
X70858Y784872D01*
X69806Y785479D01*
X68633Y785793D01*
D02*
G37*
G36*
X28633D02*
X27418D01*
X26245Y785479D01*
X25193Y784872D01*
X24335Y784013D01*
X23727Y782961D01*
X23413Y781788D01*
Y780574D01*
X23727Y779401D01*
X24335Y778349D01*
X25193Y777490D01*
X26245Y776883D01*
X27418Y776569D01*
X28633D01*
X29806Y776883D01*
X30858Y777490D01*
X31716Y778349D01*
X32324Y779401D01*
X32638Y780574D01*
Y781788D01*
X32324Y782961D01*
X31716Y784013D01*
X30858Y784872D01*
X29806Y785479D01*
X28633Y785793D01*
D02*
G37*
G36*
X665391Y779724D02*
X664530D01*
X663734Y779395D01*
X663125Y778786D01*
X662795Y777990D01*
Y777128D01*
X663125Y776333D01*
X663734Y775723D01*
X664530Y775394D01*
X665391D01*
X666187Y775723D01*
X666796Y776333D01*
X667126Y777128D01*
Y777990D01*
X666796Y778786D01*
X666187Y779395D01*
X665391Y779724D01*
D02*
G37*
G36*
X625234D02*
X624372D01*
X623577Y779395D01*
X622967Y778786D01*
X622638Y777990D01*
Y777128D01*
X622967Y776333D01*
X623577Y775723D01*
X624372Y775394D01*
X625234D01*
X626030Y775723D01*
X626639Y776333D01*
X626968Y777128D01*
Y777990D01*
X626639Y778786D01*
X626030Y779395D01*
X625234Y779724D01*
D02*
G37*
G36*
X764402Y781910D02*
X760402D01*
X759530Y781795D01*
X758718Y781459D01*
X758021Y780924D01*
X757486Y780226D01*
X757150Y779415D01*
X757035Y778543D01*
X757150Y777672D01*
X757486Y776860D01*
X758021Y776163D01*
X758718Y775628D01*
X759530Y775292D01*
X760402Y775177D01*
X764402D01*
X765273Y775292D01*
X766085Y775628D01*
X766782Y776163D01*
X767317Y776860D01*
X767653Y777672D01*
X767768Y778543D01*
X767653Y779415D01*
X767317Y780226D01*
X766782Y780924D01*
X766085Y781459D01*
X765273Y781795D01*
X764402Y781910D01*
D02*
G37*
G36*
X584289Y772244D02*
X583428D01*
X582632Y771914D01*
X582023Y771305D01*
X581693Y770509D01*
Y769648D01*
X582023Y768852D01*
X582632Y768243D01*
X583428Y767913D01*
X584289D01*
X585085Y768243D01*
X585694Y768852D01*
X586024Y769648D01*
Y770509D01*
X585694Y771305D01*
X585085Y771914D01*
X584289Y772244D01*
D02*
G37*
G36*
X764402Y774036D02*
X760402D01*
X759530Y773921D01*
X758718Y773585D01*
X758021Y773050D01*
X757486Y772352D01*
X757150Y771540D01*
X757035Y770669D01*
X757150Y769798D01*
X757486Y768986D01*
X758021Y768289D01*
X758718Y767754D01*
X759530Y767418D01*
X760402Y767303D01*
X764402D01*
X765273Y767418D01*
X766085Y767754D01*
X766782Y768289D01*
X767317Y768986D01*
X767653Y769798D01*
X767768Y770669D01*
X767653Y771540D01*
X767317Y772352D01*
X766782Y773050D01*
X766085Y773585D01*
X765273Y773921D01*
X764402Y774036D01*
D02*
G37*
G36*
X590803Y770775D02*
X589941D01*
X589146Y770446D01*
X588536Y769836D01*
X588207Y769041D01*
Y768179D01*
X588536Y767383D01*
X589146Y766774D01*
X589941Y766444D01*
X590803D01*
X591599Y766774D01*
X592208Y767383D01*
X592537Y768179D01*
Y769041D01*
X592208Y769836D01*
X591599Y770446D01*
X590803Y770775D01*
D02*
G37*
G36*
X24563Y768780D02*
Y764118D01*
X29225D01*
X28898Y765337D01*
X28147Y766639D01*
X27084Y767702D01*
X25782Y768454D01*
X24563Y768780D01*
D02*
G37*
G36*
X22594D02*
X21375Y768454D01*
X20074Y767702D01*
X19011Y766639D01*
X18259Y765337D01*
X17932Y764118D01*
X22594D01*
Y768780D01*
D02*
G37*
G36*
X139407Y765945D02*
X138546D01*
X137750Y765615D01*
X137141Y765006D01*
X136811Y764210D01*
Y763349D01*
X137141Y762553D01*
X137750Y761944D01*
X138546Y761614D01*
X139407D01*
X140203Y761944D01*
X140812Y762553D01*
X141142Y763349D01*
Y764210D01*
X140812Y765006D01*
X140203Y765615D01*
X139407Y765945D01*
D02*
G37*
G36*
X660273Y771457D02*
X659412D01*
X658616Y771127D01*
X658007Y770518D01*
X657677Y769722D01*
Y768861D01*
X658007Y768065D01*
X658616Y767456D01*
X658647Y767443D01*
Y765211D01*
X658633Y765206D01*
X658024Y764597D01*
X657694Y763801D01*
Y762939D01*
X658024Y762144D01*
X658633Y761534D01*
X659429Y761205D01*
X660290D01*
X661086Y761534D01*
X661695Y762144D01*
X662025Y762939D01*
Y763801D01*
X661695Y764597D01*
X661086Y765206D01*
X661055Y765218D01*
Y767450D01*
X661069Y767456D01*
X661678Y768065D01*
X662008Y768861D01*
Y769722D01*
X661678Y770518D01*
X661069Y771127D01*
X660273Y771457D01*
D02*
G37*
G36*
X614998Y762795D02*
X614136D01*
X613340Y762466D01*
X612731Y761857D01*
X612402Y761061D01*
Y760199D01*
X612731Y759403D01*
X613340Y758794D01*
X614136Y758465D01*
X614998D01*
X615794Y758794D01*
X616403Y759403D01*
X616732Y760199D01*
Y761061D01*
X616403Y761857D01*
X615794Y762466D01*
X614998Y762795D01*
D02*
G37*
G36*
X185864Y762008D02*
X185002D01*
X184206Y761678D01*
X183597Y761069D01*
X183268Y760273D01*
Y759412D01*
X183597Y758616D01*
X184206Y758007D01*
X185002Y757677D01*
X185864D01*
X186660Y758007D01*
X187269Y758616D01*
X187598Y759412D01*
Y760273D01*
X187269Y761069D01*
X186660Y761678D01*
X185864Y762008D01*
D02*
G37*
G36*
X29225Y762150D02*
X24563D01*
Y757488D01*
X25782Y757814D01*
X27084Y758566D01*
X28147Y759629D01*
X28898Y760930D01*
X29225Y762150D01*
D02*
G37*
G36*
X22594D02*
X17932D01*
X18259Y760930D01*
X19011Y759629D01*
X20074Y758566D01*
X21375Y757814D01*
X22594Y757488D01*
Y762150D01*
D02*
G37*
G36*
X126415Y761221D02*
X125554D01*
X124758Y760891D01*
X124149Y760282D01*
X123819Y759486D01*
Y758624D01*
X124149Y757829D01*
X124758Y757219D01*
X125554Y756890D01*
X126415D01*
X127211Y757219D01*
X127820Y757829D01*
X128150Y758624D01*
Y759486D01*
X127820Y760282D01*
X127211Y760891D01*
X126415Y761221D01*
D02*
G37*
G36*
X201612Y759646D02*
X200750D01*
X199954Y759316D01*
X199345Y758707D01*
X199016Y757911D01*
Y757050D01*
X199345Y756254D01*
X199954Y755645D01*
X200750Y755315D01*
X201612D01*
X202408Y755645D01*
X203017Y756254D01*
X203346Y757050D01*
Y757911D01*
X203017Y758707D01*
X202408Y759316D01*
X201612Y759646D01*
D02*
G37*
G36*
X591376Y758858D02*
X590514D01*
X589718Y758529D01*
X589109Y757920D01*
X588779Y757124D01*
Y756262D01*
X589109Y755466D01*
X589718Y754857D01*
X590514Y754528D01*
X591376D01*
X592171Y754857D01*
X592781Y755466D01*
X593110Y756262D01*
Y757124D01*
X592781Y757920D01*
X592171Y758529D01*
X591376Y758858D01*
D02*
G37*
G36*
X583502Y758465D02*
X582640D01*
X581844Y758135D01*
X581235Y757526D01*
X580905Y756730D01*
Y755868D01*
X581235Y755073D01*
X581844Y754463D01*
X582640Y754134D01*
X583502D01*
X584297Y754463D01*
X584906Y755073D01*
X585236Y755868D01*
Y756730D01*
X584906Y757526D01*
X584297Y758135D01*
X583502Y758465D01*
D02*
G37*
G36*
X520472Y753646D02*
Y749213D01*
X523053D01*
Y750228D01*
X522931Y751151D01*
X522575Y752011D01*
X522009Y752749D01*
X521271Y753315D01*
X520472Y753646D01*
D02*
G37*
G36*
X518504D02*
X517706Y753315D01*
X516967Y752749D01*
X516401Y752011D01*
X516045Y751151D01*
X515923Y750228D01*
Y749213D01*
X518504D01*
Y753646D01*
D02*
G37*
G36*
X675779Y748439D02*
X674918D01*
X674122Y748109D01*
X673513Y747500D01*
X673183Y746704D01*
Y745843D01*
X673513Y745047D01*
X674122Y744438D01*
X674918Y744108D01*
X675779D01*
X676575Y744438D01*
X677184Y745047D01*
X677514Y745843D01*
Y746704D01*
X677184Y747500D01*
X676575Y748109D01*
X675779Y748439D01*
D02*
G37*
G36*
X683494Y748237D02*
X682632D01*
X681836Y747907D01*
X681227Y747298D01*
X680898Y746502D01*
Y745641D01*
X681227Y744845D01*
X681836Y744236D01*
X682632Y743906D01*
X683494D01*
X684290Y744236D01*
X684899Y744845D01*
X685228Y745641D01*
Y746502D01*
X684899Y747298D01*
X684290Y747907D01*
X683494Y748237D01*
D02*
G37*
G36*
X527362Y753594D02*
X526491Y753480D01*
X525679Y753144D01*
X524982Y752609D01*
X524447Y751911D01*
X524111Y751100D01*
X523996Y750228D01*
Y746228D01*
X524111Y745357D01*
X524447Y744545D01*
X524982Y743848D01*
X525679Y743313D01*
X526491Y742977D01*
X527362Y742862D01*
X528233Y742977D01*
X529045Y743313D01*
X529742Y743848D01*
X530277Y744545D01*
X530614Y745357D01*
X530728Y746228D01*
Y750228D01*
X530614Y751100D01*
X530277Y751911D01*
X529742Y752609D01*
X529045Y753144D01*
X528233Y753480D01*
X527362Y753594D01*
D02*
G37*
G36*
X511614D02*
X510743Y753480D01*
X509931Y753144D01*
X509234Y752609D01*
X508699Y751911D01*
X508363Y751100D01*
X508248Y750228D01*
Y746228D01*
X508363Y745357D01*
X508699Y744545D01*
X509234Y743848D01*
X509931Y743313D01*
X510743Y742977D01*
X511614Y742862D01*
X512485Y742977D01*
X513297Y743313D01*
X513994Y743848D01*
X514529Y744545D01*
X514866Y745357D01*
X514980Y746228D01*
Y750228D01*
X514866Y751100D01*
X514529Y751911D01*
X513994Y752609D01*
X513297Y753144D01*
X512485Y753480D01*
X511614Y753594D01*
D02*
G37*
G36*
X503740D02*
X502869Y753480D01*
X502057Y753144D01*
X501360Y752609D01*
X500825Y751911D01*
X500489Y751100D01*
X500374Y750228D01*
Y746228D01*
X500489Y745357D01*
X500825Y744545D01*
X501360Y743848D01*
X502057Y743313D01*
X502869Y742977D01*
X503740Y742862D01*
X504611Y742977D01*
X505423Y743313D01*
X506120Y743848D01*
X506655Y744545D01*
X506992Y745357D01*
X507106Y746228D01*
Y750228D01*
X506992Y751100D01*
X506655Y751911D01*
X506120Y752609D01*
X505423Y753144D01*
X504611Y753480D01*
X503740Y753594D01*
D02*
G37*
G36*
X523053Y747244D02*
X520472D01*
Y742811D01*
X521271Y743141D01*
X522009Y743708D01*
X522575Y744446D01*
X522931Y745306D01*
X523053Y746228D01*
Y747244D01*
D02*
G37*
G36*
X518504D02*
X515923D01*
Y746228D01*
X516045Y745306D01*
X516401Y744446D01*
X516967Y743708D01*
X517706Y743141D01*
X518504Y742811D01*
Y747244D01*
D02*
G37*
G36*
X27545Y748677D02*
X26612D01*
X25711Y748436D01*
X24903Y747969D01*
X24243Y747309D01*
X23777Y746501D01*
X23535Y745600D01*
Y744667D01*
X23777Y743766D01*
X24243Y742958D01*
X24903Y742299D01*
X25711Y741832D01*
X26612Y741591D01*
X27545D01*
X28446Y741832D01*
X29254Y742299D01*
X29914Y742958D01*
X30381Y743766D01*
X30622Y744667D01*
Y745600D01*
X30381Y746501D01*
X29914Y747309D01*
X29254Y747969D01*
X28446Y748436D01*
X27545Y748677D01*
D02*
G37*
G36*
X20545Y744677D02*
X19612D01*
X18711Y744436D01*
X17903Y743969D01*
X17243Y743309D01*
X16777Y742501D01*
X16535Y741600D01*
Y740667D01*
X16777Y739766D01*
X17243Y738958D01*
X17903Y738299D01*
X18711Y737832D01*
X19612Y737591D01*
X20545D01*
X21446Y737832D01*
X22254Y738299D01*
X22914Y738958D01*
X23381Y739766D01*
X23622Y740667D01*
Y741600D01*
X23381Y742501D01*
X22914Y743309D01*
X22254Y743969D01*
X21446Y744436D01*
X20545Y744677D01*
D02*
G37*
G36*
X706336Y738779D02*
X705475D01*
X704679Y738450D01*
X704070Y737841D01*
X703740Y737045D01*
Y736184D01*
X704070Y735388D01*
X704679Y734778D01*
X705475Y734449D01*
X706336D01*
X707132Y734778D01*
X707741Y735388D01*
X708071Y736184D01*
Y737045D01*
X707741Y737841D01*
X707132Y738450D01*
X706336Y738779D01*
D02*
G37*
G36*
X683108Y736024D02*
X682246D01*
X681451Y735694D01*
X680841Y735085D01*
X680512Y734289D01*
Y733427D01*
X680841Y732632D01*
X681451Y732023D01*
X682246Y731693D01*
X683108D01*
X683904Y732023D01*
X684513Y732632D01*
X684842Y733427D01*
Y734289D01*
X684513Y735085D01*
X683904Y735694D01*
X683108Y736024D01*
D02*
G37*
G36*
X676021Y735630D02*
X675160D01*
X674364Y735300D01*
X673755Y734691D01*
X673425Y733895D01*
Y733034D01*
X673755Y732238D01*
X674364Y731629D01*
X675160Y731299D01*
X676021D01*
X676817Y731629D01*
X677426Y732238D01*
X677756Y733034D01*
Y733895D01*
X677426Y734691D01*
X676817Y735300D01*
X676021Y735630D01*
D02*
G37*
G36*
X20545Y736677D02*
X19612D01*
X18711Y736436D01*
X17903Y735969D01*
X17243Y735310D01*
X16777Y734502D01*
X16535Y733600D01*
Y732667D01*
X16777Y731766D01*
X17243Y730958D01*
X17903Y730299D01*
X18711Y729832D01*
X19612Y729591D01*
X20545D01*
X21446Y729832D01*
X22254Y730299D01*
X22914Y730958D01*
X23381Y731766D01*
X23622Y732667D01*
Y733600D01*
X23381Y734502D01*
X22914Y735310D01*
X22254Y735969D01*
X21446Y736436D01*
X20545Y736677D01*
D02*
G37*
G36*
X609842Y731205D02*
Y726772D01*
X612423D01*
Y727787D01*
X612301Y728710D01*
X611945Y729570D01*
X611379Y730308D01*
X610641Y730874D01*
X609842Y731205D01*
D02*
G37*
G36*
X607874D02*
X607076Y730874D01*
X606338Y730308D01*
X605771Y729570D01*
X605415Y728710D01*
X605294Y727787D01*
Y726772D01*
X607874D01*
Y731205D01*
D02*
G37*
G36*
X27545Y740677D02*
X26612D01*
X25711Y740436D01*
X24903Y739969D01*
X24243Y739310D01*
X23777Y738502D01*
X23535Y737600D01*
Y736667D01*
X23777Y735766D01*
X24243Y734958D01*
X24903Y734299D01*
X25711Y733832D01*
X26612Y733591D01*
X27545D01*
X28446Y733832D01*
X28593Y733917D01*
X34482Y728028D01*
X34482Y728028D01*
X34872Y727767D01*
X35333Y727675D01*
X35630Y727318D01*
Y726735D01*
X35386Y726370D01*
X29979D01*
X29787Y726831D01*
X29914Y726958D01*
X30381Y727766D01*
X30622Y728667D01*
Y729600D01*
X30381Y730502D01*
X29914Y731310D01*
X29254Y731969D01*
X28446Y732436D01*
X27545Y732677D01*
X26612D01*
X25711Y732436D01*
X24903Y731969D01*
X24243Y731310D01*
X23777Y730502D01*
X23535Y729600D01*
Y728667D01*
X23777Y727766D01*
X24243Y726958D01*
X24370Y726831D01*
X24179Y726370D01*
X23416D01*
X23381Y726502D01*
X22914Y727310D01*
X22254Y727969D01*
X21446Y728436D01*
X20545Y728677D01*
X19612D01*
X18711Y728436D01*
X17903Y727969D01*
X17243Y727310D01*
X16777Y726502D01*
X16535Y725600D01*
Y724667D01*
X16777Y723766D01*
X17243Y722958D01*
X17903Y722298D01*
X18711Y721832D01*
X19612Y721591D01*
X20545D01*
X21446Y721832D01*
X22254Y722298D01*
X22914Y722958D01*
X23381Y723766D01*
X23433Y723961D01*
X24242D01*
X24433Y723499D01*
X24243Y723310D01*
X23777Y722502D01*
X23535Y721600D01*
Y720808D01*
X23535Y720677D01*
X23297Y720677D01*
X16535D01*
Y713591D01*
X23622D01*
Y719034D01*
X24122Y719168D01*
X24243Y718958D01*
X24903Y718298D01*
X25711Y717832D01*
X26612Y717591D01*
X27545D01*
X28446Y717832D01*
X29254Y718298D01*
X29914Y718958D01*
X30381Y719766D01*
X30622Y720667D01*
Y721600D01*
X30381Y722502D01*
X29914Y723310D01*
X29724Y723499D01*
X29916Y723961D01*
X35377D01*
X35630Y723708D01*
Y722979D01*
X35960Y722183D01*
X36569Y721574D01*
X37365Y721244D01*
X38226D01*
X39022Y721574D01*
X39631Y722183D01*
X39961Y722979D01*
Y723840D01*
X39631Y724636D01*
X39306Y724961D01*
X39054Y725287D01*
X39306Y725614D01*
X39631Y725939D01*
X39961Y726735D01*
Y727596D01*
X39631Y728392D01*
X39022Y729001D01*
X38226Y729331D01*
X37365D01*
X37207Y729265D01*
X36742Y729731D01*
X36351Y729992D01*
X35890Y730084D01*
X35890Y730084D01*
X35832D01*
X30296Y735620D01*
X30381Y735766D01*
X30622Y736667D01*
Y737600D01*
X30381Y738502D01*
X29914Y739310D01*
X29254Y739969D01*
X28446Y740436D01*
X27545Y740677D01*
D02*
G37*
G36*
X163029Y717520D02*
X162168D01*
X161372Y717190D01*
X160827Y716645D01*
X160282Y717190D01*
X159486Y717520D01*
X158624D01*
X157828Y717190D01*
X157413Y716775D01*
X157087Y716637D01*
X156760Y716775D01*
X156345Y717190D01*
X155549Y717520D01*
X154687D01*
X153892Y717190D01*
X153282Y716581D01*
X152953Y715785D01*
Y714924D01*
X153282Y714128D01*
X153892Y713519D01*
X154687Y713189D01*
X155549D01*
X156345Y713519D01*
X156760Y713934D01*
X157087Y714072D01*
X157413Y713934D01*
X157828Y713519D01*
X158624Y713189D01*
X159486D01*
X160282Y713519D01*
X160827Y714064D01*
X161372Y713519D01*
X162168Y713189D01*
X163029D01*
X163825Y713519D01*
X164434Y714128D01*
X164764Y714924D01*
Y715785D01*
X164434Y716581D01*
X163825Y717190D01*
X163029Y717520D01*
D02*
G37*
G36*
X701968Y707977D02*
Y703543D01*
X704549D01*
Y704559D01*
X704427Y705482D01*
X704071Y706341D01*
X703505Y707080D01*
X702767Y707646D01*
X701968Y707977D01*
D02*
G37*
G36*
X700000D02*
X699202Y707646D01*
X698464Y707080D01*
X697897Y706341D01*
X697541Y705482D01*
X697420Y704559D01*
Y703543D01*
X700000D01*
Y707977D01*
D02*
G37*
G36*
X708858Y707925D02*
X707987Y707810D01*
X707175Y707474D01*
X706478Y706939D01*
X705943Y706242D01*
X705607Y705430D01*
X705492Y704559D01*
Y700559D01*
X705607Y699688D01*
X705943Y698876D01*
X706478Y698179D01*
X707175Y697644D01*
X707987Y697307D01*
X708858Y697193D01*
X709729Y697307D01*
X710541Y697644D01*
X711238Y698179D01*
X711773Y698876D01*
X712110Y699688D01*
X712224Y700559D01*
Y704559D01*
X712110Y705430D01*
X711773Y706242D01*
X711238Y706939D01*
X710541Y707474D01*
X709729Y707810D01*
X708858Y707925D01*
D02*
G37*
G36*
X693110D02*
X692239Y707810D01*
X691427Y707474D01*
X690730Y706939D01*
X690195Y706242D01*
X689859Y705430D01*
X689744Y704559D01*
Y700559D01*
X689859Y699688D01*
X690195Y698876D01*
X690730Y698179D01*
X691427Y697644D01*
X692239Y697307D01*
X693110Y697193D01*
X693982Y697307D01*
X694793Y697644D01*
X695491Y698179D01*
X696025Y698876D01*
X696362Y699688D01*
X696476Y700559D01*
Y704559D01*
X696362Y705430D01*
X696025Y706242D01*
X695491Y706939D01*
X694793Y707474D01*
X693982Y707810D01*
X693110Y707925D01*
D02*
G37*
G36*
X685236D02*
X684365Y707810D01*
X683553Y707474D01*
X682856Y706939D01*
X682321Y706242D01*
X681985Y705430D01*
X681870Y704559D01*
Y700559D01*
X681985Y699688D01*
X682321Y698876D01*
X682856Y698179D01*
X683553Y697644D01*
X684365Y697307D01*
X685236Y697193D01*
X686107Y697307D01*
X686919Y697644D01*
X687616Y698179D01*
X688151Y698876D01*
X688488Y699688D01*
X688602Y700559D01*
Y704559D01*
X688488Y705430D01*
X688151Y706242D01*
X687616Y706939D01*
X686919Y707474D01*
X686107Y707810D01*
X685236Y707925D01*
D02*
G37*
G36*
X704549Y701575D02*
X701968D01*
Y697141D01*
X702767Y697472D01*
X703505Y698038D01*
X704071Y698777D01*
X704427Y699636D01*
X704549Y700559D01*
Y701575D01*
D02*
G37*
G36*
X700000D02*
X697420D01*
Y700559D01*
X697541Y699636D01*
X697897Y698777D01*
X698464Y698038D01*
X699202Y697472D01*
X700000Y697141D01*
Y701575D01*
D02*
G37*
G36*
X27545Y686677D02*
X26612D01*
X25711Y686436D01*
X24903Y685969D01*
X24243Y685310D01*
X23777Y684502D01*
X23535Y683600D01*
Y682667D01*
X23777Y681766D01*
X24243Y680958D01*
X24903Y680299D01*
X25711Y679832D01*
X26612Y679591D01*
X27545D01*
X28446Y679832D01*
X29254Y680299D01*
X29914Y680958D01*
X30381Y681766D01*
X30622Y682667D01*
Y683600D01*
X30381Y684502D01*
X29914Y685310D01*
X29254Y685969D01*
X28446Y686436D01*
X27545Y686677D01*
D02*
G37*
G36*
X20545Y682677D02*
X19612D01*
X18711Y682436D01*
X17903Y681969D01*
X17243Y681310D01*
X16777Y680502D01*
X16535Y679600D01*
Y678667D01*
X16777Y677766D01*
X17243Y676958D01*
X17903Y676299D01*
X18711Y675832D01*
X19612Y675591D01*
X20545D01*
X21446Y675832D01*
X22254Y676299D01*
X22914Y676958D01*
X23381Y677766D01*
X23622Y678667D01*
Y679600D01*
X23381Y680502D01*
X22914Y681310D01*
X22254Y681969D01*
X21446Y682436D01*
X20545Y682677D01*
D02*
G37*
G36*
X86651Y678937D02*
X85790D01*
X84994Y678607D01*
X84385Y677998D01*
X84055Y677202D01*
Y676341D01*
X84385Y675545D01*
X84994Y674936D01*
X85790Y674606D01*
X86651D01*
X87447Y674936D01*
X88056Y675545D01*
X88386Y676341D01*
Y677202D01*
X88056Y677998D01*
X87447Y678607D01*
X86651Y678937D01*
D02*
G37*
G36*
X27545Y678677D02*
X26612D01*
X25711Y678436D01*
X24903Y677969D01*
X24243Y677310D01*
X23777Y676502D01*
X23535Y675600D01*
Y674667D01*
X23777Y673766D01*
X24243Y672958D01*
X24903Y672298D01*
X25711Y671832D01*
X26612Y671591D01*
X27545D01*
X28446Y671832D01*
X29254Y672298D01*
X29914Y672958D01*
X30381Y673766D01*
X30622Y674667D01*
Y675600D01*
X30381Y676502D01*
X29914Y677310D01*
X29254Y677969D01*
X28446Y678436D01*
X27545Y678677D01*
D02*
G37*
G36*
X20545Y674677D02*
X19612D01*
X18711Y674436D01*
X17903Y673969D01*
X17243Y673310D01*
X16777Y672502D01*
X16535Y671600D01*
Y670667D01*
X16777Y669766D01*
X17243Y668958D01*
X17903Y668298D01*
X18711Y667832D01*
X19612Y667591D01*
X20545D01*
X21446Y667832D01*
X22254Y668298D01*
X22914Y668958D01*
X23381Y669766D01*
X23622Y670667D01*
Y671600D01*
X23381Y672502D01*
X22914Y673310D01*
X22254Y673969D01*
X21446Y674436D01*
X20545Y674677D01*
D02*
G37*
G36*
X27545Y670677D02*
X26612D01*
X25711Y670436D01*
X24903Y669969D01*
X24243Y669310D01*
X23777Y668502D01*
X23535Y667600D01*
Y666667D01*
X23777Y665766D01*
X24243Y664958D01*
X24903Y664298D01*
X25711Y663832D01*
X26612Y663591D01*
X27545D01*
X28446Y663832D01*
X29254Y664298D01*
X29914Y664958D01*
X30381Y665766D01*
X30622Y666667D01*
Y667600D01*
X30381Y668502D01*
X29914Y669310D01*
X29254Y669969D01*
X28446Y670436D01*
X27545Y670677D01*
D02*
G37*
G36*
X40982Y668913D02*
X40121D01*
X39325Y668584D01*
X38715Y667975D01*
X38386Y667179D01*
Y666317D01*
X38715Y665521D01*
X39040Y665197D01*
X39292Y664870D01*
X39040Y664543D01*
X38715Y664219D01*
X38386Y663423D01*
Y662561D01*
X38715Y661766D01*
X39325Y661156D01*
X40121Y660827D01*
X40982D01*
X41778Y661156D01*
X42387Y661766D01*
X42717Y662561D01*
Y663423D01*
X42387Y664219D01*
X42062Y664543D01*
X41810Y664870D01*
X42062Y665197D01*
X42387Y665521D01*
X42717Y666317D01*
Y667179D01*
X42387Y667975D01*
X41778Y668584D01*
X40982Y668913D01*
D02*
G37*
G36*
X20545Y666677D02*
X19612D01*
X18711Y666436D01*
X17903Y665969D01*
X17243Y665309D01*
X16777Y664501D01*
X16535Y663600D01*
Y662667D01*
X16777Y661766D01*
X17243Y660958D01*
X17903Y660298D01*
X18711Y659832D01*
X19612Y659591D01*
X20545D01*
X21446Y659832D01*
X22254Y660298D01*
X22914Y660958D01*
X23381Y661766D01*
X23622Y662667D01*
Y663600D01*
X23381Y664501D01*
X22914Y665309D01*
X22254Y665969D01*
X21446Y666436D01*
X20545Y666677D01*
D02*
G37*
G36*
X27545Y662677D02*
X26612D01*
X25711Y662436D01*
X24903Y661969D01*
X24243Y661309D01*
X23777Y660501D01*
X23535Y659600D01*
Y658808D01*
X23535Y658677D01*
X23297Y658677D01*
X16535D01*
Y651591D01*
X23622D01*
Y657034D01*
X24122Y657168D01*
X24243Y656958D01*
X24903Y656298D01*
X25711Y655832D01*
X26612Y655591D01*
X27545D01*
X28446Y655832D01*
X29254Y656298D01*
X29914Y656958D01*
X30381Y657766D01*
X30622Y658667D01*
Y659600D01*
X30381Y660501D01*
X29914Y661309D01*
X29254Y661969D01*
X28446Y662436D01*
X27545Y662677D01*
D02*
G37*
G36*
X24563Y642780D02*
Y638118D01*
X29225D01*
X28898Y639337D01*
X28147Y640639D01*
X27084Y641702D01*
X25782Y642453D01*
X24563Y642780D01*
D02*
G37*
G36*
X22594D02*
X21375Y642453D01*
X20074Y641702D01*
X19011Y640639D01*
X18259Y639337D01*
X17932Y638118D01*
X22594D01*
Y642780D01*
D02*
G37*
G36*
X797106Y582250D02*
X795189D01*
X793309Y581876D01*
X791539Y581143D01*
X789945Y580078D01*
X788589Y578722D01*
X787525Y577129D01*
X786791Y575358D01*
X786417Y573478D01*
Y571561D01*
X786791Y569681D01*
X787525Y567911D01*
X788589Y566317D01*
X789945Y564961D01*
X791539Y563897D01*
X793309Y563163D01*
X795189Y562789D01*
X797106D01*
X798986Y563163D01*
X800757Y563897D01*
X802351Y564961D01*
X803706Y566317D01*
X804771Y567911D01*
X805504Y569681D01*
X805878Y571561D01*
Y573478D01*
X805504Y575358D01*
X804771Y577129D01*
X803706Y578722D01*
X802351Y580078D01*
X800757Y581143D01*
X798986Y581876D01*
X797106Y582250D01*
D02*
G37*
G36*
Y700990D02*
X795189D01*
X793309Y700616D01*
X791539Y699883D01*
X789945Y698818D01*
X788589Y697463D01*
X787525Y695869D01*
X786791Y694098D01*
X786417Y692218D01*
Y690302D01*
X786791Y688422D01*
X787525Y686651D01*
X788589Y685057D01*
X789945Y683702D01*
X791539Y682637D01*
X793309Y681903D01*
X795189Y681529D01*
X797106D01*
X798986Y681903D01*
X800757Y682637D01*
X802351Y683702D01*
X803706Y685057D01*
X804771Y686651D01*
X805504Y688422D01*
X805878Y690302D01*
Y692218D01*
X805504Y694098D01*
X804771Y695869D01*
X803706Y697463D01*
X802351Y698818D01*
X800757Y699883D01*
X798986Y700616D01*
X797106Y700990D01*
D02*
G37*
G36*
Y660990D02*
X795189D01*
X793309Y660616D01*
X791539Y659883D01*
X789945Y658818D01*
X788589Y657463D01*
X787525Y655869D01*
X786791Y654098D01*
X786417Y652218D01*
Y650302D01*
X786791Y648422D01*
X787525Y646651D01*
X788589Y645057D01*
X789945Y643702D01*
X791539Y642637D01*
X793309Y641903D01*
X795189Y641529D01*
X797106D01*
X798986Y641903D01*
X800757Y642637D01*
X802351Y643702D01*
X803706Y645057D01*
X804771Y646651D01*
X805504Y648422D01*
X805878Y650302D01*
Y652218D01*
X805504Y654098D01*
X804771Y655869D01*
X803706Y657463D01*
X802351Y658818D01*
X800757Y659883D01*
X798986Y660616D01*
X797106Y660990D01*
D02*
G37*
G36*
X219291Y655109D02*
X217717D01*
X216792Y654987D01*
X215930Y654631D01*
X215189Y654063D01*
X214621Y653322D01*
X214264Y652460D01*
X214143Y651535D01*
X214264Y650610D01*
X214621Y649749D01*
X215189Y649008D01*
X215930Y648440D01*
X216792Y648083D01*
X217717Y647962D01*
X219291D01*
X220216Y648083D01*
X221078Y648440D01*
X221818Y649008D01*
X222386Y649749D01*
X222743Y650610D01*
X222865Y651535D01*
X222743Y652460D01*
X222386Y653322D01*
X221818Y654063D01*
X221078Y654631D01*
X220216Y654987D01*
X219291Y655109D01*
D02*
G37*
G36*
X207492Y648810D02*
X205917D01*
X204992Y648688D01*
X204130Y648331D01*
X203390Y647763D01*
X202822Y647023D01*
X202465Y646161D01*
X202344Y645236D01*
X202465Y644311D01*
X202822Y643449D01*
X203390Y642709D01*
X204130Y642141D01*
X204992Y641784D01*
X205917Y641662D01*
X207492D01*
X208417Y641784D01*
X209279Y642141D01*
X210019Y642709D01*
X210587Y643449D01*
X210944Y644311D01*
X211066Y645236D01*
X210944Y646161D01*
X210587Y647023D01*
X210019Y647763D01*
X209279Y648331D01*
X208417Y648688D01*
X207492Y648810D01*
D02*
G37*
G36*
X219291Y642511D02*
X217717D01*
X216792Y642389D01*
X215930Y642032D01*
X215189Y641464D01*
X214621Y640724D01*
X214264Y639862D01*
X214143Y638937D01*
X214264Y638012D01*
X214621Y637150D01*
X215189Y636410D01*
X215930Y635842D01*
X216792Y635485D01*
X217717Y635363D01*
X219291D01*
X220216Y635485D01*
X221078Y635842D01*
X221818Y636410D01*
X222386Y637150D01*
X222743Y638012D01*
X222865Y638937D01*
X222743Y639862D01*
X222386Y640724D01*
X221818Y641464D01*
X221078Y642032D01*
X220216Y642389D01*
X219291Y642511D01*
D02*
G37*
G36*
X207492Y636212D02*
X205917D01*
X204992Y636090D01*
X204130Y635733D01*
X203390Y635165D01*
X202822Y634425D01*
X202465Y633563D01*
X202344Y632638D01*
X202465Y631713D01*
X202822Y630851D01*
X203390Y630111D01*
X204130Y629543D01*
X204992Y629186D01*
X205917Y629064D01*
X207492D01*
X208417Y629186D01*
X209279Y629543D01*
X210019Y630111D01*
X210587Y630851D01*
X210944Y631713D01*
X211066Y632638D01*
X210944Y633563D01*
X210587Y634425D01*
X210019Y635165D01*
X209279Y635733D01*
X208417Y636090D01*
X207492Y636212D01*
D02*
G37*
G36*
X219291Y629912D02*
X217717D01*
X216792Y629791D01*
X215930Y629434D01*
X215189Y628866D01*
X214621Y628125D01*
X214264Y627263D01*
X214143Y626339D01*
X214264Y625414D01*
X214621Y624552D01*
X215189Y623811D01*
X215930Y623244D01*
X216792Y622887D01*
X217717Y622765D01*
X219291D01*
X220216Y622887D01*
X221078Y623244D01*
X221818Y623811D01*
X222386Y624552D01*
X222743Y625414D01*
X222865Y626339D01*
X222743Y627263D01*
X222386Y628125D01*
X221818Y628866D01*
X221078Y629434D01*
X220216Y629791D01*
X219291Y629912D01*
D02*
G37*
G36*
X207492Y623613D02*
X205917D01*
X204992Y623491D01*
X204130Y623134D01*
X203390Y622566D01*
X202822Y621826D01*
X202465Y620964D01*
X202344Y620039D01*
X202465Y619114D01*
X202822Y618252D01*
X203390Y617512D01*
X204130Y616944D01*
X204992Y616587D01*
X205917Y616466D01*
X207492D01*
X208417Y616587D01*
X209279Y616944D01*
X210019Y617512D01*
X210587Y618252D01*
X210944Y619114D01*
X211066Y620039D01*
X210944Y620964D01*
X210587Y621826D01*
X210019Y622566D01*
X209279Y623134D01*
X208417Y623491D01*
X207492Y623613D01*
D02*
G37*
G36*
X149250Y625000D02*
X148388D01*
X147592Y624670D01*
X146983Y624061D01*
X146653Y623265D01*
Y622404D01*
X146983Y621608D01*
X147331Y621260D01*
X146983Y620912D01*
X146653Y620116D01*
Y619254D01*
X146983Y618459D01*
X147528Y617913D01*
X146983Y617368D01*
X146653Y616572D01*
Y615711D01*
X146983Y614915D01*
X147592Y614306D01*
X148388Y613976D01*
X149250D01*
X150046Y614306D01*
X150655Y614915D01*
X150984Y615711D01*
Y616572D01*
X150655Y617368D01*
X150110Y617913D01*
X150655Y618459D01*
X150984Y619254D01*
Y620116D01*
X150655Y620912D01*
X150306Y621260D01*
X150655Y621608D01*
X150984Y622404D01*
Y623265D01*
X150655Y624061D01*
X150046Y624670D01*
X149250Y625000D01*
D02*
G37*
G36*
X143738Y617520D02*
X142876D01*
X142080Y617190D01*
X141471Y616581D01*
X141142Y615785D01*
Y614924D01*
X141471Y614128D01*
X142080Y613519D01*
X142876Y613189D01*
X143738D01*
X144534Y613519D01*
X145143Y614128D01*
X145472Y614924D01*
Y615785D01*
X145143Y616581D01*
X144534Y617190D01*
X143738Y617520D01*
D02*
G37*
G36*
X41837Y620716D02*
X40840D01*
X39877Y620458D01*
X39013Y619960D01*
X38308Y619255D01*
X37809Y618391D01*
X37551Y617428D01*
Y616431D01*
X37809Y615467D01*
X38308Y614604D01*
X39013Y613899D01*
X39877Y613400D01*
X40840Y613142D01*
X41837D01*
X42800Y613400D01*
X43664Y613899D01*
X44369Y614604D01*
X44868Y615467D01*
X45126Y616431D01*
Y617428D01*
X44868Y618391D01*
X44369Y619255D01*
X43664Y619960D01*
X42800Y620458D01*
X41837Y620716D01*
D02*
G37*
G36*
X11837D02*
X10840D01*
X9877Y620458D01*
X9013Y619960D01*
X8308Y619255D01*
X7809Y618391D01*
X7551Y617428D01*
Y616431D01*
X7809Y615467D01*
X8308Y614604D01*
X9013Y613899D01*
X9877Y613400D01*
X10840Y613142D01*
X11837D01*
X12800Y613400D01*
X13664Y613899D01*
X14369Y614604D01*
X14868Y615467D01*
X15126Y616431D01*
Y617428D01*
X14868Y618391D01*
X14369Y619255D01*
X13664Y619960D01*
X12800Y620458D01*
X11837Y620716D01*
D02*
G37*
G36*
X94131Y617126D02*
X93270D01*
X92474Y616796D01*
X91865Y616187D01*
X91535Y615391D01*
Y614530D01*
X91865Y613734D01*
X92474Y613125D01*
X93270Y612795D01*
X94131D01*
X94927Y613125D01*
X95537Y613734D01*
X95866Y614530D01*
Y615391D01*
X95537Y616187D01*
X94927Y616796D01*
X94131Y617126D01*
D02*
G37*
G36*
X219291Y617314D02*
X217717D01*
X216792Y617192D01*
X215930Y616835D01*
X215189Y616267D01*
X214621Y615527D01*
X214264Y614665D01*
X214143Y613740D01*
X214264Y612815D01*
X214621Y611953D01*
X215189Y611213D01*
X215930Y610645D01*
X216792Y610288D01*
X217717Y610166D01*
X219291D01*
X220216Y610288D01*
X221078Y610645D01*
X221818Y611213D01*
X222386Y611953D01*
X222743Y612815D01*
X222865Y613740D01*
X222743Y614665D01*
X222386Y615527D01*
X221818Y616267D01*
X221078Y616835D01*
X220216Y617192D01*
X219291Y617314D01*
D02*
G37*
G36*
X207492Y611015D02*
X205917D01*
X204992Y610893D01*
X204130Y610536D01*
X203390Y609968D01*
X202822Y609228D01*
X202465Y608366D01*
X202344Y607441D01*
X202465Y606516D01*
X202822Y605654D01*
X203390Y604914D01*
X204130Y604346D01*
X204992Y603989D01*
X205917Y603867D01*
X207492D01*
X208417Y603989D01*
X209279Y604346D01*
X210019Y604914D01*
X210587Y605654D01*
X210944Y606516D01*
X211066Y607441D01*
X210944Y608366D01*
X210587Y609228D01*
X210019Y609968D01*
X209279Y610536D01*
X208417Y610893D01*
X207492Y611015D01*
D02*
G37*
G36*
X41837Y610716D02*
X40840D01*
X39877Y610458D01*
X39013Y609960D01*
X38308Y609255D01*
X37809Y608391D01*
X37551Y607428D01*
Y606430D01*
X37809Y605467D01*
X38308Y604604D01*
X39013Y603898D01*
X39877Y603400D01*
X40840Y603142D01*
X41837D01*
X42800Y603400D01*
X43664Y603898D01*
X44369Y604604D01*
X44868Y605467D01*
X45126Y606430D01*
Y607428D01*
X44868Y608391D01*
X44369Y609255D01*
X43664Y609960D01*
X42800Y610458D01*
X41837Y610716D01*
D02*
G37*
G36*
X42323Y600790D02*
Y597913D01*
X45200D01*
X45051Y598467D01*
X44527Y599375D01*
X43785Y600117D01*
X42876Y600642D01*
X42323Y600790D01*
D02*
G37*
G36*
X40354D02*
X39801Y600642D01*
X38892Y600117D01*
X38150Y599375D01*
X37626Y598467D01*
X37477Y597913D01*
X40354D01*
Y600790D01*
D02*
G37*
G36*
X219291Y604716D02*
X217717D01*
X216792Y604594D01*
X215930Y604237D01*
X215189Y603669D01*
X214621Y602929D01*
X214264Y602067D01*
X214143Y601142D01*
X214264Y600217D01*
X214621Y599355D01*
X215189Y598615D01*
X215930Y598047D01*
X216792Y597690D01*
X217717Y597568D01*
X219291D01*
X220216Y597690D01*
X221078Y598047D01*
X221818Y598615D01*
X222386Y599355D01*
X222743Y600217D01*
X222865Y601142D01*
X222743Y602067D01*
X222386Y602929D01*
X221818Y603669D01*
X221078Y604237D01*
X220216Y604594D01*
X219291Y604716D01*
D02*
G37*
G36*
X207689Y598589D02*
Y595827D01*
X211133D01*
X210759Y596729D01*
X210160Y597510D01*
X209378Y598109D01*
X208469Y598486D01*
X207689Y598589D01*
D02*
G37*
G36*
X205720Y598589D02*
X204941Y598486D01*
X204031Y598109D01*
X203250Y597510D01*
X202650Y596729D01*
X202277Y595827D01*
X205720D01*
Y598589D01*
D02*
G37*
G36*
X45200Y595945D02*
X42323D01*
Y593068D01*
X42876Y593216D01*
X43785Y593741D01*
X44527Y594483D01*
X45051Y595391D01*
X45200Y595945D01*
D02*
G37*
G36*
X40354D02*
X37477D01*
X37626Y595391D01*
X38150Y594483D01*
X38892Y593741D01*
X39801Y593216D01*
X40354Y593068D01*
Y595945D01*
D02*
G37*
G36*
X205720Y593858D02*
X202277D01*
X202650Y592956D01*
X203250Y592175D01*
X204031Y591575D01*
X204941Y591199D01*
X205720Y591096D01*
Y593858D01*
D02*
G37*
G36*
X211133D02*
X207689D01*
Y591096D01*
X208469Y591199D01*
X209378Y591575D01*
X210160Y592175D01*
X210759Y592956D01*
X211133Y593858D01*
D02*
G37*
G36*
X56375Y591829D02*
X55514D01*
X54718Y591499D01*
X54109Y590890D01*
X53779Y590094D01*
Y589232D01*
X54109Y588437D01*
X54718Y587828D01*
X55514Y587498D01*
X56375D01*
X57171Y587828D01*
X57780Y588437D01*
X58110Y589232D01*
Y590094D01*
X57780Y590890D01*
X57171Y591499D01*
X56375Y591829D01*
D02*
G37*
G36*
X186258Y590354D02*
X185396D01*
X184600Y590025D01*
X183991Y589416D01*
X183661Y588620D01*
Y587758D01*
X183991Y586962D01*
X184600Y586353D01*
X185396Y586024D01*
X186258D01*
X187053Y586353D01*
X187662Y586962D01*
X187992Y587758D01*
Y588620D01*
X187662Y589416D01*
X187053Y590025D01*
X186258Y590354D01*
D02*
G37*
G36*
X219291Y590542D02*
X217717D01*
X216792Y590421D01*
X215930Y590063D01*
X215189Y589496D01*
X214621Y588755D01*
X214264Y587893D01*
X214143Y586969D01*
X214264Y586044D01*
X214621Y585182D01*
X215189Y584441D01*
X215930Y583873D01*
X216792Y583516D01*
X217717Y583395D01*
X219291D01*
X220216Y583516D01*
X221078Y583873D01*
X221818Y584441D01*
X222386Y585182D01*
X222743Y586044D01*
X222865Y586969D01*
X222743Y587893D01*
X222386Y588755D01*
X221818Y589496D01*
X221078Y590063D01*
X220216Y590421D01*
X219291Y590542D01*
D02*
G37*
G36*
X41837Y590717D02*
X40840D01*
X39877Y590458D01*
X39013Y589960D01*
X38308Y589255D01*
X37809Y588391D01*
X37551Y587428D01*
Y586431D01*
X37809Y585467D01*
X38308Y584604D01*
X39013Y583898D01*
X39877Y583400D01*
X40840Y583142D01*
X41837D01*
X42800Y583400D01*
X43664Y583898D01*
X44369Y584604D01*
X44868Y585467D01*
X45126Y586431D01*
Y587428D01*
X44868Y588391D01*
X44369Y589255D01*
X43664Y589960D01*
X42800Y590458D01*
X41837Y590717D01*
D02*
G37*
G36*
X11837D02*
X10840D01*
X9877Y590458D01*
X9013Y589960D01*
X8308Y589255D01*
X7809Y588391D01*
X7551Y587428D01*
Y586431D01*
X7809Y585467D01*
X8308Y584604D01*
X9013Y583898D01*
X9877Y583400D01*
X10840Y583142D01*
X11837D01*
X12800Y583400D01*
X13664Y583898D01*
X14369Y584604D01*
X14868Y585467D01*
X15126Y586431D01*
Y587428D01*
X14868Y588391D01*
X14369Y589255D01*
X13664Y589960D01*
X12800Y590458D01*
X11837Y590717D01*
D02*
G37*
G36*
X41837Y580717D02*
X40840D01*
X39877Y580458D01*
X39013Y579960D01*
X38308Y579255D01*
X37809Y578391D01*
X37551Y577428D01*
Y576431D01*
X37809Y575467D01*
X38308Y574604D01*
X39013Y573899D01*
X39877Y573400D01*
X40840Y573142D01*
X41837D01*
X42800Y573400D01*
X43664Y573899D01*
X44369Y574604D01*
X44868Y575467D01*
X45126Y576431D01*
Y577428D01*
X44868Y578391D01*
X44369Y579255D01*
X43664Y579960D01*
X42800Y580458D01*
X41837Y580717D01*
D02*
G37*
G36*
X11837D02*
X10840D01*
X9877Y580458D01*
X9013Y579960D01*
X8308Y579255D01*
X7809Y578391D01*
X7551Y577428D01*
Y576431D01*
X7809Y575467D01*
X8308Y574604D01*
X9013Y573899D01*
X9877Y573400D01*
X10840Y573142D01*
X11837D01*
X12800Y573400D01*
X13664Y573899D01*
X14369Y574604D01*
X14868Y575467D01*
X15126Y576431D01*
Y577428D01*
X14868Y578391D01*
X14369Y579255D01*
X13664Y579960D01*
X12800Y580458D01*
X11837Y580717D01*
D02*
G37*
G36*
X180352Y567913D02*
X179490D01*
X178695Y567584D01*
X178086Y566975D01*
X177756Y566179D01*
Y565317D01*
X178086Y564522D01*
X178695Y563912D01*
X179490Y563583D01*
X180352D01*
X181148Y563912D01*
X181757Y564522D01*
X182087Y565317D01*
Y566179D01*
X181757Y566975D01*
X181148Y567584D01*
X180352Y567913D01*
D02*
G37*
G36*
X41837Y570716D02*
X40840D01*
X39877Y570458D01*
X39013Y569960D01*
X38308Y569255D01*
X37809Y568391D01*
X37551Y567428D01*
Y566431D01*
X37809Y565467D01*
X38308Y564604D01*
X39013Y563899D01*
X39877Y563400D01*
X40840Y563142D01*
X41837D01*
X42800Y563400D01*
X43664Y563899D01*
X44369Y564604D01*
X44868Y565467D01*
X45126Y566431D01*
Y567428D01*
X44868Y568391D01*
X44369Y569255D01*
X43664Y569960D01*
X42800Y570458D01*
X41837Y570716D01*
D02*
G37*
G36*
X42323Y560790D02*
Y557913D01*
X45200D01*
X45051Y558467D01*
X44527Y559375D01*
X43785Y560117D01*
X42876Y560642D01*
X42323Y560790D01*
D02*
G37*
G36*
X40354D02*
X39801Y560642D01*
X38892Y560117D01*
X38150Y559375D01*
X37626Y558467D01*
X37477Y557913D01*
X40354D01*
Y560790D01*
D02*
G37*
G36*
X45200Y555945D02*
X42323D01*
Y553068D01*
X42876Y553216D01*
X43785Y553741D01*
X44527Y554483D01*
X45051Y555391D01*
X45200Y555945D01*
D02*
G37*
G36*
X40354D02*
X37477D01*
X37626Y555391D01*
X38150Y554483D01*
X38892Y553741D01*
X39801Y553216D01*
X40354Y553068D01*
Y555945D01*
D02*
G37*
G36*
X56590Y552280D02*
X55729D01*
X54933Y551951D01*
X54324Y551341D01*
X53994Y550546D01*
Y549684D01*
X54324Y548888D01*
X54933Y548279D01*
X55729Y547950D01*
X56590D01*
X57386Y548279D01*
X57995Y548888D01*
X58325Y549684D01*
Y550546D01*
X57995Y551341D01*
X57386Y551951D01*
X56590Y552280D01*
D02*
G37*
G36*
X41837Y550716D02*
X40840D01*
X39877Y550458D01*
X39013Y549960D01*
X38308Y549255D01*
X37809Y548391D01*
X37551Y547428D01*
Y546430D01*
X37809Y545467D01*
X38308Y544604D01*
X39013Y543898D01*
X39877Y543400D01*
X40840Y543142D01*
X41837D01*
X42800Y543400D01*
X43664Y543898D01*
X44369Y544604D01*
X44868Y545467D01*
X45126Y546430D01*
Y547428D01*
X44868Y548391D01*
X44369Y549255D01*
X43664Y549960D01*
X42800Y550458D01*
X41837Y550716D01*
D02*
G37*
G36*
X11837D02*
X10840D01*
X9877Y550458D01*
X9013Y549960D01*
X8308Y549255D01*
X7809Y548391D01*
X7551Y547428D01*
Y546430D01*
X7809Y545467D01*
X8308Y544604D01*
X9013Y543898D01*
X9877Y543400D01*
X10840Y543142D01*
X11837D01*
X12800Y543400D01*
X13664Y543898D01*
X14369Y544604D01*
X14868Y545467D01*
X15126Y546430D01*
Y547428D01*
X14868Y548391D01*
X14369Y549255D01*
X13664Y549960D01*
X12800Y550458D01*
X11837Y550716D01*
D02*
G37*
G36*
X41837Y540717D02*
X40840D01*
X39877Y540458D01*
X39013Y539960D01*
X38308Y539255D01*
X37809Y538391D01*
X37551Y537428D01*
Y536431D01*
X37809Y535467D01*
X38308Y534604D01*
X39013Y533898D01*
X39877Y533400D01*
X40840Y533142D01*
X41837D01*
X42800Y533400D01*
X43664Y533898D01*
X44369Y534604D01*
X44868Y535467D01*
X45126Y536431D01*
Y537428D01*
X44868Y538391D01*
X44369Y539255D01*
X43664Y539960D01*
X42800Y540458D01*
X41837Y540717D01*
D02*
G37*
G36*
X11837D02*
X10840D01*
X9877Y540458D01*
X9013Y539960D01*
X8308Y539255D01*
X7809Y538391D01*
X7551Y537428D01*
Y536431D01*
X7809Y535467D01*
X8308Y534604D01*
X9013Y533898D01*
X9877Y533400D01*
X10840Y533142D01*
X11837D01*
X12800Y533400D01*
X13664Y533898D01*
X14369Y534604D01*
X14868Y535467D01*
X15126Y536431D01*
Y537428D01*
X14868Y538391D01*
X14369Y539255D01*
X13664Y539960D01*
X12800Y540458D01*
X11837Y540717D01*
D02*
G37*
G36*
X41837Y530717D02*
X40840D01*
X39877Y530458D01*
X39013Y529960D01*
X38308Y529255D01*
X37809Y528391D01*
X37551Y527428D01*
Y526431D01*
X37809Y525467D01*
X38308Y524604D01*
X39013Y523898D01*
X39877Y523400D01*
X40840Y523142D01*
X41837D01*
X42800Y523400D01*
X43664Y523898D01*
X44369Y524604D01*
X44868Y525467D01*
X45126Y526431D01*
Y527428D01*
X44868Y528391D01*
X44369Y529255D01*
X43664Y529960D01*
X42800Y530458D01*
X41837Y530717D01*
D02*
G37*
G36*
X42323Y520790D02*
Y517913D01*
X45200D01*
X45051Y518467D01*
X44527Y519376D01*
X43785Y520117D01*
X42876Y520642D01*
X42323Y520790D01*
D02*
G37*
G36*
X40354D02*
X39801Y520642D01*
X38892Y520117D01*
X38150Y519376D01*
X37626Y518467D01*
X37477Y517913D01*
X40354D01*
Y520790D01*
D02*
G37*
G36*
X45200Y515945D02*
X42323D01*
Y513068D01*
X42876Y513216D01*
X43785Y513741D01*
X44527Y514483D01*
X45051Y515391D01*
X45200Y515945D01*
D02*
G37*
G36*
X40354D02*
X37477D01*
X37626Y515391D01*
X38150Y514483D01*
X38892Y513741D01*
X39801Y513216D01*
X40354Y513068D01*
Y515945D01*
D02*
G37*
G36*
X56341Y512449D02*
X55480D01*
X54684Y512119D01*
X54075Y511510D01*
X53745Y510714D01*
Y509853D01*
X54075Y509057D01*
X54684Y508448D01*
X55480Y508118D01*
X56341D01*
X57137Y508448D01*
X57746Y509057D01*
X58076Y509853D01*
Y510714D01*
X57746Y511510D01*
X57137Y512119D01*
X56341Y512449D01*
D02*
G37*
G36*
X41837Y510716D02*
X40840D01*
X39877Y510458D01*
X39013Y509960D01*
X38308Y509255D01*
X37809Y508391D01*
X37551Y507428D01*
Y506430D01*
X37809Y505467D01*
X38308Y504604D01*
X39013Y503898D01*
X39877Y503400D01*
X40840Y503142D01*
X41837D01*
X42800Y503400D01*
X43664Y503898D01*
X44369Y504604D01*
X44868Y505467D01*
X45126Y506430D01*
Y507428D01*
X44868Y508391D01*
X44369Y509255D01*
X43664Y509960D01*
X42800Y510458D01*
X41837Y510716D01*
D02*
G37*
G36*
X11837D02*
X10840D01*
X9877Y510458D01*
X9013Y509960D01*
X8308Y509255D01*
X7809Y508391D01*
X7551Y507428D01*
Y506430D01*
X7809Y505467D01*
X8308Y504604D01*
X9013Y503898D01*
X9877Y503400D01*
X10840Y503142D01*
X11837D01*
X12800Y503400D01*
X13664Y503898D01*
X14369Y504604D01*
X14868Y505467D01*
X15126Y506430D01*
Y507428D01*
X14868Y508391D01*
X14369Y509255D01*
X13664Y509960D01*
X12800Y510458D01*
X11837Y510716D01*
D02*
G37*
G36*
X41837Y500716D02*
X40840D01*
X39877Y500458D01*
X39013Y499960D01*
X38308Y499255D01*
X37809Y498391D01*
X37551Y497428D01*
Y496430D01*
X37809Y495467D01*
X38308Y494604D01*
X39013Y493898D01*
X39877Y493400D01*
X40840Y493142D01*
X41837D01*
X42800Y493400D01*
X43664Y493898D01*
X44369Y494604D01*
X44868Y495467D01*
X45126Y496430D01*
Y497428D01*
X44868Y498391D01*
X44369Y499255D01*
X43664Y499960D01*
X42800Y500458D01*
X41837Y500716D01*
D02*
G37*
G36*
X11837D02*
X10840D01*
X9877Y500458D01*
X9013Y499960D01*
X8308Y499255D01*
X7809Y498391D01*
X7551Y497428D01*
Y496430D01*
X7809Y495467D01*
X8308Y494604D01*
X9013Y493898D01*
X9877Y493400D01*
X10840Y493142D01*
X11837D01*
X12800Y493400D01*
X13664Y493898D01*
X14369Y494604D01*
X14868Y495467D01*
X15126Y496430D01*
Y497428D01*
X14868Y498391D01*
X14369Y499255D01*
X13664Y499960D01*
X12800Y500458D01*
X11837Y500716D01*
D02*
G37*
G36*
X41837Y490717D02*
X40840D01*
X39877Y490458D01*
X39013Y489960D01*
X38308Y489255D01*
X37809Y488391D01*
X37551Y487428D01*
Y486431D01*
X37809Y485467D01*
X38308Y484604D01*
X39013Y483898D01*
X39877Y483400D01*
X40840Y483142D01*
X41837D01*
X42800Y483400D01*
X43664Y483898D01*
X44369Y484604D01*
X44868Y485467D01*
X45126Y486431D01*
Y487428D01*
X44868Y488391D01*
X44369Y489255D01*
X43664Y489960D01*
X42800Y490458D01*
X41837Y490717D01*
D02*
G37*
G36*
X42323Y480790D02*
Y477913D01*
X45200D01*
X45051Y478467D01*
X44527Y479376D01*
X43785Y480117D01*
X42876Y480642D01*
X42323Y480790D01*
D02*
G37*
G36*
X40354D02*
X39801Y480642D01*
X38892Y480117D01*
X38150Y479376D01*
X37626Y478467D01*
X37477Y477913D01*
X40354D01*
Y480790D01*
D02*
G37*
G36*
X45200Y475945D02*
X42323D01*
Y473068D01*
X42876Y473216D01*
X43785Y473741D01*
X44527Y474483D01*
X45051Y475391D01*
X45200Y475945D01*
D02*
G37*
G36*
X40354D02*
X37477D01*
X37626Y475391D01*
X38150Y474483D01*
X38892Y473741D01*
X39801Y473216D01*
X40354Y473068D01*
Y475945D01*
D02*
G37*
G36*
X56341Y472685D02*
X55480D01*
X54684Y472356D01*
X54075Y471746D01*
X53745Y470951D01*
Y470089D01*
X54075Y469293D01*
X54684Y468684D01*
X55480Y468355D01*
X56341D01*
X57137Y468684D01*
X57746Y469293D01*
X58076Y470089D01*
Y470951D01*
X57746Y471746D01*
X57137Y472356D01*
X56341Y472685D01*
D02*
G37*
G36*
X41837Y470716D02*
X40840D01*
X39877Y470458D01*
X39013Y469960D01*
X38308Y469255D01*
X37809Y468391D01*
X37551Y467428D01*
Y466431D01*
X37809Y465467D01*
X38308Y464604D01*
X39013Y463899D01*
X39877Y463400D01*
X40840Y463142D01*
X41837D01*
X42800Y463400D01*
X43664Y463899D01*
X44369Y464604D01*
X44868Y465467D01*
X45126Y466431D01*
Y467428D01*
X44868Y468391D01*
X44369Y469255D01*
X43664Y469960D01*
X42800Y470458D01*
X41837Y470716D01*
D02*
G37*
G36*
X11837D02*
X10840D01*
X9877Y470458D01*
X9013Y469960D01*
X8308Y469255D01*
X7809Y468391D01*
X7551Y467428D01*
Y466431D01*
X7809Y465467D01*
X8308Y464604D01*
X9013Y463899D01*
X9877Y463400D01*
X10840Y463142D01*
X11837D01*
X12800Y463400D01*
X13664Y463899D01*
X14369Y464604D01*
X14868Y465467D01*
X15126Y466431D01*
Y467428D01*
X14868Y468391D01*
X14369Y469255D01*
X13664Y469960D01*
X12800Y470458D01*
X11837Y470716D01*
D02*
G37*
G36*
X41837Y460716D02*
X40840D01*
X39877Y460458D01*
X39013Y459960D01*
X38308Y459255D01*
X37809Y458391D01*
X37551Y457428D01*
Y456430D01*
X37809Y455467D01*
X38308Y454604D01*
X39013Y453898D01*
X39877Y453400D01*
X40840Y453142D01*
X41837D01*
X42800Y453400D01*
X43664Y453898D01*
X44369Y454604D01*
X44868Y455467D01*
X45126Y456430D01*
Y457428D01*
X44868Y458391D01*
X44369Y459255D01*
X43664Y459960D01*
X42800Y460458D01*
X41837Y460716D01*
D02*
G37*
G36*
X11837D02*
X10840D01*
X9877Y460458D01*
X9013Y459960D01*
X8308Y459255D01*
X7809Y458391D01*
X7551Y457428D01*
Y456430D01*
X7809Y455467D01*
X8308Y454604D01*
X9013Y453898D01*
X9877Y453400D01*
X10840Y453142D01*
X11837D01*
X12800Y453400D01*
X13664Y453898D01*
X14369Y454604D01*
X14868Y455467D01*
X15126Y456430D01*
Y457428D01*
X14868Y458391D01*
X14369Y459255D01*
X13664Y459960D01*
X12800Y460458D01*
X11837Y460716D01*
D02*
G37*
G36*
X41837Y450716D02*
X40840D01*
X39877Y450458D01*
X39013Y449960D01*
X38308Y449255D01*
X37809Y448391D01*
X37551Y447428D01*
Y446430D01*
X37809Y445467D01*
X38308Y444604D01*
X39013Y443898D01*
X39877Y443400D01*
X40840Y443142D01*
X41837D01*
X42800Y443400D01*
X43664Y443898D01*
X44369Y444604D01*
X44868Y445467D01*
X45126Y446430D01*
Y447428D01*
X44868Y448391D01*
X44369Y449255D01*
X43664Y449960D01*
X42800Y450458D01*
X41837Y450716D01*
D02*
G37*
G36*
X42323Y440790D02*
Y437913D01*
X45200D01*
X45051Y438467D01*
X44527Y439375D01*
X43785Y440117D01*
X42876Y440642D01*
X42323Y440790D01*
D02*
G37*
G36*
X40354D02*
X39801Y440642D01*
X38892Y440117D01*
X38150Y439375D01*
X37626Y438467D01*
X37477Y437913D01*
X40354D01*
Y440790D01*
D02*
G37*
G36*
X45200Y435945D02*
X42323D01*
Y433068D01*
X42876Y433216D01*
X43785Y433741D01*
X44527Y434483D01*
X45051Y435391D01*
X45200Y435945D01*
D02*
G37*
G36*
X40354D02*
X37477D01*
X37626Y435391D01*
X38150Y434483D01*
X38892Y433741D01*
X39801Y433216D01*
X40354Y433068D01*
Y435945D01*
D02*
G37*
G36*
X56333Y432558D02*
X55472D01*
X54676Y432229D01*
X54067Y431620D01*
X53737Y430824D01*
Y429962D01*
X54067Y429166D01*
X54676Y428557D01*
X55472Y428228D01*
X56333D01*
X57129Y428557D01*
X57738Y429166D01*
X58068Y429962D01*
Y430824D01*
X57738Y431620D01*
X57129Y432229D01*
X56333Y432558D01*
D02*
G37*
G36*
X41837Y430717D02*
X40840D01*
X39877Y430458D01*
X39013Y429960D01*
X38308Y429255D01*
X37809Y428391D01*
X37551Y427428D01*
Y426431D01*
X37809Y425467D01*
X38308Y424604D01*
X39013Y423899D01*
X39877Y423400D01*
X40840Y423142D01*
X41837D01*
X42800Y423400D01*
X43664Y423899D01*
X44369Y424604D01*
X44868Y425467D01*
X45126Y426431D01*
Y427428D01*
X44868Y428391D01*
X44369Y429255D01*
X43664Y429960D01*
X42800Y430458D01*
X41837Y430717D01*
D02*
G37*
G36*
X11837D02*
X10840D01*
X9877Y430458D01*
X9013Y429960D01*
X8308Y429255D01*
X7809Y428391D01*
X7551Y427428D01*
Y426431D01*
X7809Y425467D01*
X8308Y424604D01*
X9013Y423899D01*
X9877Y423400D01*
X10840Y423142D01*
X11837D01*
X12800Y423400D01*
X13664Y423899D01*
X14369Y424604D01*
X14868Y425467D01*
X15126Y426431D01*
Y427428D01*
X14868Y428391D01*
X14369Y429255D01*
X13664Y429960D01*
X12800Y430458D01*
X11837Y430717D01*
D02*
G37*
G36*
X41837Y420716D02*
X40840D01*
X39877Y420458D01*
X39013Y419960D01*
X38308Y419255D01*
X37809Y418391D01*
X37551Y417428D01*
Y416431D01*
X37809Y415467D01*
X38308Y414604D01*
X39013Y413899D01*
X39877Y413400D01*
X40840Y413142D01*
X41837D01*
X42800Y413400D01*
X43664Y413899D01*
X44369Y414604D01*
X44868Y415467D01*
X45126Y416431D01*
Y417428D01*
X44868Y418391D01*
X44369Y419255D01*
X43664Y419960D01*
X42800Y420458D01*
X41837Y420716D01*
D02*
G37*
G36*
X11837D02*
X10840D01*
X9877Y420458D01*
X9013Y419960D01*
X8308Y419255D01*
X7809Y418391D01*
X7551Y417428D01*
Y416431D01*
X7809Y415467D01*
X8308Y414604D01*
X9013Y413899D01*
X9877Y413400D01*
X10840Y413142D01*
X11837D01*
X12800Y413400D01*
X13664Y413899D01*
X14369Y414604D01*
X14868Y415467D01*
X15126Y416431D01*
Y417428D01*
X14868Y418391D01*
X14369Y419255D01*
X13664Y419960D01*
X12800Y420458D01*
X11837Y420716D01*
D02*
G37*
G36*
X41837Y410716D02*
X40840D01*
X39877Y410458D01*
X39013Y409960D01*
X38308Y409255D01*
X37809Y408391D01*
X37551Y407428D01*
Y406430D01*
X37809Y405467D01*
X38308Y404604D01*
X39013Y403898D01*
X39877Y403400D01*
X40840Y403142D01*
X41837D01*
X42800Y403400D01*
X43664Y403898D01*
X44369Y404604D01*
X44868Y405467D01*
X45126Y406430D01*
Y407428D01*
X44868Y408391D01*
X44369Y409255D01*
X43664Y409960D01*
X42800Y410458D01*
X41837Y410716D01*
D02*
G37*
G36*
X42323Y400790D02*
Y397913D01*
X45200D01*
X45051Y398467D01*
X44527Y399376D01*
X43785Y400117D01*
X42876Y400642D01*
X42323Y400790D01*
D02*
G37*
G36*
X40354D02*
X39801Y400642D01*
X38892Y400117D01*
X38150Y399376D01*
X37626Y398467D01*
X37477Y397913D01*
X40354D01*
Y400790D01*
D02*
G37*
G36*
X45200Y395945D02*
X42323D01*
Y393068D01*
X42876Y393216D01*
X43785Y393741D01*
X44527Y394483D01*
X45051Y395391D01*
X45200Y395945D01*
D02*
G37*
G36*
X40354D02*
X37477D01*
X37626Y395391D01*
X38150Y394483D01*
X38892Y393741D01*
X39801Y393216D01*
X40354Y393068D01*
Y395945D01*
D02*
G37*
G36*
X56364Y392668D02*
X55503D01*
X54707Y392338D01*
X54098Y391729D01*
X53768Y390933D01*
Y390072D01*
X54098Y389276D01*
X54707Y388667D01*
X55503Y388337D01*
X56364D01*
X57160Y388667D01*
X57769Y389276D01*
X58099Y390072D01*
Y390933D01*
X57769Y391729D01*
X57160Y392338D01*
X56364Y392668D01*
D02*
G37*
G36*
X41837Y390717D02*
X40840D01*
X39877Y390458D01*
X39013Y389960D01*
X38308Y389255D01*
X37809Y388391D01*
X37551Y387428D01*
Y386431D01*
X37809Y385467D01*
X38308Y384604D01*
X39013Y383898D01*
X39877Y383400D01*
X40840Y383142D01*
X41837D01*
X42800Y383400D01*
X43664Y383898D01*
X44369Y384604D01*
X44868Y385467D01*
X45126Y386431D01*
Y387428D01*
X44868Y388391D01*
X44369Y389255D01*
X43664Y389960D01*
X42800Y390458D01*
X41837Y390717D01*
D02*
G37*
G36*
X11837D02*
X10840D01*
X9877Y390458D01*
X9013Y389960D01*
X8308Y389255D01*
X7809Y388391D01*
X7551Y387428D01*
Y386431D01*
X7809Y385467D01*
X8308Y384604D01*
X9013Y383898D01*
X9877Y383400D01*
X10840Y383142D01*
X11837D01*
X12800Y383400D01*
X13664Y383898D01*
X14369Y384604D01*
X14868Y385467D01*
X15126Y386431D01*
Y387428D01*
X14868Y388391D01*
X14369Y389255D01*
X13664Y389960D01*
X12800Y390458D01*
X11837Y390717D01*
D02*
G37*
G36*
X41837Y380716D02*
X40840D01*
X39877Y380458D01*
X39013Y379960D01*
X38308Y379255D01*
X37809Y378391D01*
X37551Y377428D01*
Y376431D01*
X37809Y375467D01*
X38308Y374604D01*
X39013Y373899D01*
X39877Y373400D01*
X40840Y373142D01*
X41837D01*
X42800Y373400D01*
X43664Y373899D01*
X44369Y374604D01*
X44868Y375467D01*
X45126Y376431D01*
Y377428D01*
X44868Y378391D01*
X44369Y379255D01*
X43664Y379960D01*
X42800Y380458D01*
X41837Y380716D01*
D02*
G37*
G36*
X11837D02*
X10840D01*
X9877Y380458D01*
X9013Y379960D01*
X8308Y379255D01*
X7809Y378391D01*
X7551Y377428D01*
Y376431D01*
X7809Y375467D01*
X8308Y374604D01*
X9013Y373899D01*
X9877Y373400D01*
X10840Y373142D01*
X11837D01*
X12800Y373400D01*
X13664Y373899D01*
X14369Y374604D01*
X14868Y375467D01*
X15126Y376431D01*
Y377428D01*
X14868Y378391D01*
X14369Y379255D01*
X13664Y379960D01*
X12800Y380458D01*
X11837Y380716D01*
D02*
G37*
G36*
X41837Y370717D02*
X40840D01*
X39877Y370458D01*
X39013Y369960D01*
X38308Y369255D01*
X37809Y368391D01*
X37551Y367428D01*
Y366430D01*
X37809Y365467D01*
X38308Y364604D01*
X39013Y363898D01*
X39877Y363400D01*
X40840Y363142D01*
X41837D01*
X42800Y363400D01*
X43664Y363898D01*
X44369Y364604D01*
X44868Y365467D01*
X45126Y366430D01*
Y367428D01*
X44868Y368391D01*
X44369Y369255D01*
X43664Y369960D01*
X42800Y370458D01*
X41837Y370717D01*
D02*
G37*
G36*
X42323Y360790D02*
Y357913D01*
X45200D01*
X45051Y358467D01*
X44527Y359376D01*
X43785Y360117D01*
X42876Y360642D01*
X42323Y360790D01*
D02*
G37*
G36*
X40354D02*
X39801Y360642D01*
X38892Y360117D01*
X38150Y359376D01*
X37626Y358467D01*
X37477Y357913D01*
X40354D01*
Y360790D01*
D02*
G37*
G36*
X45200Y355945D02*
X42323D01*
Y353068D01*
X42876Y353216D01*
X43785Y353741D01*
X44527Y354483D01*
X45051Y355391D01*
X45200Y355945D01*
D02*
G37*
G36*
X40354D02*
X37477D01*
X37626Y355391D01*
X38150Y354483D01*
X38892Y353741D01*
X39801Y353216D01*
X40354Y353068D01*
Y355945D01*
D02*
G37*
G36*
X56341Y353000D02*
X55480D01*
X54684Y352671D01*
X54075Y352062D01*
X53745Y351266D01*
Y350405D01*
X54075Y349609D01*
X54684Y349000D01*
X55480Y348670D01*
X56341D01*
X57137Y349000D01*
X57746Y349609D01*
X58076Y350405D01*
Y351266D01*
X57746Y352062D01*
X57137Y352671D01*
X56341Y353000D01*
D02*
G37*
G36*
X41837Y350716D02*
X40840D01*
X39877Y350458D01*
X39013Y349960D01*
X38308Y349255D01*
X37809Y348391D01*
X37551Y347428D01*
Y346430D01*
X37809Y345467D01*
X38308Y344604D01*
X39013Y343899D01*
X39877Y343400D01*
X40840Y343142D01*
X41837D01*
X42800Y343400D01*
X43664Y343899D01*
X44369Y344604D01*
X44868Y345467D01*
X45126Y346430D01*
Y347428D01*
X44868Y348391D01*
X44369Y349255D01*
X43664Y349960D01*
X42800Y350458D01*
X41837Y350716D01*
D02*
G37*
G36*
X11837D02*
X10840D01*
X9877Y350458D01*
X9013Y349960D01*
X8308Y349255D01*
X7809Y348391D01*
X7551Y347428D01*
Y346430D01*
X7809Y345467D01*
X8308Y344604D01*
X9013Y343899D01*
X9877Y343400D01*
X10840Y343142D01*
X11837D01*
X12800Y343400D01*
X13664Y343899D01*
X14369Y344604D01*
X14868Y345467D01*
X15126Y346430D01*
Y347428D01*
X14868Y348391D01*
X14369Y349255D01*
X13664Y349960D01*
X12800Y350458D01*
X11837Y350716D01*
D02*
G37*
G36*
X41916Y340717D02*
X40919D01*
X39955Y340458D01*
X39092Y339960D01*
X38387Y339255D01*
X37888Y338391D01*
X37630Y337428D01*
Y336431D01*
X37888Y335467D01*
X38387Y334604D01*
X39092Y333898D01*
X39955Y333400D01*
X40919Y333142D01*
X41916D01*
X42879Y333400D01*
X43743Y333898D01*
X44448Y334604D01*
X44947Y335467D01*
X45205Y336431D01*
Y337428D01*
X44947Y338391D01*
X44448Y339255D01*
X43743Y339960D01*
X42879Y340458D01*
X41916Y340717D01*
D02*
G37*
G36*
X11916D02*
X10919D01*
X9955Y340458D01*
X9092Y339960D01*
X8387Y339255D01*
X7888Y338391D01*
X7630Y337428D01*
Y336431D01*
X7888Y335467D01*
X8387Y334604D01*
X9092Y333898D01*
X9955Y333400D01*
X10919Y333142D01*
X11916D01*
X12879Y333400D01*
X13743Y333898D01*
X14448Y334604D01*
X14947Y335467D01*
X15205Y336431D01*
Y337428D01*
X14947Y338391D01*
X14448Y339255D01*
X13743Y339960D01*
X12879Y340458D01*
X11916Y340717D01*
D02*
G37*
G36*
X41916Y330716D02*
X40919D01*
X39955Y330458D01*
X39092Y329960D01*
X38387Y329255D01*
X37888Y328391D01*
X37630Y327428D01*
Y326431D01*
X37888Y325467D01*
X38387Y324604D01*
X39092Y323899D01*
X39955Y323400D01*
X40919Y323142D01*
X41916D01*
X42879Y323400D01*
X43743Y323899D01*
X44448Y324604D01*
X44947Y325467D01*
X45205Y326431D01*
Y327428D01*
X44947Y328391D01*
X44448Y329255D01*
X43743Y329960D01*
X42879Y330458D01*
X41916Y330716D01*
D02*
G37*
G36*
Y320717D02*
X40919D01*
X39955Y320458D01*
X39092Y319960D01*
X38387Y319255D01*
X37888Y318391D01*
X37630Y317428D01*
Y316430D01*
X37888Y315467D01*
X38387Y314604D01*
X39092Y313898D01*
X39955Y313400D01*
X40919Y313142D01*
X41916D01*
X42879Y313400D01*
X43743Y313898D01*
X44448Y314604D01*
X44947Y315467D01*
X45205Y316430D01*
Y317428D01*
X44947Y318391D01*
X44448Y319255D01*
X43743Y319960D01*
X42879Y320458D01*
X41916Y320717D01*
D02*
G37*
G36*
X54570Y314896D02*
X53709D01*
X52913Y314566D01*
X52304Y313957D01*
X51974Y313161D01*
Y312299D01*
X52304Y311504D01*
X52913Y310894D01*
X53709Y310565D01*
X54570D01*
X55366Y310894D01*
X55975Y311504D01*
X56305Y312299D01*
Y313161D01*
X55975Y313957D01*
X55366Y314566D01*
X54570Y314896D01*
D02*
G37*
G36*
X35076Y312008D02*
X34215D01*
X33419Y311678D01*
X32810Y311069D01*
X32480Y310273D01*
Y309412D01*
X32810Y308616D01*
X33419Y308007D01*
X34215Y307677D01*
X35076D01*
X35872Y308007D01*
X36481Y308616D01*
X36811Y309412D01*
Y310273D01*
X36481Y311069D01*
X35872Y311678D01*
X35076Y312008D01*
D02*
G37*
G36*
X41916Y310717D02*
X40919D01*
X39955Y310458D01*
X39092Y309960D01*
X38387Y309255D01*
X37888Y308391D01*
X37630Y307428D01*
Y306431D01*
X37888Y305467D01*
X38387Y304604D01*
X39092Y303899D01*
X39955Y303400D01*
X40919Y303142D01*
X41916D01*
X42879Y303400D01*
X43743Y303899D01*
X44448Y304604D01*
X44947Y305467D01*
X45205Y306431D01*
Y307428D01*
X44947Y308391D01*
X44448Y309255D01*
X43743Y309960D01*
X42879Y310458D01*
X41916Y310717D01*
D02*
G37*
G36*
X11916D02*
X10919D01*
X9955Y310458D01*
X9092Y309960D01*
X8387Y309255D01*
X7888Y308391D01*
X7630Y307428D01*
Y306431D01*
X7888Y305467D01*
X8387Y304604D01*
X9092Y303899D01*
X9955Y303400D01*
X10919Y303142D01*
X11916D01*
X12879Y303400D01*
X13743Y303899D01*
X14448Y304604D01*
X14947Y305467D01*
X15205Y306431D01*
Y307428D01*
X14947Y308391D01*
X14448Y309255D01*
X13743Y309960D01*
X12879Y310458D01*
X11916Y310717D01*
D02*
G37*
G36*
X41916Y300716D02*
X40919D01*
X39955Y300458D01*
X39092Y299960D01*
X38387Y299255D01*
X37888Y298391D01*
X37630Y297428D01*
Y296430D01*
X37888Y295467D01*
X38387Y294604D01*
X39092Y293899D01*
X39955Y293400D01*
X40919Y293142D01*
X41916D01*
X42879Y293400D01*
X43743Y293899D01*
X44448Y294604D01*
X44947Y295467D01*
X45205Y296430D01*
Y297428D01*
X44947Y298391D01*
X44448Y299255D01*
X43743Y299960D01*
X42879Y300458D01*
X41916Y300716D01*
D02*
G37*
G36*
X11916D02*
X10919D01*
X9955Y300458D01*
X9092Y299960D01*
X8387Y299255D01*
X7888Y298391D01*
X7630Y297428D01*
Y296430D01*
X7888Y295467D01*
X8387Y294604D01*
X9092Y293899D01*
X9955Y293400D01*
X10919Y293142D01*
X11916D01*
X12879Y293400D01*
X13743Y293899D01*
X14448Y294604D01*
X14947Y295467D01*
X15205Y296430D01*
Y297428D01*
X14947Y298391D01*
X14448Y299255D01*
X13743Y299960D01*
X12879Y300458D01*
X11916Y300716D01*
D02*
G37*
G36*
X41916Y290717D02*
X40919D01*
X39955Y290458D01*
X39092Y289960D01*
X38387Y289255D01*
X37888Y288391D01*
X37630Y287428D01*
Y286431D01*
X37888Y285467D01*
X38387Y284604D01*
X39092Y283898D01*
X39955Y283400D01*
X40919Y283142D01*
X41916D01*
X42879Y283400D01*
X43743Y283898D01*
X44448Y284604D01*
X44947Y285467D01*
X45205Y286431D01*
Y287428D01*
X44947Y288391D01*
X44448Y289255D01*
X43743Y289960D01*
X42879Y290458D01*
X41916Y290717D01*
D02*
G37*
G36*
Y280716D02*
X40919D01*
X39955Y280458D01*
X39092Y279960D01*
X38387Y279255D01*
X37888Y278391D01*
X37630Y277428D01*
Y276431D01*
X37888Y275467D01*
X38387Y274604D01*
X39092Y273899D01*
X39955Y273400D01*
X40919Y273142D01*
X41916D01*
X42879Y273400D01*
X43743Y273899D01*
X44448Y274604D01*
X44947Y275467D01*
X45205Y276431D01*
Y277428D01*
X44947Y278391D01*
X44448Y279255D01*
X43743Y279960D01*
X42879Y280458D01*
X41916Y280716D01*
D02*
G37*
G36*
X54564Y275787D02*
X53703D01*
X52907Y275458D01*
X52298Y274849D01*
X51968Y274053D01*
Y273191D01*
X52298Y272395D01*
X52907Y271786D01*
X53703Y271457D01*
X54564D01*
X55360Y271786D01*
X55970Y272395D01*
X56299Y273191D01*
Y274053D01*
X55970Y274849D01*
X55360Y275458D01*
X54564Y275787D01*
D02*
G37*
G36*
X36257Y272244D02*
X35396D01*
X34600Y271914D01*
X33991Y271305D01*
X33661Y270510D01*
Y269648D01*
X33991Y268852D01*
X34600Y268243D01*
X35396Y267913D01*
X36257D01*
X37053Y268243D01*
X37460Y268650D01*
X37888Y268391D01*
X37630Y267428D01*
Y266430D01*
X37888Y265467D01*
X38387Y264604D01*
X39092Y263898D01*
X39955Y263400D01*
X40919Y263142D01*
X41916D01*
X42879Y263400D01*
X43743Y263898D01*
X44448Y264604D01*
X44947Y265467D01*
X45205Y266430D01*
Y267428D01*
X44947Y268391D01*
X44448Y269255D01*
X43743Y269960D01*
X42879Y270458D01*
X41916Y270717D01*
X40919D01*
X39955Y270458D01*
X39092Y269960D01*
X38387Y269255D01*
X38329Y269155D01*
X37880Y269377D01*
X37992Y269648D01*
Y270510D01*
X37663Y271305D01*
X37053Y271914D01*
X36257Y272244D01*
D02*
G37*
G36*
X11916Y270717D02*
X10919D01*
X9955Y270458D01*
X9092Y269960D01*
X8387Y269255D01*
X7888Y268391D01*
X7630Y267428D01*
Y266430D01*
X7888Y265467D01*
X8387Y264604D01*
X9092Y263898D01*
X9955Y263400D01*
X10919Y263142D01*
X11916D01*
X12879Y263400D01*
X13743Y263898D01*
X14448Y264604D01*
X14947Y265467D01*
X15205Y266430D01*
Y267428D01*
X14947Y268391D01*
X14448Y269255D01*
X13743Y269960D01*
X12879Y270458D01*
X11916Y270717D01*
D02*
G37*
G36*
X409055Y614961D02*
X389370D01*
Y595276D01*
X409055D01*
Y614961D01*
D02*
G37*
G36*
X363779D02*
X344094D01*
Y595276D01*
X363779D01*
Y614961D01*
D02*
G37*
G36*
X456897Y521063D02*
X454914D01*
X452955Y520753D01*
X451069Y520140D01*
X449302Y519240D01*
X447698Y518074D01*
X446296Y516672D01*
X445130Y515068D01*
X444230Y513301D01*
X443617Y511415D01*
X443307Y509456D01*
Y507473D01*
X443617Y505514D01*
X444230Y503628D01*
X445130Y501862D01*
X446296Y500257D01*
X447698Y498855D01*
X449302Y497689D01*
X451069Y496789D01*
X452955Y496176D01*
X454914Y495866D01*
X456897D01*
X458856Y496176D01*
X460742Y496789D01*
X462508Y497689D01*
X464113Y498855D01*
X465515Y500257D01*
X466681Y501862D01*
X467581Y503628D01*
X468194Y505514D01*
X468504Y507473D01*
Y509456D01*
X468194Y511415D01*
X467581Y513301D01*
X466681Y515068D01*
X465515Y516672D01*
X464113Y518074D01*
X462508Y519240D01*
X460742Y520140D01*
X458856Y520753D01*
X456897Y521063D01*
D02*
G37*
G36*
X804552Y466929D02*
X802535D01*
X800558Y466536D01*
X798695Y465764D01*
X797018Y464644D01*
X795592Y463218D01*
X794472Y461542D01*
X793701Y459679D01*
X793307Y457701D01*
Y455685D01*
X793701Y453707D01*
X794472Y451844D01*
X795592Y450168D01*
X797018Y448742D01*
X798695Y447622D01*
X800558Y446850D01*
X802535Y446457D01*
X804552D01*
X806529Y446850D01*
X808392Y447622D01*
X810069Y448742D01*
X811494Y450168D01*
X812615Y451844D01*
X813386Y453707D01*
X813780Y455685D01*
Y457701D01*
X813386Y459679D01*
X812615Y461542D01*
X811494Y463218D01*
X810069Y464644D01*
X808392Y465764D01*
X806529Y466536D01*
X804552Y466929D01*
D02*
G37*
G36*
X733858D02*
X713386D01*
Y446457D01*
X733858D01*
Y466929D01*
D02*
G37*
G36*
X664000D02*
X661984D01*
X660006Y466536D01*
X658144Y465764D01*
X656467Y464644D01*
X655041Y463218D01*
X653921Y461542D01*
X653149Y459679D01*
X652756Y457701D01*
Y455685D01*
X653149Y453707D01*
X653921Y451844D01*
X655041Y450168D01*
X656467Y448742D01*
X658144Y447622D01*
X660006Y446850D01*
X661984Y446457D01*
X664000D01*
X665978Y446850D01*
X667841Y447622D01*
X669517Y448742D01*
X670943Y450168D01*
X672063Y451844D01*
X672835Y453707D01*
X673228Y455685D01*
Y457701D01*
X672835Y459679D01*
X672063Y461542D01*
X670943Y463218D01*
X669517Y464644D01*
X667841Y465764D01*
X665978Y466536D01*
X664000Y466929D01*
D02*
G37*
G36*
X593307D02*
X572835D01*
Y446457D01*
X593307D01*
Y466929D01*
D02*
G37*
G36*
X523055D02*
X521039D01*
X519061Y466536D01*
X517199Y465764D01*
X515522Y464644D01*
X514096Y463218D01*
X512976Y461542D01*
X512204Y459679D01*
X511811Y457701D01*
Y455685D01*
X512204Y453707D01*
X512976Y451844D01*
X514096Y450168D01*
X515522Y448742D01*
X517199Y447622D01*
X519061Y446850D01*
X521039Y446457D01*
X523055D01*
X525033Y446850D01*
X526896Y447622D01*
X528573Y448742D01*
X529998Y450168D01*
X531118Y451844D01*
X531890Y453707D01*
X532283Y455685D01*
Y457701D01*
X531890Y459679D01*
X531118Y461542D01*
X529998Y463218D01*
X528573Y464644D01*
X526896Y465764D01*
X525033Y466536D01*
X523055Y466929D01*
D02*
G37*
G36*
X452362D02*
X431890D01*
Y446457D01*
X452362D01*
Y466929D01*
D02*
G37*
G36*
X382111D02*
X380094D01*
X378117Y466536D01*
X376254Y465764D01*
X374577Y464644D01*
X373151Y463218D01*
X372031Y461542D01*
X371259Y459679D01*
X370866Y457701D01*
Y455685D01*
X371259Y453707D01*
X372031Y451844D01*
X373151Y450168D01*
X374577Y448742D01*
X376254Y447622D01*
X378117Y446850D01*
X380094Y446457D01*
X382111D01*
X384088Y446850D01*
X385951Y447622D01*
X387628Y448742D01*
X389053Y450168D01*
X390174Y451844D01*
X390945Y453707D01*
X391339Y455685D01*
Y457701D01*
X390945Y459679D01*
X390174Y461542D01*
X389053Y463218D01*
X387628Y464644D01*
X385951Y465764D01*
X384088Y466536D01*
X382111Y466929D01*
D02*
G37*
G36*
X311417D02*
X290945D01*
Y446457D01*
X311417D01*
Y466929D01*
D02*
G37*
G36*
X241559D02*
X239543D01*
X237565Y466536D01*
X235702Y465764D01*
X234026Y464644D01*
X232600Y463218D01*
X231480Y461542D01*
X230708Y459679D01*
X230315Y457701D01*
Y455685D01*
X230708Y453707D01*
X231480Y451844D01*
X232600Y450168D01*
X234026Y448742D01*
X235702Y447622D01*
X237565Y446850D01*
X239543Y446457D01*
X241559D01*
X243537Y446850D01*
X245400Y447622D01*
X247076Y448742D01*
X248502Y450168D01*
X249622Y451844D01*
X250394Y453707D01*
X250787Y455685D01*
Y457701D01*
X250394Y459679D01*
X249622Y461542D01*
X248502Y463218D01*
X247076Y464644D01*
X245400Y465764D01*
X243537Y466536D01*
X241559Y466929D01*
D02*
G37*
G36*
X170866D02*
X150394D01*
Y446457D01*
X170866D01*
Y466929D01*
D02*
G37*
G36*
X837106Y116345D02*
X835189D01*
X833309Y115971D01*
X831539Y115237D01*
X829945Y114172D01*
X828590Y112817D01*
X827525Y111223D01*
X826791Y109452D01*
X826417Y107572D01*
Y105656D01*
X826791Y103776D01*
X827525Y102005D01*
X828590Y100411D01*
X829945Y99056D01*
X831539Y97991D01*
X833309Y97258D01*
X835189Y96884D01*
X837106D01*
X838986Y97258D01*
X840757Y97991D01*
X842351Y99056D01*
X843706Y100411D01*
X844771Y102005D01*
X845504Y103776D01*
X845878Y105656D01*
Y107572D01*
X845504Y109452D01*
X844771Y111223D01*
X843706Y112817D01*
X842351Y114172D01*
X840757Y115237D01*
X838986Y115971D01*
X837106Y116345D01*
D02*
G37*
G36*
X797106D02*
X795189D01*
X793309Y115971D01*
X791539Y115237D01*
X789945Y114172D01*
X788589Y112817D01*
X787525Y111223D01*
X786791Y109452D01*
X786417Y107572D01*
Y105656D01*
X786791Y103776D01*
X787525Y102005D01*
X788589Y100411D01*
X789945Y99056D01*
X791539Y97991D01*
X793309Y97258D01*
X795189Y96884D01*
X797106D01*
X798986Y97258D01*
X800757Y97991D01*
X802351Y99056D01*
X803706Y100411D01*
X804771Y102005D01*
X805504Y103776D01*
X805878Y105656D01*
Y107572D01*
X805504Y109452D01*
X804771Y111223D01*
X803706Y112817D01*
X802351Y114172D01*
X800757Y115237D01*
X798986Y115971D01*
X797106Y116345D01*
D02*
G37*
G36*
X812096Y99163D02*
X810121D01*
X808170Y98854D01*
X806291Y98244D01*
X804531Y97347D01*
X802933Y96186D01*
X801536Y94789D01*
X800375Y93191D01*
X799478Y91431D01*
X798868Y89553D01*
X798559Y87602D01*
Y85627D01*
X798868Y83676D01*
X799478Y81797D01*
X800375Y80037D01*
X801536Y78439D01*
X802933Y77042D01*
X804531Y75881D01*
X806291Y74984D01*
X808170Y74374D01*
X810121Y74065D01*
X812096D01*
X814047Y74374D01*
X815926Y74984D01*
X817686Y75881D01*
X819284Y77042D01*
X820680Y78439D01*
X821841Y80037D01*
X822738Y81797D01*
X823349Y83676D01*
X823658Y85627D01*
Y87602D01*
X823349Y89553D01*
X822738Y91431D01*
X821841Y93191D01*
X820680Y94789D01*
X819284Y96186D01*
X817686Y97347D01*
X815926Y98244D01*
X814047Y98854D01*
X812096Y99163D01*
D02*
G37*
G36*
X837106Y76345D02*
X835189D01*
X833309Y75971D01*
X831539Y75237D01*
X829945Y74172D01*
X828590Y72817D01*
X827525Y71223D01*
X826791Y69452D01*
X826417Y67572D01*
Y65656D01*
X826791Y63776D01*
X827525Y62005D01*
X828590Y60411D01*
X829945Y59056D01*
X831539Y57991D01*
X833309Y57258D01*
X835189Y56884D01*
X837106D01*
X838986Y57258D01*
X840757Y57991D01*
X842351Y59056D01*
X843706Y60411D01*
X844771Y62005D01*
X845504Y63776D01*
X845878Y65656D01*
Y67572D01*
X845504Y69452D01*
X844771Y71223D01*
X843706Y72817D01*
X842351Y74172D01*
X840757Y75237D01*
X838986Y75971D01*
X837106Y76345D01*
D02*
G37*
G36*
X797106D02*
X795189D01*
X793309Y75971D01*
X791539Y75237D01*
X789945Y74172D01*
X788589Y72817D01*
X787525Y71223D01*
X786791Y69452D01*
X786417Y67572D01*
Y65656D01*
X786791Y63776D01*
X787525Y62005D01*
X788589Y60411D01*
X789945Y59056D01*
X791539Y57991D01*
X793309Y57258D01*
X795189Y56884D01*
X797106D01*
X798986Y57258D01*
X800757Y57991D01*
X802351Y59056D01*
X803706Y60411D01*
X804771Y62005D01*
X805504Y63776D01*
X805878Y65656D01*
Y67572D01*
X805504Y69452D01*
X804771Y71223D01*
X803706Y72817D01*
X802351Y74172D01*
X800757Y75237D01*
X798986Y75971D01*
X797106Y76345D01*
D02*
G37*
G36*
X837304Y44764D02*
X834980D01*
X832685Y44400D01*
X830474Y43682D01*
X828404Y42627D01*
X826524Y41261D01*
X824881Y39618D01*
X823515Y37738D01*
X822460Y35667D01*
X821741Y33457D01*
X821378Y31162D01*
Y28838D01*
X821741Y26543D01*
X822460Y24333D01*
X823515Y22262D01*
X824881Y20382D01*
X826524Y18739D01*
X828404Y17373D01*
X830474Y16318D01*
X832685Y15600D01*
X834980Y15236D01*
X837304D01*
X839599Y15600D01*
X841809Y16318D01*
X843880Y17373D01*
X845760Y18739D01*
X847403Y20382D01*
X848769Y22262D01*
X849824Y24333D01*
X850542Y26543D01*
X850906Y28838D01*
Y31162D01*
X850542Y33457D01*
X849824Y35667D01*
X848769Y37738D01*
X847403Y39618D01*
X845760Y41261D01*
X843880Y42627D01*
X841809Y43682D01*
X839599Y44400D01*
X837304Y44764D01*
D02*
G37*
G36*
X31162D02*
X28838D01*
X26543Y44400D01*
X24333Y43682D01*
X22262Y42627D01*
X20382Y41261D01*
X18739Y39618D01*
X17373Y37738D01*
X16318Y35667D01*
X15600Y33457D01*
X15236Y31162D01*
Y28838D01*
X15600Y26543D01*
X16318Y24333D01*
X17373Y22262D01*
X18739Y20382D01*
X20382Y18739D01*
X22262Y17373D01*
X24333Y16318D01*
X26543Y15600D01*
X28838Y15236D01*
X31162D01*
X33457Y15600D01*
X35667Y16318D01*
X37738Y17373D01*
X39618Y18739D01*
X41261Y20382D01*
X42627Y22262D01*
X43682Y24333D01*
X44400Y26543D01*
X44764Y28838D01*
Y31162D01*
X44400Y33457D01*
X43682Y35667D01*
X42627Y37738D01*
X41261Y39618D01*
X39618Y41261D01*
X37738Y42627D01*
X35667Y43682D01*
X33457Y44400D01*
X31162Y44764D01*
D02*
G37*
G36*
X733071Y31496D02*
X712598D01*
Y11024D01*
X733071D01*
Y31496D01*
D02*
G37*
G36*
X643922D02*
X641905D01*
X639928Y31103D01*
X638065Y30331D01*
X636388Y29211D01*
X634962Y27785D01*
X633842Y26109D01*
X633071Y24246D01*
X632677Y22268D01*
Y20252D01*
X633071Y18274D01*
X633842Y16411D01*
X634962Y14735D01*
X636388Y13309D01*
X638065Y12189D01*
X639928Y11417D01*
X641905Y11024D01*
X643922D01*
X645899Y11417D01*
X647762Y12189D01*
X649439Y13309D01*
X650864Y14735D01*
X651985Y16411D01*
X652756Y18274D01*
X653150Y20252D01*
Y22268D01*
X652756Y24246D01*
X651985Y26109D01*
X650864Y27785D01*
X649439Y29211D01*
X647762Y30331D01*
X645899Y31103D01*
X643922Y31496D01*
D02*
G37*
G36*
X592520D02*
X572047D01*
Y11024D01*
X592520D01*
Y31496D01*
D02*
G37*
G36*
X503370D02*
X501354D01*
X499376Y31103D01*
X497513Y30331D01*
X495837Y29211D01*
X494411Y27785D01*
X493291Y26109D01*
X492519Y24246D01*
X492126Y22268D01*
Y20252D01*
X492519Y18274D01*
X493291Y16411D01*
X494411Y14735D01*
X495837Y13309D01*
X497513Y12189D01*
X499376Y11417D01*
X501354Y11024D01*
X503370D01*
X505348Y11417D01*
X507211Y12189D01*
X508887Y13309D01*
X510313Y14735D01*
X511433Y16411D01*
X512205Y18274D01*
X512598Y20252D01*
Y22268D01*
X512205Y24246D01*
X511433Y26109D01*
X510313Y27785D01*
X508887Y29211D01*
X507211Y30331D01*
X505348Y31103D01*
X503370Y31496D01*
D02*
G37*
G36*
X452362D02*
X431890D01*
Y11024D01*
X452362D01*
Y31496D01*
D02*
G37*
G36*
X363213D02*
X361196D01*
X359219Y31103D01*
X357356Y30331D01*
X355679Y29211D01*
X354254Y27785D01*
X353134Y26109D01*
X352362Y24246D01*
X351969Y22268D01*
Y20252D01*
X352362Y18274D01*
X353134Y16411D01*
X354254Y14735D01*
X355679Y13309D01*
X357356Y12189D01*
X359219Y11417D01*
X361196Y11024D01*
X363213D01*
X365191Y11417D01*
X367053Y12189D01*
X368730Y13309D01*
X370156Y14735D01*
X371276Y16411D01*
X372048Y18274D01*
X372441Y20252D01*
Y22268D01*
X372048Y24246D01*
X371276Y26109D01*
X370156Y27785D01*
X368730Y29211D01*
X367053Y30331D01*
X365191Y31103D01*
X363213Y31496D01*
D02*
G37*
G36*
X311811D02*
X291339D01*
Y11024D01*
X311811D01*
Y31496D01*
D02*
G37*
G36*
X222662D02*
X220645D01*
X218668Y31103D01*
X216805Y30331D01*
X215128Y29211D01*
X213703Y27785D01*
X212582Y26109D01*
X211811Y24246D01*
X211417Y22268D01*
Y20252D01*
X211811Y18274D01*
X212582Y16411D01*
X213703Y14735D01*
X215128Y13309D01*
X216805Y12189D01*
X218668Y11417D01*
X220645Y11024D01*
X222662D01*
X224639Y11417D01*
X226502Y12189D01*
X228179Y13309D01*
X229605Y14735D01*
X230725Y16411D01*
X231496Y18274D01*
X231890Y20252D01*
Y22268D01*
X231496Y24246D01*
X230725Y26109D01*
X229605Y27785D01*
X228179Y29211D01*
X226502Y30331D01*
X224639Y31103D01*
X222662Y31496D01*
D02*
G37*
G36*
X170866D02*
X150394D01*
Y11024D01*
X170866D01*
Y31496D01*
D02*
G37*
G36*
X81717D02*
X79700D01*
X77723Y31103D01*
X75860Y30331D01*
X74183Y29211D01*
X72758Y27785D01*
X71637Y26109D01*
X70866Y24246D01*
X70472Y22268D01*
Y20252D01*
X70866Y18274D01*
X71637Y16411D01*
X72758Y14735D01*
X74183Y13309D01*
X75860Y12189D01*
X77723Y11417D01*
X79700Y11024D01*
X81717D01*
X83694Y11417D01*
X85557Y12189D01*
X87234Y13309D01*
X88660Y14735D01*
X89780Y16411D01*
X90552Y18274D01*
X90945Y20252D01*
Y22268D01*
X90552Y24246D01*
X89780Y26109D01*
X88660Y27785D01*
X87234Y29211D01*
X85557Y30331D01*
X83694Y31103D01*
X81717Y31496D01*
D02*
G37*
G36*
X797106Y543510D02*
X795189D01*
X793309Y543136D01*
X791539Y542403D01*
X789945Y541338D01*
X788589Y539982D01*
X787525Y538389D01*
X786791Y536618D01*
X786417Y534738D01*
Y532821D01*
X786791Y530941D01*
X787525Y529170D01*
X788589Y527577D01*
X789945Y526221D01*
X791539Y525156D01*
X793309Y524423D01*
X795189Y524049D01*
X797106D01*
X798986Y524423D01*
X800757Y525156D01*
X802351Y526221D01*
X803706Y527577D01*
X804771Y529170D01*
X805504Y530941D01*
X805878Y532821D01*
Y534738D01*
X805504Y536618D01*
X804771Y538389D01*
X803706Y539982D01*
X802351Y541338D01*
X800757Y542403D01*
X798986Y543136D01*
X797106Y543510D01*
D02*
G37*
%LPD*%
D10*
X268110Y844460D02*
G03*
X266142Y849213I-6721J0D01*
G01*
X360866Y666516D02*
G03*
X370866Y676516I0J10000D01*
G01*
Y718299D02*
G03*
X367937Y725370I-10000J0D01*
G01*
X373465Y640224D02*
G03*
X383465Y650224I0J10000D01*
G01*
X321480Y853370D02*
G03*
X324410Y860441I-7071J7071D01*
G01*
X303338Y839370D02*
G03*
X310409Y842299I0J10000D01*
G01*
X207087Y819497D02*
G03*
X210016Y812425I10000J0D01*
G01*
X258095Y842299D02*
G03*
X265166Y839370I7071J7071D01*
G01*
X224583Y875811D02*
G03*
X217511Y878740I-7071J-7071D01*
G01*
X659842Y769291D02*
X659851Y769283D01*
Y763379D02*
Y769283D01*
Y763379D02*
X659860Y763370D01*
X27079Y737134D02*
X35333Y728879D01*
X35890D01*
X37604Y727165D02*
X37795D01*
X35890Y728879D02*
X37604Y727165D01*
X20110Y725165D02*
X35876D01*
X20079Y725134D02*
X20110Y725165D01*
X37631Y723409D02*
X37795D01*
X35876Y725165D02*
X37631Y723409D01*
X324016Y862401D02*
X324410Y862008D01*
Y860441D02*
Y862008D01*
X324016Y862401D02*
Y864961D01*
X207087Y819497D02*
Y878740D01*
X326043Y666516D02*
X360866D01*
X370866Y676516D02*
Y718299D01*
X353543Y739764D02*
X367937Y725370D01*
X383465Y739511D02*
X383482Y739528D01*
X383465Y650224D02*
Y739511D01*
X326043Y640224D02*
X373465D01*
X310409Y842299D02*
X321480Y853370D01*
X265166Y839370D02*
X268110D01*
Y844460D01*
Y839370D02*
X303338D01*
X268110Y835433D02*
Y839370D01*
X210016Y812425D02*
X220866Y801575D01*
X207087Y878740D02*
X217511D01*
X224583Y875811D02*
X258095Y842299D01*
D12*
X588944Y784129D02*
X589280Y784465D01*
X587935Y784129D02*
X588944D01*
X582829Y784010D02*
X587816D01*
X587935Y784129D01*
X582677Y783858D02*
X582829Y784010D01*
X493653Y806496D02*
X499016D01*
X493457Y806299D02*
X493653Y806496D01*
X499016D02*
X499213Y806693D01*
D87*
X27079Y737134D02*
D03*
X20079Y725134D02*
D03*
D88*
X23579Y637134D02*
D03*
Y763134D02*
D03*
D90*
X221654Y227953D02*
D03*
X301575D02*
D03*
X642913D02*
D03*
X722835D02*
D03*
X240551Y250000D02*
D03*
X160630D02*
D03*
X381102D02*
D03*
X301181D02*
D03*
X522047D02*
D03*
X442126D02*
D03*
X723622D02*
D03*
X803543D02*
D03*
X160630Y227953D02*
D03*
X80709D02*
D03*
X442126D02*
D03*
X362205D02*
D03*
X582283D02*
D03*
X502362D02*
D03*
X583071Y250000D02*
D03*
X662992D02*
D03*
D93*
X53065Y801181D02*
D03*
X811108Y671260D02*
D03*
Y592520D02*
D03*
Y848425D02*
D03*
Y513779D02*
D03*
D94*
X41339Y356929D02*
D03*
Y396929D02*
D03*
Y436929D02*
D03*
Y476929D02*
D03*
Y516929D02*
D03*
Y556929D02*
D03*
Y596929D02*
D03*
D97*
X762402Y786417D02*
D03*
D98*
X792402Y807480D02*
D03*
X802402D02*
D03*
X812402D02*
D03*
D100*
X326043Y666516D02*
D03*
Y640224D02*
D03*
D101*
X206705Y594842D02*
D03*
D102*
X540551Y698228D02*
D03*
Y708228D02*
D03*
Y718228D02*
D03*
X722047Y652559D02*
D03*
Y662559D02*
D03*
Y672559D02*
D03*
X629921Y675787D02*
D03*
Y685787D02*
D03*
Y695787D02*
D03*
D103*
X519488Y748228D02*
D03*
X700984Y702559D02*
D03*
X608858Y725787D02*
D03*
D104*
X659842Y769291D02*
D03*
X659860Y763370D02*
D03*
X249213Y894472D02*
D03*
X582677Y783858D02*
D03*
X589280Y784465D02*
D03*
X493457Y806299D02*
D03*
X499213Y806693D02*
D03*
X37795Y727165D02*
D03*
Y723409D02*
D03*
X176378Y641339D02*
D03*
X324016Y864961D02*
D03*
X192913Y661024D02*
D03*
X240663Y841234D02*
D03*
X201181Y809842D02*
D03*
X118115Y714975D02*
D03*
X123232Y715039D02*
D03*
X113594Y714920D02*
D03*
X443307Y620472D02*
D03*
X439370D02*
D03*
X435827D02*
D03*
X446850D02*
D03*
X431890D02*
D03*
Y617717D02*
D03*
X446850D02*
D03*
X435827D02*
D03*
X439370D02*
D03*
X443307D02*
D03*
X432677Y722835D02*
D03*
X436221D02*
D03*
X432677Y719291D02*
D03*
X436221D02*
D03*
X432677Y715748D02*
D03*
X436221D02*
D03*
X207087Y878740D02*
D03*
X70079Y681102D02*
D03*
X262220Y849564D02*
D03*
X266142Y849213D02*
D03*
X182283Y720079D02*
D03*
X20472Y266142D02*
D03*
Y305906D02*
D03*
X6299Y313386D02*
D03*
X7874Y362598D02*
D03*
X6693Y401181D02*
D03*
Y481496D02*
D03*
X7874Y523228D02*
D03*
X7087Y560236D02*
D03*
Y602362D02*
D03*
X8661Y878740D02*
D03*
Y851181D02*
D03*
X353543Y739764D02*
D03*
X383482Y739528D02*
D03*
X444488Y715748D02*
D03*
X440945D02*
D03*
X444488Y719291D02*
D03*
X440945D02*
D03*
X444488Y722835D02*
D03*
X440945D02*
D03*
X268110Y835433D02*
D03*
X220866Y801575D02*
D03*
X247638Y909449D02*
D03*
X217323D02*
D03*
X310630Y872441D02*
D03*
X287402Y885827D02*
D03*
X173228Y672047D02*
D03*
X98032Y280315D02*
D03*
X68504Y253150D02*
D03*
X7480Y253937D02*
D03*
X162205Y522441D02*
D03*
X216535Y574803D02*
D03*
X8661Y908268D02*
D03*
X9055Y788189D02*
D03*
Y817717D02*
D03*
Y673228D02*
D03*
Y700787D02*
D03*
Y730315D02*
D03*
X395276Y909842D02*
D03*
X365748D02*
D03*
X338189D02*
D03*
X275197Y909449D02*
D03*
X304724D02*
D03*
X126772Y909055D02*
D03*
X97244D02*
D03*
X69685D02*
D03*
X160236Y909449D02*
D03*
X187795D02*
D03*
X578740Y910236D02*
D03*
X549213D02*
D03*
X521654D02*
D03*
X431102Y909842D02*
D03*
X458661D02*
D03*
X488189D02*
D03*
X666142Y910236D02*
D03*
X636614D02*
D03*
X609055D02*
D03*
X699606Y910630D02*
D03*
X727165D02*
D03*
X756693D02*
D03*
X747244Y758661D02*
D03*
X119291Y874016D02*
D03*
Y869685D02*
D03*
X118898Y864173D02*
D03*
X664173Y723622D02*
D03*
X572835Y746457D02*
D03*
X483858Y768898D02*
D03*
X96457Y676378D02*
D03*
X151969Y675984D02*
D03*
X178740Y626772D02*
D03*
X757874Y250394D02*
D03*
X764961D02*
D03*
X772047D02*
D03*
X778398Y250247D02*
D03*
X182677Y714173D02*
D03*
X181102Y609449D02*
D03*
X194095Y565354D02*
D03*
X129134Y614961D02*
D03*
X129134Y618504D02*
D03*
Y621654D02*
D03*
X170079Y856299D02*
D03*
Y861417D02*
D03*
Y866535D02*
D03*
Y871260D02*
D03*
X85827Y856299D02*
D03*
X195669Y757087D02*
D03*
X238189Y801968D02*
D03*
X296457Y831496D02*
D03*
X524409Y788583D02*
D03*
X614961Y765748D02*
D03*
X706693Y742126D02*
D03*
X742520Y802362D02*
D03*
X696457Y788583D02*
D03*
M02*
