G04*
G04 #@! TF.GenerationSoftware,Altium Limited,Altium Designer,23.1.1 (15)*
G04*
G04 Layer_Color=8388736*
%FSLAX25Y25*%
%MOIN*%
G70*
G04*
G04 #@! TF.SameCoordinates,86994FA9-9CC6-4329-B9FE-72B5C8D5A220*
G04*
G04*
G04 #@! TF.FilePolarity,Negative*
G04*
G01*
G75*
%ADD45R,0.04331X0.02559*%
%ADD46R,0.04134X0.03740*%
%ADD47R,0.03543X0.03543*%
%ADD48R,0.03543X0.03543*%
G04:AMPARAMS|DCode=49|XSize=51.58mil|YSize=75.59mil|CornerRadius=9.83mil|HoleSize=0mil|Usage=FLASHONLY|Rotation=180.000|XOffset=0mil|YOffset=0mil|HoleType=Round|Shape=RoundedRectangle|*
%AMROUNDEDRECTD49*
21,1,0.05158,0.05593,0,0,180.0*
21,1,0.03192,0.07559,0,0,180.0*
1,1,0.01966,-0.01596,0.02797*
1,1,0.01966,0.01596,0.02797*
1,1,0.01966,0.01596,-0.02797*
1,1,0.01966,-0.01596,-0.02797*
%
%ADD49ROUNDEDRECTD49*%
%ADD50R,0.05709X0.06496*%
G04:AMPARAMS|DCode=51|XSize=43.31mil|YSize=102.36mil|CornerRadius=5.91mil|HoleSize=0mil|Usage=FLASHONLY|Rotation=270.000|XOffset=0mil|YOffset=0mil|HoleType=Round|Shape=RoundedRectangle|*
%AMROUNDEDRECTD51*
21,1,0.04331,0.09055,0,0,270.0*
21,1,0.03150,0.10236,0,0,270.0*
1,1,0.01181,-0.04528,-0.01575*
1,1,0.01181,-0.04528,0.01575*
1,1,0.01181,0.04528,0.01575*
1,1,0.01181,0.04528,-0.01575*
%
%ADD51ROUNDEDRECTD51*%
%ADD52R,0.03740X0.04134*%
%ADD53R,0.03937X0.03150*%
%ADD54R,0.03150X0.03937*%
%ADD55R,0.03937X0.01772*%
%ADD56R,0.02047X0.04331*%
%ADD57R,0.01772X0.03937*%
%ADD58R,0.04331X0.02047*%
G04:AMPARAMS|DCode=59|XSize=17.72mil|YSize=70.87mil|CornerRadius=3.48mil|HoleSize=0mil|Usage=FLASHONLY|Rotation=180.000|XOffset=0mil|YOffset=0mil|HoleType=Round|Shape=RoundedRectangle|*
%AMROUNDEDRECTD59*
21,1,0.01772,0.06390,0,0,180.0*
21,1,0.01075,0.07087,0,0,180.0*
1,1,0.00697,-0.00537,0.03195*
1,1,0.00697,0.00537,0.03195*
1,1,0.00697,0.00537,-0.03195*
1,1,0.00697,-0.00537,-0.03195*
%
%ADD59ROUNDEDRECTD59*%
%ADD60R,0.06890X0.05118*%
%ADD61R,0.05118X0.06890*%
%ADD62R,0.06102X0.07087*%
%ADD63R,0.02559X0.04331*%
%ADD64R,0.02559X0.08268*%
%ADD65R,0.02559X0.08268*%
G04:AMPARAMS|DCode=66|XSize=51.58mil|YSize=75.59mil|CornerRadius=9.83mil|HoleSize=0mil|Usage=FLASHONLY|Rotation=270.000|XOffset=0mil|YOffset=0mil|HoleType=Round|Shape=RoundedRectangle|*
%AMROUNDEDRECTD66*
21,1,0.05158,0.05593,0,0,270.0*
21,1,0.03192,0.07559,0,0,270.0*
1,1,0.01966,-0.02797,-0.01596*
1,1,0.01966,-0.02797,0.01596*
1,1,0.01966,0.02797,0.01596*
1,1,0.01966,0.02797,-0.01596*
%
%ADD66ROUNDEDRECTD66*%
%ADD67R,0.05906X0.05906*%
%ADD68C,0.05906*%
%ADD69C,0.09843*%
%ADD70C,0.13189*%
%ADD71C,0.09055*%
%ADD72R,0.09055X0.09055*%
%ADD73C,0.08044*%
%ADD74C,0.13681*%
%ADD75C,0.06394*%
%ADD76R,0.08268X0.08268*%
%ADD77C,0.08268*%
%ADD78O,0.09494X0.05494*%
%ADD79O,0.07894X0.10394*%
%ADD80C,0.20472*%
%ADD81O,0.10236X0.08268*%
%ADD82O,0.07480X0.05906*%
%ADD83O,0.10394X0.07894*%
%ADD84O,0.05494X0.09494*%
D45*
X199508Y878347D02*
D03*
Y870472D02*
D03*
X207579Y874409D02*
D03*
D46*
X120866Y615551D02*
D03*
Y610433D02*
D03*
X88583Y687205D02*
D03*
Y692323D02*
D03*
X125197Y868307D02*
D03*
Y873425D02*
D03*
X335237Y860039D02*
D03*
Y865158D02*
D03*
Y839567D02*
D03*
Y844685D02*
D03*
X277363Y828150D02*
D03*
Y833268D02*
D03*
X277165Y819488D02*
D03*
Y814370D02*
D03*
X228346Y790748D02*
D03*
Y795866D02*
D03*
X233465Y778543D02*
D03*
Y773425D02*
D03*
X85827Y667126D02*
D03*
Y672244D02*
D03*
X704823Y796949D02*
D03*
Y802067D02*
D03*
X728445Y796161D02*
D03*
Y801280D02*
D03*
X486614Y787992D02*
D03*
Y782874D02*
D03*
X510236Y787205D02*
D03*
Y782087D02*
D03*
X599606Y764764D02*
D03*
Y759646D02*
D03*
X668110Y742323D02*
D03*
Y737205D02*
D03*
X691732Y741535D02*
D03*
Y736417D02*
D03*
X575984Y765551D02*
D03*
Y760433D02*
D03*
D47*
X132677Y607087D02*
D03*
X138976D02*
D03*
X112205Y755905D02*
D03*
X118504D02*
D03*
X132677Y873622D02*
D03*
X138976D02*
D03*
X112992Y901575D02*
D03*
X106693D02*
D03*
D48*
X58661Y474803D02*
D03*
Y468504D02*
D03*
Y514567D02*
D03*
Y508268D02*
D03*
X58661Y274803D02*
D03*
Y268504D02*
D03*
Y314485D02*
D03*
Y308186D02*
D03*
X58969Y354963D02*
D03*
Y348663D02*
D03*
X58490Y394862D02*
D03*
Y388563D02*
D03*
X58661Y434673D02*
D03*
Y428373D02*
D03*
X59055Y554331D02*
D03*
Y548032D02*
D03*
X58268Y594095D02*
D03*
Y587795D02*
D03*
D49*
X163976Y871653D02*
D03*
X152559D02*
D03*
X163976Y862992D02*
D03*
X152559D02*
D03*
X163976Y854331D02*
D03*
X152559D02*
D03*
X211614Y675411D02*
D03*
X200197D02*
D03*
X211614Y698425D02*
D03*
X200197D02*
D03*
X211614Y720346D02*
D03*
X200197D02*
D03*
D50*
X153150Y846063D02*
D03*
X161024D02*
D03*
X135827Y620472D02*
D03*
X143701D02*
D03*
X126378Y763779D02*
D03*
X134252D02*
D03*
D51*
X84016Y830315D02*
D03*
Y820315D02*
D03*
Y790315D02*
D03*
Y780315D02*
D03*
X137008D02*
D03*
Y790315D02*
D03*
Y820315D02*
D03*
Y830315D02*
D03*
X145275Y686221D02*
D03*
Y676221D02*
D03*
Y646220D02*
D03*
Y636221D02*
D03*
X104291D02*
D03*
Y646220D02*
D03*
Y676221D02*
D03*
Y686221D02*
D03*
D52*
X118307Y763779D02*
D03*
X113189D02*
D03*
X126575Y901575D02*
D03*
X121457D02*
D03*
X219011Y773622D02*
D03*
X213893D02*
D03*
X323736Y859842D02*
D03*
X318618D02*
D03*
X323736Y844094D02*
D03*
X318618D02*
D03*
X265330Y813780D02*
D03*
X260212D02*
D03*
X265330Y829134D02*
D03*
X260212D02*
D03*
X219011Y791339D02*
D03*
X213893D02*
D03*
X69488Y614961D02*
D03*
X74606D02*
D03*
X84842D02*
D03*
X89961D02*
D03*
X181299Y883071D02*
D03*
X186417D02*
D03*
X178643Y776634D02*
D03*
X183761D02*
D03*
X178643Y771516D02*
D03*
X183761D02*
D03*
X178643Y792776D02*
D03*
X183761D02*
D03*
X178643Y797894D02*
D03*
X183761D02*
D03*
X221024Y831354D02*
D03*
X226142D02*
D03*
X221024Y836472D02*
D03*
X226142D02*
D03*
X283367Y839626D02*
D03*
X288485D02*
D03*
X283367Y844744D02*
D03*
X288485D02*
D03*
X224961Y815606D02*
D03*
X230079D02*
D03*
X224961Y810488D02*
D03*
X230079D02*
D03*
X283367Y866004D02*
D03*
X288485D02*
D03*
X283367Y860886D02*
D03*
X288485D02*
D03*
X258564Y865492D02*
D03*
X253446D02*
D03*
X258564Y878878D02*
D03*
X253446D02*
D03*
D53*
X227165Y608268D02*
D03*
Y613779D02*
D03*
X727382Y852808D02*
D03*
Y858320D02*
D03*
X660630Y803937D02*
D03*
Y798425D02*
D03*
X620078Y804331D02*
D03*
Y798819D02*
D03*
X587795Y858661D02*
D03*
Y853150D02*
D03*
X531398Y825492D02*
D03*
Y819980D02*
D03*
X192520Y877559D02*
D03*
Y872047D02*
D03*
X175197Y882677D02*
D03*
Y877165D02*
D03*
X710728Y802264D02*
D03*
Y796752D02*
D03*
X722539Y801476D02*
D03*
Y795965D02*
D03*
X151575Y705512D02*
D03*
Y700000D02*
D03*
X200887Y806949D02*
D03*
Y801437D02*
D03*
X271654Y827953D02*
D03*
Y833465D02*
D03*
X234056Y790551D02*
D03*
Y796063D02*
D03*
X271260Y820079D02*
D03*
Y814567D02*
D03*
X227559Y778740D02*
D03*
Y773228D02*
D03*
X504331Y781890D02*
D03*
Y787402D02*
D03*
X492520Y782677D02*
D03*
Y788189D02*
D03*
X593701Y759449D02*
D03*
Y764961D02*
D03*
X674016Y737008D02*
D03*
Y742520D02*
D03*
X685827Y736220D02*
D03*
Y741732D02*
D03*
X581890Y760236D02*
D03*
Y765748D02*
D03*
X143307Y840945D02*
D03*
Y835433D02*
D03*
X329528Y839370D02*
D03*
Y844882D02*
D03*
Y859842D02*
D03*
Y865354D02*
D03*
X305611Y875059D02*
D03*
Y869547D02*
D03*
D54*
X714848Y835642D02*
D03*
X720360D02*
D03*
X677735Y791403D02*
D03*
X683246D02*
D03*
X636220Y791339D02*
D03*
X641732D02*
D03*
X548327Y811713D02*
D03*
X553839D02*
D03*
X253150Y884646D02*
D03*
X258661D02*
D03*
X253150Y859842D02*
D03*
X258661D02*
D03*
X213386Y667717D02*
D03*
X218898D02*
D03*
X213779Y690551D02*
D03*
X219291D02*
D03*
X213386Y712992D02*
D03*
X218898D02*
D03*
X213779Y594488D02*
D03*
X219291D02*
D03*
X195769Y761279D02*
D03*
X201280D02*
D03*
X195769Y766004D02*
D03*
X201280D02*
D03*
X137008Y626772D02*
D03*
X142520D02*
D03*
X242913Y840945D02*
D03*
X248425D02*
D03*
X242087Y804976D02*
D03*
X247599D02*
D03*
X242087Y800251D02*
D03*
X247599D02*
D03*
X300493Y834114D02*
D03*
X306005D02*
D03*
X300493Y829390D02*
D03*
X306005D02*
D03*
X127559Y769685D02*
D03*
X133071D02*
D03*
D55*
X716226Y841350D02*
D03*
Y846469D02*
D03*
X723706D02*
D03*
Y843909D02*
D03*
Y841350D02*
D03*
D56*
X732480Y852362D02*
D03*
X735039D02*
D03*
X737598D02*
D03*
X740158D02*
D03*
X732480Y835039D02*
D03*
X740158D02*
D03*
X737598D02*
D03*
X735039D02*
D03*
D57*
X666339Y802559D02*
D03*
X671457D02*
D03*
Y795079D02*
D03*
X668898D02*
D03*
X666339D02*
D03*
X625787Y801772D02*
D03*
X630905D02*
D03*
Y794291D02*
D03*
X628346D02*
D03*
X625787D02*
D03*
X536713Y823720D02*
D03*
X541831D02*
D03*
Y816240D02*
D03*
X539272D02*
D03*
X536713D02*
D03*
D58*
X677350Y786305D02*
D03*
Y783746D02*
D03*
Y781187D02*
D03*
Y778628D02*
D03*
X660028Y786305D02*
D03*
Y778628D02*
D03*
Y781187D02*
D03*
Y783746D02*
D03*
X636012Y786305D02*
D03*
Y783746D02*
D03*
Y781187D02*
D03*
Y778628D02*
D03*
X618689Y786305D02*
D03*
Y778628D02*
D03*
Y781187D02*
D03*
Y783746D02*
D03*
X547539Y806004D02*
D03*
Y803445D02*
D03*
Y800886D02*
D03*
Y798327D02*
D03*
X530217Y806004D02*
D03*
Y798327D02*
D03*
Y800886D02*
D03*
Y803445D02*
D03*
D59*
X593110Y836614D02*
D03*
X595669D02*
D03*
X598228D02*
D03*
X600787D02*
D03*
X603346D02*
D03*
X605905D02*
D03*
X608465D02*
D03*
X593110Y858661D02*
D03*
X595669D02*
D03*
X598228D02*
D03*
X600787D02*
D03*
X603346D02*
D03*
X605905D02*
D03*
X608465D02*
D03*
D60*
X382283Y816535D02*
D03*
Y805512D02*
D03*
X412205Y768110D02*
D03*
Y779134D02*
D03*
X422047Y756693D02*
D03*
Y767717D02*
D03*
X412205Y744882D02*
D03*
Y755905D02*
D03*
X422441Y790945D02*
D03*
Y779921D02*
D03*
X412205Y802362D02*
D03*
Y791339D02*
D03*
X422047Y813780D02*
D03*
Y802756D02*
D03*
X372441Y770472D02*
D03*
Y781496D02*
D03*
X382677Y759055D02*
D03*
Y770079D02*
D03*
X372835Y746457D02*
D03*
Y757480D02*
D03*
X382283Y792913D02*
D03*
Y781890D02*
D03*
X372441Y804724D02*
D03*
Y793701D02*
D03*
X160236Y699213D02*
D03*
Y710236D02*
D03*
X152362Y880709D02*
D03*
Y891732D02*
D03*
D61*
X318110Y787008D02*
D03*
X307087D02*
D03*
X330315Y797244D02*
D03*
X319291D02*
D03*
X342913Y787008D02*
D03*
X331890D02*
D03*
X294488Y796850D02*
D03*
X305512D02*
D03*
X282283Y787008D02*
D03*
X293307D02*
D03*
X270472Y796850D02*
D03*
X281496D02*
D03*
X292520Y747244D02*
D03*
X281496D02*
D03*
X304331Y757087D02*
D03*
X293307D02*
D03*
X316142Y746850D02*
D03*
X305118D02*
D03*
X269685Y757087D02*
D03*
X280709D02*
D03*
X257480Y747244D02*
D03*
X268504D02*
D03*
X246063Y757480D02*
D03*
X257087D02*
D03*
D62*
X74921Y623228D02*
D03*
X84921D02*
D03*
X74921Y660236D02*
D03*
X84921D02*
D03*
D63*
X74410Y669193D02*
D03*
X70472Y677264D02*
D03*
X78347D02*
D03*
D64*
X237363Y813244D02*
D03*
X242363D02*
D03*
X247363D02*
D03*
X252363D02*
D03*
X191044Y774272D02*
D03*
X196044D02*
D03*
X201044D02*
D03*
X206044D02*
D03*
X295769Y842382D02*
D03*
X300769D02*
D03*
X305769D02*
D03*
X310769D02*
D03*
D65*
X237363Y832535D02*
D03*
X242363D02*
D03*
X247363D02*
D03*
X252363D02*
D03*
X191044Y793563D02*
D03*
X196044D02*
D03*
X201044D02*
D03*
X206044D02*
D03*
X295769Y861673D02*
D03*
X300769D02*
D03*
X305769D02*
D03*
X310769D02*
D03*
D66*
X120236Y698976D02*
D03*
Y710394D02*
D03*
X128504Y698976D02*
D03*
Y710394D02*
D03*
X136772Y698976D02*
D03*
Y710394D02*
D03*
X145039Y698976D02*
D03*
Y710394D02*
D03*
D67*
X20079Y655134D02*
D03*
Y717134D02*
D03*
D68*
X27079Y659134D02*
D03*
X20079Y663134D02*
D03*
X27079Y667134D02*
D03*
X20079Y671134D02*
D03*
X27079Y675134D02*
D03*
X20079Y679134D02*
D03*
X27079Y683134D02*
D03*
Y745134D02*
D03*
X20079Y741134D02*
D03*
X27079Y737134D02*
D03*
X20079Y733134D02*
D03*
X27079Y729134D02*
D03*
X20079Y725134D02*
D03*
X27079Y721134D02*
D03*
D69*
X23579Y637134D02*
D03*
Y763134D02*
D03*
D70*
X10079Y644134D02*
D03*
Y756134D02*
D03*
D71*
X221654Y21260D02*
D03*
Y227953D02*
D03*
X301575D02*
D03*
X642913Y21260D02*
D03*
Y227953D02*
D03*
X722835D02*
D03*
X240551Y456693D02*
D03*
Y250000D02*
D03*
X160630D02*
D03*
X381102Y456693D02*
D03*
Y250000D02*
D03*
X301181D02*
D03*
X522047Y456693D02*
D03*
Y250000D02*
D03*
X442126D02*
D03*
X723622D02*
D03*
X803543D02*
D03*
Y456693D02*
D03*
X160630Y227953D02*
D03*
X80709D02*
D03*
Y21260D02*
D03*
X442126Y227953D02*
D03*
X362205D02*
D03*
Y21260D02*
D03*
X582283Y227953D02*
D03*
X502362D02*
D03*
Y21260D02*
D03*
X583071Y250000D02*
D03*
X662992D02*
D03*
Y456693D02*
D03*
X30000Y30000D02*
D03*
X160630Y508465D02*
D03*
X455905Y797835D02*
D03*
Y508465D02*
D03*
X160630Y817520D02*
D03*
X30000Y889291D02*
D03*
X836142Y30000D02*
D03*
Y889291D02*
D03*
D72*
X301575Y21260D02*
D03*
X722835D02*
D03*
X160630Y456693D02*
D03*
X301181D02*
D03*
X442126D02*
D03*
X723622D02*
D03*
X160630Y21260D02*
D03*
X442126D02*
D03*
X582283D02*
D03*
X583071Y456693D02*
D03*
D73*
X28025Y830394D02*
D03*
X68025D02*
D03*
Y870394D02*
D03*
X28025D02*
D03*
Y821181D02*
D03*
X68025D02*
D03*
Y781181D02*
D03*
X28025D02*
D03*
X836148Y651260D02*
D03*
X796148D02*
D03*
Y691260D02*
D03*
X836148D02*
D03*
Y572520D02*
D03*
X796148D02*
D03*
Y612520D02*
D03*
X836148D02*
D03*
Y828425D02*
D03*
X796148D02*
D03*
Y868425D02*
D03*
X836148D02*
D03*
Y66614D02*
D03*
X796148D02*
D03*
Y106614D02*
D03*
X836148D02*
D03*
Y493780D02*
D03*
X796148D02*
D03*
Y533779D02*
D03*
X836148D02*
D03*
D74*
X53065Y850394D02*
D03*
Y801181D02*
D03*
X811108Y671260D02*
D03*
Y592520D02*
D03*
Y848425D02*
D03*
Y86614D02*
D03*
Y513779D02*
D03*
D75*
X41417Y286929D02*
D03*
Y296929D02*
D03*
Y266929D02*
D03*
Y276929D02*
D03*
X11417Y296929D02*
D03*
Y266929D02*
D03*
X41417Y326929D02*
D03*
Y336929D02*
D03*
Y306929D02*
D03*
Y316929D02*
D03*
X11417Y336929D02*
D03*
Y306929D02*
D03*
X41339Y366929D02*
D03*
Y376929D02*
D03*
Y346929D02*
D03*
Y356929D02*
D03*
X11339Y376929D02*
D03*
Y346929D02*
D03*
X41339Y406929D02*
D03*
Y416929D02*
D03*
Y386929D02*
D03*
Y396929D02*
D03*
X11339Y416929D02*
D03*
Y386929D02*
D03*
X41339Y446929D02*
D03*
Y456929D02*
D03*
Y426929D02*
D03*
Y436929D02*
D03*
X11339Y456929D02*
D03*
Y426929D02*
D03*
X41339Y486929D02*
D03*
Y496929D02*
D03*
Y466929D02*
D03*
Y476929D02*
D03*
X11339Y496929D02*
D03*
Y466929D02*
D03*
X41339Y526929D02*
D03*
Y536929D02*
D03*
Y506929D02*
D03*
Y516929D02*
D03*
X11339Y536929D02*
D03*
Y506929D02*
D03*
X41339Y566929D02*
D03*
Y576929D02*
D03*
Y546929D02*
D03*
Y556929D02*
D03*
X11339Y576929D02*
D03*
Y546929D02*
D03*
X41339Y606929D02*
D03*
Y616929D02*
D03*
Y586929D02*
D03*
Y596929D02*
D03*
X11339Y616929D02*
D03*
Y586929D02*
D03*
D76*
X353937Y605118D02*
D03*
X399213D02*
D03*
D77*
X353937Y713386D02*
D03*
X399213D02*
D03*
D78*
X762402Y786417D02*
D03*
Y770669D02*
D03*
Y794291D02*
D03*
Y778543D02*
D03*
D79*
X812402Y757480D02*
D03*
X792402Y807480D02*
D03*
X802402D02*
D03*
Y757480D02*
D03*
X792402D02*
D03*
X812402Y807480D02*
D03*
D80*
X278740Y719075D02*
D03*
Y587185D02*
D03*
D81*
X326043Y717323D02*
D03*
Y692803D02*
D03*
Y666516D02*
D03*
Y640224D02*
D03*
Y613937D02*
D03*
Y601339D02*
D03*
Y588740D02*
D03*
D82*
X218504Y586969D02*
D03*
X206705Y594842D02*
D03*
X218504Y601142D02*
D03*
X206705Y607441D02*
D03*
X218504Y613740D02*
D03*
X206705Y620039D02*
D03*
X218504Y626339D02*
D03*
X206705Y632638D02*
D03*
X218504Y638937D02*
D03*
X206705Y645236D02*
D03*
X218504Y651535D02*
D03*
X206705Y667823D02*
D03*
X218504Y674122D02*
D03*
X206705Y690406D02*
D03*
X218504Y696705D02*
D03*
X206705Y712992D02*
D03*
X218504Y719291D02*
D03*
D83*
X540551Y698228D02*
D03*
X490551Y718228D02*
D03*
Y708228D02*
D03*
X540551D02*
D03*
Y718228D02*
D03*
X490551Y698228D02*
D03*
X722047Y652559D02*
D03*
X672047Y672559D02*
D03*
Y662559D02*
D03*
X722047D02*
D03*
Y672559D02*
D03*
X672047Y652559D02*
D03*
X629921Y675787D02*
D03*
X579921Y695787D02*
D03*
Y685787D02*
D03*
X629921D02*
D03*
Y695787D02*
D03*
X579921Y675787D02*
D03*
D84*
X511614Y748228D02*
D03*
X527362D02*
D03*
X503740D02*
D03*
X519488D02*
D03*
X693110Y702559D02*
D03*
X708858D02*
D03*
X685236D02*
D03*
X700984D02*
D03*
X600984Y725787D02*
D03*
X616732D02*
D03*
X593110D02*
D03*
X608858D02*
D03*
M02*
