G04*
G04 #@! TF.GenerationSoftware,Altium Limited,Altium Designer,23.2.1 (34)*
G04*
G04 Layer_Color=16711935*
%FSLAX25Y25*%
%MOIN*%
G70*
G04*
G04 #@! TF.SameCoordinates,84C1A72A-652B-4581-ABC9-A9B4A486AA7A*
G04*
G04*
G04 #@! TF.FilePolarity,Negative*
G04*
G01*
G75*
G04:AMPARAMS|DCode=12|XSize=47.37mil|YSize=106.42mil|CornerRadius=7.94mil|HoleSize=0mil|Usage=FLASHONLY|Rotation=180.000|XOffset=0mil|YOffset=0mil|HoleType=Round|Shape=RoundedRectangle|*
%AMROUNDEDRECTD12*
21,1,0.04737,0.09055,0,0,180.0*
21,1,0.03150,0.10642,0,0,180.0*
1,1,0.01587,-0.01575,0.04528*
1,1,0.01587,0.01575,0.04528*
1,1,0.01587,0.01575,-0.04528*
1,1,0.01587,-0.01575,-0.04528*
%
%ADD12ROUNDEDRECTD12*%
%ADD13C,0.06312*%
G36*
X111704Y124407D02*
X112144Y124225D01*
X112539Y123961D01*
X112707Y123793D01*
X112707D01*
X113500Y123000D01*
X113857Y122643D01*
X114417Y121804D01*
X114803Y120872D01*
X115000Y119883D01*
Y113900D01*
X114924Y113717D01*
X114783Y113576D01*
X114600Y113500D01*
X110400D01*
X110217Y113576D01*
X110076Y113717D01*
X110000Y113900D01*
Y115379D01*
X109975Y115881D01*
X109780Y116865D01*
X109395Y117793D01*
X108837Y118628D01*
X108500Y119000D01*
X108262Y119238D01*
X107889Y119797D01*
X107631Y120418D01*
X107500Y121078D01*
Y122119D01*
X107546Y122352D01*
X107637Y122572D01*
X107770Y122769D01*
X107853Y122854D01*
X107854Y122854D01*
X107853Y122854D01*
X109119Y124119D01*
X109398Y124306D01*
X109709Y124434D01*
X110039Y124500D01*
X111238D01*
X111704Y124407D01*
D02*
G37*
G36*
X122082Y124369D02*
X122703Y124111D01*
X123262Y123738D01*
X123857Y123143D01*
X124417Y122304D01*
X124803Y121372D01*
X125000Y120383D01*
Y113900D01*
X124924Y113717D01*
X124783Y113576D01*
X124600Y113500D01*
X120401D01*
X120217Y113576D01*
X120076Y113717D01*
X120000Y113900D01*
Y117500D01*
X119994Y117618D01*
X119948Y117850D01*
X119858Y118069D01*
X119726Y118266D01*
X119646Y118353D01*
X118381Y119619D01*
X118194Y119898D01*
X118066Y120209D01*
X118000Y120539D01*
Y122461D01*
X118066Y122791D01*
X118194Y123101D01*
X118381Y123381D01*
X118793Y123793D01*
X118793Y123793D01*
X118793Y123793D01*
X118961Y123961D01*
X119356Y124225D01*
X119796Y124407D01*
X120262Y124500D01*
X121422D01*
X122082Y124369D01*
D02*
G37*
G36*
X114500Y154071D02*
X114790Y153695D01*
X114806Y153672D01*
X114934Y153361D01*
X115000Y153032D01*
Y148739D01*
X114675Y147106D01*
X114038Y145568D01*
X113114Y144184D01*
X112020Y143090D01*
X111638Y142836D01*
X111215Y142660D01*
X110765Y142571D01*
X110289D01*
X109806Y142667D01*
X109351Y142855D01*
X108942Y143129D01*
X108768Y143303D01*
X108768D01*
X108459Y143675D01*
X108298Y143915D01*
X108101Y144392D01*
X108000Y144898D01*
Y145493D01*
X108131Y146152D01*
X108389Y146774D01*
X108762Y147333D01*
X109000Y147571D01*
X109225Y147819D01*
X109597Y148375D01*
X109853Y148994D01*
X109984Y149650D01*
X110000Y149985D01*
Y153032D01*
X110066Y153361D01*
X110194Y153672D01*
X110381Y153952D01*
X110500Y154071D01*
X114013Y154071D01*
X114500Y154071D01*
D02*
G37*
G36*
X124000Y153571D02*
X124238Y153333D01*
X124611Y152774D01*
X124869Y152152D01*
X125000Y151493D01*
Y148423D01*
X124653Y146678D01*
X123972Y145033D01*
X122983Y143553D01*
X122269Y142840D01*
X122072Y142708D01*
X121852Y142617D01*
X121619Y142571D01*
X121262D01*
X120796Y142664D01*
X120356Y142845D01*
X119961Y143110D01*
X119793Y143278D01*
X118914Y144157D01*
X118914D01*
X118816Y144255D01*
X118661Y144487D01*
X118554Y144744D01*
X118500Y145017D01*
Y145493D01*
X118631Y146152D01*
X118889Y146774D01*
X119262Y147333D01*
X119500Y147571D01*
X119613Y147695D01*
X119798Y147973D01*
X119927Y148282D01*
X119992Y148610D01*
X120000Y148778D01*
Y152532D01*
X120066Y152861D01*
X120194Y153172D01*
X120381Y153452D01*
X120500Y153571D01*
X124000Y153571D01*
X124000Y153571D01*
D02*
G37*
G36*
X154852Y124454D02*
X154962Y124408D01*
X155353Y124146D01*
Y124146D01*
X155354Y124146D01*
X157000Y122500D01*
Y120539D01*
X156934Y120209D01*
X156806Y119898D01*
X156793Y119879D01*
X156500Y119500D01*
X156500D01*
X156500Y119500D01*
X155707Y118707D01*
X155548Y118532D01*
X155285Y118138D01*
X155104Y117701D01*
X155012Y117237D01*
X155000Y117000D01*
Y115539D01*
X154934Y115209D01*
X154806Y114899D01*
X154793Y114879D01*
X154500Y114500D01*
X150881D01*
X150648Y114546D01*
X150538Y114592D01*
X150146Y114854D01*
X150000Y115318D01*
Y119844D01*
X150262Y121163D01*
X150777Y122406D01*
X151524Y123524D01*
X152119Y124119D01*
X152399Y124306D01*
X152709Y124434D01*
X153039Y124500D01*
X154619D01*
X154852Y124454D01*
D02*
G37*
G36*
X165352D02*
X165462Y124408D01*
X165854Y124146D01*
Y124146D01*
X165854Y124146D01*
X167119Y122881D01*
X167306Y122601D01*
X167434Y122291D01*
X167500Y121961D01*
Y120539D01*
X167434Y120209D01*
X167306Y119898D01*
X167293Y119879D01*
X167000Y119500D01*
X167000D01*
X167000Y119500D01*
X165354Y117853D01*
X165274Y117766D01*
X165143Y117569D01*
X165052Y117350D01*
X165006Y117118D01*
X165000Y117000D01*
Y115039D01*
X164934Y114709D01*
X164806Y114399D01*
X164793Y114379D01*
X164500Y114000D01*
X161000D01*
X160707Y114293D01*
X160539Y114461D01*
X160275Y114856D01*
X160093Y115296D01*
X160000Y115762D01*
Y118805D01*
X160328Y120454D01*
X160971Y122008D01*
X161906Y123406D01*
X162500Y124000D01*
X162619Y124119D01*
X162899Y124306D01*
X163209Y124434D01*
X163539Y124500D01*
X165119D01*
X165352Y124454D01*
D02*
G37*
G36*
X154011Y152132D02*
X154500Y152071D01*
X154792Y151692D01*
X154806Y151672D01*
X154934Y151362D01*
X155000Y151032D01*
Y148778D01*
X155000Y148778D01*
X155000D01*
X155008Y148610D01*
X155073Y148282D01*
X155202Y147973D01*
X155387Y147695D01*
X155500Y147571D01*
X155738Y147333D01*
X156111Y146774D01*
X156369Y146152D01*
X156500Y145493D01*
Y144860D01*
X156404Y144377D01*
X156216Y143922D01*
X155942Y143513D01*
X155768Y143339D01*
X155585Y143156D01*
X155156Y142869D01*
X154679Y142671D01*
X154172Y142571D01*
X153578D01*
X152918Y142702D01*
X152297Y142959D01*
X151738Y143333D01*
X151143Y143927D01*
X150583Y144766D01*
X150197Y145698D01*
X150000Y146688D01*
Y151532D01*
X150066Y151862D01*
X150194Y152172D01*
X150381Y152452D01*
X150500Y152571D01*
X154011Y152132D01*
D02*
G37*
G36*
X164014Y153140D02*
X164500Y153071D01*
X164793Y152692D01*
X164806Y152672D01*
X164934Y152362D01*
X165000Y152032D01*
Y150571D01*
X165000Y150571D01*
X165000D01*
X165012Y150334D01*
X165104Y149870D01*
X165285Y149433D01*
X165548Y149039D01*
X165707Y148864D01*
X166500Y148071D01*
X166500Y148071D01*
X166738Y147833D01*
X167111Y147274D01*
X167369Y146652D01*
X167500Y145993D01*
Y144860D01*
X167404Y144377D01*
X167216Y143922D01*
X166942Y143513D01*
X166768Y143339D01*
X166585Y143156D01*
X166156Y142869D01*
X165679Y142671D01*
X165172Y142571D01*
X164578D01*
X163918Y142702D01*
X163297Y142959D01*
X162738Y143333D01*
X161906Y144165D01*
X160971Y145563D01*
X160328Y147116D01*
X160000Y148766D01*
Y151809D01*
X160093Y152275D01*
X160275Y152714D01*
X160539Y153110D01*
X161000Y153571D01*
X164014Y153140D01*
D02*
G37*
D12*
X162500Y113016D02*
D03*
X152500D02*
D03*
X122500D02*
D03*
X112500D02*
D03*
Y154000D02*
D03*
X122500D02*
D03*
X152500D02*
D03*
X162500D02*
D03*
D13*
X121000Y121685D02*
D03*
X154000D02*
D03*
X164517Y121661D02*
D03*
X165143Y145033D02*
D03*
X154000Y144894D02*
D03*
X121000D02*
D03*
X110484Y144917D02*
D03*
X110483Y121661D02*
D03*
M02*
